<?xml version="1.0" encoding="UTF-8"?>
<svg version="1.1" xmlns="http://www.w3.org/2000/svg" width="1248" height="832">
<path d="M0 0 C18.61245864 -0.73109494 36.75840205 6.31292202 50.76171875 18.15625 C51.89143036 19.0530519 53.02301171 19.94750247 54.15625 20.83984375 C62.76096319 27.75174831 69.53078913 35.55296058 76.26855469 44.25927734 C78.47827674 47.06659264 80.80935705 49.75818221 83.13671875 52.46875 C95.22965049 67.01162739 100.19883483 82.709446 105.07275391 100.64794922 C105.67963023 102.85739193 106.31438542 105.05584816 106.9609375 107.25390625 C114.38438897 133.93969648 118.65277117 178.37414515 105.76171875 204.15625 C106.44234375 204.1975 107.12296875 204.23875 107.82421875 204.28125 C110.81012561 205.17066907 111.7337093 205.85874126 113.94921875 207.90625 C121.40486312 214.64411494 130.31141719 217.12367961 139.94921875 219.15625 C141.0885083 219.40914795 142.22779785 219.6620459 143.40161133 219.92260742 C148.75208653 221.10429607 154.11248667 222.23291802 159.48046875 223.33203125 C170.89011847 225.68970738 182.07624232 228.53757152 193.26171875 231.78125 C193.93488129 231.97538483 194.60804382 232.16951965 195.30160522 232.36953735 C201.98109721 234.30420278 208.41391379 236.32725267 214.76171875 239.15625 C216.30200901 239.6861836 217.84819099 240.19915929 219.3984375 240.69921875 C244.37806116 248.7833904 244.37806116 248.7833904 249.76171875 258.15625 C249.80889447 259.82224887 249.81404985 261.4904051 249.76171875 263.15625 C250.62410156 263.07584473 251.48648437 262.99543945 252.375 262.91259766 C280.09399061 260.34778609 307.77650328 258.29058704 335.61230469 257.55249023 C343.5112304 257.32380538 351.33251413 256.82706524 359.19921875 256.09375 C407.21162613 251.73434606 407.21162613 251.73434606 427.76171875 258.15625 C429.95527925 266.77380909 426.9505266 273.50804495 423.82177734 281.44726562 C422.663534 284.40716156 421.5501416 287.3820495 420.4375 290.359375 C415.27911663 303.98807519 409.52933759 317.16409206 403.23339844 330.29568481 C396.99650824 343.32443265 391.67901724 356.56790918 386.76171875 370.15625 C408.18333178 370.80207785 429.48947693 369.82418266 450.86450195 368.4750824 C452.91096415 368.34615995 454.95754309 368.21924707 457.00415039 368.09265137 C494.57596516 365.79932199 494.57596516 365.79932199 531.82421875 360.59375 C540.86911072 359.05119691 549.8706164 357.66507371 559.01171875 356.84375 C559.84968994 356.76761475 560.68766113 356.69147949 561.55102539 356.61303711 C577.31119209 355.33940778 577.31119209 355.33940778 582.76171875 357.15625 C583.88671875 363.78125 583.88671875 363.78125 582.76171875 367.15625 C573.88483398 368.90137807 565.09503273 370.30161243 556.07421875 371.03125 C547.5101228 371.73657527 539.15498103 373.08134173 530.69921875 374.59375 C513.46399737 377.57851792 496.20113608 379.00322517 478.76171875 380.15625 C477.54599182 380.23766235 476.33026489 380.31907471 475.07769775 380.4029541 C465.75042973 381.02607789 456.421771 381.62377756 447.09182358 382.20533371 C444.9290465 382.34109305 442.76646542 382.47964926 440.60391235 382.618927 C420.96076748 383.87728991 401.44781014 384.4103641 381.76171875 384.15625 C381.58213623 384.80126465 381.40255371 385.4462793 381.2175293 386.11083984 C379.73357617 391.27187463 378.07404898 396.00379666 375.57421875 400.78125 C374.77951172 402.31652344 374.77951172 402.31652344 373.96875 403.8828125 C373.37126953 405.00816406 373.37126953 405.00816406 372.76171875 406.15625 C372.17101089 406.15180878 371.58030304 406.14736755 370.97169495 406.14279175 C327.45779122 405.82146303 327.45779122 405.82146303 284.04135132 408.41018677 C275.81072293 409.12958908 267.63914906 409.27801571 259.38573074 409.23141479 C257.04281967 409.2183573 254.69996697 409.21206113 252.35702515 409.20727539 C246.53359955 409.19407724 240.71022949 409.17004454 234.88684082 409.14587402 C229.97202812 409.12585884 225.05723085 409.10944102 220.14238739 409.09921265 C218.54231239 409.09557693 216.94223945 409.09088077 215.34217072 409.08511353 C205.72582198 409.05380412 196.19821221 409.29063091 186.59765625 409.90625 C178.72974845 410.36666978 172.8839998 409.8304426 165.76171875 406.15625 C163.76562912 405.31893275 161.76260659 404.49800213 159.75390625 403.69140625 C156.67450498 402.44742277 153.60030314 401.20316633 150.546875 399.89648438 C149.54269531 399.49880859 148.53851562 399.10113281 147.50390625 398.69140625 C146.61558105 398.324104 145.72725586 397.95680176 144.81201172 397.57836914 C141.02306368 397.05403017 138.86856946 398.03263966 135.34234619 399.34495544 C130.40789837 400.89624122 125.26339718 401.13250668 120.1328125 401.59375 C117.62323968 401.84076626 115.11396994 402.09087723 112.60498047 402.34375 C110.66446808 402.53904297 110.66446808 402.53904297 108.68475342 402.73828125 C102.31228973 403.41721756 95.96216517 404.25279345 89.609375 405.09375 C87.01542845 405.43371296 84.42143366 405.77330793 81.82739258 406.11254883 C79.8669249 406.36894638 79.8669249 406.36894638 77.86685181 406.63052368 C52.86602803 409.88806696 27.96676016 412.32423667 2.78489685 413.71754456 C-4.54683599 414.13857803 -11.81683429 414.88095445 -19.11328125 415.71875 C-30.51472547 417.00489613 -41.9086832 417.75326876 -53.36328125 418.34375 C-54.16763611 418.38654083 -54.97199097 418.42933167 -55.80072021 418.47341919 C-67.62628103 419.09232733 -79.39597181 419.22852701 -91.23828125 419.15625 C-91.23828125 424.76625 -91.23828125 430.37625 -91.23828125 436.15625 C-90.57828125 436.15625 -89.91828125 436.15625 -89.23828125 436.15625 C-88.29152801 440.98469153 -88.02893488 443.75699432 -90.23828125 448.15625 C-100.56648254 462.21863342 -111.86429413 472.09679934 -129.33984375 475.81640625 C-141.99869353 477.53654019 -153.14554636 471.54776962 -164.23828125 466.15625 C-165.1715625 465.75535156 -166.10484375 465.35445312 -167.06640625 464.94140625 C-167.9275 464.55855469 -168.78859375 464.17570312 -169.67578125 463.78125 C-170.41699219 463.46414063 -171.15820312 463.14703125 -171.921875 462.8203125 C-179.21965222 457.57772718 -182.28038312 449.10049992 -185.48828125 441.03125 C-185.92140625 439.97292969 -186.35453125 438.91460938 -186.80078125 437.82421875 C-188.7718403 432.97565683 -190.61652921 428.13420414 -192.23828125 423.15625 C-193.43988892 423.29256836 -193.43988892 423.29256836 -194.66577148 423.43164062 C-198.33521696 423.84497985 -202.00547032 424.25067059 -205.67578125 424.65625 C-206.93583984 424.79933594 -208.19589844 424.94242188 -209.49414062 425.08984375 C-226.75800436 426.98300896 -226.75800436 426.98300896 -232.23828125 425.15625 C-233.36328125 418.53125 -233.36328125 418.53125 -232.23828125 415.15625 C-224.29967674 411.96414778 -215.43649987 411.51234848 -206.98828125 410.96875 C-205.85003906 410.88689453 -204.71179688 410.80503906 -203.5390625 410.72070312 C-200.77264994 410.52310223 -198.00595887 410.33508949 -195.23828125 410.15625 C-195.42003906 409.01800781 -195.60179687 407.87976563 -195.7890625 406.70703125 C-197.88919086 392.6132121 -198.97178408 378.4901909 -199.92578125 364.28125 C-199.99221832 363.3182901 -200.0586554 362.3553302 -200.12710571 361.3631897 C-203.75760062 308.23722961 -203.75760062 308.23722961 -187.23828125 288.15625 C-185.6171875 286.34375 -185.6171875 286.34375 -184.23828125 285.15625 C-183.57828125 285.15625 -182.91828125 285.15625 -182.23828125 285.15625 C-181.90828125 284.16625 -181.57828125 283.17625 -181.23828125 282.15625 C-179.72601058 280.8260391 -178.15159101 279.56597409 -176.55078125 278.34375 C-170.93176882 273.89995586 -165.98571514 269.0007582 -161.09887695 263.76635742 C-155.91230175 258.36631834 -155.91230175 258.36631834 -151.23828125 258.15625 C-151.12000977 257.13402344 -151.00173828 256.11179687 -150.87988281 255.05859375 C-149.84514098 248.76509549 -147.3592571 243.04934555 -144.98828125 237.15625 C-144.7226236 236.49318848 -144.45696594 235.83012695 -144.18325806 235.14697266 C-135.29070237 213.11150205 -123.11104038 191.61628526 -107.8671875 173.30859375 C-106.13086623 171.01431792 -105.71511575 169.64018568 -105.23828125 166.84375 C-102.41846026 156.39474665 -93.22792676 147.09525539 -86.08984375 139.21875 C-83.51677655 136.35254856 -81.03664478 133.4106076 -78.55078125 130.46875 C-77.85456665 129.6475769 -77.85456665 129.6475769 -77.14428711 128.80981445 C-74.45710509 125.63176546 -71.82260862 122.41843373 -69.23828125 119.15625 C-70.37265625 118.888125 -71.50703125 118.62 -72.67578125 118.34375 C-73.85140625 117.951875 -75.02703125 117.56 -76.23828125 117.15625 C-78.03356918 111.77038622 -77.46417715 105.92406214 -77.47851562 100.2824707 C-77.48805692 98.02189942 -77.51900476 95.76230449 -77.55078125 93.50195312 C-77.64703236 80.3824768 -75.73771598 67.96803194 -71.86328125 55.40625 C-71.64905518 54.70363037 -71.4348291 54.00101074 -71.21411133 53.27709961 C-64.98830649 33.3057747 -54.33270936 20.68767178 -36.23828125 10.15625 C-35.05298828 9.46015625 -35.05298828 9.46015625 -33.84375 8.75 C-23.39843532 3.06830313 -11.74394079 0.81982135 0 0 Z M-48.61328125 37.59375 C-64.31804469 56.33093727 -65.6419361 83.8933106 -65.23828125 107.15625 C-64.24828125 107.15625 -63.25828125 107.15625 -62.23828125 107.15625 C-61.90828125 108.14625 -61.57828125 109.13625 -61.23828125 110.15625 C-60.66980469 109.55296875 -60.10132813 108.9496875 -59.515625 108.328125 C-49.04091109 97.48618406 -49.04091109 97.48618406 -42.58203125 96.92578125 C-40.11807027 96.90847815 -37.69514994 96.97828768 -35.23828125 97.15625 C-32.18701423 108.24500088 -36.10224184 117.51662026 -41.47265625 127.26171875 C-42.63585664 129.29405202 -43.80781755 131.32139515 -44.98828125 133.34375 C-45.59027344 134.39111328 -46.19226563 135.43847656 -46.8125 136.51757812 C-48.2800814 139.06837437 -49.75537023 141.6143457 -51.23828125 144.15625 C-43.40383345 144.15625 -34.49383355 133.23466312 -28.7265625 128.1796875 C-28.12763184 127.66075928 -27.52870117 127.14183105 -26.91162109 126.60717773 C-25.44921834 125.33915037 -23.9971487 124.05922573 -22.546875 122.77734375 C-18.92952602 120.23724252 -16.55585256 120.79645239 -12.23828125 121.15625 C-10.51827496 122.87625629 -10.98424154 125.05553101 -10.92578125 127.40625 C-11.12183993 143.93399708 -20.1178234 155.70442352 -29.90625 168.11328125 C-32.16464295 171.0601625 -34.21593005 174.04601333 -36.23828125 177.15625 C-34.25828125 177.81625 -32.27828125 178.47625 -30.23828125 179.15625 C-30.17511719 179.7853125 -30.11195313 180.414375 -30.046875 181.0625 C-29.00805626 188.32329622 -26.4364888 192.12471844 -21.23828125 197.15625 C-20.45582031 197.94773437 -19.67335938 198.73921875 -18.8671875 199.5546875 C-17.07344716 201.32977081 -15.24170233 203.06705778 -13.37890625 204.76953125 C-4.61738025 212.95090215 -4.61738025 212.95090215 -4.11328125 217.53125 C-4.15453125 218.7275 -4.19578125 219.92375 -4.23828125 221.15625 C-3.80283094 227.1074042 -0.08749775 230.693336 4.23828125 234.43261719 C16.91807954 244.98659621 33.98053532 259.1291 51.41015625 258.5234375 C62.5338063 256.78652204 73.76227351 250.56398968 80.703125 241.66796875 C82.23334609 239.20197337 83.53587395 236.78733151 84.76171875 234.15625 C85.07834473 233.49262451 85.3949707 232.82899902 85.72119141 232.14526367 C88.10596514 227.00750359 89.8529401 221.9808427 91.13671875 216.46875 C91.3380542 215.61079834 91.53938965 214.75284668 91.74682617 213.86889648 C93.9001087 204.22117822 95.49125178 194.47276207 97.07421875 184.71875 C97.20922791 183.90604645 97.34423706 183.0933429 97.4833374 182.25601196 C99.15448402 172.11652093 100.1656783 162.4598281 99.76171875 152.15625 C99.11235352 152.54039062 98.46298828 152.92453125 97.79394531 153.3203125 C88.22095752 158.7746429 76.99497352 158.47899798 66.38671875 156.5390625 C62.78940241 155.52470295 60.4251419 154.81967315 57.76171875 152.15625 C57.03889238 147.40744883 57.03309326 143.37929993 59.51171875 139.21875 C61.51659524 137.38094655 63.589545 135.78538031 65.76171875 134.15625 C65.76171875 133.49625 65.76171875 132.83625 65.76171875 132.15625 C67.51157229 131.67654877 69.26160766 131.19751076 71.01171875 130.71875 C71.98625 130.45191406 72.96078125 130.18507813 73.96484375 129.91015625 C74.8878125 129.66136719 75.81078125 129.41257812 76.76171875 129.15625 C77.39464844 128.97771484 78.02757812 128.79917969 78.6796875 128.61523438 C80.81652568 128.1441678 82.68626852 128.04204204 84.87109375 128.05859375 C85.62519531 128.06181641 86.37929688 128.06503906 87.15625 128.06835938 C87.93355469 128.07673828 88.71085938 128.08511719 89.51171875 128.09375 C90.30449219 128.09826172 91.09726562 128.10277344 91.9140625 128.10742188 C93.86331383 128.11916435 95.81252613 128.13709854 97.76171875 128.15625 C96.74234329 116.1525839 93.25524189 105.11812015 89.57519531 93.70800781 C88.90761735 91.6139127 88.2784385 89.50761311 87.66015625 87.3984375 C83.34320077 73.0210988 73.22549811 62.1150045 63.421875 51.10546875 C61.70014659 49.08395704 60.14585207 46.98344356 58.57421875 44.84375 C47.58019915 30.61763555 30.61183601 17.39915177 12.828125 13.515625 C-11.83784722 10.6248359 -31.72991283 19.73573647 -48.61328125 37.59375 Z M-58.23828125 127.15625 C-57.23828125 129.15625 -57.23828125 129.15625 -57.23828125 129.15625 Z M-59.23828125 129.15625 C-65.48709196 135.96641959 -71.44741469 142.95373092 -77.23828125 150.15625 C-78.29402344 151.46142578 -78.29402344 151.46142578 -79.37109375 152.79296875 C-80.71562443 154.46212946 -82.0506878 156.13897176 -83.375 157.82421875 C-84.5678243 159.31712463 -85.79723514 160.78194465 -87.0703125 162.20703125 C-91.06576039 166.87618464 -91.83763174 170.10937563 -91.44921875 176.25 C-91.37960937 176.8790625 -91.31 177.508125 -91.23828125 178.15625 C-91.83954834 178.41857422 -92.44081543 178.68089844 -93.06030273 178.95117188 C-95.37466648 180.23171211 -96.48041602 181.35953152 -98.0859375 183.4375 C-98.86155029 184.43861816 -98.86155029 184.43861816 -99.65283203 185.45996094 C-100.46856689 186.54712402 -100.46856689 186.54712402 -101.30078125 187.65625 C-101.87296387 188.41454102 -102.44514648 189.17283203 -103.03466797 189.95410156 C-109.02016128 198.01768385 -114.29166654 206.42283017 -119.23828125 215.15625 C-119.69976562 215.97077637 -120.16125 216.78530273 -120.63671875 217.62451172 C-130.83687903 235.85870708 -138.1917884 254.72029289 -143.92578125 274.78125 C-144.44229248 276.57139526 -144.44229248 276.57139526 -144.96923828 278.39770508 C-151.60679338 302.44980255 -155.40416743 326.63685877 -157.89520264 351.40197754 C-158.18738976 354.25482951 -158.49948548 357.10537089 -158.81107712 359.95615768 C-160.34487992 374.06901562 -161.65455697 388.06931406 -161.22213745 402.28817749 C-161.19926666 403.14392365 -161.17639587 403.9996698 -161.15283203 404.88134766 C-161.12246857 405.61632477 -161.0921051 406.35130188 -161.06082153 407.10855103 C-161.27591073 409.59045478 -161.83804911 411.09591296 -163.23828125 413.15625 C-166.65011335 413.90064973 -169.75222811 414.15625 -173.23828125 414.15625 C-174.09066111 374.85206764 -170.73202405 330.2308864 -160.36914062 292.17456055 C-159.48145387 288.83652503 -158.96349048 286.43780818 -160.23828125 283.15625 C-161.19927734 284.02636719 -161.19927734 284.02636719 -162.1796875 284.9140625 C-163.04464844 285.69523438 -163.90960938 286.47640625 -164.80078125 287.28125 C-165.71859375 288.11398437 -166.63640625 288.94671875 -167.58203125 289.8046875 C-169.611719 291.60155812 -171.65611304 293.2572834 -173.80078125 294.90625 C-180.8712569 300.93298877 -187.02173038 309.88596531 -188.23828125 319.15625 C-188.54715017 323.99022087 -188.57482015 328.81447419 -188.55078125 333.65625 C-188.54995544 334.35812439 -188.54912964 335.05999878 -188.54827881 335.78314209 C-188.51495412 348.31918867 -187.81421709 360.78415693 -186.86328125 373.28125 C-186.80024811 374.11615967 -186.73721497 374.95106934 -186.67227173 375.8112793 C-186.25241806 381.26554484 -185.77864181 386.71258645 -185.23828125 392.15625 C-185.17037384 392.84163849 -185.10246643 393.52702698 -185.03250122 394.23318481 C-184.12138184 403.01572337 -182.38017122 411.03090762 -179.42578125 419.34375 C-179.0690332 420.37677246 -178.71228516 421.40979492 -178.34472656 422.47412109 C-172.59704987 441.04000648 -172.59704987 441.04000648 -159.23828125 454.15625 C-155.98393364 455.51776278 -152.70412525 456.75369656 -149.38671875 457.953125 C-146.73648033 458.96587119 -144.3911727 460.0850125 -141.92578125 461.46875 C-137.95297366 463.45926643 -134.6025177 464.19026027 -130.23828125 463.15625 C-120.6262419 459.55748407 -112.47767778 454.4969309 -106.23828125 446.15625 C-103.99259482 440.91581328 -103.8855293 436.03525648 -103.83203125 430.4296875 C-103.81493103 429.0153392 -103.81493103 429.0153392 -103.79748535 427.57241821 C-103.77862907 425.57371463 -103.76553476 423.57494948 -103.7578125 421.57617188 C-103.73864946 418.58865469 -103.67668386 415.60404467 -103.61328125 412.6171875 C-103.47541483 399.90525728 -105.33753628 389.25346167 -109.54714966 377.28025818 C-111.35688534 371.71851938 -112.21880039 365.90296654 -113.23828125 360.15625 C-113.51768932 358.66241472 -113.79901679 357.16893748 -114.08203125 355.67578125 C-114.80950417 351.83751931 -115.52657125 347.99746496 -116.23828125 344.15625 C-117.55828125 344.48625 -118.87828125 344.81625 -120.23828125 345.15625 C-119.93535156 344.05410156 -119.63242187 342.95195313 -119.3203125 341.81640625 C-118.06389062 336.78740947 -117.51184136 331.73609701 -116.92578125 326.59375 C-111.69455891 284.17341745 -111.69455891 284.17341745 -97.6015625 269.62109375 C-87.52298915 259.10939163 -82.52967527 240.65864562 -82.1640625 226.2265625 C-82.20080078 225.20175781 -82.20080078 225.20175781 -82.23828125 224.15625 C-81.49964844 224.31867188 -80.76101563 224.48109375 -80 224.6484375 C-76.34211976 225.10392958 -73.820446 225.11369496 -70.23828125 224.15625 C-64.0963077 219.25167039 -59.28733556 211.29403617 -56.23828125 204.15625 C-56.23828125 199.00178779 -56.41695384 197.14184289 -59.73828125 193.15625 C-63.04412387 189.18923885 -63.23828125 187.27922197 -63.23828125 182.15625 C-61.18957241 177.71386074 -58.36222317 175.46870159 -54.42578125 172.65625 C-53.34187604 171.86536649 -52.25853531 171.07370874 -51.17578125 170.28125 C-50.20640625 169.58 -49.23703125 168.87875 -48.23828125 168.15625 C-42.90961006 164.24855779 -39.13285038 159.44502879 -35.23828125 154.15625 C-35.56828125 153.49625 -35.89828125 152.83625 -36.23828125 152.15625 C-37.0375 152.66414063 -37.83671875 153.17203125 -38.66015625 153.6953125 C-46.00024649 158.29579159 -53.40461113 162.42996367 -61.23828125 166.15625 C-61.23828125 166.81625 -61.23828125 167.47625 -61.23828125 168.15625 C-66.9713163 169.72925962 -71.39487567 170.39952778 -77.23828125 169.15625 C-77.89290131 161.13715428 -74.41336275 156.7908893 -69.98828125 150.59375 C-67.01506583 146.39893086 -64.32116963 142.09765537 -61.73828125 137.65625 C-61.37573242 137.04450928 -61.01318359 136.43276855 -60.63964844 135.80249023 C-59.77414495 134.28913318 -58.99762597 132.72556241 -58.23828125 131.15625 C-58.56828125 130.49625 -58.89828125 129.83625 -59.23828125 129.15625 Z M87.76171875 139.15625 C88.09171875 140.47625 88.42171875 141.79625 88.76171875 143.15625 C89.42171875 142.16625 90.08171875 141.17625 90.76171875 140.15625 C89.77171875 139.82625 88.78171875 139.49625 87.76171875 139.15625 Z M-43.23828125 181.15625 C-44.88828125 182.80625 -46.53828125 184.45625 -48.23828125 186.15625 C-47.93792969 186.99027344 -47.63757813 187.82429687 -47.328125 188.68359375 C-43.900592 198.82676768 -43.57116484 205.55853993 -47.8125 215.3984375 C-51.92692592 223.35675175 -56.58766599 231.76385186 -65.23828125 235.15625 C-67.67578125 235.90625 -67.67578125 235.90625 -69.23828125 236.15625 C-69.56828125 237.80625 -69.89828125 239.45625 -70.23828125 241.15625 C-70.89828125 241.15625 -71.55828125 241.15625 -72.23828125 241.15625 C-73.10286437 244.09104598 -73.95525312 247.02846519 -74.80078125 249.96875 C-75.04763672 250.80212891 -75.29449219 251.63550781 -75.54882812 252.49414062 C-75.77763672 253.29658203 -76.00644531 254.09902344 -76.2421875 254.92578125 C-76.45689697 255.66417236 -76.67160645 256.40256348 -76.89282227 257.16333008 C-77.43490117 259.35574464 -77.43490117 259.35574464 -76.23828125 262.15625 C-70.22407894 257.46005373 -64.44525233 252.60076916 -58.8203125 247.4453125 C-56.11992437 245.05132241 -53.32304993 242.82627418 -50.48828125 240.59375 C-43.22126993 234.67969424 -38.23951311 228.10698267 -35.23828125 219.15625 C-35.23828125 218.16625 -35.23828125 217.17625 -35.23828125 216.15625 C-31.60828125 216.15625 -27.97828125 216.15625 -24.23828125 216.15625 C-23.28826126 225.84645387 -27.05869807 234.73846728 -32.86328125 242.40625 C-36.63905183 246.79948682 -40.89447275 250.37215244 -45.4453125 253.9375 C-48.16971906 256.10178381 -50.7366561 258.3679665 -53.30078125 260.71875 C-60.2994786 267.07516183 -67.51504244 272.89101363 -75.5234375 277.9296875 C-77.38425457 279.05876615 -77.38425457 279.05876615 -78.23828125 281.15625 C-81.2185519 282.14967355 -82.5218696 282.11054533 -85.55078125 281.84375 C-89.34377003 281.84375 -90.20115265 282.13173111 -93.55078125 284.34375 C-99.97344463 292.07211967 -100.98676813 304.17897908 -102.98828125 313.71875 C-103.32291382 315.27879761 -103.32291382 315.27879761 -103.66430664 316.87036133 C-105.89835595 328.03357981 -105.58152768 338.25701925 -103.48828125 349.40625 C-103.3078125 350.40060059 -103.12734375 351.39495117 -102.94140625 352.41943359 C-100.97214507 363.01275959 -98.51973004 373.36178717 -95.11328125 383.59375 C-92.65159827 391.28893222 -91.9672736 399.14692611 -91.23828125 407.15625 C-84.43718935 406.92209307 -77.63641375 406.6811358 -70.8359375 406.4296875 C-66.46899592 406.26860957 -62.10279746 406.12115003 -57.734375 406.0078125 C-44.32564087 405.60913981 -31.03187792 404.34055801 -17.69049072 403.00805664 C-7.82936547 402.02336141 2.02202307 401.08650039 11.9140625 400.47265625 C13.15857178 400.39509346 13.15857178 400.39509346 14.42822266 400.31596375 C16.11065467 400.21147378 17.79308875 400.10701728 19.4755249 400.00259399 C39.33220647 398.75895301 58.96851435 396.38795209 78.67480469 393.66870117 C80.84303134 393.37108897 83.01132463 393.07396184 85.1796875 392.77734375 C86.22565094 392.63350754 87.27161438 392.48967133 88.34927368 392.34147644 C96.7559731 391.21694244 105.17216258 390.43769761 113.63432312 389.86802673 C114.97609367 389.76911888 114.97609367 389.76911888 116.3449707 389.66821289 C117.12854446 389.61677628 117.91211823 389.56533966 118.71943665 389.51234436 C121.06622608 389.244687 121.06622608 389.244687 123.76171875 387.15625 C120.97361655 385.6495528 118.18067917 384.15205196 115.38671875 382.65625 C114.59265625 382.22699219 113.79859375 381.79773438 112.98046875 381.35546875 C112.21992187 380.94941406 111.459375 380.54335938 110.67578125 380.125 C109.97404785 379.74794922 109.27231445 379.37089844 108.54931641 378.98242188 C106.78735164 378.01640672 106.78735164 378.01640672 104.76171875 378.15625 C104.63671875 370.53125 104.63671875 370.53125 105.76171875 367.15625 C107.58984375 366.34820557 107.58984375 366.34820557 110.01171875 365.73535156 C110.91720459 365.50128601 111.82269043 365.26722046 112.75561523 365.02606201 C113.74762939 364.7854303 114.73964355 364.54479858 115.76171875 364.296875 C116.79047119 364.03867981 117.81922363 363.78048462 118.87915039 363.51446533 C129.39725177 360.91713582 139.98747585 358.67534462 150.60791016 356.54101562 C153.78990998 355.90057596 156.96920949 355.24779599 160.1484375 354.59375 C170.08055353 352.56904339 179.95783309 350.68257245 190.03125 349.52441406 C192.84840652 349.2310334 192.84840652 349.2310334 195.76171875 348.15625 C196.89360436 345.32653598 197.85090756 342.55779095 198.76171875 339.65625 C204.37800543 322.77354763 211.68198584 306.56494439 220.18701172 290.94555664 C223.57441116 284.6845156 226.46755684 278.26366511 229.1628418 271.67602539 C229.95284569 269.8020775 230.84886526 267.97352416 231.76171875 266.15625 C233.24671875 265.66125 233.24671875 265.66125 234.76171875 265.15625 C232.33253852 259.37016242 227.45771099 257.67145425 221.86914062 255.38037109 C212.98511253 251.90465299 204.28823406 249.22087021 194.76171875 248.15625 C194.76171875 247.49625 194.76171875 246.83625 194.76171875 246.15625 C179.65741645 241.40649459 164.64104516 237.17842113 149.12889099 233.99761963 C146.30069131 233.41498157 143.47503339 232.82045117 140.64938354 232.22558594 C138.57461118 231.79432285 136.49678169 231.38125359 134.41821289 230.96875 C123.32989969 228.68916071 113.64805791 225.2749178 104.76171875 218.15625 C104.10171875 218.15625 103.44171875 218.15625 102.76171875 218.15625 C102.32472656 219.89648438 102.32472656 219.89648438 101.87890625 221.671875 C97.72402741 237.72638197 92.46169507 252.42306182 77.64331055 261.54394531 C65.05177904 268.8105653 51.99291382 271.61910923 37.63671875 268.3125 C17.92754122 262.98821981 -3.40404341 249.82456635 -14.40869141 232.29150391 C-15.35015442 230.54873553 -16.20248348 228.7587179 -17.05078125 226.96875 C-17.89576172 225.21498047 -17.89576172 225.21498047 -18.7578125 223.42578125 C-19.66117536 221.43075561 -20.52299846 219.41536178 -21.30859375 217.37109375 C-22.9427145 213.47804137 -26.35959902 210.95961661 -29.42578125 208.15625 C-37.11685121 200.86997319 -40.53753154 194.77493514 -40.96484375 184.125 C-41.05507813 183.4753125 -41.1453125 182.825625 -41.23828125 182.15625 C-41.89828125 181.82625 -42.55828125 181.49625 -43.23828125 181.15625 Z M366.54272461 268.30834961 C356.32153165 269.12635293 346.1028918 269.53451284 335.85787964 269.91900635 C317.12633424 270.62664122 298.45118408 271.71047693 279.76171875 273.15625 C278.66297424 273.24001892 277.56422974 273.32378784 276.43218994 273.41009521 C271.3135485 273.80339294 266.20068177 274.22240201 261.08984375 274.70703125 C257.77288657 275.01688935 254.51434035 275.19553103 251.18359375 275.19921875 C247.23604478 275.34241415 244.371138 275.5480154 240.76171875 277.15625 C237.75609463 281.15317405 236.22514579 285.29676433 234.58404541 289.98492432 C233.19541338 293.65156013 231.33150192 297.05533271 229.4921875 300.51171875 C228.74410847 301.95624379 227.99837338 303.4019849 227.25488281 304.84887695 C226.87819458 305.58127594 226.50150635 306.31367493 226.11340332 307.06826782 C218.57395845 321.80465316 212.30758318 336.40658563 207.11621094 352.14550781 C204.59376732 359.69839995 201.82121259 367.16688932 199.11047363 374.65365601 C197.55966047 378.93793046 196.01409049 383.22406179 194.47265625 387.51171875 C194.19821686 388.27068451 193.92377747 389.02965027 193.64102173 389.81161499 C192.33169249 392.90948103 192.33169249 392.90948103 191.76171875 396.15625 C202.7346243 396.20319576 213.70750483 396.23842781 224.68049145 396.25987434 C229.77913724 396.27018268 234.87771291 396.28409538 239.97631836 396.30712891 C262.0501046 396.40423096 283.95128816 396.33215396 305.95352173 394.3924408 C321.87475882 393.05334328 337.79514615 393.02812318 353.76171875 393.15625 C353.76171875 393.81625 353.76171875 394.47625 353.76171875 395.15625 C356.73171875 395.15625 359.70171875 395.15625 362.76171875 395.15625 C367.19621841 386.95372396 370.512696 378.61980788 373.40100098 369.7741394 C378.6516752 353.74339779 384.87863536 338.35185453 392.07421875 323.09375 C400.34561645 305.54601842 408.15455437 287.74842664 413.76171875 269.15625 C410.68507969 267.61793047 407.39598678 267.77229563 404.01171875 267.59375 C403.23948975 267.5527417 402.46726074 267.5117334 401.67163086 267.46948242 C389.81619416 266.87885056 378.35736987 267.31068408 366.54272461 268.30834961 Z M188.76171875 362.15625 C175.24591986 363.68881899 161.95393928 365.98527845 148.63671875 368.71875 C147.87957581 368.87231964 147.12243286 369.02588928 146.34234619 369.18411255 C144.16552252 369.62750682 141.99070924 370.07957834 139.81640625 370.53515625 C137.92124268 370.93069702 137.92124268 370.93069702 135.98779297 371.33422852 C133.28437619 372.023074 131.16238748 372.77246334 128.76171875 374.15625 C136.07130534 382.72339987 151.37567164 386.75946035 161.44921875 390.71875 C162.58367432 391.17258057 163.71812988 391.62641113 164.88696289 392.09399414 C166.50139282 392.71455688 166.50139282 392.71455688 168.1484375 393.34765625 C169.10967529 393.72092041 170.07091309 394.09418457 171.0612793 394.47875977 C174.10634923 395.2427114 175.81646044 395.22852198 178.76171875 394.15625 C180.22923213 391.50496284 181.29486827 389.16063492 182.32421875 386.34375 C182.61941406 385.57853027 182.91460938 384.81331055 183.21875 384.02490234 C184.08959878 381.74322124 184.92936256 379.45221239 185.76171875 377.15625 C186.21417969 375.93808594 186.66664063 374.71992187 187.1328125 373.46484375 C189.42627992 367.87106951 189.42627992 367.87106951 188.76171875 362.15625 Z " fill="#000000" transform="translate(439.23828125,188.84375)"/>
<path d="M0 0 C0.99 0.495 0.99 0.495 2 1 C2 4.3 2 7.6 2 11 C0.44539062 11.70576172 0.44539062 11.70576172 -1.140625 12.42578125 C-2.51053163 13.05443703 -3.88031695 13.68335723 -5.25 14.3125 C-6.27287109 14.7755957 -6.27287109 14.7755957 -7.31640625 15.24804688 C-10.8453247 16.87546073 -13.99633359 18.48404232 -17 21 C-16.09378906 20.95359375 -15.18757812 20.9071875 -14.25390625 20.859375 C-5.4969666 20.59991012 1.1641776 20.81922924 7.9609375 26.6953125 C14.37289905 33.37782095 17.18044635 40.53448514 17.5 49.75 C17.088954 61.20946421 14.68723701 70.75026299 6.4296875 79.0078125 C2.87316194 81.92393474 -0.60561076 83.70213865 -5 85 C-6.14339844 85.35578125 -7.28679687 85.7115625 -8.46484375 86.078125 C-14.24424105 87.4881607 -20.0854851 87.2902348 -26 87.25 C-27.70542969 87.26160156 -27.70542969 87.26160156 -29.4453125 87.2734375 C-34.27142439 87.26224002 -38.77263502 87.23885684 -43.4375 85.921875 C-47.22262361 84.94239126 -49.2367512 85.17710293 -53 86 C-65.27477416 86.74047362 -73.08246599 85.51674257 -82.59765625 77.5703125 C-92.70022202 66.76138847 -94.66701872 52.62946051 -94.3125 38.453125 C-93.82731213 28.91918333 -90.19440232 20.25762063 -84 13 C-77.40441888 7.64109034 -70.76350377 6.46763178 -62.453125 6.62890625 C-54.67063573 7.46525974 -48.14470595 10.20821672 -42.9375 16.125 C-41.95300459 17.41260977 -40.97338027 18.70396721 -40 20 C-39.0172475 21.01695502 -38.02249692 22.02301481 -37 23 C-36.79375 22.319375 -36.5875 21.63875 -36.375 20.9375 C-32.67016652 13.02262848 -26.56893502 8.96416165 -19 5 C-18.07316406 4.51015625 -17.14632812 4.0203125 -16.19140625 3.515625 C-10.50443905 0.70763565 -6.34259713 -0.69191969 0 0 Z M-78.375 28.5625 C-83.12442675 37.15730712 -82.74139226 45.92307414 -80.078125 55.171875 C-76.98205101 63.29346038 -72.02557517 68.43346278 -65.0625 73.375 C-61.84570861 74.34978527 -59.24360378 73.69505795 -56 73 C-55.360625 72.62875 -54.72125 72.2575 -54.0625 71.875 C-49.44284912 69.91514811 -44.42186072 71.78699187 -40 73.5625 C-29.33113307 77.3095242 -16.02568756 75.76060788 -5.94921875 71.0390625 C-0.59496101 67.80587046 2.16447201 62.87206522 4 57 C4.80730398 51.37011696 4.82524765 46.74571618 2.375 41.5625 C-1.05373741 37.8630728 -3.97580073 34.7646975 -8.8125 32.9375 C-17.31611027 33.10423746 -22.9437489 38.34624895 -28.8359375 43.9765625 C-32.29389789 47.20981788 -34.54647774 48.2633619 -39.1875 48.625 C-40.08855469 48.69976563 -40.98960937 48.77453125 -41.91796875 48.8515625 C-42.60503906 48.90054688 -43.29210937 48.94953125 -44 49 C-44.09796875 48.29875 -44.1959375 47.5975 -44.296875 46.875 C-45.8920504 36.7538871 -49.31314319 28.01514261 -57.765625 21.67578125 C-66.82838047 16.06081319 -72.98482227 20.53540079 -78.375 28.5625 Z " fill="#000000" transform="translate(773,478)"/>
<path d="M0 0 C0.74636719 -0.02900391 1.49273437 -0.05800781 2.26171875 -0.08789062 C6.16159816 -0.13275649 8.06604421 0.0447036 11.46875 2.14453125 C14.87187501 5.77671276 14.78017902 9.30121521 14.71875 14.03125 C14.31121744 18.28123237 12.36232919 21.15167224 9.875 24.5 C6.37997694 27.16725444 2.7136084 28.18575978 -1.5 29.3125 C-2.2528125 29.52003906 -3.005625 29.72757812 -3.78125 29.94140625 C-13.19377635 32.18472503 -23.95154951 33.37127467 -32.5 28.3125 C-34.9656856 26.27193261 -35.45657975 25.44276076 -36.5 22.3125 C-36.87038573 17.31229268 -36.70042937 14.25969622 -33.5 10.3125 C-29.3315425 7.23331826 -25.32635921 5.31136384 -20.4375 3.625 C-19.25027344 3.20863281 -18.06304687 2.79226563 -16.83984375 2.36328125 C-11.13506309 0.56844383 -5.94269345 0.07697789 0 0 Z M-14.5 15.3125 C-17.965 16.7975 -17.965 16.7975 -21.5 18.3125 C-21.5 18.6425 -21.5 18.9725 -21.5 19.3125 C-18.86 18.9825 -16.22 18.6525 -13.5 18.3125 C-13.83 17.3225 -14.16 16.3325 -14.5 15.3125 Z " fill="#000000" transform="translate(467.5,327.6875)"/>
<path d="M0 0 C1.125 7.625 1.125 7.625 0 11 C-6.25002653 14.49735527 -13.8055294 15.75192285 -20.75 17.25 C-21.55356934 17.42523193 -22.35713867 17.60046387 -23.18505859 17.78100586 C-28.90466305 18.95460673 -34.33488261 19.88837246 -40 18 C-41.125 11.375 -41.125 11.375 -40 8 C-37.83984375 7.19140625 -37.83984375 7.19140625 -34.9375 6.5625 C-33.86242187 6.31757813 -32.78734375 6.07265625 -31.6796875 5.8203125 C-30.46539062 5.54960937 -29.25109375 5.27890625 -28 5 C-25.18335158 4.32898675 -22.37281486 3.63448919 -19.5625 2.9375 C-18.55207642 2.69398804 -18.55207642 2.69398804 -17.52124023 2.44555664 C-14.67024355 1.74446853 -11.97705197 0.99039461 -9.265625 -0.14453125 C-5.99599767 -1.37909743 -3.3655673 -0.65991516 0 0 Z " fill="#000000" transform="translate(513,400)"/>
<path d="M0 0 C0.12117188 1.134375 0.24234375 2.26875 0.3671875 3.4375 C0.53617251 4.95836512 0.70545953 6.4791967 0.875 8 C0.95363281 8.74378906 1.03226562 9.48757813 1.11328125 10.25390625 C1.539383 14.02326785 2.10545385 17.61556973 3.09375 21.28125 C4.19265923 25.79056718 3.80226269 28.50732892 3 33 C1.741875 33.185625 0.48375 33.37125 -0.8125 33.5625 C-1.87404297 33.71912109 -1.87404297 33.71912109 -2.95703125 33.87890625 C-5 34 -5 34 -8 33 C-9.38104383 29.47378988 -9.98039597 25.70229632 -10.75 22 C-10.98332031 20.98292969 -11.21664063 19.96585937 -11.45703125 18.91796875 C-12.80875911 12.61260346 -13.45479183 7.32962058 -12 1 C-7.9528766 -1.86146859 -4.64268791 -0.77378132 0 0 Z " fill="#000000" transform="translate(502,351)"/>
<path d="M0 0 C0.66 0 1.32 0 2 0 C1.67 2.31 1.34 4.62 1 7 C-0.32 7.33 -1.64 7.66 -3 8 C-1.125 2.25 -1.125 2.25 0 0 Z " fill="#000000" transform="translate(280,334)"/>
<path d="M0 0 C2 1 2 1 2 1 Z " fill="#000000" transform="translate(540,201)"/>
<path d="" fill="#000000" transform="translate(0,0)"/>
<path d="" fill="#000000" transform="translate(0,0)"/>
<path d="" fill="#000000" transform="translate(0,0)"/>
</svg>
