<svg width="338" height="197" viewBox="0 0 338 197" fill="none" xmlns="http://www.w3.org/2000/svg">
<path d="M96.3705 0.0214472C104.066 -0.280832 111.569 2.6316 117.358 7.52836C117.826 7.89915 118.293 8.26897 118.762 8.63792C122.32 11.4957 125.119 14.7212 127.905 18.321C128.818 19.4817 129.782 20.5945 130.744 21.7153C135.744 27.7282 137.799 34.2186 139.814 41.6355C140.065 42.549 140.327 43.458 140.595 44.3668C143.664 55.4004 145.429 73.7723 140.099 84.4322C140.38 84.4493 140.662 84.4663 140.952 84.4839C142.186 84.8516 142.568 85.1361 143.484 85.9827C146.567 88.7685 150.249 89.7937 154.234 90.6341C154.705 90.7387 155.176 90.8433 155.662 90.951C157.874 91.4396 160.09 91.9062 162.31 92.3606C167.027 93.3355 171.652 94.5129 176.277 95.8541C176.555 95.9343 176.833 96.0146 177.12 96.0973C179.882 96.8972 182.542 97.7337 185.166 98.9034C185.803 99.1225 186.442 99.3346 187.083 99.5413C197.411 102.884 197.411 102.884 199.637 106.759C199.657 107.448 199.659 108.138 199.637 108.826C199.994 108.793 200.35 108.76 200.718 108.726C212.179 107.665 223.624 106.815 235.133 106.509C238.399 106.415 241.633 106.21 244.886 105.906C264.737 104.104 264.737 104.104 273.233 106.759C274.14 110.322 272.898 113.107 271.604 116.389C271.126 117.613 270.665 118.843 270.205 120.074C268.072 125.709 265.695 131.157 263.092 136.586C260.513 141.973 258.315 147.449 256.282 153.067C265.139 153.334 273.948 152.93 282.786 152.372C283.632 152.318 284.478 152.266 285.324 152.214C300.859 151.265 300.859 151.265 316.259 149.113C319.999 148.475 323.721 147.902 327.5 147.563C327.847 147.531 328.193 147.5 328.55 147.467C335.066 146.941 335.066 146.941 337.32 147.692C337.785 150.431 337.785 150.431 337.32 151.826C333.65 152.548 330.016 153.127 326.286 153.429C322.745 153.72 319.29 154.276 315.794 154.902C308.668 156.136 301.531 156.725 294.32 157.201C293.817 157.235 293.315 157.269 292.797 157.303C288.94 157.561 285.083 157.808 281.226 158.049C280.332 158.105 279.437 158.162 278.543 158.22C270.422 158.74 262.354 158.96 254.214 158.855C254.14 159.122 254.066 159.389 253.989 159.663C253.376 161.797 252.69 163.754 251.656 165.729C251.327 166.364 251.327 166.364 250.992 167.011C250.745 167.477 250.745 167.477 250.493 167.951C250.249 167.95 250.005 167.948 249.753 167.946C231.762 167.813 231.762 167.813 213.811 168.883C210.408 169.181 207.029 169.242 203.617 169.223C202.648 169.217 201.679 169.215 200.71 169.213C198.303 169.207 195.895 169.198 193.487 169.188C191.455 169.179 189.423 169.172 187.391 169.168C186.729 169.167 186.068 169.165 185.406 169.162C181.43 169.149 177.491 169.247 173.521 169.502C170.268 169.692 167.851 169.471 164.907 167.951C164.081 167.605 163.253 167.266 162.423 166.932C161.149 166.418 159.878 165.904 158.616 165.363C158.201 165.199 157.785 165.034 157.358 164.865C156.99 164.713 156.623 164.561 156.245 164.405C154.678 164.188 153.787 164.593 152.329 165.135C150.289 165.777 148.162 165.874 146.041 166.065C145.003 166.167 143.966 166.271 142.928 166.375C142.126 166.456 142.126 166.456 141.307 166.538C138.673 166.819 136.047 167.164 133.421 167.512C132.348 167.653 131.275 167.793 130.203 167.933C129.392 168.039 129.392 168.039 128.565 168.148C118.229 169.494 107.934 170.502 97.5219 171.078C94.4905 171.252 91.4847 171.559 88.4679 171.905C83.7538 172.437 79.0428 172.746 74.3068 172.99C73.9742 173.008 73.6417 173.026 73.299 173.044C68.4096 173.3 63.5433 173.356 58.6469 173.326C58.6469 175.646 58.6469 177.965 58.6469 180.355C58.9198 180.355 59.1927 180.355 59.4739 180.355C59.8653 182.352 59.9739 183.498 59.0604 185.317C54.7901 191.131 50.1189 195.215 42.8934 196.753C37.6595 197.464 33.0507 194.988 28.4642 192.759C28.0784 192.593 27.6925 192.428 27.2949 192.257C26.9389 192.099 26.5829 191.94 26.216 191.777C25.9096 191.646 25.6031 191.515 25.2874 191.38C22.27 189.212 21.0045 185.707 19.6782 182.371C19.4991 181.933 19.32 181.496 19.1355 181.045C18.3206 179.04 17.5579 177.038 16.8873 174.98C16.3905 175.037 16.3905 175.037 15.8836 175.094C14.3665 175.265 12.849 175.433 11.3314 175.6C10.8104 175.66 10.2895 175.719 9.75269 175.78C2.61474 176.562 2.61474 176.562 0.348858 175.807C-0.116286 173.068 -0.116286 173.068 0.348858 171.673C3.63117 170.353 7.29575 170.166 10.7888 169.941C11.2594 169.907 11.73 169.874 12.2149 169.839C13.3587 169.757 14.5026 169.679 15.6469 169.605C15.5718 169.135 15.4966 168.664 15.4192 168.179C14.5509 162.352 14.1033 156.513 13.7088 150.638C13.6814 150.24 13.6539 149.841 13.6256 149.431C12.1245 127.466 12.1245 127.466 18.9546 119.163C19.6249 118.414 19.6249 118.414 20.195 117.923C20.4679 117.923 20.7408 117.923 21.0219 117.923C21.1584 117.513 21.2948 117.104 21.4354 116.682C22.0607 116.132 22.7116 115.611 23.3735 115.106C25.6967 113.269 27.7417 111.243 29.7623 109.079C31.9067 106.846 31.9067 106.846 33.8392 106.759C33.8881 106.336 33.937 105.914 33.9874 105.478C34.4153 102.876 35.4431 100.513 36.4234 98.0764C36.5332 97.8023 36.6431 97.5281 36.7562 97.2457C40.433 88.1348 45.4688 79.2474 51.7715 71.6779C52.4894 70.7293 52.6613 70.1611 52.8585 69.0049C54.0244 64.6847 57.8243 60.8397 60.7756 57.583C61.8395 56.398 62.8649 55.1816 63.8927 53.9653C64.1806 53.6257 64.1806 53.6257 64.4743 53.2793C65.5853 51.9653 66.6746 50.6368 67.7431 49.288C67.2741 49.1771 66.8051 49.0663 66.3218 48.952C65.8357 48.79 65.3497 48.628 64.8489 48.4611C64.1066 46.2342 64.342 43.817 64.3361 41.4844C64.3321 40.5497 64.3193 39.6155 64.3062 38.6809C64.2664 33.2565 65.0558 28.1236 66.6578 22.9298C66.7463 22.6393 66.8349 22.3488 66.9262 22.0495C69.5003 13.7921 73.906 8.575 81.3873 4.22067C81.8774 3.93286 81.8774 3.93286 82.3774 3.63924C86.6961 1.29007 91.5148 0.360412 96.3705 0.0214472ZM76.2707 15.565C69.7774 23.3121 69.23 34.7081 69.3969 44.3264C69.8063 44.3264 70.2156 44.3264 70.6373 44.3264C70.7738 44.7358 70.9102 45.1451 71.0508 45.5668C71.2858 45.3174 71.5209 45.068 71.763 44.811C76.0939 40.3282 76.0939 40.3282 78.7644 40.0965C79.7832 40.0894 80.785 40.1182 81.8008 40.1918C83.0624 44.7766 81.4436 48.6101 79.2231 52.6393C78.7422 53.4796 78.2576 54.3178 77.7695 55.154C77.5206 55.587 77.2717 56.02 77.0153 56.4662C76.4085 57.5209 75.7985 58.5735 75.1854 59.6245C78.4246 59.6245 82.1086 55.1089 84.4931 53.0188C84.7408 52.8043 84.9884 52.5897 85.2435 52.3686C85.8482 51.8444 86.4486 51.3152 87.0482 50.7852C88.5438 49.7349 89.5253 49.9661 91.3104 50.1149C92.0216 50.8261 91.8289 51.7271 91.8531 52.699C91.772 59.5326 88.0525 64.3992 84.0054 69.5298C83.0716 70.7482 82.2235 71.9828 81.3873 73.2687C82.206 73.5416 83.0246 73.8145 83.8681 74.0957C83.8942 74.3558 83.9203 74.6159 83.9472 74.8838C84.3767 77.8859 85.44 79.4576 87.5892 81.538C87.9128 81.8652 88.2363 82.1925 88.5696 82.5296C89.3112 83.2636 90.0686 83.9819 90.8388 84.6858C94.4613 88.0685 94.4613 88.0685 94.6698 89.9622C94.6527 90.4569 94.6357 90.9515 94.6181 91.461C94.7981 93.9216 96.3343 95.4043 98.1228 96.9503C103.365 101.314 110.42 107.161 117.627 106.911C122.226 106.193 126.868 103.62 129.738 99.9419C130.371 98.9223 130.909 97.9239 131.416 96.836C131.547 96.5617 131.678 96.2873 131.813 96.0046C132.799 93.8803 133.521 91.802 134.052 89.5229C134.135 89.1682 134.218 88.8135 134.304 88.448C135.195 84.459 135.852 80.4285 136.507 76.3955C136.563 76.0595 136.619 75.7235 136.676 75.3773C137.367 71.185 137.785 67.1923 137.618 62.9322C137.35 63.091 137.081 63.2499 136.805 63.4135C132.846 65.6687 128.205 65.5464 123.819 64.7443C122.331 64.3249 121.354 64.0334 120.253 62.9322C119.954 60.9688 119.951 59.3033 120.976 57.583C121.805 56.8232 122.662 56.1635 123.56 55.4899C123.56 55.217 123.56 54.9441 123.56 54.663C124.284 54.4646 125.007 54.2666 125.731 54.0686C126.134 53.9583 126.537 53.848 126.952 53.7343C127.334 53.6314 127.715 53.5286 128.108 53.4226C128.37 53.3488 128.632 53.275 128.901 53.1989C129.785 53.0041 130.558 52.9619 131.461 52.9687C131.773 52.9701 132.085 52.9714 132.406 52.9728C132.728 52.9762 133.049 52.9797 133.38 52.9833C133.708 52.9851 134.036 52.987 134.373 52.9889C135.179 52.9938 135.985 53.0012 136.791 53.0091C136.37 48.0461 134.928 43.4837 133.406 38.7661C133.13 37.9003 132.87 37.0294 132.615 36.1573C130.83 30.2129 126.646 25.7036 122.593 21.1516C121.881 20.3158 121.238 19.4473 120.589 18.5626C116.043 12.6807 109.027 7.21533 101.674 5.60964C91.476 4.41441 83.2514 8.18142 76.2707 15.565ZM72.2912 52.5957C72.7046 53.4226 72.7046 53.4226 72.7046 53.4226L72.2912 52.5957ZM71.8777 53.4226C69.2941 56.2383 66.8297 59.1273 64.4354 62.1053C63.9989 62.6449 63.9989 62.6449 63.5536 63.1955C62.9977 63.8856 62.4457 64.5789 61.8981 65.2757C61.4049 65.8929 60.8966 66.4986 60.3702 67.0878C58.7183 69.0183 58.3991 70.3551 58.5597 72.894C58.5885 73.1541 58.6173 73.4142 58.6469 73.6822C58.3983 73.7907 58.1497 73.8991 57.8936 74.0109C56.9367 74.5403 56.4795 75.0066 55.8157 75.8658C55.495 76.2797 55.495 76.2797 55.1678 76.702C54.8306 77.1515 54.8306 77.1515 54.4865 77.6101C54.2499 77.9236 54.0133 78.2371 53.7696 78.5602C51.2948 81.8941 49.1152 85.3693 47.07 88.9803C46.8792 89.3171 46.6884 89.6538 46.4918 90.0008C42.2744 97.5399 39.2335 105.338 36.8627 113.633C36.6491 114.373 36.6491 114.373 36.4313 115.128C33.6869 125.073 32.1168 135.073 31.0869 145.313C30.9661 146.492 30.837 147.671 30.7082 148.849C30.074 154.685 29.5325 160.473 29.7113 166.352C29.7208 166.706 29.7302 167.06 29.74 167.424C29.7525 167.728 29.7651 168.032 29.778 168.345C29.6891 169.371 29.4566 169.994 28.8777 170.846C27.467 171.153 26.1844 171.259 24.7431 171.259C24.3907 155.008 25.7793 136.559 30.064 120.824C30.431 119.444 30.6452 118.452 30.1181 117.096C29.7208 117.455 29.7208 117.455 29.3154 117.822C28.9578 118.145 28.6001 118.468 28.2317 118.801C27.8522 119.146 27.4727 119.49 27.0817 119.845C26.2425 120.587 25.3973 121.272 24.5105 121.954C21.5871 124.446 19.0442 128.147 18.5412 131.98C18.4135 133.979 18.402 135.974 18.412 137.975C18.4123 138.266 18.4126 138.556 18.413 138.855C18.4268 144.038 18.7165 149.192 19.1097 154.359C19.1357 154.704 19.1618 155.049 19.1887 155.405C19.3622 157.66 19.5581 159.912 19.7816 162.163C19.8096 162.446 19.8377 162.73 19.8666 163.022C20.2433 166.653 20.9633 169.967 22.1848 173.404C22.3323 173.831 22.4798 174.258 22.6318 174.698C25.0082 182.375 25.0082 182.375 30.5316 187.798C31.8771 188.361 33.2332 188.872 34.6048 189.367C35.7006 189.786 36.6703 190.249 37.6896 190.821C39.3322 191.644 40.7175 191.946 42.5219 191.519C46.4961 190.031 49.8653 187.938 52.445 184.49C53.3735 182.323 53.4178 180.305 53.4399 177.988C53.447 177.403 53.447 177.403 53.4542 176.806C53.462 175.98 53.4674 175.153 53.4706 174.327C53.4785 173.092 53.5041 171.858 53.5304 170.623C53.5874 165.367 52.8174 160.963 51.0769 156.012C50.3287 153.713 49.9723 151.308 49.5508 148.932C49.4353 148.315 49.3189 147.697 49.2019 147.08C48.9011 145.493 48.6047 143.905 48.3104 142.317C47.7646 142.453 47.2189 142.59 46.6566 142.73C46.7818 142.275 46.9071 141.819 47.0361 141.349C47.5556 139.27 47.7838 137.182 48.0261 135.055C50.1891 117.516 50.1891 117.516 56.016 111.499C60.1831 107.153 62.2476 99.5245 62.3988 93.5574C62.3836 93.1337 62.3836 93.1337 62.3681 92.7014C62.6735 92.7686 62.9789 92.8357 63.2935 92.9049C64.8059 93.0933 65.8485 93.0973 67.3296 92.7014C69.8691 90.6736 71.8574 87.3834 73.1181 84.4322C73.1181 82.301 73.0442 81.532 71.671 79.8841C70.3041 78.2439 70.2239 77.4542 70.2239 75.336C71.0709 73.4993 72.2399 72.571 73.8675 71.4082C74.3156 71.0812 74.7636 70.7538 75.2112 70.4262C75.612 70.1363 76.0128 69.8463 76.4258 69.5476C78.629 67.9319 80.1905 65.9458 81.8008 63.7591C81.6643 63.4862 81.5279 63.2134 81.3873 62.9322C81.0569 63.1422 80.7264 63.3522 80.386 63.5685C77.3511 65.4707 74.2897 67.18 71.0508 68.7207C71.0508 68.9935 71.0508 69.2664 71.0508 69.5476C68.6804 70.198 66.8514 70.4751 64.4354 69.961C64.1647 66.6455 65.6034 64.8484 67.433 62.2862C68.6623 60.5518 69.7761 58.7734 70.8441 56.937C70.994 56.6841 71.1439 56.4311 71.2983 56.1706C71.6562 55.5448 71.9772 54.8984 72.2912 54.2495C72.1547 53.9766 72.0183 53.7037 71.8777 53.4226ZM132.657 57.5572C132.793 58.103 132.929 58.6487 133.07 59.211C133.343 58.8017 133.616 58.3924 133.897 57.9707C133.488 57.8342 133.078 57.6978 132.657 57.5572ZM78.4931 74.9226C77.8109 75.6048 77.1287 76.287 76.4258 76.9899C76.55 77.3347 76.6742 77.6796 76.8021 78.0349C78.2193 82.2287 78.3555 85.012 76.6018 89.0804C74.9007 92.3709 72.9736 95.8469 69.3969 97.2495C68.3891 97.5596 68.3891 97.5596 67.7431 97.663C67.6067 98.3452 67.4702 99.0274 67.3296 99.7303C67.0567 99.7303 66.7839 99.7303 66.5027 99.7303C66.1452 100.944 65.7928 102.158 65.4432 103.374C65.3411 103.718 65.2391 104.063 65.1339 104.418C65.0393 104.75 64.9447 105.082 64.8472 105.423C64.7585 105.729 64.6697 106.034 64.5782 106.349C64.3541 107.255 64.3541 107.255 64.8489 108.413C67.3355 106.471 69.7248 104.462 72.0505 102.331C73.167 101.341 74.3234 100.421 75.4955 99.4977C78.5001 97.0525 80.5599 94.3349 81.8008 90.6341C81.8008 90.2248 81.8008 89.8155 81.8008 89.3937C83.3017 89.3937 84.8025 89.3937 86.3489 89.3937C86.7417 93.4003 85.1827 97.0768 82.7828 100.247C81.2216 102.064 79.4622 103.541 77.5806 105.015C76.4541 105.91 75.3928 106.847 74.3326 107.819C71.4389 110.447 68.4556 112.851 65.1444 114.935C64.375 115.402 64.375 115.402 64.0219 116.269C62.7897 116.679 62.2508 116.663 60.9985 116.553C59.4302 116.553 59.0758 116.672 57.6908 117.587C55.0353 120.782 54.6163 125.788 53.7888 129.732C53.6504 130.377 53.6504 130.377 53.5093 131.035C52.5856 135.651 52.7166 139.878 53.582 144.487C53.6567 144.899 53.7313 145.31 53.8081 145.733C54.6224 150.113 55.6363 154.392 57.0448 158.623C58.0626 161.804 58.3455 165.053 58.6469 168.365C61.4589 168.268 64.2708 168.168 67.0825 168.064C68.8881 167.998 70.6933 167.937 72.4995 167.89C78.0435 167.725 83.54 167.201 89.0561 166.65C93.1333 166.243 97.2065 165.855 101.296 165.601C101.811 165.569 101.811 165.569 102.336 165.537C103.032 165.494 103.727 165.45 104.423 165.407C112.633 164.893 120.752 163.913 128.899 162.788C129.796 162.665 130.692 162.542 131.589 162.42C132.021 162.36 132.454 162.301 132.899 162.24C136.375 161.775 139.855 161.452 143.354 161.217C143.909 161.176 143.909 161.176 144.475 161.134C144.799 161.113 145.123 161.092 145.456 161.07C146.427 160.959 146.427 160.959 147.541 160.096C146.388 159.473 145.234 158.854 144.078 158.235C143.75 158.058 143.422 157.88 143.084 157.697C142.769 157.529 142.455 157.361 142.131 157.189C141.84 157.033 141.55 156.877 141.251 156.716C140.523 156.317 140.523 156.317 139.685 156.375C139.634 153.222 139.634 153.222 140.099 151.826C140.855 151.492 140.855 151.492 141.856 151.239C142.23 151.142 142.605 151.045 142.991 150.946C143.401 150.846 143.811 150.747 144.233 150.644C144.659 150.537 145.084 150.431 145.522 150.321C149.871 149.247 154.25 148.32 158.641 147.437C159.957 147.173 161.271 146.903 162.586 146.632C166.692 145.795 170.776 145.015 174.941 144.536C176.106 144.415 176.106 144.415 177.31 143.971C177.778 142.801 178.174 141.656 178.551 140.456C180.873 133.476 183.893 126.774 187.409 120.316C188.81 117.728 190.006 115.073 191.12 112.349C191.447 111.574 191.818 110.818 192.195 110.067C192.809 109.862 192.809 109.862 193.435 109.653C192.431 107.261 190.415 106.559 188.105 105.611C184.432 104.174 180.836 103.065 176.897 102.625C176.897 102.352 176.897 102.079 176.897 101.798C170.652 99.8337 164.443 98.0856 158.03 96.7705C156.86 96.5296 155.692 96.2837 154.524 96.0378C153.666 95.8595 152.807 95.6887 151.947 95.5181C147.363 94.5756 143.36 93.164 139.685 90.2207C139.413 90.2207 139.14 90.2207 138.858 90.2207C138.678 90.9402 138.678 90.9402 138.493 91.6742C136.776 98.3122 134.6 104.389 128.473 108.16C123.267 111.164 117.868 112.326 111.932 110.958C103.783 108.757 94.963 103.314 90.413 96.065C90.0238 95.3445 89.6714 94.6044 89.3206 93.8643C88.9713 93.1392 88.9713 93.1392 88.6148 92.3994C88.2413 91.5745 87.885 90.7413 87.5602 89.896C86.8845 88.2864 85.4718 87.2451 84.204 86.086C81.0241 83.0734 79.6097 80.5534 79.4331 76.15C79.3958 75.8814 79.3585 75.6128 79.32 75.336C79.0471 75.1996 78.7742 75.0632 78.4931 74.9226ZM247.922 110.957C243.696 111.295 239.471 111.464 235.235 111.623C227.49 111.915 219.769 112.363 212.041 112.961C211.587 112.996 211.133 113.03 210.665 113.066C208.548 113.229 206.434 113.402 204.321 113.602C202.95 113.73 201.602 113.804 200.225 113.806C198.593 113.865 197.409 113.95 195.916 114.615C194.673 116.267 194.04 117.981 193.362 119.919C192.788 121.435 192.017 122.842 191.257 124.271C190.947 124.869 190.639 125.466 190.332 126.065C190.176 126.368 190.02 126.67 189.86 126.982C186.742 133.075 184.151 139.113 182.005 145.62C180.962 148.743 179.816 151.831 178.695 154.926C178.054 156.698 177.415 158.47 176.777 160.243C176.664 160.556 176.55 160.87 176.434 161.194C175.892 162.474 175.892 162.474 175.657 163.817C180.193 163.836 184.73 163.851 189.267 163.86C191.375 163.864 193.483 163.87 195.591 163.879C204.718 163.919 213.773 163.89 222.87 163.088C229.453 162.534 236.036 162.523 242.637 162.576C242.637 162.849 242.637 163.122 242.637 163.403C243.865 163.403 245.093 163.403 246.358 163.403C248.192 160.012 249.563 156.566 250.757 152.909C252.928 146.281 255.503 139.917 258.478 133.608C261.898 126.353 265.127 118.994 267.445 111.307C266.173 110.671 264.813 110.735 263.414 110.661C263.094 110.644 262.775 110.627 262.446 110.61C257.544 110.366 252.807 110.544 247.922 110.957ZM174.416 149.759C168.828 150.393 163.332 151.342 157.826 152.472C157.513 152.536 157.2 152.599 156.877 152.665C155.977 152.848 155.078 153.035 154.179 153.223C153.396 153.387 153.396 153.387 152.596 153.554C151.478 153.839 150.601 154.149 149.608 154.721C152.631 158.263 158.958 159.932 163.124 161.569C163.593 161.756 164.062 161.944 164.545 162.137C165.212 162.394 165.212 162.394 165.893 162.656C166.291 162.81 166.688 162.964 167.098 163.123C168.357 163.439 169.064 163.433 170.282 162.99C170.888 161.894 171.329 160.924 171.755 159.76C171.877 159.443 171.999 159.127 172.124 158.801C172.484 157.858 172.832 156.91 173.176 155.961C173.363 155.457 173.55 154.954 173.743 154.435C174.691 152.122 174.691 152.122 174.416 149.759Z" fill="black"/>
<path d="M234.368 119.576C234.777 119.781 234.777 119.781 235.195 119.99C235.195 121.354 235.195 122.719 235.195 124.124C234.552 124.416 234.552 124.416 233.896 124.714C233.33 124.974 232.764 125.234 232.197 125.494C231.774 125.685 231.774 125.685 231.343 125.881C229.884 126.554 228.581 127.219 227.339 128.259C227.714 128.24 228.088 128.221 228.474 128.201C232.095 128.093 234.849 128.184 237.659 130.614C240.311 133.377 241.471 136.336 241.603 140.146C241.433 144.884 240.44 148.829 237.026 152.243C235.556 153.449 234.117 154.184 232.301 154.72C231.828 154.868 231.355 155.015 230.868 155.166C228.478 155.749 226.063 155.667 223.618 155.651C222.913 155.656 222.913 155.656 222.193 155.66C220.198 155.656 218.337 155.646 216.408 155.102C214.843 154.697 214.01 154.794 212.454 155.134C207.379 155.44 204.151 154.934 200.217 151.649C196.04 147.179 195.227 141.336 195.373 135.475C195.574 131.533 197.076 127.952 199.637 124.951C202.364 122.736 205.11 122.25 208.546 122.317C211.764 122.663 214.462 123.797 216.615 126.243C217.022 126.776 217.427 127.31 217.829 127.845C218.236 128.266 218.647 128.682 219.07 129.086C219.155 128.804 219.24 128.523 219.328 128.233C220.86 124.961 223.383 123.283 226.512 121.644C226.895 121.441 227.279 121.238 227.673 121.03C230.025 119.869 231.745 119.29 234.368 119.576ZM201.963 131.386C199.999 134.939 200.157 138.564 201.259 142.388C202.539 145.746 204.588 147.871 207.467 149.914C208.797 150.317 209.873 150.046 211.214 149.759C211.478 149.605 211.743 149.452 212.015 149.294C213.925 148.483 216.001 149.257 217.829 149.991C222.241 151.541 227.742 150.9 231.908 148.948C234.122 147.611 235.263 145.571 236.022 143.144C236.355 140.816 236.363 138.904 235.35 136.761C233.932 135.231 232.724 133.95 230.724 133.195C227.208 133.264 224.882 135.431 222.445 137.759C221.016 139.096 220.084 139.531 218.165 139.681C217.793 139.712 217.42 139.743 217.036 139.774C216.752 139.795 216.468 139.815 216.176 139.836C216.135 139.546 216.095 139.256 216.053 138.957C215.393 134.773 213.979 131.159 210.484 128.538C206.737 126.217 204.191 128.067 201.963 131.386Z" fill="black"/>
<path d="M108.055 57.4273C108.364 57.4153 108.672 57.4034 108.99 57.391C110.603 57.3725 111.39 57.4458 112.797 58.314C114.204 59.8158 114.166 61.273 114.141 63.2287C113.972 64.9859 113.167 66.1727 112.138 67.5571C110.693 68.66 109.177 69.0811 107.435 69.5469C107.124 69.6327 106.813 69.7186 106.492 69.807C102.6 70.7345 98.1523 71.2251 94.6178 69.1335C93.5983 68.2898 93.3954 67.9469 92.964 66.6527C92.8108 64.5853 92.8811 63.3232 94.2043 61.6912C95.9278 60.418 97.5838 59.6234 99.6052 58.9261C100.096 58.754 100.587 58.5818 101.093 58.4045C103.451 57.6624 105.598 57.4592 108.055 57.4273ZM102.06 63.7585C100.627 64.3725 100.627 64.3725 99.1659 64.9989C99.1659 65.1353 99.1659 65.2717 99.1659 65.4123C100.257 65.2759 101.349 65.1394 102.474 64.9989C102.337 64.5895 102.201 64.1802 102.06 63.7585Z" fill="black"/>
<path d="M126.868 87.3261C127.333 90.4788 127.333 90.4788 126.868 91.8742C124.284 93.3202 121.16 93.8389 118.288 94.4583C117.956 94.5308 117.624 94.6032 117.282 94.6779C114.917 95.1631 112.672 95.5492 110.329 94.7684C109.864 92.0292 109.864 92.0292 110.329 90.6338C111.222 90.2995 111.222 90.2995 112.422 90.0394C112.867 89.9382 113.311 89.8369 113.769 89.7326C114.272 89.6207 114.774 89.5087 115.291 89.3934C116.455 89.116 117.617 88.8288 118.779 88.5407C119.197 88.44 119.197 88.44 119.623 88.3373C120.802 88.0474 121.916 87.7356 123.037 87.2664C124.389 86.7559 125.476 87.0533 126.868 87.3261Z" fill="black"/>
<path d="M122.32 67.066C122.37 67.535 122.42 68.004 122.472 68.4872C122.542 69.1161 122.612 69.7449 122.682 70.3737C122.714 70.6812 122.747 70.9887 122.78 71.3056C122.956 72.8641 123.19 74.3493 123.599 75.865C124.053 77.7294 123.892 78.8527 123.56 80.7102C123.04 80.787 122.52 80.8637 121.984 80.9428C121.545 81.0075 121.545 81.0075 121.097 81.0736C120.253 81.1237 120.253 81.1237 119.012 80.7102C118.441 79.2523 118.193 77.6929 117.875 76.1621C117.779 75.7416 117.682 75.3211 117.583 74.8878C117.024 72.2808 116.757 70.0965 117.358 67.4794C119.032 66.2963 120.4 66.746 122.32 67.066Z" fill="black"/>
</svg>
