<svg width="222" height="224" viewBox="0 0 222 224" fill="none" xmlns="http://www.w3.org/2000/svg">
<path d="M164.296 2.28488C160.542 4.0939 156.788 7.71196 152.616 13.5565C147.055 21.6275 140.241 29.9768 107.287 69.3578C101.169 76.7331 94.6339 84.665 92.6872 87.1698L89.072 91.7619L65.5731 75.0632C52.5027 65.879 37.7637 54.6074 32.758 50.0152C22.6076 40.6918 17.6019 38.187 11.901 39.4394C6.20004 40.6918 0.916254 47.6496 0.916254 53.6333C0.916254 57.6688 2.30672 59.8953 9.67621 67.5488C14.4038 72.5584 21.0781 78.5421 24.5542 81.0469C28.0304 83.5517 39.4323 91.6227 49.9998 99.1371C60.4283 106.652 69.3273 113.331 69.7445 113.888C70.1616 114.583 66.8245 119.593 62.375 125.298C47.2189 144.363 5.64385 198.077 3.28005 201.556C-2.97706 210.74 3.4191 223.82 14.4038 223.82C22.6076 223.681 18.2971 228.552 78.5044 151.181C86.7082 140.605 93.9386 132.117 94.6339 131.978C95.1901 131.978 114.935 146.311 138.434 163.844C195.165 206.148 202.812 211.296 208.93 211.296C216.022 211.296 222.001 205.034 222.001 197.798C222.001 190.562 220.054 188.197 205.732 177.899C171.249 152.99 113.544 109.295 113.544 108.043C113.544 107.208 124.668 93.4317 138.156 77.2897C174.169 34.4298 184.458 20.2359 184.458 13.8348C184.458 9.93845 183.485 7.71196 180.704 5.06799C175.42 0.0583954 170.971 -0.776535 164.296 2.28488Z" fill="#F45A5A"/>
</svg>
