<svg width="262" height="256" viewBox="0 0 262 256" fill="none" xmlns="http://www.w3.org/2000/svg">
<path d="M120.07 0.913895C101.759 3.77592 96.2198 5.0025 85.9105 8.40967C33.2868 26.3995 0.0507812 73.6909 0.0507812 130.659C0.0507812 186.536 23.7468 220.063 69.2925 228.376C100.374 234.1 126.686 231.783 160.538 220.199C162.692 219.381 162.384 220.744 158.537 227.831C153.306 237.644 152.844 242.277 156.229 248.138C160.538 255.361 170.231 257.269 177.617 252.09C182.079 248.956 193.004 230.557 202.236 210.659C207.776 198.666 208.237 198.121 219.778 190.625C236.242 179.722 255.014 165.139 258.553 160.233C261.938 155.735 262.554 148.649 260.092 144.424C257.63 140.335 249.629 137.337 243.935 138.291C241.166 138.836 235.626 141.698 231.472 144.969C224.855 150.148 224.24 150.284 225.163 147.286C225.779 145.378 227.471 137.064 228.702 128.887C235.78 86.2293 221.624 45.207 191.619 20.8118C180.695 11.9531 169.77 6.63794 156.383 3.50334C146.689 1.32275 126.532 -0.176392 120.07 0.913895ZM157.768 34.0315C170.231 39.483 179.771 48.7505 187.773 63.3332C202.544 90.1816 201.929 125.207 186.08 167.592L181.31 180.267L165.461 187.081C156.691 190.761 143.458 195.531 135.918 197.848C104.683 207.388 64.6764 203.436 49.7509 189.262C44.6732 184.492 37.1335 169.364 34.3639 158.052C30.5171 142.243 30.9787 116.758 35.2871 101.63C41.4419 80.369 54.2132 61.2889 70.2157 49.0231C95.1427 30.0792 133.456 23.5375 157.768 34.0315Z" fill="#5A79F4"/>
</svg>
