<?xml version="1.0" standalone="no"?>
<!DOCTYPE svg PUBLIC "-//W3C//DTD SVG 20010904//EN"
 "http://www.w3.org/TR/2001/REC-SVG-20010904/DTD/svg10.dtd">
<svg version="1.0" xmlns="http://www.w3.org/2000/svg"
 width="200.000000pt" height="200.000000pt" viewBox="0 0 200.000000 200.000000"
 preserveAspectRatio="xMidYMid meet">
<metadata>
Created by potrace 1.10, written by Peter Selinger 2001-2011
</metadata>
<g transform="translate(0.000000,200.000000) scale(0.100000,-0.100000)"
fill="#000000" stroke="none">
<path d="M910 1924 c-119 -21 -155 -30 -222 -55 -342 -132 -558 -479 -558
-897 0 -410 154 -656 450 -717 202 -42 373 -25 593 60 14 6 12 -4 -13 -56 -34
-72 -37 -106 -15 -149 28 -53 91 -67 139 -29 29 23 100 158 160 304 36 88 39
92 114 147 107 80 229 187 252 223 22 33 26 85 10 116 -16 30 -68 52 -105 45
-18 -4 -54 -25 -81 -49 -43 -38 -47 -39 -41 -17 4 14 15 75 23 135 46 313 -46
614 -241 793 -71 65 -142 104 -229 127 -63 16 -194 27 -236 19z m245 -243 c81
-40 143 -108 195 -215 96 -197 92 -454 -11 -765 l-31 -93 -103 -50 c-57 -27
-143 -62 -192 -79 -203 -70 -463 -41 -560 63 -33 35 -82 146 -100 229 -25 116
-22 303 6 414 40 156 123 296 227 386 162 139 411 187 569 110z"/>
</g>
</svg>
