<svg width="31" height="32" viewBox="0 0 31 32" fill="none" xmlns="http://www.w3.org/2000/svg">
<path d="M22.9123 0.670707C22.3861 0.924056 21.8599 1.43075 21.2753 2.24927C20.4958 3.37959 19.5408 4.5489 14.9221 10.0641C14.0646 11.097 13.1486 12.2078 12.8758 12.5586L12.3691 13.2017L9.07555 10.8631C7.24364 9.5769 5.17787 7.99834 4.47629 7.35523C3.05364 6.0495 2.35205 5.69871 1.55303 5.87411C0.754006 6.0495 0.0134468 7.02392 0.0134468 7.86192C0.0134468 8.42709 0.208331 8.7389 1.24122 9.81076C1.90382 10.5123 2.83926 11.3503 3.32647 11.7011C3.81368 12.0519 5.41173 13.1823 6.89285 14.2346C8.35448 15.287 9.60174 16.2224 9.6602 16.3004C9.71867 16.3978 9.25095 17.0994 8.62732 17.8984C6.50308 20.5684 0.676052 28.0909 0.34475 28.5781C-0.532228 29.8643 0.364238 31.6962 1.90382 31.6962C3.05364 31.6767 2.4495 32.3588 10.888 21.5233C12.0378 20.0422 13.0512 18.8534 13.1486 18.8339C13.2266 18.8339 15.9939 20.8412 19.2875 23.2967C27.2387 29.2212 28.3106 29.9423 29.1681 29.9423C30.162 29.9423 31 29.0653 31 28.0519C31 27.0385 30.7272 26.7072 28.7199 25.2651C23.8867 21.7766 15.799 15.6573 15.799 15.4819C15.799 15.365 17.3581 13.4356 19.2485 11.175C24.296 5.17253 25.7381 3.18471 25.7381 2.28824C25.7381 1.74257 25.6017 1.43075 25.2119 1.06047C24.4714 0.358892 23.8478 0.241962 22.9123 0.670707Z" fill="#F45A5A"/>
</svg>
