<?xml version="1.0" standalone="no"?>
<!DOCTYPE svg PUBLIC "-//W3C//DTD SVG 20010904//EN"
 "http://www.w3.org/TR/2001/REC-SVG-20010904/DTD/svg10.dtd">
<svg version="1.0" xmlns="http://www.w3.org/2000/svg"
 width="200.000000pt" height="200.000000pt" viewBox="0 0 200.000000 200.000000"
 preserveAspectRatio="xMidYMid meet">
<metadata>
Created by potrace 1.10, written by Peter Selinger 2001-2011
</metadata>
<g transform="translate(0.000000,200.000000) scale(0.100000,-0.100000)"
fill="currentColor" stroke="currentColor">
<path d="M1395 1832 c-27 -13 -54 -39 -84 -81 -40 -58 -89 -118 -326 -401 -44
-53 -91 -110 -105 -128 l-26 -33 -169 120 c-94 66 -200 147 -236 180 -73 67
-109 85 -150 76 -41 -9 -79 -59 -79 -102 0 -29 10 -45 63 -100 34 -36 82 -79
107 -97 25 -18 107 -76 183 -130 75 -54 139 -102 142 -106 3 -5 -21 -41 -53
-82 -109 -137 -408 -523 -425 -548 -45 -66 1 -160 80 -160 59 1 28 -34 461
522 59 76 111 137 116 138 4 0 146 -103 315 -229 408 -304 463 -341 507 -341
51 0 94 45 94 97 0 52 -14 69 -117 143 -248 179 -663 493 -663 502 0 6 80 105
177 221 259 308 333 410 333 456 0 28 -7 44 -27 63 -38 36 -70 42 -118 20z"/>
</g>
</svg>
