<?xml version="1.0" standalone="no"?>
<!DOCTYPE svg PUBLIC "-//W3C//DTD SVG 20010904//EN"
 "http://www.w3.org/TR/2001/REC-SVG-20010904/DTD/svg10.dtd">
<svg version="1.0" xmlns="http://www.w3.org/2000/svg"
 width="300.000000pt" height="200.000000pt" viewBox="0 0 300.000000 200.000000"
 preserveAspectRatio="xMidYMid meet">
<metadata>
Created by potrace 1.10, written by Peter Selinger 2001-2011
</metadata>
<g transform="translate(0.000000,200.000000) scale(0.100000,-0.100000)"
fill="#000000" stroke="none">
<path d="M2910 1799 c-25 -5 -178 -13 -340 -18 -341 -11 -386 -19 -438 -76
-31 -34 -34 -41 -30 -86 6 -62 43 -116 179 -264 167 -181 214 -267 293 -529
54 -175 48 -226 -25 -226 -54 0 -140 31 -268 94 -187 94 -348 211 -618 448
-205 180 -311 252 -430 293 -155 54 -303 51 -423 -8 -88 -44 -105 -70 -105
-160 1 -104 43 -170 185 -287 101 -83 196 -177 219 -214 11 -17 25 -49 31 -72
11 -35 10 -46 -5 -77 -48 -102 -327 -212 -640 -252 -100 -13 -377 -33 -482
-35 -7 0 -13 -7 -13 -17 0 -15 16 -16 168 -10 423 17 728 87 917 213 72 48 99
91 93 152 -9 94 -68 172 -232 309 -165 138 -206 195 -206 290 0 71 15 95 78
127 132 67 305 60 467 -19 99 -48 185 -112 375 -276 296 -257 415 -342 625
-444 225 -110 310 -120 349 -41 18 37 18 41 2 118 -24 112 -101 332 -142 405
-42 75 -91 138 -200 256 -100 107 -151 180 -160 224 -5 28 -2 37 27 66 46 46
108 56 400 63 213 5 376 16 422 30 9 3 17 12 17 20 0 16 -22 16 -90 3z"/>
</g>
</svg>
