<svg width="1280" height="768" viewBox="0 0 1280 768" fill="none" xmlns="http://www.w3.org/2000/svg">
<path d="M1365.84 5.07996C1351.5 7.62122 1263.78 11.6872 1170.9 14.2285C975.396 19.8193 949.596 23.8853 919.782 52.8557C902.009 70.1362 900.289 73.694 902.582 96.5654C906.022 128.077 927.235 155.523 1005.21 230.744C1100.96 322.738 1127.9 366.447 1173.2 499.61C1204.16 588.554 1200.72 614.475 1158.86 614.475C1127.9 614.475 1078.6 598.719 1005.21 566.699C897.995 518.923 805.689 459.458 650.889 339.002C533.356 247.516 472.582 210.922 404.356 190.084C315.489 162.638 230.636 164.163 161.836 194.15C111.382 216.513 101.636 229.728 101.636 275.47C102.209 328.328 126.289 361.873 207.702 421.339C265.609 463.524 320.076 511.299 333.262 530.105C339.569 538.745 347.596 555.009 351.036 566.699C357.342 584.488 356.769 590.078 348.169 605.834C320.649 657.676 160.689 713.584 -18.7645 733.914C-76.0978 740.521 -234.911 750.686 -295.111 751.703C-299.124 751.703 -302.564 755.261 -302.564 760.343C-302.564 767.967 -293.391 768.475 -206.244 765.426C36.2755 756.785 211.142 721.208 319.502 657.168C360.782 632.772 376.262 610.917 372.822 579.913C367.662 532.138 333.836 492.494 239.809 422.863C145.209 352.725 121.702 323.754 121.702 275.47C121.702 239.384 130.302 227.186 166.422 210.922C242.102 176.869 341.289 180.427 434.169 220.579C490.929 244.975 540.236 277.503 649.169 360.857C818.875 491.478 887.102 534.679 1007.5 586.521C1136.5 642.428 1185.24 647.511 1207.6 607.359C1217.92 588.554 1217.92 586.521 1208.74 547.385C1194.98 490.461 1150.84 378.645 1127.33 341.543C1103.25 303.424 1075.16 271.404 1012.66 211.43C955.329 157.047 926.089 119.945 920.929 97.5819C918.062 83.3508 919.782 78.7766 936.409 64.0372C962.782 40.6576 998.329 35.5751 1165.74 32.0173C1287.86 29.4761 1381.32 23.8853 1407.69 16.7698C1412.85 15.245 1417.44 10.6707 1417.44 6.60468C1417.44 -1.52734 1404.82 -1.52734 1365.84 5.07996Z" fill="black" fill-opacity="0.1"/>
</svg>
