<?xml version="1.0" standalone="no"?>
<!DOCTYPE svg PUBLIC "-//W3C//DTD SVG 20010904//EN"
 "http://www.w3.org/TR/2001/REC-SVG-20010904/DTD/svg10.dtd">
<svg version="1.0" xmlns="http://www.w3.org/2000/svg"
 width="300.000000pt" height="200.000000pt" viewBox="0 0 300.000000 200.000000"
 preserveAspectRatio="xMidYMid meet">
<metadata>
Created by potrace 1.10, written by Peter Selinger 2001-2011
</metadata>
<g transform="translate(0.000000,200.000000) scale(0.100000,-0.100000)"
fill="#000000" stroke="none">
<path d="M1009 1296 c-102 -27 -146 -75 -156 -169 -10 -95 47 -215 160 -335
l52 -55 -106 6 c-350 21 -649 173 -895 455 -62 70 -64 72 -64 43 0 -25 19 -49
110 -140 123 -124 215 -193 340 -256 181 -91 356 -135 538 -135 l110 0 84 -53
c290 -182 718 -236 1051 -133 l48 14 126 -59 c174 -82 331 -143 443 -172 152
-40 150 -40 150 -20 0 15 -22 24 -112 47 -62 15 -151 43 -198 61 -116 44 -360
156 -360 165 0 4 11 12 25 18 42 19 117 95 136 137 59 130 -29 297 -198 377
-111 53 -216 47 -299 -17 -75 -57 -95 -163 -50 -253 29 -58 128 -153 219 -212
37 -24 64 -47 60 -51 -4 -4 -42 -15 -83 -24 -109 -26 -377 -32 -496 -11 -156
27 -334 91 -444 161 l-45 28 76 24 c201 61 286 199 213 347 -51 105 -169 193
-289 215 -71 13 -87 13 -146 -3z m239 -66 c128 -68 211 -199 183 -290 -25 -85
-126 -155 -260 -182 l-64 -13 -74 80 c-96 103 -143 194 -143 277 0 121 64 170
215 165 68 -3 89 -8 143 -37z m1034 -169 c94 -46 174 -140 193 -228 16 -77
-50 -180 -148 -229 l-49 -25 -75 47 c-92 58 -205 161 -228 211 -48 100 -14
193 85 238 50 22 162 15 222 -14z"/>
</g>
</svg>
