<?xml version="1.0" standalone="no"?>
<!DOCTYPE svg PUBLIC "-//W3C//DTD SVG 20010904//EN"
 "http://www.w3.org/TR/2001/REC-SVG-20010904/DTD/svg10.dtd">
<svg version="1.0" xmlns="http://www.w3.org/2000/svg"
 width="300.000000pt" height="200.000000pt" viewBox="0 0 300.000000 200.000000"
 preserveAspectRatio="xMidYMid meet">
<metadata>
Created by potrace 1.10, written by Peter Selinger 2001-2011
</metadata>
<g transform="translate(0.000000,200.000000) scale(0.100000,-0.100000)"
fill="#000000" stroke="none">
<path d="M2700 1997 c0 -2 9 -30 20 -63 42 -122 44 -534 4 -739 -26 -132 -43
-184 -101 -305 -46 -96 -66 -126 -122 -180 -79 -78 -193 -139 -321 -171 -97
-24 -338 -36 -455 -22 l-69 8 69 40 c87 50 173 134 206 200 20 42 24 64 24
146 0 92 -1 98 -42 181 -101 202 -305 335 -613 398 -303 62 -613 18 -750 -106
-51 -47 -70 -87 -70 -152 0 -104 93 -215 307 -367 233 -165 432 -268 633 -325
l95 -28 -69 -21 c-85 -26 -256 -57 -395 -71 -274 -27 -633 2 -939 75 -57 14
-105 25 -108 25 -2 0 -4 -8 -4 -19 0 -16 22 -23 148 -50 200 -43 317 -59 517
-71 310 -18 624 18 860 100 55 19 67 20 135 9 120 -20 379 -17 480 5 175 37
329 118 414 218 87 100 163 276 200 459 61 298 37 829 -36 829 -10 0 -18 -2
-18 -3z m-1379 -546 c111 -25 252 -78 324 -122 114 -68 220 -192 261 -304 10
-29 18 -79 18 -120 1 -57 -4 -80 -27 -127 -36 -74 -115 -144 -222 -199 -99
-50 -115 -49 -298 11 -244 82 -567 276 -756 455 -67 64 -95 108 -106 167 -21
110 91 205 293 249 116 25 383 20 513 -10z"/>
</g>
</svg>
