<?xml version="1.0" standalone="no"?>
<!DOCTYPE svg PUBLIC "-//W3C//DTD SVG 20010904//EN"
 "http://www.w3.org/TR/2001/REC-SVG-20010904/DTD/svg10.dtd">
<svg version="1.0" xmlns="http://www.w3.org/2000/svg"
 width="300.000000pt" height="200.000000pt" viewBox="0 0 300.000000 200.000000"
 preserveAspectRatio="xMidYMid meet">
<metadata>
Created by potrace 1.10, written by Peter Selinger 2001-2011
</metadata>
<g transform="translate(0.000000,200.000000) scale(0.100000,-0.100000)"
fill="#000000" stroke="none">
<path d="M2969 1627 c-112 -95 -393 -316 -476 -375 -268 -190 -547 -327 -848
-417 -117 -34 -332 -77 -348 -68 -4 2 -17 23 -28 46 -12 23 -40 67 -64 97 -32
42 -40 60 -34 75 14 35 10 141 -7 181 -54 129 -184 192 -315 152 -73 -21 -143
-100 -162 -179 -6 -23 -13 -27 -55 -31 -215 -21 -385 -283 -317 -488 21 -62
80 -127 143 -156 23 -10 42 -22 42 -26 0 -9 -129 -37 -230 -50 -47 -6 -127 -8
-178 -5 -83 5 -93 4 -90 -11 3 -15 22 -17 173 -16 152 1 181 4 270 29 140 38
141 38 178 31 31 -6 35 -11 51 -68 31 -111 136 -188 257 -188 145 0 339 133
389 266 24 66 27 179 5 250 -8 27 -15 50 -15 51 0 1 21 5 48 8 165 23 421 98
612 180 244 104 514 274 791 497 247 199 241 193 237 216 -3 20 -3 20 -29 -1z
m-1933 -362 c73 -43 121 -138 111 -222 -2 -24 -6 -46 -9 -48 -2 -2 -30 9 -63
25 -33 16 -89 33 -125 39 -103 16 -230 54 -230 69 0 22 37 86 67 114 65 62
167 71 249 23z m-358 -230 c2 -38 -1 -42 -42 -67 -25 -14 -59 -46 -75 -69 -35
-48 -71 -153 -71 -208 0 -60 27 -134 66 -179 45 -53 30 -62 -50 -31 -128 47
-191 157 -167 288 28 149 125 261 260 297 67 19 76 15 79 -31z m111 29 c41 -9
39 -19 -9 -38 -59 -23 -70 -21 -70 14 0 33 14 37 79 24z m258 -69 c48 -20 73
-43 66 -61 -4 -11 -16 -6 -52 22 -78 63 -79 66 -14 39z m-109 -32 c41 -19 72
-66 72 -108 0 -29 -3 -31 -56 -41 -49 -9 -61 -8 -93 9 -39 21 -97 72 -112 100
-8 13 -4 23 16 43 25 24 31 26 82 20 31 -4 72 -14 91 -23z m-248 -47 c-5 -15
-10 -51 -10 -79 0 -65 27 -113 75 -133 19 -8 35 -16 35 -19 0 -2 -19 -25 -42
-52 -23 -26 -50 -67 -60 -89 -10 -23 -25 -45 -34 -48 -23 -9 -59 17 -91 66
-70 105 -21 311 90 378 37 23 52 14 37 -24z m390 -25 c0 -5 -6 -14 -13 -20
-11 -9 -17 -3 -30 29 l-16 40 30 -21 c16 -11 29 -24 29 -28z m107 -13 c29 -42
63 -101 63 -113 0 -3 -9 -5 -20 -5 -13 0 -27 14 -41 43 -12 23 -30 51 -40 63
-18 19 -18 54 0 54 4 0 21 -19 38 -42z m-358 -78 c3 0 12 -4 19 -9 11 -6 8
-14 -13 -35 -30 -30 -51 -33 -82 -11 -27 19 -48 84 -39 120 l7 26 50 -45 c28
-25 54 -46 58 -46z m322 -2 c15 -30 16 -38 5 -38 -7 0 -19 6 -25 14 -6 8 -25
19 -42 26 l-30 13 22 23 c26 28 40 21 70 -38z m-87 -27 c4 -5 -3 -7 -14 -4
-23 6 -26 13 -6 13 8 0 17 -4 20 -9z m-154 -15 c0 -2 -7 -7 -16 -10 -8 -3 -12
-2 -9 4 6 10 25 14 25 6z m39 -47 c-16 -23 -27 -29 -43 -25 -11 3 -32 6 -46 7
-20 0 -16 3 15 13 23 7 50 18 60 24 33 19 37 13 14 -19z m187 -4 c29 -39 6
-122 -48 -172 -39 -37 -108 -63 -169 -63 -31 0 -59 3 -63 7 -3 4 8 21 25 39
17 18 39 54 48 81 9 26 32 68 51 93 l34 46 54 -6 c37 -4 59 -12 68 -25z m152
-21 c8 -21 15 -77 16 -124 1 -74 -3 -92 -27 -141 -74 -151 -291 -256 -432
-209 -73 24 -144 113 -145 180 l0 25 128 0 c122 0 130 1 194 32 119 56 183
135 190 233 2 25 9 37 23 41 31 10 37 6 53 -37z m-404 -32 c2 -4 -10 -19 -27
-33 -53 -42 -57 -43 -57 -14 0 20 8 29 33 40 38 17 44 18 51 7z m-2 -79 c-6
-10 -22 -29 -36 -42 -23 -22 -26 -23 -32 -6 -5 11 -1 21 8 26 8 4 26 17 39 28
28 22 35 20 21 -6z m-122 -3 c0 -10 -9 -24 -21 -30 -20 -11 -20 -11 -4 19 18
36 25 39 25 11z m30 -81 c0 -9 -48 -29 -70 -29 -32 0 -23 18 18 39 34 18 51
15 52 -10z m45 -39 c4 -6 -6 -10 -22 -10 -22 0 -25 2 -13 10 19 12 27 12 35 0z"/>
</g>
</svg>
