<?xml version="1.0" standalone="no"?>
<!DOCTYPE svg PUBLIC "-//W3C//DTD SVG 20010904//EN"
 "http://www.w3.org/TR/2001/REC-SVG-20010904/DTD/svg10.dtd">
<svg version="1.0" xmlns="http://www.w3.org/2000/svg"
 width="200.000000pt" height="200.000000pt" viewBox="0 0 200.000000 200.000000"
 preserveAspectRatio="xMidYMid meet">
<metadata>
Created by potrace 1.10, written by Peter Selinger 2001-2011
</metadata>
<g transform="translate(0.000000,200.000000) scale(0.100000,-0.100000)"
fill="#000000" stroke="none">
<path d="M1301 1966 c-11 -13 -11 -27 -2 -73 19 -94 49 -108 99 -45 62 78 49
121 -37 130 -35 3 -50 0 -60 -12z"/>
<path d="M1645 1938 c-116 -41 -234 -198 -235 -311 0 -49 19 -109 40 -122 8
-5 10 10 5 62 -6 60 -4 75 15 112 48 96 146 171 222 171 62 0 69 -7 37 -39
-27 -28 -28 -30 -16 -71 19 -67 39 -72 88 -25 48 47 69 84 69 122 0 81 -124
137 -225 101z"/>
<path d="M963 1930 c-43 -10 -99 -53 -119 -91 -13 -25 -13 -39 -4 -85 14 -67
43 -93 73 -66 11 9 26 31 33 49 18 43 69 54 116 26 l33 -19 -1 -140 c-1 -155
-6 -174 -74 -280 -38 -57 -50 -94 -32 -94 5 0 37 29 71 65 98 101 145 230 158
431 l6 94 -44 44 c-31 31 -60 49 -98 60 -59 17 -69 18 -118 6z"/>
<path d="M600 1731 c0 -17 11 -42 25 -59 14 -16 43 -69 65 -117 41 -90 62
-105 68 -47 5 53 -52 225 -82 244 -6 4 -26 8 -43 8 -30 0 -33 -3 -33 -29z"/>
<path d="M194 1705 c-4 -8 -3 -30 0 -48 16 -87 114 -106 154 -30 16 30 17 29
-30 63 -46 34 -114 42 -124 15z"/>
<path d="M1606 1516 c-38 -47 -46 -85 -21 -106 12 -10 20 -9 40 4 13 9 31 16
39 16 19 0 76 66 76 88 0 28 -21 42 -61 42 -31 0 -42 -7 -73 -44z"/>
<path d="M1256 1435 c-7 -18 3 -75 16 -92 15 -18 53 4 74 42 15 28 16 36 5 49
-18 21 -87 21 -95 1z"/>
<path d="M446 1192 c-100 -198 -141 -301 -224 -552 -67 -201 -98 -315 -108
-391 -4 -28 -14 -55 -25 -65 -11 -9 -19 -28 -19 -42 0 -28 28 -92 41 -92 5 0
35 14 66 31 78 43 272 115 478 178 496 153 596 193 635 256 12 19 20 41 17 48
-11 30 -396 488 -542 646 -61 66 -180 151 -211 151 -20 0 -35 -24 -108 -168z
m181 2 c48 -39 281 -313 429 -504 92 -117 92 -118 67 -129 -37 -17 -46 -13
-73 30 -34 56 -211 225 -289 277 -70 47 -158 77 -251 88 -36 4 -64 12 -67 20
-6 16 116 254 130 254 6 0 30 -16 54 -36z m-92 -354 c53 -26 106 -62 157 -109
97 -90 214 -229 202 -241 -5 -5 -58 -23 -119 -41 l-110 -31 -75 50 c-85 56
-175 97 -250 113 -27 6 -50 13 -50 15 0 8 92 259 102 277 13 24 39 18 143 -33z
m-104 -413 l72 -60 -89 -32 c-49 -18 -120 -46 -158 -64 -38 -17 -71 -31 -73
-31 -7 0 3 39 44 171 l36 117 48 -20 c26 -11 80 -47 120 -81z"/>
<path d="M1339 1219 c-73 -47 -139 -107 -139 -127 0 -9 10 -6 32 10 18 13 82
48 142 78 60 30 112 61 114 68 2 8 -10 12 -41 12 -34 0 -58 -9 -108 -41z"/>
<path d="M1633 1230 c-26 -11 -28 -19 -10 -42 9 -12 35 -17 104 -20 51 -2 98
-9 106 -16 8 -7 21 -10 29 -7 20 8 41 48 36 71 -3 17 -15 19 -123 21 -66 1
-130 -2 -142 -7z"/>
<path d="M1410 986 c-68 -20 -97 -33 -120 -56 -19 -19 -18 -38 4 -67 1 -1 24
4 51 12 107 33 201 11 264 -61 l35 -39 -50 -8 c-89 -14 -116 -75 -73 -164 31
-64 87 -86 149 -59 12 5 21 -4 34 -34 22 -50 46 -52 80 -7 38 49 42 81 16 124
-20 35 -21 41 -10 94 14 66 7 98 -36 155 -76 99 -220 145 -344 110z"/>
<path d="M1386 294 c-22 -21 -11 -62 25 -96 36 -35 53 -35 78 1 36 50 42 77
22 95 -23 21 -104 21 -125 0z"/>
</g>
</svg>
