<?xml version="1.0" standalone="no"?>
<!DOCTYPE svg PUBLIC "-//W3C//DTD SVG 20010904//EN"
 "http://www.w3.org/TR/2001/REC-SVG-20010904/DTD/svg10.dtd">
<svg version="1.0" xmlns="http://www.w3.org/2000/svg"
 width="200.000000pt" height="200.000000pt" viewBox="0 0 200.000000 200.000000"
 preserveAspectRatio="xMidYMid meet">
<metadata>
Created by potrace 1.10, written by Peter Selinger 2001-2011
</metadata>
<g transform="translate(0.000000,200.000000) scale(0.100000,-0.100000)"
fill="currentColor" stroke="none">
<path d="M986 1894 c-20 -20 -20 -43 3 -127 32 -118 75 -138 135 -64 22 27 40
64 48 97 l12 53 -32 28 c-28 25 -40 29 -91 29 -41 0 -65 -5 -75 -16z"/>
<path d="M1658 1899 c-22 -12 -22 -32 -2 -95 20 -57 40 -84 65 -84 27 0 71 64
76 113 4 38 2 44 -25 60 -33 19 -87 22 -114 6z"/>
<path d="M142 1765 c-24 -18 -24 -26 5 -120 30 -98 79 -114 133 -44 45 56 51
115 16 148 -34 32 -120 41 -154 16z"/>
<path d="M1616 1635 c-34 -37 -119 -177 -211 -345 -66 -123 -72 -130 -81 -104
-4 10 -28 73 -54 139 -26 66 -51 136 -55 155 -4 20 -20 47 -37 63 -26 23 -40
27 -88 27 -40 0 -64 -5 -79 -17 -22 -18 -67 -121 -172 -392 -33 -85 -64 -161
-68 -169 -6 -11 -19 -2 -52 38 -61 73 -238 230 -322 286 -52 35 -74 57 -86 86
-19 45 -60 68 -114 64 -69 -6 -69 -5 -57 -257 5 -123 15 -282 21 -354 13 -154
57 -514 65 -526 3 -5 -2 -9 -10 -9 -25 0 -46 -30 -46 -67 0 -57 28 -136 61
-170 34 -37 32 -37 79 -23 122 35 622 69 1027 70 117 0 258 5 314 12 88 10
104 14 125 37 95 100 122 255 131 750 4 233 2 347 -6 401 -7 41 -16 121 -20
178 -8 101 -8 103 -42 132 -31 27 -40 29 -113 30 -77 0 -79 -1 -110 -35z m24
-905 c-15 -344 -11 -326 -68 -334 -26 -4 -222 -11 -437 -15 -241 -5 -454 -15
-557 -26 -92 -10 -173 -15 -181 -12 -11 4 -17 30 -22 89 -3 46 -13 128 -21
183 -37 265 -57 545 -38 545 30 0 262 -228 404 -397 29 -34 59 -65 68 -68 23
-9 75 52 90 104 7 21 55 124 106 228 90 180 95 187 105 160 14 -35 89 -271
125 -389 27 -91 65 -148 97 -148 25 0 95 94 118 161 18 53 94 197 165 313 20
33 39 69 43 80 13 35 15 -203 3 -474z"/>
</g>
</svg>
