<?xml version="1.0" standalone="no"?>
<!DOCTYPE svg PUBLIC "-//W3C//DTD SVG 20010904//EN"
 "http://www.w3.org/TR/2001/REC-SVG-20010904/DTD/svg10.dtd">
<svg version="1.0" xmlns="http://www.w3.org/2000/svg"
 width="200.000000pt" height="200.000000pt" viewBox="0 0 200.000000 200.000000"
 preserveAspectRatio="xMidYMid meet">
<metadata>
Created by potrace 1.10, written by Peter Selinger 2001-2011
</metadata>
<g transform="translate(0.000000,200.000000) scale(0.100000,-0.100000)"
fill="currentColor" stroke="none">
<path d="M1318 1877 c-128 -42 -204 -159 -179 -276 18 -88 65 -154 229 -316
l152 -151 0 -61 c0 -75 -22 -110 -63 -99 -14 3 -70 36 -124 73 -240 164 -346
233 -386 252 -102 50 -280 2 -322 -86 -32 -67 -10 -154 63 -242 20 -25 94
-105 164 -178 133 -138 149 -166 133 -230 -8 -35 -23 -53 -53 -64 -35 -13 -91
15 -283 141 -91 60 -185 117 -209 125 -61 21 -148 19 -187 -5 -55 -33 -66 -60
-61 -145 6 -95 49 -184 131 -271 65 -70 189 -160 206 -150 27 17 10 52 -45 96
-121 96 -211 229 -221 324 -4 44 -2 54 17 71 49 44 149 16 275 -77 182 -134
295 -198 351 -198 77 0 144 89 144 192 0 76 -31 137 -108 214 -120 121 -251
275 -257 305 -14 62 61 119 158 119 47 0 64 -6 141 -53 48 -29 147 -96 220
-150 177 -128 210 -147 268 -147 39 0 50 4 72 30 32 39 46 89 46 168 0 87 -20
121 -158 265 -174 181 -212 236 -212 306 0 93 168 162 291 119 59 -20 178 -91
237 -140 31 -27 64 -48 74 -48 20 0 38 29 38 59 0 44 -116 137 -248 199 -68
31 -88 36 -167 39 -53 1 -105 -3 -127 -10z"/>
<path d="M1460 1598 c0 -14 200 -222 218 -226 15 -4 46 64 38 84 -3 8 -16 18
-28 23 -13 5 -58 37 -102 70 -73 57 -126 78 -126 49z"/>
<path d="M1017 1435 c59 -73 80 -92 90 -83 21 17 15 42 -14 55 -16 7 -54 37
-86 68 -31 30 -60 55 -63 55 -2 0 30 -43 73 -95z"/>
<path d="M895 1070 c-4 -6 0 -21 9 -34 25 -39 206 -201 224 -201 10 0 20 13
26 34 9 32 8 36 -19 55 -15 12 -69 51 -118 89 -90 67 -110 76 -122 57z"/>
<path d="M492 961 c4 -25 194 -221 214 -221 16 0 34 39 34 75 0 17 -9 29 -28
39 -15 8 -60 40 -99 70 -76 59 -128 75 -121 37z"/>
<path d="M420 537 c0 -7 28 -42 63 -78 100 -105 137 -121 137 -58 0 22 -6 32
-23 38 -12 5 -50 32 -84 60 -60 50 -93 64 -93 38z"/>
</g>
</svg>
