<?xml version="1.0" standalone="no"?>
<!DOCTYPE svg PUBLIC "-//W3C//DTD SVG 20010904//EN"
 "http://www.w3.org/TR/2001/REC-SVG-20010904/DTD/svg10.dtd">
<svg version="1.0" xmlns="http://www.w3.org/2000/svg"
 width="200.000000pt" height="200.000000pt" viewBox="0 0 200.000000 200.000000"
 preserveAspectRatio="xMidYMid meet">
<metadata>
Created by potrace 1.10, written by Peter Selinger 2001-2011
</metadata>
<g transform="translate(0.000000,200.000000) scale(0.100000,-0.100000)"
fill="currentColor" stroke="none">
<path d="M933 1840 c-179 -26 -378 -131 -498 -261 -97 -105 -167 -242 -196
-383 -23 -111 -24 -193 -3 -293 32 -155 90 -260 209 -378 135 -134 251 -182
420 -172 90 5 183 22 173 32 -2 2 -24 -1 -48 -6 -25 -6 -91 -9 -147 -7 -97 4
-108 7 -189 47 -69 34 -103 60 -168 125 -91 92 -135 160 -174 268 -24 66 -27
86 -27 213 0 120 3 150 23 209 68 203 196 349 387 441 135 65 197 80 350 79
112 0 138 -3 190 -24 115 -44 192 -107 238 -194 33 -62 31 -205 -5 -303 -57
-159 -226 -353 -373 -430 -194 -101 -353 -101 -428 -1 -137 184 -73 412 159
567 84 56 168 86 214 76 17 -4 44 -18 60 -32 38 -32 40 -86 6 -158 -23 -49
-100 -131 -163 -173 -39 -27 -53 -28 -53 -2 0 27 -46 45 -77 31 -26 -12 -29
-39 -12 -92 36 -107 120 -105 249 5 201 171 237 405 77 497 -34 19 -56 24
-114 24 -63 -1 -81 -6 -150 -40 -157 -79 -301 -257 -333 -412 -36 -174 42
-363 177 -429 51 -25 68 -29 143 -28 242 3 495 180 647 452 80 144 107 335 63
459 -73 208 -343 334 -627 293z"/>
</g>
</svg>
