<?xml version="1.0" standalone="no"?>
<!DOCTYPE svg PUBLIC "-//W3C//DTD SVG 20010904//EN"
 "http://www.w3.org/TR/2001/REC-SVG-20010904/DTD/svg10.dtd">
<svg version="1.0" xmlns="http://www.w3.org/2000/svg"
 width="200.000000pt" height="200.000000pt" viewBox="0 0 200.000000 200.000000"
 preserveAspectRatio="xMidYMid meet">
<metadata>
Created by potrace 1.10, written by Peter Selinger 2001-2011
</metadata>
<g transform="translate(0.000000,200.000000) scale(0.100000,-0.100000)"
fill="currentColor" stroke="none">
<path d="M1388 1656 c-61 -22 -131 -67 -184 -121 l-51 -50 -29 18 c-105 67
-233 97 -327 78 -139 -30 -276 -133 -357 -269 -96 -164 -144 -417 -109 -584
16 -76 71 -190 104 -216 44 -35 48 -26 10 24 -158 206 -70 669 163 856 20 17
66 45 102 62 57 27 75 31 150 31 73 0 93 -4 140 -28 101 -52 98 -41 41 -159
-90 -186 -119 -371 -86 -554 55 -307 195 -521 320 -490 35 9 106 76 144 134
72 113 110 302 91 456 -21 171 -84 320 -203 478 l-61 81 47 43 c82 74 201 114
255 85 28 -15 57 2 78 47 18 39 9 57 -43 79 -41 16 -147 16 -195 -1z m-153
-403 c60 -77 141 -241 161 -328 23 -101 15 -299 -15 -377 -29 -75 -79 -148
-113 -168 -26 -14 -29 -13 -58 15 -40 39 -92 146 -126 260 -23 77 -27 109 -28
220 0 94 5 148 17 195 20 72 96 240 109 240 4 0 28 -26 53 -57z"/>
</g>
</svg>
