<?xml version="1.0" standalone="no"?>
<!DOCTYPE svg PUBLIC "-//W3C//DTD SVG 20010904//EN"
 "http://www.w3.org/TR/2001/REC-SVG-20010904/DTD/svg10.dtd">
<svg version="1.0" xmlns="http://www.w3.org/2000/svg"
 width="300.000000pt" height="150.000000pt" viewBox="0 0 300.000000 150.000000"
 preserveAspectRatio="xMidYMid meet">
<metadata>
Created by potrace 1.10, written by Peter Selinger 2001-2011
</metadata>
<g transform="translate(0.000000,150.000000) scale(0.100000,-0.100000)"
fill="#000000" stroke="none">
<path d="M2195 1097 c-90 -30 -141 -66 -286 -203 -110 -103 -165 -128 -289
-128 -109 -1 -152 21 -280 139 -126 116 -196 150 -306 150 -75 0 -87 -3 -166
-42 -62 -31 -112 -67 -179 -128 -115 -105 -189 -145 -268 -145 -106 1 -191 63
-270 198 -46 80 -77 98 -111 67 -28 -26 -25 -48 17 -123 45 -82 151 -190 218
-223 42 -20 64 -24 146 -24 88 0 100 2 162 34 40 20 105 69 164 123 122 111
201 153 288 153 76 0 113 -18 210 -103 127 -112 168 -141 225 -163 111 -43
255 -32 370 26 28 14 94 66 148 116 164 153 214 179 345 179 111 0 150 -20
306 -160 92 -81 131 -110 150 -110 34 0 51 17 51 50 0 41 -221 238 -335 298
-44 23 -64 26 -160 29 -71 2 -124 -2 -150 -10z"/>
</g>
</svg>
