<?xml version="1.0" standalone="no"?>
<!DOCTYPE svg PUBLIC "-//W3C//DTD SVG 20010904//EN"
 "http://www.w3.org/TR/2001/REC-SVG-20010904/DTD/svg10.dtd">
<svg version="1.0" xmlns="http://www.w3.org/2000/svg"
 width="200.000000pt" height="200.000000pt" viewBox="0 0 200.000000 200.000000"
 preserveAspectRatio="xMidYMid meet">
<metadata>
Created by potrace 1.10, written by Peter Selinger 2001-2011
</metadata>
<g transform="translate(0.000000,200.000000) scale(0.100000,-0.100000)"
fill="currentColor" stroke="none">
<path d="M1567 1368 c-138 -276 -248 -540 -337 -804 l-48 -144 -25 42 c-27 47
-84 174 -142 313 -79 191 -202 599 -227 750 -14 83 -23 97 -57 93 -22 -3 -35
-20 -83 -113 -71 -136 -218 -465 -269 -603 -66 -179 -100 -330 -106 -479 -5
-119 -4 -133 11 -139 29 -11 39 11 47 108 20 232 73 393 280 852 l103 229 13
-54 c102 -416 218 -746 354 -1009 92 -177 116 -202 152 -162 12 14 17 37 17
87 0 78 22 149 136 436 110 279 164 392 362 762 l37 68 -24 20 c-48 39 -50 35
-194 -253z"/>
<path d="M1017 1523 c-2 -5 2 -55 9 -113 7 -58 13 -130 13 -161 1 -77 18 -90
63 -50 29 26 32 32 20 50 -7 12 -21 69 -33 127 -11 58 -24 116 -29 130 -9 23
-34 33 -43 17z"/>
<path d="M1679 1038 c-108 -147 -259 -639 -223 -732 8 -21 34 -20 60 2 31 26
44 55 33 73 -37 59 41 417 132 607 22 46 38 86 35 89 -2 3 -19 -15 -37 -39z"/>
<path d="M670 833 c1 -51 58 -304 72 -318 8 -9 36 5 42 22 3 8 -9 47 -28 86
-38 79 -81 230 -72 253 3 8 1 14 -4 14 -6 0 -10 -26 -10 -57z"/>
</g>
</svg>
