<?xml version="1.0" standalone="no"?>
<!DOCTYPE svg PUBLIC "-//W3C//DTD SVG 20010904//EN"
 "http://www.w3.org/TR/2001/REC-SVG-20010904/DTD/svg10.dtd">
<svg version="1.0" xmlns="http://www.w3.org/2000/svg"
 width="200.000000pt" height="200.000000pt" viewBox="0 0 200.000000 200.000000"
 preserveAspectRatio="xMidYMid meet">
<metadata>
Created by potrace 1.10, written by Peter Selinger 2001-2011
</metadata>
<g transform="translate(0.000000,200.000000) scale(0.100000,-0.100000)"
fill="currentColor" stroke="none">
<path d="M673 1886 c-78 -25 -223 -113 -378 -230 -160 -121 -185 -154 -151
-201 13 -18 23 -13 182 92 93 61 184 118 203 128 l34 17 -33 -59 c-18 -32 -36
-62 -40 -68 -4 -5 -53 -94 -109 -197 -55 -103 -118 -216 -139 -250 -95 -156
-122 -213 -114 -243 5 -16 16 -33 25 -39 15 -9 24 -3 54 34 79 97 252 246 483
417 149 110 341 243 380 263 l25 13 -26 -34 c-14 -19 -97 -134 -183 -257 -86
-122 -208 -294 -271 -382 -220 -306 -238 -342 -199 -398 24 -34 48 -27 95 30
52 61 191 186 349 313 113 90 466 353 525 391 l30 19 -26 -35 c-14 -19 -88
-120 -163 -224 -76 -104 -190 -259 -255 -345 -163 -217 -201 -275 -201 -308 0
-30 24 -73 42 -73 5 0 47 33 92 73 44 41 173 147 285 238 112 90 278 224 370
298 91 73 182 144 201 156 91 58 105 135 25 135 -47 0 -145 -73 -530 -394 -77
-64 -148 -121 -158 -127 -9 -5 18 39 62 98 44 59 154 209 244 332 165 225 234
332 244 383 5 23 1 29 -22 38 -20 7 -38 8 -57 1 -44 -16 -455 -313 -701 -509
-65 -51 -120 -92 -122 -90 -3 3 96 147 375 537 107 151 201 288 208 305 12 27
12 32 -4 43 -23 17 -56 16 -98 -1 -88 -37 -462 -301 -693 -489 -69 -56 -136
-110 -149 -120 -42 -32 288 531 357 611 69 79 32 138 -68 108z"/>
</g>
</svg>
