<?xml version="1.0" standalone="no"?>
<!DOCTYPE svg PUBLIC "-//W3C//DTD SVG 20010904//EN"
 "http://www.w3.org/TR/2001/REC-SVG-20010904/DTD/svg10.dtd">
<svg version="1.0" xmlns="http://www.w3.org/2000/svg"
 width="200.000000pt" height="200.000000pt" viewBox="0 0 200.000000 200.000000"
 preserveAspectRatio="xMidYMid meet">
<metadata>
Created by potrace 1.10, written by Peter Selinger 2001-2011
</metadata>
<g transform="translate(0.000000,200.000000) scale(0.100000,-0.100000)"
fill="currentColor" stroke="none">
<path d="M1112 1895 c-74 -21 -107 -40 -135 -77 -35 -48 -50 -103 -44 -163 l5
-53 -72 -11 c-90 -15 -166 -57 -203 -113 -26 -39 -28 -48 -28 -150 l0 -108
-45 0 c-120 0 -266 -73 -297 -147 -16 -39 -20 -111 -9 -159 6 -28 3 -32 -43
-62 -167 -109 -125 -388 87 -583 113 -103 131 -109 48 -14 -43 50 -91 113
-107 140 -64 110 -86 248 -52 320 15 30 79 85 100 85 5 0 21 -26 38 -58 40
-77 244 -283 348 -350 276 -179 411 18 186 271 -63 70 -188 165 -273 207 -54
27 -81 33 -155 38 -97 5 -101 8 -101 74 0 65 115 135 238 145 l69 6 41 -76
c74 -135 212 -289 318 -357 62 -39 165 -71 203 -64 16 4 42 19 58 36 37 39 39
110 4 183 -67 137 -300 302 -496 350 -38 9 -73 22 -77 29 -4 6 -8 46 -8 88 0
67 3 80 25 106 35 41 99 71 171 78 l59 5 29 -66 c48 -110 122 -219 207 -309
118 -125 205 -161 288 -118 80 40 98 131 46 232 -34 67 -135 169 -232 233 -69
46 -213 107 -252 107 -14 0 -19 10 -24 50 -3 28 -2 61 3 74 28 75 173 114 312
85 94 -20 146 -55 271 -180 65 -66 124 -119 131 -119 21 0 36 23 36 53 0 24
-19 49 -102 134 -118 120 -179 164 -264 192 -84 28 -233 36 -302 16z m65 -435
c161 -74 323 -232 323 -315 0 -60 -70 -87 -135 -52 -32 17 -126 111 -167 167
-34 48 -114 190 -123 218 -6 22 -5 23 17 17 12 -4 51 -20 85 -35z m-356 -356
c141 -42 327 -167 396 -268 36 -53 45 -109 17 -120 -103 -39 -323 132 -444
347 -17 31 -30 57 -28 57 3 0 29 -7 59 -16z m-244 -308 c122 -56 256 -167 323
-269 55 -82 51 -127 -11 -127 -78 0 -195 77 -324 212 -85 89 -155 185 -155
212 0 15 113 -4 167 -28z"/>
</g>
</svg>
