<?xml version="1.0" standalone="no"?>
<!DOCTYPE svg PUBLIC "-//W3C//DTD SVG 20010904//EN"
 "http://www.w3.org/TR/2001/REC-SVG-20010904/DTD/svg10.dtd">
<svg version="1.0" xmlns="http://www.w3.org/2000/svg"
 width="200.000000pt" height="200.000000pt" viewBox="0 0 200.000000 200.000000"
 preserveAspectRatio="xMidYMid meet">
<metadata>
Created by potrace 1.10, written by Peter Selinger 2001-2011
</metadata>
<g transform="translate(0.000000,200.000000) scale(0.100000,-0.100000)"
fill="currentColor" stroke="none">
<path d="M1769 1658 c-16 -12 -89 -209 -235 -630 -38 -109 -71 -198 -75 -198
-3 0 -13 26 -23 58 -29 93 -154 408 -190 480 -19 37 -40 87 -47 112 -16 59
-26 70 -58 70 -36 0 -54 -17 -70 -65 -8 -22 -48 -116 -89 -210 -41 -93 -100
-239 -132 -322 l-57 -152 -23 57 c-13 31 -75 165 -137 296 -62 131 -118 255
-124 275 -16 51 -27 61 -63 61 -18 0 -39 -6 -48 -12 -16 -14 -75 -191 -108
-328 -47 -195 -69 -580 -34 -614 8 -9 17 -16 19 -16 14 0 28 61 54 236 17 110
37 233 46 274 19 90 64 242 75 253 17 18 214 -399 274 -580 38 -114 66 -163
92 -163 19 0 34 41 34 94 0 71 63 241 203 549 l81 179 22 -45 c28 -53 130
-325 186 -492 65 -194 116 -295 150 -295 17 0 38 62 36 107 -1 26 2 64 7 83
10 45 217 607 284 773 62 151 63 171 6 175 -22 2 -47 -3 -56 -10z"/>
<path d="M1450 1477 c-16 -8 -25 -21 -24 -35 3 -89 5 -103 25 -123 19 -19 22
-20 39 -4 10 9 26 46 36 82 17 64 17 66 -1 79 -23 17 -43 17 -75 1z"/>
<path d="M802 1413 c-23 -9 -43 -62 -37 -97 9 -44 47 -91 68 -83 18 7 47 94
47 143 0 39 -33 55 -78 37z"/>
<path d="M1126 890 c-37 -12 -46 -26 -36 -60 4 -15 6 -38 3 -51 -5 -28 34 -92
59 -97 33 -6 65 89 59 174 -1 16 -41 48 -54 43 -1 0 -15 -5 -31 -9z"/>
<path d="M453 833 c-16 -6 -17 -77 -2 -106 27 -51 62 -50 83 3 19 48 20 82 4
98 -12 12 -62 15 -85 5z"/>
</g>
</svg>
