<?xml version="1.0" standalone="no"?>
<!DOCTYPE svg PUBLIC "-//W3C//DTD SVG 20010904//EN"
 "http://www.w3.org/TR/2001/REC-SVG-20010904/DTD/svg10.dtd">
<svg version="1.0" xmlns="http://www.w3.org/2000/svg"
 width="300.000000pt" height="150.000000pt" viewBox="0 0 300.000000 150.000000"
 preserveAspectRatio="xMidYMid meet">
<metadata>
Created by potrace 1.10, written by Peter Selinger 2001-2011
</metadata>
<g transform="translate(0.000000,150.000000) scale(0.100000,-0.100000)"
fill="#000000" stroke="none">
<path d="M494 1247 c-12 -7 -40 -35 -63 -64 -22 -29 -70 -81 -106 -117 -85
-86 -85 -100 -3 -183 34 -34 75 -88 92 -120 25 -47 36 -59 59 -61 77 -9 73 76
-10 186 -14 18 -22 36 -19 40 14 13 154 -20 221 -52 76 -37 126 -79 151 -129
22 -41 29 -141 14 -196 -16 -61 -94 -135 -200 -190 -47 -25 -88 -49 -92 -55
-16 -23 -7 -56 18 -72 25 -17 28 -16 121 31 168 86 254 188 269 320 7 68 -7
158 -33 213 -44 93 -203 196 -343 222 -123 23 -119 16 -55 95 60 75 67 105 33
129 -26 19 -27 19 -54 3z"/>
<path d="M2526 1244 c-9 -8 -18 -25 -20 -37 -11 -54 -15 -350 -7 -535 10 -226
17 -252 71 -252 40 0 54 28 45 91 -5 36 -4 49 5 49 15 0 125 -55 162 -81 50
-36 98 -20 98 32 0 34 -34 61 -137 114 l-73 37 48 61 c26 33 61 75 79 93 31
32 36 43 34 76 -1 23 -37 41 -66 34 -13 -3 -51 -40 -85 -81 -34 -41 -66 -75
-72 -75 -8 0 -9 69 -5 234 4 165 2 237 -6 245 -16 16 -53 14 -71 -5z"/>
<path d="M1159 1214 c-31 -14 -61 -35 -65 -45 -10 -23 0 -450 16 -682 12 -182
20 -202 77 -213 31 -6 49 -1 110 30 147 76 244 152 281 221 21 40 21 140 -1
182 -17 32 -83 93 -102 93 -5 0 -16 4 -23 9 -11 6 -6 19 21 57 68 97 76 199
20 277 -46 64 -101 90 -198 94 -70 3 -87 1 -136 -23z m201 -95 c36 -14 64 -57
63 -97 -2 -71 -100 -177 -195 -211 l-28 -10 0 159 0 159 33 10 c34 10 86 6
127 -10z m82 -425 c34 -17 48 -43 48 -85 0 -27 -10 -43 -53 -83 -47 -46 -202
-144 -211 -135 -2 2 -7 70 -11 150 l-8 146 44 11 c24 6 53 13 64 15 30 6 96
-4 127 -19z"/>
<path d="M2219 802 c-48 -31 -92 -100 -103 -165 -18 -100 50 -224 133 -247 82
-22 181 14 181 65 0 41 -35 55 -99 42 -52 -11 -54 -11 -77 16 -45 52 -44 122
2 177 29 33 45 37 64 15 17 -20 53 -19 73 3 20 22 21 33 5 67 -27 59 -108 71
-179 27z"/>
<path d="M1789 780 c-96 -50 -154 -183 -114 -259 15 -30 69 -61 104 -61 37 0
87 26 115 61 15 19 30 29 32 23 13 -31 66 -105 79 -110 27 -11 64 5 71 31 4
18 -7 47 -44 112 -27 48 -60 112 -72 142 -34 79 -96 101 -171 61z m41 -156
c-21 -43 -44 -63 -57 -51 -11 12 8 56 38 88 40 43 49 25 19 -37z"/>
</g>
</svg>
