<svg width="24" height="24" viewBox="0 0 24 24" fill="none" xmlns="http://www.w3.org/2000/svg">
<path fill-rule="evenodd" clip-rule="evenodd" d="M10.7077 9.29186C9.69768 9.77469 9 10.8059 9 12C9 13.6569 10.3431 15 12 15C13.1941 15 14.2253 14.3023 14.7081 13.2923L10.7077 9.29186ZM13 12C13 12.5523 12.5523 13 12 13C11.4477 13 11 12.5523 11 12C11 11.4477 11.4477 11 12 11C12.5523 11 13 11.4477 13 12Z" fill="#6F767E"/>
<path d="M7.50097 6.08517C4.98543 7.38362 3.39307 9.54721 2.6018 10.8666C2.17953 11.5708 2.17953 12.4292 2.60179 13.1334C3.79008 15.1148 6.78498 19 12 19C14.6127 19 16.6681 18.0249 18.2183 16.8025L16.7918 15.376C15.5478 16.3033 13.9599 17 12 17C7.88795 17 5.41343 13.933 4.317 12.1047C4.29195 12.063 4.2851 12.0278 4.2851 12C4.2851 11.9722 4.29195 11.937 4.317 11.8953C5.11577 10.5633 6.64593 8.57399 9.0078 7.592L7.50097 6.08517Z" fill="#6F767E"/>
<path d="M18.2677 14.0235C18.8756 13.3503 19.3449 12.6686 19.683 12.1047C19.7081 12.063 19.7149 12.0278 19.7149 12C19.7149 11.9722 19.7081 11.937 19.683 11.8953C18.5866 10.067 16.1121 7 12 7C11.7529 7 11.5118 7.01107 11.2765 7.03228L9.54817 5.30394C10.3036 5.11058 11.1202 5 12 5C17.215 5 20.2099 8.88521 21.3982 10.8666C21.8205 11.5708 21.8205 12.4292 21.3982 13.1334C21.0169 13.7693 20.4494 14.6013 19.6822 15.438L18.2677 14.0235Z" fill="#6F767E"/>
<path fill-rule="evenodd" clip-rule="evenodd" d="M2.29289 2.29289C2.68342 1.90237 3.31658 1.90237 3.70711 2.29289L21.7071 20.2929C22.0976 20.6834 22.0976 21.3166 21.7071 21.7071C21.3166 22.0976 20.6834 22.0976 20.2929 21.7071L2.29289 3.70711C1.90237 3.31658 1.90237 2.68342 2.29289 2.29289Z" fill="#6F767E"/>
</svg>
