<?xml version="1.0" standalone="no"?>
<!DOCTYPE svg PUBLIC "-//W3C//DTD SVG 20010904//EN"
 "http://www.w3.org/TR/2001/REC-SVG-20010904/DTD/svg10.dtd">
<svg version="1.0" xmlns="http://www.w3.org/2000/svg"
 width="200.000000pt" height="200.000000pt" viewBox="0 0 200.000000 200.000000"
 preserveAspectRatio="xMidYMid meet">
<metadata>
Created by potrace 1.10, written by Peter Selinger 2001-2011
</metadata>
<g transform="translate(0.000000,200.000000) scale(0.100000,-0.100000)"
fill="#000000" stroke="none">
<path d="M935 1779 c-60 -28 -189 -88 -285 -134 -96 -46 -238 -108 -315 -139
-180 -72 -181 -73 -196 -108 -10 -24 -9 -35 4 -62 13 -27 30 -39 104 -70 92
-40 358 -166 773 -368 195 -95 250 -117 272 -113 32 8 58 39 58 73 0 48 -27
64 -600 338 -102 48 -189 91 -193 95 -10 8 230 58 343 71 163 19 438 -4 575
-48 185 -60 262 -208 235 -453 -13 -122 -24 -162 -63 -236 -117 -221 -346
-306 -866 -322 -189 -5 -216 -8 -233 -25 -23 -23 -23 -70 1 -99 19 -24 20 -24
227 -22 541 6 811 103 974 351 76 116 101 204 107 382 3 87 1 169 -6 205 -25
134 -120 264 -238 323 -177 90 -530 124 -841 81 -46 -6 -85 -9 -88 -7 -2 3 97
51 221 108 124 56 230 109 237 117 17 21 14 70 -7 93 -29 33 -78 25 -200 -31z"/>
</g>
</svg>
