<?xml version="1.0" standalone="no"?>
<!DOCTYPE svg PUBLIC "-//W3C//DTD SVG 20010904//EN"
 "http://www.w3.org/TR/2001/REC-SVG-20010904/DTD/svg10.dtd">
<svg version="1.0" xmlns="http://www.w3.org/2000/svg"
 width="200.000000pt" height="200.000000pt" viewBox="0 0 200.000000 200.000000"
 preserveAspectRatio="xMidYMid meet">
<metadata>
Created by potrace 1.10, written by Peter Selinger 2001-2011
</metadata>
<g transform="translate(0.000000,200.000000) scale(0.100000,-0.100000)"
fill="currentColor" stroke="none">
<path d="M1435 1959 c-67 -16 -261 -117 -302 -158 -21 -21 -61 -50 -90 -65
-28 -16 -83 -59 -122 -96 -60 -57 -71 -73 -71 -100 0 -37 -15 -59 -190 -275
-60 -75 -164 -213 -231 -308 -67 -95 -135 -189 -151 -210 -33 -42 -81 -175
-92 -252 -4 -27 -18 -103 -32 -169 -13 -65 -24 -136 -24 -157 0 -78 67 -101
158 -55 52 27 153 57 347 107 l130 33 55 56 c30 31 106 104 168 161 106 97
284 287 396 424 78 95 129 145 147 145 9 0 50 39 90 86 41 48 118 133 172 191
122 129 160 200 161 302 1 126 -84 243 -223 309 -67 32 -85 37 -166 39 -49 1
-108 -2 -130 -8z m240 -162 c84 -43 135 -109 135 -177 0 -53 -39 -126 -94
-180 l-36 -34 -16 24 c-9 14 -62 70 -118 125 -76 75 -121 110 -180 142 l-79
41 54 28 c137 70 240 80 334 31z m-395 -218 c89 -45 201 -142 266 -231 40 -53
40 -50 -19 -115 l-29 -31 -61 80 c-77 102 -145 156 -279 221 -59 29 -107 55
-108 59 0 4 17 19 37 33 54 36 95 33 193 -16z m-220 -156 l61 -26 -123 -126
c-146 -149 -280 -296 -406 -443 -50 -58 -96 -109 -102 -113 -12 -8 -70 13 -70
25 0 14 248 349 354 479 56 69 119 150 140 179 45 61 58 64 146 25z m219 -137
l22 -24 -198 -197 c-171 -171 -333 -322 -460 -429 -57 -47 -49 -21 15 51 33
37 84 96 114 129 206 237 455 494 478 494 4 0 17 -11 29 -24z m129 -171 c3
-10 -14 -36 -40 -64 -25 -25 -82 -91 -128 -146 -100 -119 -249 -274 -378 -392
l-93 -86 -29 34 -28 34 26 29 c15 15 79 74 142 130 63 55 202 188 309 294 107
106 200 191 205 189 6 -2 13 -12 14 -22z m-982 -546 c59 -37 208 -189 197
-200 -8 -8 -173 -49 -197 -49 -7 0 -35 16 -61 36 l-47 37 6 51 c4 28 9 75 13
104 7 63 18 65 89 21z"/>
</g>
</svg>
