<?xml version="1.0" standalone="no"?>
<!DOCTYPE svg PUBLIC "-//W3C//DTD SVG 20010904//EN"
 "http://www.w3.org/TR/2001/REC-SVG-20010904/DTD/svg10.dtd">
<svg version="1.0" xmlns="http://www.w3.org/2000/svg"
 width="200.000000pt" height="200.000000pt" viewBox="0 0 200.000000 200.000000"
 preserveAspectRatio="xMidYMid meet">
<metadata>
Created by potrace 1.10, written by Peter Selinger 2001-2011
</metadata>
<g transform="translate(0.000000,200.000000) scale(0.100000,-0.100000)"
fill="#000000" stroke="none">
<path d="M859 1761 c-239 -52 -435 -226 -530 -468 -16 -43 -34 -88 -39 -101
-6 -13 -10 -43 -10 -68 0 -63 40 -104 100 -104 55 0 81 28 110 116 40 122 88
203 170 285 134 134 277 175 477 133 123 -25 206 -78 232 -147 20 -53 15 -58
-36 -32 -51 26 -152 55 -190 55 -79 0 -135 -68 -113 -136 15 -44 43 -62 114
-74 78 -13 120 -35 192 -102 70 -66 112 -84 159 -67 66 23 213 234 275 395 38
98 35 142 -13 178 -64 47 -136 11 -170 -85 l-19 -52 -29 44 c-16 24 -47 63
-70 86 -122 124 -401 190 -610 144z"/>
<path d="M355 947 c-48 -48 -85 -189 -85 -321 1 -91 34 -191 73 -220 88 -65
188 30 147 140 -6 15 -8 29 -6 32 3 2 30 -18 61 -46 72 -66 174 -117 267 -132
88 -15 279 -8 357 14 127 35 258 120 347 224 79 93 109 152 109 215 0 41 -4
53 -28 73 -33 28 -91 32 -125 8 -13 -9 -34 -39 -48 -68 -38 -80 -134 -171
-229 -217 -65 -31 -98 -41 -172 -48 -152 -16 -248 7 -333 78 l-25 20 75 -6
c70 -5 78 -4 104 18 19 17 29 37 33 66 5 38 2 46 -28 76 -31 30 -46 36 -154
57 -66 13 -150 34 -186 46 -90 32 -114 31 -154 -9z"/>
</g>
</svg>
