<svg width="32" height="32" viewBox="0 0 32 32" fill="none" xmlns="http://www.w3.org/2000/svg">
<path d="M12.9882 18.5823L30.1427 1.42773M12.9882 18.5823L18.4465 29.4988C18.5149 29.6481 18.6247 29.7746 18.763 29.8633C18.9012 29.952 19.062 29.9992 19.2262 29.9992C19.3904 29.9992 19.5512 29.952 19.6895 29.8633C19.8277 29.7746 19.9375 29.6481 20.006 29.4988L30.1427 1.42773M12.9882 18.5823L2.07169 13.124C1.92238 13.0556 1.79585 12.9457 1.70715 12.8075C1.61844 12.6693 1.57129 12.5085 1.57129 12.3442C1.57129 12.18 1.61844 12.0192 1.70715 11.881C1.79585 11.7428 1.92238 11.6329 2.07169 11.5645L30.1427 1.42773" stroke="black" stroke-width="2.66667" stroke-linecap="round" stroke-linejoin="round"/>
</svg>
