<svg width="22" height="22" viewBox="0 0 22 22" fill="none" xmlns="http://www.w3.org/2000/svg">
<path d="M18.4545 7.59516V14.5214C17.8653 14.22 17.1802 14.0993 16.5056 14.1779C15.831 14.2566 15.2046 14.5304 14.7235 14.9567C14.2423 15.383 13.9334 15.9381 13.8446 16.5358C13.7558 17.1335 13.8921 17.7405 14.2323 18.2627C14.5725 18.7848 15.0977 19.1928 15.7263 19.4235C16.3549 19.6543 17.0519 19.6947 17.7091 19.5387C18.3664 19.3826 18.9471 19.0388 19.3613 18.5605C19.7755 18.0821 20 17.4961 20 16.8932V3.09678C20.0002 2.92101 19.9527 2.74776 19.8615 2.59168C19.7703 2.43559 19.638 2.30125 19.4758 2.2C19.3136 2.09875 19.1264 2.03356 18.9298 2.00994C18.7332 1.98632 18.5331 2.00495 18.3464 2.06428L8.45546 5.19466C8.21568 5.27083 8.00831 5.41077 7.86169 5.59534C7.71508 5.77991 7.63639 6.00009 7.63637 6.22579V15.8894C7.04716 15.588 6.36219 15.4673 5.68765 15.5459C5.01311 15.6246 4.38671 15.8982 3.90557 16.3244C3.42443 16.7507 3.11544 17.3056 3.02652 17.9033C2.9376 18.501 3.0737 19.1079 3.41374 19.6301C3.75378 20.1522 4.27874 20.5604 4.90723 20.7912C5.53571 21.0221 6.2326 21.0627 6.88984 20.9069C7.54707 20.7511 8.12792 20.4075 8.54231 19.9294C8.95671 19.4513 9.1815 18.8654 9.18182 18.2626V10.527L18.4545 7.59516Z" fill="#1E1E1E"/>
</svg>
