<svg width="41" height="41" viewBox="0 0 41 41" fill="none" xmlns="http://www.w3.org/2000/svg">
<g clip-path="url(#clip0_173_2648)">
<path fill-rule="evenodd" clip-rule="evenodd" d="M0.90566 25.8816C0.982535 26.4197 1.2217 26.9185 1.58899 27.3166C2.33383 27.8701 3.23753 28.169 4.16516 28.169C5.95781 28.1459 7.74266 27.9282 9.48833 27.5199C9.64215 27.4972 9.78067 27.4144 9.87342 27.2896C9.96616 27.1648 10.0055 27.0083 9.98289 26.8545C9.96024 26.7006 9.8774 26.5621 9.75262 26.4694C9.62783 26.3766 9.47131 26.3373 9.31749 26.3599C7.88022 26.5763 6.43554 26.6845 4.98345 26.6845C4.2069 26.7341 3.43669 26.5171 2.8002 26.0695C2.8002 26.0695 2.8002 25.8645 2.71479 25.7278C2.65153 25.3678 2.61725 25.0034 2.61229 24.6379C2.61229 23.3908 2.61229 21.9763 2.52687 21.4809L2.40729 20.6267C2.76604 20.6541 3.12479 20.6541 3.48354 20.6267C3.86392 20.5983 4.23919 20.5362 4.60933 20.4405C5.16738 20.2697 5.73569 20.133 6.31424 20.0305C6.45269 20.0195 6.58297 19.9606 6.68272 19.864C6.78248 19.7673 6.84548 19.639 6.86091 19.5009C6.8653 19.4248 6.85464 19.3485 6.82954 19.2765C6.80444 19.2044 6.76539 19.138 6.71463 19.0811C6.66386 19.0241 6.60237 18.9777 6.53367 18.9445C6.46498 18.9113 6.39041 18.892 6.31424 18.8877C5.70662 18.7285 5.0833 18.6368 4.45558 18.6143C4.19933 18.5972 3.94308 18.5972 3.68683 18.6143C3.43063 18.6427 3.17847 18.7 2.93516 18.7852C2.66354 18.7852 2.42437 18.9731 2.16812 19.0756L2.04854 18.2727L1.86062 16.0399C1.80823 15.6365 1.86108 15.2265 2.01405 14.8496C2.16702 14.4727 2.41489 14.1418 2.73358 13.8891C4.08466 13.2666 5.56422 12.9739 7.05053 13.0349C7.13407 13.0292 7.21506 13.0037 7.28685 12.9607C7.35865 12.9176 7.4192 12.8581 7.46355 12.7871C7.50789 12.716 7.53477 12.6355 7.54197 12.5521C7.54916 12.4687 7.53648 12.3847 7.50495 12.3072C7.46436 12.2121 7.39598 12.1316 7.30879 12.0761C7.22159 12.0206 7.11966 11.9928 7.01637 11.9962C5.28289 11.7903 3.52537 12.0132 1.8982 12.6454C1.30696 12.992 0.820178 13.4917 0.489155 14.0918C0.158131 14.6919 -0.00487121 15.3702 0.0173268 16.0552C-0.00772873 16.4823 -0.00772873 16.9088 0.0173268 17.3348C0.0173268 17.7619 0.0173268 18.1872 0.102743 18.5972L0.563994 21.855C0.683577 22.4017 0.632327 24.5679 0.90566 25.8816ZM19.8767 13.1887C19.8164 13.1566 19.7503 13.1368 19.6823 13.1306C19.6143 13.1244 19.5457 13.1319 19.4806 13.1526C19.4155 13.1733 19.3552 13.2068 19.3032 13.2511C19.2513 13.2955 19.2087 13.3497 19.178 13.4107C18.4263 14.5724 17.6251 15.7324 16.8752 16.9607L16.6702 16.7044C15.4325 15.3946 14.0979 14.18 12.6778 13.0708C12.63 13.0217 12.5729 12.9827 12.5098 12.9561C12.4468 12.9294 12.379 12.9157 12.3105 12.9157C12.242 12.9157 12.1742 12.9294 12.1111 12.9561C12.0481 12.9827 11.991 13.0217 11.9432 13.0708C11.8482 13.1695 11.7951 13.3011 11.7951 13.4381C11.7951 13.575 11.8482 13.7067 11.9432 13.8054C12.5924 14.5212 13.2245 15.2882 13.8565 16.0894C14.4869 16.8923 14.7927 17.3707 15.271 18.0181L15.8348 18.7356L15.459 19.4343C15.1515 20.0835 14.8781 20.748 14.6219 21.4126C14.0445 23.0013 13.6225 24.6413 13.3611 26.3087C13.3343 26.3858 13.3241 26.4678 13.3311 26.5491C13.3381 26.6305 13.3622 26.7095 13.4019 26.7809C13.4415 26.8523 13.4957 26.9146 13.561 26.9637C13.6263 27.0127 13.7013 27.0474 13.7809 27.0656C13.8605 27.0837 13.9431 27.0848 14.0232 27.0689C14.1033 27.0529 14.1792 27.0203 14.2458 26.973C14.3124 26.9258 14.3683 26.865 14.4099 26.7947C14.4514 26.7244 14.4777 26.6461 14.4869 26.5649C14.7602 25.6971 15.0786 24.844 15.4419 24.0058C15.8177 23.1687 16.2448 22.3009 16.636 21.5322C16.8239 21.1734 16.9777 20.8147 17.1656 20.4576C18.5288 22.1642 19.8938 23.8692 21.0367 25.5758C21.1137 25.7094 21.2406 25.807 21.3896 25.8471C21.5386 25.8871 21.6974 25.8663 21.831 25.7893C21.9647 25.7123 22.0623 25.5853 22.1023 25.4364C22.1424 25.2874 22.1216 25.1286 22.0446 24.9949C21.2667 23.4325 20.4068 21.9122 19.4684 20.4405C19.0413 19.7914 18.6142 19.161 18.1359 18.546C18.8192 17.0119 19.4513 15.459 20.1005 13.9745C20.1449 13.9103 20.1745 13.8371 20.1873 13.7602C20.2001 13.6832 20.1957 13.6044 20.1745 13.5293C20.1533 13.4542 20.1158 13.3847 20.0646 13.3258C20.0134 13.267 19.9481 13.2201 19.8767 13.1887ZM27.1627 19.0585C27.0261 17.3519 26.7357 15.4932 26.4794 13.5491C26.4751 13.4818 26.4575 13.4159 26.4276 13.3554C26.3978 13.2949 26.3563 13.2408 26.3055 13.1964C26.2547 13.1519 26.1956 13.118 26.1316 13.0964C26.0677 13.0748 26.0001 13.0661 25.9327 13.0708C25.8649 13.0709 25.7977 13.0849 25.7355 13.112C25.6732 13.1391 25.6172 13.1787 25.5709 13.2284C25.5246 13.278 25.489 13.3367 25.4663 13.4007C25.4436 13.4647 25.4344 13.5326 25.439 13.6004C25.439 15.3053 25.2511 16.8752 25.217 18.4281V20.5089C25.217 21.2093 25.3024 21.8909 25.3707 22.5725C25.5245 24.1442 25.7807 25.7125 26.0711 27.402C26.0776 27.4782 26.099 27.5524 26.1342 27.6203C26.1694 27.6883 26.2177 27.7486 26.2763 27.7978C26.3348 27.847 26.4026 27.8841 26.4755 27.9071C26.5485 27.93 26.6253 27.9384 26.7015 27.9316C26.7889 27.9372 26.8765 27.9235 26.9581 27.8915C27.0397 27.8595 27.1132 27.81 27.1735 27.7464C27.2338 27.6828 27.2794 27.6068 27.3071 27.5237C27.3347 27.4405 27.3438 27.3523 27.3336 27.2653V22.3351C27.3336 21.2417 27.2311 20.1501 27.1627 19.0585ZM40.2657 12.0817C38.8367 11.8728 37.3897 11.8156 35.9487 11.9108C35.1139 11.9541 34.2836 12.0395 33.458 12.1671C32.228 12.355 31.0526 12.6454 29.8072 12.7137C29.7221 12.7111 29.6376 12.729 29.5609 12.766C29.4842 12.803 29.4175 12.8579 29.3665 12.9262C29.3156 12.9944 29.2818 13.0739 29.2681 13.158C29.2544 13.242 29.2612 13.3282 29.2879 13.409C29.3221 13.5069 29.3851 13.5921 29.4686 13.6534C29.5522 13.7147 29.6524 13.7492 29.756 13.7524C31.1739 14.0035 32.6157 14.0992 34.0542 14.0428H34.6692V18.5135C34.6692 19.1781 34.6692 19.8443 34.7887 20.4918C34.9083 21.1409 34.9254 21.8226 35.0108 22.47C35.2158 24.0246 35.4892 25.5587 35.7266 27.0945C35.7439 27.2502 35.8215 27.3929 35.9429 27.492C36.0643 27.591 36.2198 27.6385 36.3758 27.6241C36.5264 27.6026 36.6636 27.5262 36.7611 27.4094C36.8586 27.2927 36.9094 27.144 36.9037 26.992V22.3351C36.9037 21.6745 36.8695 21.0088 36.8012 20.338C36.8012 19.6718 36.6987 19.0072 36.5962 18.3598C36.3912 16.8564 36.0666 15.3907 35.7762 13.9232L36.5791 13.8207C37.7863 13.5907 39.0032 13.4369 40.2298 13.3595C40.306 13.3641 40.3823 13.3537 40.4544 13.3288C40.5266 13.3039 40.5931 13.2651 40.6502 13.2144C40.7073 13.1638 40.7539 13.1025 40.7873 13.0338C40.8207 12.9652 40.8402 12.8907 40.8448 12.8145C40.869 12.7266 40.8721 12.6342 40.854 12.5449C40.8359 12.4555 40.7969 12.3717 40.7404 12.3002C40.6838 12.2286 40.6112 12.1714 40.5285 12.1332C40.4457 12.0949 40.3551 12.0767 40.264 12.0799M40.539 6.33141C39.6909 6.1114 38.82 5.99101 37.944 5.97266H27.7607C25.6287 5.97266 23.4796 6.09224 21.3288 6.17766C19.1797 6.26307 17.4047 6.31432 15.5461 6.34849C12.5941 6.34849 9.74458 6.45099 6.79429 6.57057C4.78016 6.57057 2.69941 6.77557 0.51616 7.01474C0.394634 7.02227 0.279759 7.07282 0.192111 7.15734C0.104463 7.24186 0.0497697 7.35482 0.0378268 7.47599C0.0422824 7.54253 0.060125 7.60748 0.0902855 7.66695C0.120446 7.72643 0.162303 7.7792 0.213349 7.82211C0.264395 7.86503 0.323579 7.89719 0.387354 7.91668C0.451128 7.93617 0.518181 7.94258 0.584494 7.93553C6.55512 7.64511 11.605 8.15761 17.2185 8.1747C18.5818 8.1747 19.9638 8.1747 21.4142 8.03803C23.9733 7.8672 26.5324 7.73053 29.0744 7.59386C30.781 7.59386 32.4859 7.44011 34.1925 7.38886C35.32 7.38886 36.632 7.2522 37.9116 7.2522C38.6974 7.23682 39.4815 7.31199 40.2486 7.47428C40.3628 7.50379 40.4832 7.49885 40.5947 7.46006C40.7061 7.42128 40.8036 7.3504 40.8748 7.25634C40.946 7.16228 40.9878 7.04924 40.995 6.93147C41.0021 6.8137 40.9742 6.69645 40.9148 6.59449C40.8733 6.52742 40.8186 6.4695 40.754 6.42427C40.6894 6.37904 40.6162 6.34744 40.539 6.33141ZM39.7702 32.5014H37.0574C35.0091 32.5014 33.1334 32.7576 30.8647 32.7235C29.0385 32.7235 27.2311 32.4501 25.4049 32.3647H23.9203C22.7262 32.3647 21.5492 32.4501 20.3721 32.5355C17.6593 32.7576 14.9806 33.1164 12.2678 33.2872C11.0566 33.2872 9.89662 33.4409 8.85624 33.4751C6.04091 33.5947 3.4152 33.5776 0.634035 33.7143C0.5644 33.7116 0.494948 33.7231 0.429925 33.7482C0.364902 33.7733 0.305673 33.8113 0.255861 33.8601C0.206048 33.9088 0.166697 33.9672 0.140214 34.0316C0.113731 34.0961 0.100672 34.1653 0.101836 34.235C0.102999 34.3046 0.11836 34.3733 0.14698 34.4369C0.1756 34.5004 0.216877 34.5575 0.268289 34.6045C0.3197 34.6515 0.380166 34.6876 0.44599 34.7105C0.511813 34.7334 0.581612 34.7426 0.651119 34.7376C3.43058 34.7376 6.04091 34.9597 8.85624 35.028H12.4215C13.2074 35.028 13.9932 35.028 14.7756 34.9426C17.8643 34.7547 20.9359 34.3617 24.0399 34.2763H30.8647C33.1675 34.1909 35.0433 33.8834 37.1087 33.7297C37.9457 33.7297 38.8136 33.6101 39.719 33.6101C39.8674 33.602 40.007 33.5374 40.1092 33.4295C40.2114 33.3216 40.2683 33.1787 40.2683 33.0301C40.2683 32.8815 40.2114 32.7386 40.1092 32.6307C40.007 32.5228 39.8674 32.4582 39.719 32.4501L39.7702 32.5014Z" fill="#222222"/>
</g>
<defs>
<clipPath id="clip0_173_2648">
<rect width="41" height="41" fill="white"/>
</clipPath>
</defs>
</svg>
