<svg width="24" height="24" viewBox="0 0 24 24" fill="none" xmlns="http://www.w3.org/2000/svg">
<path d="M18.8295 19.8909L21.219 22.2819C21.3598 22.4228 21.5508 22.5019 21.75 22.5019C21.9491 22.5019 22.1401 22.4228 22.281 22.2819C22.4218 22.1411 22.5009 21.9501 22.5009 21.7509C22.5009 21.5518 22.4218 21.3608 22.281 21.2199L2.78097 1.71995C2.71124 1.65022 2.62846 1.5949 2.53735 1.55716C2.44624 1.51942 2.34859 1.5 2.24997 1.5C2.15136 1.5 2.0537 1.51942 1.9626 1.55716C1.87149 1.5949 1.7887 1.65022 1.71897 1.71995C1.64924 1.78968 1.59392 1.87246 1.55619 1.96357C1.51845 2.05468 1.49902 2.15233 1.49902 2.25095C1.49902 2.34956 1.51845 2.44721 1.55619 2.53832C1.59392 2.62943 1.64924 2.71222 1.71897 2.78195L7.49997 8.56145V16.9014C6.9281 16.5713 6.26327 16.439 5.60857 16.5252C4.95387 16.6113 4.34589 16.9111 3.8789 17.378C3.41191 17.8448 3.11201 18.4527 3.02571 19.1074C2.9394 19.7621 3.0715 20.427 3.40154 20.9989C3.73157 21.5709 4.2411 22.0179 4.8511 22.2708C5.4611 22.5237 6.1375 22.5683 6.7754 22.3976C7.4133 22.2269 7.97707 21.8505 8.37927 21.3268C8.78148 20.8031 8.99966 20.1613 8.99997 19.5009V11.0289L9.71247 10.7739L14.61 15.6714C14.2833 15.9361 14.016 16.2664 13.8252 16.6409C13.6344 17.0155 13.5245 17.426 13.5026 17.8458C13.4806 18.2656 13.5471 18.6853 13.6978 19.0777C13.8484 19.4701 14.0799 19.8265 14.3771 20.1238C14.6744 20.421 15.0308 20.6525 15.4232 20.8031C15.8156 20.9538 16.2353 21.0203 16.6551 20.9984C17.0749 20.9764 17.4854 20.8665 17.86 20.6757C18.2346 20.4849 18.5649 20.2176 18.8295 19.8909ZM18 7.81595V14.8194L19.5 16.3194V2.88995C19.5002 2.6974 19.4541 2.50763 19.3655 2.33666C19.277 2.16568 19.1486 2.01853 18.9912 1.90762C18.8338 1.79671 18.652 1.7253 18.4612 1.69942C18.2704 1.67355 18.0762 1.69396 17.895 1.75895L8.35197 5.16845L12.84 9.65795L18 7.81595Z" fill="#1E1E1E"/>
</svg>
