<svg width="22" height="23" viewBox="0 0 22 23" fill="none" xmlns="http://www.w3.org/2000/svg">
<g clip-path="url(#clip0_149_977)">
<path d="M11 13.04L14.19 16.23C14.3917 16.4317 14.6483 16.5325 14.96 16.5325C15.2717 16.5325 15.5283 16.4317 15.73 16.23C15.9317 16.0283 16.0325 15.7717 16.0325 15.46C16.0325 15.1483 15.9317 14.8917 15.73 14.69L12.54 11.5L15.73 8.31C15.9317 8.10833 16.0325 7.85166 16.0325 7.54C16.0325 7.22833 15.9317 6.97166 15.73 6.77C15.5283 6.56833 15.2717 6.4675 14.96 6.4675C14.6483 6.4675 14.3917 6.56833 14.19 6.77L11 9.96L7.81 6.77C7.60833 6.56833 7.35166 6.4675 7.04 6.4675C6.72833 6.4675 6.47166 6.56833 6.27 6.77C6.06833 6.97166 5.9675 7.22833 5.9675 7.54C5.9675 7.85166 6.06833 8.10833 6.27 8.31L9.46 11.5L6.27 14.69C6.06833 14.8917 5.9675 15.1483 5.9675 15.46C5.9675 15.7717 6.06833 16.0283 6.27 16.23C6.47166 16.4317 6.72833 16.5325 7.04 16.5325C7.35166 16.5325 7.60833 16.4317 7.81 16.23L11 13.04ZM11 22.5C9.47833 22.5 8.04833 22.2111 6.71 21.6332C5.37167 21.0553 4.2075 20.2718 3.2175 19.2825C2.2275 18.2932 1.44393 17.1291 0.866801 15.79C0.289668 14.4509 0.000734725 13.0209 1.3924e-06 11.5C-0.00073194 9.97906 0.288201 8.54906 0.866801 7.21C1.4454 5.87093 2.22897 4.70677 3.2175 3.7175C4.20603 2.72823 5.3702 1.94467 6.71 1.3668C8.0498 0.788933 9.4798 0.5 11 0.5C12.5202 0.5 13.9502 0.788933 15.29 1.3668C16.6298 1.94467 17.794 2.72823 18.7825 3.7175C19.771 4.70677 20.555 5.87093 21.1343 7.21C21.7136 8.54906 22.0022 9.97906 22 11.5C21.9978 13.0209 21.7089 14.4509 21.1332 15.79C20.5575 17.1291 19.774 18.2932 18.7825 19.2825C17.791 20.2718 16.6269 21.0557 15.29 21.6343C13.9531 22.2129 12.5231 22.5015 11 22.5ZM11 20.3C13.4567 20.3 15.5375 19.4475 17.2425 17.7425C18.9475 16.0375 19.8 13.9567 19.8 11.5C19.8 9.04333 18.9475 6.9625 17.2425 5.2575C15.5375 3.5525 13.4567 2.7 11 2.7C8.54333 2.7 6.4625 3.5525 4.7575 5.2575C3.0525 6.9625 2.2 9.04333 2.2 11.5C2.2 13.9567 3.0525 16.0375 4.7575 17.7425C6.4625 19.4475 8.54333 20.3 11 20.3Z" fill="#F45A5A"/>
</g>
<defs>
<clipPath id="clip0_149_977">
<rect width="22" height="22" fill="white" transform="translate(0 0.5)"/>
</clipPath>
</defs>
</svg>
