<?xml version="1.0" standalone="no"?>
<!DOCTYPE svg PUBLIC "-//W3C//DTD SVG 20010904//EN"
 "http://www.w3.org/TR/2001/REC-SVG-20010904/DTD/svg10.dtd">
<svg version="1.0" xmlns="http://www.w3.org/2000/svg"
 width="200.000000pt" height="200.000000pt" viewBox="0 0 200.000000 200.000000"
 preserveAspectRatio="xMidYMid meet">
<metadata>
Created by potrace 1.10, written by Peter Selinger 2001-2011
</metadata>
<g transform="translate(0.000000,200.000000) scale(0.100000,-0.100000)"
fill="#000000" stroke="none">
<path d="M513 1912 c-79 -28 -129 -67 -163 -125 -29 -49 -31 -57 -27 -139 3
-78 7 -95 43 -165 22 -44 64 -104 97 -139 31 -34 57 -66 57 -70 0 -5 -19 -32
-43 -59 -130 -150 -361 -473 -373 -520 -13 -53 64 -153 321 -413 142 -142 165
-162 193 -162 41 0 127 52 273 166 282 219 591 449 601 446 23 -6 67 21 78 49
11 25 9 38 -10 90 -31 81 -114 203 -212 310 -80 87 -82 91 -105 180 -25 94
-71 197 -117 259 -81 107 -210 210 -344 273 -85 39 -191 47 -269 19z m189
-149 c81 -32 163 -88 234 -158 65 -64 126 -150 92 -129 -7 4 -46 30 -87 56
-40 26 -82 48 -93 48 -36 0 -107 -51 -159 -116 -29 -35 -58 -64 -64 -64 -22 0
-96 90 -126 153 -39 83 -40 143 -1 179 52 48 130 60 204 31z m227 -404 c140
-98 405 -373 459 -475 13 -24 39 -3 -333 -284 -126 -96 -264 -201 -305 -233
-119 -95 -95 -101 -267 75 -170 173 -213 221 -213 237 0 24 194 289 334 456
28 33 51 61 52 63 1 1 41 -4 89 -13 121 -21 167 -19 199 6 19 15 26 30 26 54
0 51 -31 75 -99 76 -31 0 -64 4 -75 8 -17 7 -16 10 14 44 17 20 35 37 39 37 5
0 40 -23 80 -51z"/>
<path d="M1560 720 c-16 -16 -20 -32 -19 -83 1 -34 -4 -121 -11 -194 -15 -159
-9 -211 28 -248 43 -44 80 -58 134 -53 36 4 57 13 79 34 46 44 54 90 35 216
-26 170 -81 305 -136 333 -40 21 -86 19 -110 -5z"/>
</g>
</svg>
