<?xml version="1.0" standalone="no"?>
<!DOCTYPE svg PUBLIC "-//W3C//DTD SVG 20010904//EN"
 "http://www.w3.org/TR/2001/REC-SVG-20010904/DTD/svg10.dtd">
<svg version="1.0" xmlns="http://www.w3.org/2000/svg"
 width="200.000000pt" height="200.000000pt" viewBox="0 0 200.000000 200.000000"
 preserveAspectRatio="xMidYMid meet">
<metadata>
Created by potrace 1.10, written by Peter Selinger 2001-2011
</metadata>
<g transform="translate(0.000000,200.000000) scale(0.100000,-0.100000)"
fill="#000000" stroke="none">
<path d="M1140 1909 c-94 -57 -302 -248 -489 -450 -69 -74 -234 -247 -365
-385 -131 -137 -247 -262 -257 -279 -35 -56 -26 -84 54 -173 90 -100 199 -194
392 -337 201 -149 194 -145 277 -156 103 -14 777 8 883 28 92 17 115 33 115
78 0 55 -45 80 -118 64 -49 -11 -663 -38 -660 -29 2 8 702 692 812 794 74 69
104 104 128 153 48 97 44 105 -175 333 -201 210 -291 284 -413 342 -93 43
-134 47 -184 17z m133 -150 c109 -56 155 -94 359 -305 l159 -163 -15 -29 c-16
-30 -99 -112 -115 -112 -5 0 -144 -135 -308 -300 -165 -165 -302 -300 -306
-300 -7 0 -157 107 -247 175 -30 23 -130 93 -223 154 l-167 112 182 197 c319
344 580 592 624 592 8 0 34 -10 57 -21z m-947 -880 c3 -6 63 -48 133 -93 105
-68 364 -252 461 -326 l25 -19 -40 -37 c-62 -56 -156 -124 -170 -124 -25 0
-380 274 -475 366 l-94 92 68 76 c69 77 79 85 92 65z"/>
</g>
</svg>
