<svg width="21" height="21" viewBox="0 0 21 21" fill="none" xmlns="http://www.w3.org/2000/svg">
<path fill-rule="evenodd" clip-rule="evenodd" d="M13.8337 12.5938C14.0386 12.4388 14.2208 12.2536 14.3737 12.0433C14.6995 11.5948 14.875 11.0547 14.875 10.5003C14.875 9.94598 14.6995 9.40587 14.3737 8.95739C14.2207 8.74691 14.0384 8.56167 13.8334 8.40664C13.7835 8.36893 13.7356 8.32799 13.6904 8.28431C13.649 8.24426 13.6098 8.20191 13.5732 8.1576C13.3417 7.87665 13.2193 7.51726 13.3316 7.17163C13.4809 6.71203 13.9809 6.45332 14.4017 6.69099C14.5711 6.78673 14.7339 6.8936 14.889 7.01084M14.889 7.01084C15.2305 7.26917 15.5346 7.57804 15.7894 7.92877C16.3325 8.67622 16.625 9.57642 16.625 10.5003C16.625 11.4242 16.3325 12.3244 15.7894 13.0719C15.5346 13.4227 15.2306 13.7314 14.889 13.9898C14.7339 14.107 14.5711 14.2139 14.4017 14.3097C13.9809 14.5473 13.4809 14.2886 13.3316 13.829C13.2193 13.4834 13.3417 13.124 13.5732 12.843C13.6098 12.7987 13.649 12.7564 13.6904 12.7163C13.7356 12.6727 13.7839 12.6315 13.8337 12.5938" fill="black"/>
<path fill-rule="evenodd" clip-rule="evenodd" d="M15.6516 15.1024C16.3264 14.7319 16.9151 14.2155 17.3723 13.5862C18.024 12.6892 18.375 11.609 18.375 10.5003C18.375 9.39164 18.024 8.3114 17.3723 7.41445C16.8931 6.75478 16.2692 6.21914 15.5532 5.84561L15.5499 5.84386C15.5188 5.82755 15.4887 5.80984 15.4596 5.79086C15.428 5.77026 15.3976 5.74815 15.3684 5.72468C15.0554 5.47268 14.8914 5.06394 15.0177 4.67511C15.1671 4.21551 15.6639 3.9591 16.1013 4.16457C16.1894 4.20594 16.2765 4.24912 16.3626 4.29405C17.3173 4.79205 18.1491 5.50623 18.7881 6.38583C19.657 7.58176 20.125 9.02207 20.125 10.5003C20.125 11.9786 19.657 13.4189 18.7881 14.6148C18.1491 15.4944 17.3173 16.2086 16.3626 16.7066C16.2765 16.7515 16.1894 16.7947 16.1013 16.8361C15.6639 17.0416 15.1671 16.7851 15.0177 16.3255C14.8914 15.9367 15.0554 15.528 15.3684 15.276C15.3976 15.2525 15.428 15.2304 15.4596 15.2098C15.4887 15.1908 15.5188 15.1731 15.5499 15.1568L15.5532 15.155C15.5862 15.1378 15.619 15.1203 15.6516 15.1024Z" fill="black"/>
<path d="M12.25 17.1437V3.85692C12.25 2.35339 10.4791 1.54983 9.34762 2.53991L5.25 6.12533H3.5C2.05025 6.12533 0.875 7.30058 0.875 8.75033V12.2503C0.875 13.7001 2.05025 14.8753 3.5 14.8753H5.25L9.34762 18.4607C10.4791 19.4508 12.25 18.6473 12.25 17.1437Z" fill="black"/>
</svg>
