<svg width="22" height="23" viewBox="0 0 22 23" fill="none" xmlns="http://www.w3.org/2000/svg">
<path d="M11 20.6673C12.204 20.6688 13.3964 20.4324 14.5088 19.9716C15.6211 19.5109 16.6314 18.8348 17.4817 17.9824C18.3342 17.1321 19.0102 16.1218 19.4709 15.0094C19.9317 13.8971 20.1681 12.7047 20.1667 11.5007C20.1681 10.2967 19.9317 9.10423 19.4709 7.99188C19.0102 6.87954 18.3342 5.8692 17.4817 5.01891C16.6314 4.16648 15.6211 3.49047 14.5088 3.0297C13.3964 2.56894 12.204 2.33251 11 2.33399C9.79599 2.33251 8.60356 2.56894 7.49121 3.0297C6.37886 3.49047 5.36852 4.16648 4.51824 5.01891C3.66581 5.8692 2.9898 6.87954 2.52903 7.99188C2.06827 9.10423 1.83184 10.2967 1.83332 11.5007C1.83184 12.7047 2.06827 13.8971 2.52903 15.0094C2.9898 16.1218 3.66581 17.1321 4.51824 17.9824C5.36852 18.8348 6.37886 19.5109 7.49121 19.9716C8.60356 20.4324 9.79599 20.6688 11 20.6673Z" stroke="#34A853" stroke-width="2" stroke-linejoin="round"/>
<path d="M7.33331 11.5L10.0833 14.25L15.5833 8.75" stroke="#34A853" stroke-width="2" stroke-linecap="round" stroke-linejoin="round"/>
</svg>
