<svg width="24" height="25" viewBox="0 0 24 25" fill="none" xmlns="http://www.w3.org/2000/svg">
<path d="M12 13.9L14.9 16.8C15.0833 16.9833 15.3167 17.075 15.6 17.075C15.8833 17.075 16.1167 16.9833 16.3 16.8C16.4833 16.6167 16.575 16.3833 16.575 16.1C16.575 15.8167 16.4833 15.5833 16.3 15.4L13.4 12.5L16.3 9.6C16.4833 9.41667 16.575 9.18333 16.575 8.9C16.575 8.61667 16.4833 8.38333 16.3 8.2C16.1167 8.01667 15.8833 7.925 15.6 7.925C15.3167 7.925 15.0833 8.01667 14.9 8.2L12 11.1L9.1 8.2C8.91667 8.01667 8.68333 7.925 8.4 7.925C8.11667 7.925 7.88333 8.01667 7.7 8.2C7.51667 8.38333 7.425 8.61667 7.425 8.9C7.425 9.18333 7.51667 9.41667 7.7 9.6L10.6 12.5L7.7 15.4C7.51667 15.5833 7.425 15.8167 7.425 16.1C7.425 16.3833 7.51667 16.6167 7.7 16.8C7.88333 16.9833 8.11667 17.075 8.4 17.075C8.68333 17.075 8.91667 16.9833 9.1 16.8L12 13.9ZM12 22.5C10.6167 22.5 9.31667 22.2373 8.1 21.712C6.88334 21.1867 5.825 20.4743 4.925 19.575C4.025 18.6757 3.31267 17.6173 2.788 16.4C2.26333 15.1827 2.00067 13.8827 2 12.5C1.99933 11.1173 2.262 9.81733 2.788 8.6C3.314 7.38267 4.02633 6.32433 4.925 5.425C5.82367 4.52567 6.882 3.81333 8.1 3.288C9.318 2.76267 10.618 2.5 12 2.5C13.382 2.5 14.682 2.76267 15.9 3.288C17.118 3.81333 18.1763 4.52567 19.075 5.425C19.9737 6.32433 20.6863 7.38267 21.213 8.6C21.7397 9.81733 22.002 11.1173 22 12.5C21.998 13.8827 21.7353 15.1827 21.212 16.4C20.6887 17.6173 19.9763 18.6757 19.075 19.575C18.1737 20.4743 17.1153 21.187 15.9 21.713C14.6847 22.239 13.3847 22.5013 12 22.5ZM12 20.5C14.2333 20.5 16.125 19.725 17.675 18.175C19.225 16.625 20 14.7333 20 12.5C20 10.2667 19.225 8.375 17.675 6.825C16.125 5.275 14.2333 4.5 12 4.5C9.76667 4.5 7.875 5.275 6.325 6.825C4.775 8.375 4 10.2667 4 12.5C4 14.7333 4.775 16.625 6.325 18.175C7.875 19.725 9.76667 20.5 12 20.5Z" fill="#F45A5A"/>
</svg>
