<svg width="23" height="19" viewBox="0 0 23 19" fill="none" xmlns="http://www.w3.org/2000/svg">
<path d="M6.91309 0.5C8.4784 0.5 9.98085 1.11405 11.0898 2.20898L11.5049 2.60352C11.6632 2.45336 11.8033 2.32378 11.9199 2.20898L12.1318 2.01074C13.2114 1.04899 14.614 0.512706 16.0723 0.508789C17.6279 0.504673 19.1241 1.10645 20.2344 2.18652C21.3448 3.26678 21.9801 4.73811 22 6.28027C22.0198 7.82241 21.4221 9.30907 20.3398 10.417L20.334 10.4229L12.6211 18.043C12.324 18.3363 11.9223 18.4999 11.5049 18.5C11.1394 18.5 10.7856 18.3745 10.5039 18.1465L10.3877 18.043L2.6748 10.4238L2.66992 10.4189C1.58862 9.31722 0.987805 7.83787 1 6.30078C1.01221 4.76366 1.63722 3.29451 2.73535 2.20996L2.94824 2.00977C4.03288 1.0398 5.44537 0.500013 6.91309 0.5Z" fill="#F45A5A" stroke="#F45A5A"/>
</svg>
