<svg width="15" height="15" viewBox="0 0 15 15" fill="none" xmlns="http://www.w3.org/2000/svg">
<g clip-path="url(#clip0_125_2416)">
<path d="M7.65718 11.9394C10.0227 11.9394 11.9403 10.0217 11.9403 7.6562C11.9403 5.29068 10.0227 3.37305 7.65718 3.37305C5.29166 3.37305 3.37402 5.29068 3.37402 7.6562C3.37402 10.0217 5.29166 11.9394 7.65718 11.9394Z" stroke="black" stroke-width="2"/>
<path d="M3.96441 2.23242C3.54931 2.34359 3.1708 2.5621 2.86694 2.86596C2.56307 3.16982 2.34457 3.54833 2.2334 3.96343M11.3498 2.23242C11.7649 2.34359 12.1434 2.5621 12.4473 2.86596C12.7511 3.16982 12.9696 3.54833 13.0808 3.96343M7.6571 5.2086V7.50315C7.6571 7.58759 7.72563 7.65612 7.81007 7.65612H9.49274" stroke="black" stroke-width="2" stroke-linecap="round"/>
</g>
<defs>
<clipPath id="clip0_125_2416">
<rect width="14.6851" height="14.6851" fill="white" transform="translate(0.314453 0.314453)"/>
</clipPath>
</defs>
</svg>
