<svg width="20" height="21" viewBox="0 0 20 21" fill="none" xmlns="http://www.w3.org/2000/svg">
<path d="M10.0003 11.1178C10.4606 11.1178 10.8337 10.7447 10.8337 10.2845C10.8337 9.82427 10.4606 9.45117 10.0003 9.45117C9.54009 9.45117 9.16699 9.82427 9.16699 10.2845C9.16699 10.7447 9.54009 11.1178 10.0003 11.1178Z" stroke="black" stroke-width="2" stroke-linecap="round" stroke-linejoin="round"/>
<path d="M15.8333 11.1178C16.2936 11.1178 16.6667 10.7447 16.6667 10.2845C16.6667 9.82427 16.2936 9.45117 15.8333 9.45117C15.3731 9.45117 15 9.82427 15 10.2845C15 10.7447 15.3731 11.1178 15.8333 11.1178Z" stroke="black" stroke-width="2" stroke-linecap="round" stroke-linejoin="round"/>
<path d="M4.16634 11.1178C4.62658 11.1178 4.99967 10.7447 4.99967 10.2845C4.99967 9.82427 4.62658 9.45117 4.16634 9.45117C3.7061 9.45117 3.33301 9.82427 3.33301 10.2845C3.33301 10.7447 3.7061 11.1178 4.16634 11.1178Z" stroke="black" stroke-width="2" stroke-linecap="round" stroke-linejoin="round"/>
</svg>
