<svg width="22" height="23" viewBox="0 0 22 23" fill="none" xmlns="http://www.w3.org/2000/svg">
<g clip-path="url(#clip0_149_979)">
<path d="M11 21.5C12.3135 21.5016 13.6143 21.2437 14.8278 20.741C16.0412 20.2384 17.1434 19.5009 18.071 18.571C19.0009 17.6434 19.7384 16.5412 20.241 15.3278C20.7437 14.1143 21.0016 12.8135 21 11.5C21.0016 10.1865 20.7437 8.88572 20.241 7.67225C19.7384 6.45878 19.0009 5.35659 18.071 4.42901C17.1434 3.49909 16.0412 2.76162 14.8278 2.25896C13.6143 1.75631 12.3135 1.49839 11 1.50001C9.68655 1.49839 8.38572 1.75631 7.17225 2.25896C5.95878 2.76162 4.85659 3.49909 3.92901 4.42901C2.99909 5.35659 2.26162 6.45878 1.75896 7.67225C1.25631 8.88572 0.998388 10.1865 1.00001 11.5C0.998388 12.8135 1.25631 14.1143 1.75896 15.3278C2.26162 16.5412 2.99909 17.6434 3.92901 18.571C4.85659 19.5009 5.95878 20.2384 7.17225 20.741C8.38572 21.2437 9.68655 21.5016 11 21.5Z" stroke="#34A853" stroke-width="2" stroke-linejoin="round"/>
<path d="M6 11.3L9.3 14.6L15.9 8" stroke="#34A853" stroke-width="2" stroke-linecap="round" stroke-linejoin="round"/>
</g>
<defs>
<clipPath id="clip0_149_979">
<rect width="22" height="22" fill="white" transform="translate(0 0.5)"/>
</clipPath>
</defs>
</svg>
