<svg width="17" height="20" viewBox="0 0 17 20" fill="none" xmlns="http://www.w3.org/2000/svg">
<path fill-rule="evenodd" clip-rule="evenodd" d="M2.75 5.5C2.75 4.04131 3.32946 2.64236 4.36091 1.61091C5.39236 0.579463 6.79131 0 8.25 0C9.70869 0 11.1076 0.579463 12.1391 1.61091C13.1705 2.64236 13.75 4.04131 13.75 5.5H14.6667C15.1529 5.5 15.6192 5.69315 15.963 6.03697C16.3068 6.38079 16.5 6.8471 16.5 7.33333V16.5C16.5 16.9862 16.3068 17.4525 15.963 17.7964C15.6192 18.1402 15.1529 18.3333 14.6667 18.3333H1.83333C1.3471 18.3333 0.880787 18.1402 0.536971 17.7964C0.193154 17.4525 0 16.9862 0 16.5V7.33333C0 6.8471 0.193154 6.38079 0.536971 6.03697C0.880787 5.69315 1.3471 5.5 1.83333 5.5H2.75ZM8.25 1.83333C9.22246 1.83333 10.1551 2.21964 10.8427 2.90727C11.5304 3.59491 11.9167 4.52754 11.9167 5.5H4.58333C4.58333 4.52754 4.96964 3.59491 5.65728 2.90727C6.34491 2.21964 7.27754 1.83333 8.25 1.83333ZM10.0833 11C10.0833 11.3218 9.99861 11.6379 9.8377 11.9166C9.67679 12.1953 9.44536 12.4268 9.16667 12.5877V13.75C9.16667 13.9931 9.07009 14.2263 8.89818 14.3982C8.72627 14.5701 8.49312 14.6667 8.25 14.6667C8.00688 14.6667 7.77373 14.5701 7.60182 14.3982C7.42991 14.2263 7.33333 13.9931 7.33333 13.75V12.5877C6.98385 12.3859 6.71071 12.0744 6.55628 11.7015C6.40186 11.3287 6.37477 10.9153 6.47922 10.5255C6.58367 10.1357 6.81382 9.79122 7.13399 9.54554C7.45415 9.29986 7.84644 9.16668 8.25 9.16667C8.73623 9.16667 9.20255 9.35982 9.54636 9.70364C9.89018 10.0475 10.0833 10.5138 10.0833 11Z" fill="#1E1E1E"/>
</svg>
