<svg width="65" height="24" viewBox="0 0 65 24" fill="none" xmlns="http://www.w3.org/2000/svg">
<path d="M5.78562 0.90897C5.48782 1.06553 4.79294 1.69179 4.22214 2.34041C3.67617 2.98903 2.48494 4.15208 1.59153 4.95727C-0.517933 6.88077 -0.517933 7.1939 1.51707 9.0503C2.36086 9.81075 3.37836 11.0185 3.80025 11.7343C4.42068 12.7855 4.69367 13.0539 5.26446 13.0986C7.17538 13.2999 7.07612 11.3988 5.01629 8.93847C4.66885 8.53587 4.47031 8.13328 4.54477 8.04381C4.89221 7.75305 8.36661 8.49114 10.0294 9.20686C11.9155 10.0344 13.1563 10.9738 13.7767 12.0921C14.3227 13.0091 14.4964 15.2458 14.1242 16.4759C13.7271 17.8402 11.7914 19.4954 9.16076 20.7255C7.99435 21.2847 6.97685 21.8214 6.87758 21.9556C6.4805 22.4701 6.70386 23.2082 7.32429 23.566C7.94472 23.9462 8.01917 23.9239 10.3272 22.8727C14.4964 20.9492 16.6307 18.6678 17.003 15.7155C17.1767 14.1945 16.8293 12.1816 16.184 10.9514C15.0921 8.87137 11.1461 6.56764 7.67173 5.98612C4.61922 5.47169 4.71849 5.62826 6.30678 3.86132C7.79581 2.18385 7.96953 1.51286 7.12575 0.976068C6.4805 0.551109 6.45569 0.551109 5.78562 0.90897Z" fill="currentColor"/>
<path d="M56.2149 0.976431C55.9916 1.15536 55.7682 1.53559 55.7186 1.80398C55.4456 3.01176 55.3463 9.63218 55.5449 13.7699C55.793 18.8247 55.9667 19.4062 57.3069 19.4062C58.2996 19.4062 58.647 18.78 58.4236 17.3709C58.2996 16.5657 58.3244 16.275 58.5477 16.275C58.92 16.275 61.6499 17.5051 62.5681 18.0866C63.809 18.8918 65.0002 18.534 65.0002 17.3709C65.0002 16.6105 64.1564 16.0066 61.6002 14.8212L59.7886 13.9936L60.9798 12.6293C61.6251 11.8912 62.4937 10.9518 62.9404 10.5492C63.7097 9.83348 63.8338 9.58745 63.7841 8.84936C63.7593 8.33494 62.8659 7.93235 62.1462 8.08891C61.8236 8.15601 60.8805 8.98356 60.0368 9.90058C59.193 10.8176 58.3988 11.5781 58.2499 11.5781C58.0514 11.5781 58.0266 10.0348 58.1258 6.34434C58.2251 2.6539 58.1755 1.04353 57.9769 0.864599C57.5799 0.506739 56.6616 0.551472 56.2149 0.976431Z" fill="currentColor"/>
<path d="M22.2896 1.64691C21.5203 1.96003 20.7758 2.42973 20.6765 2.65339C20.4283 3.16781 20.6765 12.7182 21.0736 17.9072C21.3714 21.9779 21.5699 22.4252 22.9845 22.6712C23.7538 22.8054 24.2005 22.6936 25.7144 22.0002C29.3625 20.3004 31.7698 18.6005 32.688 17.0573C33.2092 16.1626 33.2092 13.926 32.6632 12.9866C32.2413 12.2709 30.6034 10.9065 30.1318 10.9065C30.0078 10.9065 29.7348 10.8171 29.5611 10.7052C29.2881 10.5711 29.4121 10.2803 30.0822 9.43037C31.7698 7.26084 31.9683 4.97948 30.5786 3.23491C29.437 1.80347 28.072 1.22195 25.6648 1.13248C23.9276 1.06538 23.5057 1.11012 22.2896 1.64691ZM27.2779 3.7717C28.1713 4.08483 28.8662 5.04658 28.8414 5.94123C28.7917 7.52924 26.3596 9.90006 24.002 10.6605L23.3071 10.8842V7.32794V3.7717L24.1261 3.54804C24.9699 3.32438 26.2604 3.41384 27.2779 3.7717ZM29.3129 13.2774C30.1567 13.6576 30.5041 14.2391 30.5041 15.1785C30.5041 15.7824 30.2559 16.1403 29.1888 17.0349C28.0224 18.0638 24.1757 20.2557 23.9524 20.0544C23.9027 20.0096 23.7787 18.4887 23.6794 16.6994L23.4808 13.4339L24.5728 13.1879C25.1684 13.0537 25.8881 12.8971 26.1611 12.8524C26.9056 12.7182 28.5435 12.9419 29.3129 13.2774Z" fill="currentColor"/>
<path d="M48.5952 10.8623C47.404 11.5557 46.3121 13.099 46.0391 14.5528C45.5924 16.7894 47.2799 19.5628 49.3398 20.0773C51.3748 20.5693 53.8317 19.7641 53.8317 18.6234C53.8317 17.7064 52.9631 17.3933 51.3748 17.6841C50.0843 17.9301 50.0346 17.9301 49.4638 17.3262C48.3471 16.1632 48.3719 14.5975 49.5135 13.3674C50.2332 12.6293 50.6303 12.5398 51.1018 13.0319C51.5237 13.4792 52.4171 13.4568 52.9134 12.9648C53.4098 12.4727 53.4346 12.2267 53.0375 11.4662C52.3675 10.1466 50.3573 9.87823 48.5952 10.8623Z" fill="currentColor"/>
<path d="M37.9244 11.3544C35.542 12.4727 34.1026 15.4474 35.0952 17.1473C35.4675 17.8183 36.8076 18.5116 37.6762 18.5116C38.5945 18.5116 39.8353 17.9301 40.5302 17.1473C40.9025 16.7223 41.2747 16.4986 41.3243 16.6328C41.647 17.3262 42.9623 18.9813 43.2849 19.0931C43.955 19.3392 44.8732 18.9813 45.0469 18.3998C45.1462 17.9972 44.8732 17.3486 43.955 15.8948C43.2849 14.8212 42.4659 13.3897 42.1681 12.7187C41.3243 10.9518 39.7857 10.4597 37.9244 11.3544ZM38.9419 14.8435C38.4207 15.8053 37.8499 16.2526 37.5273 15.9842C37.2543 15.7158 37.7259 14.7317 38.4704 14.016C39.4631 13.0542 39.6864 13.4568 38.9419 14.8435Z" fill="currentColor"/>
</svg>
