<svg width="26" height="26" viewBox="0 0 26 26" fill="none" xmlns="http://www.w3.org/2000/svg">
<path d="M16.3145 10.6486C16.9253 10.4453 17.5855 10.4453 18.1963 10.6486C18.595 10.7818 18.9243 11.0147 19.2439 11.2942C19.5494 11.5629 19.896 11.9215 20.311 12.3505C20.8064 12.8654 21.3026 13.3797 21.7995 13.8932C22.2848 14.3937 22.4798 14.9223 22.4776 15.6287C22.4711 17.4259 22.4332 18.6587 21.9175 19.6695C21.424 20.6374 20.6367 21.4243 19.6685 21.9174C18.2115 22.6606 16.3481 22.4786 14.7686 22.4786H11.2305C10.0475 22.4786 9.10929 22.4786 8.35421 22.4168C7.58071 22.354 6.92746 22.2218 6.33054 21.9185C5.36219 21.4251 4.57491 20.6378 4.08154 19.6695C3.76196 19.0422 3.63738 18.3597 3.57238 17.5288C3.47704 16.2722 4.54304 15.2549 5.36313 14.4283C5.69571 14.0925 6.04671 13.8108 6.48221 13.6505C7.14295 13.4089 7.86789 13.4089 8.52863 13.6505C8.96413 13.8108 9.31513 14.0925 9.64771 14.4283C9.97054 14.7533 10.3324 15.1867 10.77 15.7121C10.808 15.7587 10.8675 15.802 10.9228 15.7446L14.1999 12.3505C14.6159 11.9215 14.9615 11.5629 15.267 11.2942C15.5865 11.0147 15.917 10.7818 16.3145 10.6486ZM16.3395 12.5152C16.0903 12.734 15.7902 13.0438 15.346 13.5042L12.0917 16.8734C11.9247 17.0464 11.7232 17.1823 11.5002 17.2723C11.2772 17.3622 11.0377 17.4041 10.7975 17.3953C10.5572 17.3865 10.3214 17.3272 10.1056 17.2212C9.88976 17.1153 9.69868 16.965 9.54479 16.7802C9.07788 16.2212 8.76046 15.841 8.49396 15.5734C8.23396 15.3102 8.08229 15.2181 7.97071 15.1769C7.67025 15.067 7.34058 15.067 7.04013 15.1769C6.92854 15.2181 6.77796 15.3102 6.51688 15.5734C6.11604 15.9764 5.76179 16.426 5.39888 16.8626C5.22446 17.0717 5.17679 17.1822 5.19629 17.4476C5.25046 18.1582 5.35554 18.5905 5.52888 18.9317C5.8664 19.5941 6.40489 20.1325 7.06721 20.4701C7.39763 20.638 7.81471 20.742 8.48638 20.7972C9.16888 20.8525 10.0399 20.8536 11.2662 20.8536H14.7329C16.0242 20.8536 17.7283 21.0832 18.9319 20.4701C19.5942 20.1325 20.1327 19.5941 20.4702 18.9317C20.7757 18.3305 20.845 17.5202 20.8526 15.6232C20.8537 15.3264 20.8082 15.2051 20.5948 14.9852L19.1648 13.5042C18.7206 13.0438 18.4216 12.7351 18.1714 12.5152C17.6135 12.0255 16.9212 12.0038 16.3395 12.5152Z" fill="#1E1E1E"/>
<path d="M11.2306 3.52148H14.7688C15.9518 3.52148 16.8899 3.52148 17.645 3.58323C18.4185 3.64607 19.0718 3.77823 19.6698 4.08157C20.6379 4.5754 21.4248 5.36306 21.9177 6.33165C22.2221 6.92748 22.3543 7.58182 22.4171 8.35532C22.4788 9.1104 22.4788 10.0486 22.4788 11.2316V14.7697C22.4788 15.9527 22.4788 16.8909 22.4171 17.646C22.3543 18.4195 22.2221 19.0727 21.9188 19.6707C21.4249 20.6388 20.6373 21.4258 19.6687 21.9186C19.0728 22.2231 18.4185 22.3552 17.645 22.4181C16.8899 22.4798 15.9518 22.4798 14.7688 22.4798H11.2306C10.0476 22.4798 9.10942 22.4798 8.35434 22.4181C7.58084 22.3552 6.92759 22.2231 6.33067 21.9197C5.36232 21.4264 4.57504 20.6391 4.08167 19.6707C3.77726 19.0727 3.64509 18.4195 3.58226 17.646C3.52051 16.8909 3.52051 15.9527 3.52051 14.7697V11.2316C3.52051 10.0486 3.52051 9.1104 3.58226 8.35532C3.64509 7.58182 3.77726 6.92857 4.08059 6.33165C4.57424 5.36314 5.36192 4.57583 6.33067 4.08265C6.92651 3.77823 7.58084 3.64607 8.35434 3.58323C9.10942 3.52148 10.0476 3.52148 11.2306 3.52148ZM8.48651 5.20282C7.81484 5.25698 7.39776 5.36207 7.06734 5.52998C6.40503 5.86751 5.86653 6.406 5.52901 7.06832C5.36109 7.39873 5.25709 7.81582 5.20184 8.48748C5.14659 9.16998 5.14551 10.041 5.14551 11.2673V14.734C5.14551 15.9614 5.14551 16.8324 5.20184 17.5138C5.25601 18.1855 5.36109 18.6026 5.52901 18.933C5.86653 19.5953 6.40503 20.1338 7.06734 20.4713C7.39776 20.6392 7.81484 20.7432 8.48651 20.7985C9.16901 20.8537 10.04 20.8548 11.2663 20.8548H14.733C15.9604 20.8548 16.8314 20.8548 17.5128 20.7985C18.1845 20.7443 18.6016 20.6392 18.932 20.4713C19.5943 20.1338 20.1328 19.5953 20.4703 18.933C20.6383 18.6026 20.7423 18.1855 20.7975 17.5138C20.8528 16.8313 20.8538 15.9603 20.8538 14.734V11.2673C20.8538 10.041 20.8538 9.1689 20.7975 8.48748C20.7433 7.81582 20.6383 7.39873 20.4703 7.06832C20.1328 6.406 19.5943 5.86751 18.932 5.52998C18.6016 5.36207 18.1845 5.25807 17.5128 5.20282C16.8303 5.14757 15.9593 5.14648 14.733 5.14648H11.2663C10.04 5.14648 9.16792 5.14648 8.48651 5.20282Z" fill="#1E1E1E"/>
<path d="M10.8337 8.39648C10.4745 8.39648 10.1301 8.53916 9.87612 8.79311C9.62216 9.04707 9.47949 9.3915 9.47949 9.75065C9.47949 10.1098 9.62216 10.4542 9.87612 10.7082C10.1301 10.9621 10.4745 11.1048 10.8337 11.1048C11.1928 11.1048 11.5372 10.9621 11.7912 10.7082C12.0452 10.4542 12.1878 10.1098 12.1878 9.75065C12.1878 9.3915 12.0452 9.04707 11.7912 8.79311C11.5372 8.53916 11.1928 8.39648 10.8337 8.39648ZM7.85449 9.75065C7.85449 8.96053 8.16837 8.20276 8.72707 7.64406C9.28577 7.08536 10.0435 6.77148 10.8337 6.77148C11.6238 6.77148 12.3815 7.08536 12.9402 7.64406C13.4989 8.20276 13.8128 8.96053 13.8128 9.75065C13.8128 10.5408 13.4989 11.2985 12.9402 11.8572C12.3815 12.4159 11.6238 12.7298 10.8337 12.7298C10.0435 12.7298 9.28577 12.4159 8.72707 11.8572C8.16837 11.2985 7.85449 10.5408 7.85449 9.75065Z" fill="#1E1E1E"/>
</svg>
