<svg width="18" height="18" viewBox="0 0 18 18" fill="none" xmlns="http://www.w3.org/2000/svg">
<path d="M5.77426 4.49998H4.5C3.00883 4.49998 1.8 5.70882 1.8 7.19998V10.8C1.8 12.2912 3.00883 13.5 4.5 13.5H6.3L10.5147 17.1878C11.6785 18.2062 13.5 17.3797 13.5 15.8332V12.2257L5.77426 4.49998Z" fill="black"/>
<path d="M13.5 9.68014V2.16677C13.5 0.620281 11.6785 -0.206241 10.5147 0.812127L7.37725 3.55739L13.5 9.68014Z" fill="black"/>
<path fill-rule="evenodd" clip-rule="evenodd" d="M0.263604 0.263604C0.615076 -0.087868 1.18492 -0.087868 1.5364 0.263604L17.7364 16.4636C18.0879 16.8151 18.0879 17.3849 17.7364 17.7364C17.3849 18.0879 16.8151 18.0879 16.4636 17.7364L0.263604 1.5364C-0.087868 1.18492 -0.087868 0.615076 0.263604 0.263604Z" fill="black"/>
</svg>
