<?xml version="1.0" standalone="no"?>
<!DOCTYPE svg PUBLIC "-//W3C//DTD SVG 20010904//EN"
 "http://www.w3.org/TR/2001/REC-SVG-20010904/DTD/svg10.dtd">
<svg version="1.0" xmlns="http://www.w3.org/2000/svg"
 width="200.000000pt" height="200.000000pt" viewBox="0 0 200.000000 200.000000"
 preserveAspectRatio="xMidYMid meet">
<metadata>
Created by potrace 1.10, written by Peter Selinger 2001-2011
</metadata>
<g transform="translate(0.000000,200.000000) scale(0.100000,-0.100000)"
fill="#000000" stroke="none">
<path d="M874 1790 c-187 -27 -377 -149 -489 -313 -81 -119 -113 -204 -140
-368 -4 -27 -18 -46 -58 -81 -123 -106 -155 -277 -59 -317 26 -11 40 -9 101
12 l71 25 23 -52 c13 -28 41 -75 61 -105 20 -29 36 -56 36 -60 0 -3 17 -25 38
-48 57 -65 180 -160 252 -196 63 -31 68 -32 195 -32 108 0 143 4 205 23 119
38 187 79 281 172 72 71 94 100 133 180 68 140 88 227 88 385 0 152 -19 241
-78 356 -107 213 -321 390 -504 419 -72 11 -82 11 -156 0z m230 -113 c119 -55
239 -163 319 -289 l36 -56 -32 -5 c-18 -3 -63 -9 -102 -12 -164 -15 -622 -76
-709 -95 -52 -11 -140 -36 -197 -55 -56 -19 -103 -34 -105 -32 -1 1 5 27 12
57 26 101 87 209 170 298 42 45 82 82 87 82 6 0 25 11 44 26 135 103 349 139
477 81z m406 -474 c6 -21 14 -94 17 -163 6 -143 -12 -239 -66 -353 -63 -130
-200 -259 -329 -307 -84 -32 -207 -52 -280 -46 -81 7 -139 33 -226 103 -38 32
-92 69 -120 83 -44 22 -54 34 -97 115 -73 139 -74 134 18 174 43 19 177 82
298 139 263 124 384 174 570 235 211 68 201 67 215 20z m-413 10 c-4 -3 -10
-3 -14 0 -3 4 0 7 7 7 7 0 10 -3 7 -7z m-28 -7 c-2 -2 -43 -20 -91 -40 -112
-46 -622 -301 -663 -331 -16 -12 -41 -25 -55 -28 -14 -3 -44 -12 -67 -18 -62
-19 -72 -5 -50 64 19 60 42 94 121 177 l56 59 153 35 c170 40 616 101 596 82z"/>
<path d="M922 1453 c-124 -65 -149 -74 -200 -76 -56 -2 -57 -1 -60 26 -2 16 4
39 13 53 21 32 2 31 -24 -2 -27 -35 -29 -104 -3 -127 32 -29 105 -22 175 18
100 55 219 138 235 163 8 12 13 21 11 21 -2 -1 -68 -35 -147 -76z"/>
<path d="M1193 950 c-47 -19 -20 -60 39 -60 38 0 58 19 58 54 0 18 -59 21 -97
6z"/>
<path d="M598 835 c-16 -9 -28 -24 -28 -35 0 -30 81 -28 110 2 11 12 19 27 17
33 -6 16 -69 16 -99 0z"/>
<path d="M922 669 c-29 -12 -51 -26 -49 -32 4 -13 78 -21 113 -13 31 8 52 45
33 57 -20 13 -38 10 -97 -12z"/>
</g>
</svg>
