<?xml version="1.0" standalone="no"?>
<!DOCTYPE svg PUBLIC "-//W3C//DTD SVG 20010904//EN"
 "http://www.w3.org/TR/2001/REC-SVG-20010904/DTD/svg10.dtd">
<svg version="1.0" xmlns="http://www.w3.org/2000/svg"
 width="200.000000pt" height="200.000000pt" viewBox="0 0 200.000000 200.000000"
 preserveAspectRatio="xMidYMid meet">
<metadata>
Created by potrace 1.10, written by Peter Selinger 2001-2011
</metadata>
<g transform="translate(0.000000,200.000000) scale(0.100000,-0.100000)"
fill="#000000" stroke="none">
<path d="M583 1671 c63 -70 64 -75 11 -123 -25 -24 -49 -44 -53 -45 -3 -1 -18
15 -33 37 -15 21 -41 46 -58 55 -30 15 -29 13 19 -48 33 -42 49 -71 45 -81 -7
-18 -29 -21 -39 -6 -10 16 -61 11 -86 -9 -22 -18 -23 -18 -68 17 -60 46 -164
94 -193 90 -15 -2 -24 -11 -26 -26 -4 -24 22 -62 42 -63 6 0 37 -10 69 -22
l58 -23 -103 4 c-112 3 -141 -5 -121 -35 6 -10 15 -17 20 -17 4 1 31 4 58 8
l50 6 -35 -19 c-48 -27 -100 -77 -100 -96 0 -23 19 -55 32 -55 6 0 34 22 63
49 54 51 101 71 168 71 l37 0 -16 -25 c-24 -37 1 -110 44 -126 5 -3 5 -34 -1
-78 -20 -147 32 -351 118 -464 18 -23 33 -45 33 -50 6 -32 153 -163 244 -216
44 -27 190 -38 294 -23 229 32 423 223 487 477 26 105 27 253 2 357 -18 74
-18 77 0 115 11 21 19 55 19 76 1 36 2 38 51 53 27 8 79 18 115 21 67 6 80 14
80 47 0 17 -6 18 -49 13 -27 -3 -81 -17 -120 -30 -39 -13 -71 -22 -71 -21 0 6
118 72 150 84 39 15 50 27 50 53 0 36 -54 18 -165 -56 -51 -34 -56 -36 -35
-12 14 15 53 47 88 72 47 34 62 51 62 69 0 70 -134 -21 -201 -137 l-21 -37
-35 20 c-26 16 -44 19 -77 15 -34 -5 -47 -2 -60 12 -23 25 -20 34 13 49 30 13
46 37 35 53 -9 15 -47 10 -82 -11 l-33 -20 -62 29 c-95 44 -136 55 -212 55
-79 0 -195 -31 -263 -71 l-44 -25 -51 51 c-60 60 -96 70 -44 12z m545 -76 l56
-26 -44 -44 c-29 -30 -41 -49 -36 -60 5 -15 11 -12 42 15 61 53 78 57 118 27
19 -15 47 -47 63 -73 15 -25 40 -60 56 -77 15 -16 27 -34 27 -38 0 -5 1 -12 3
-16 1 -5 -61 -15 -138 -24 -490 -55 -583 -71 -780 -134 -22 -7 -48 -16 -57
-20 -30 -12 13 124 68 212 43 70 48 75 57 55 6 -12 17 -22 24 -22 11 0 13 9 8
38 -5 33 -2 41 28 70 30 29 35 31 47 17 15 -19 40 -3 40 26 0 25 69 63 160 88
95 27 180 22 258 -14z m346 -434 c35 -152 11 -331 -60 -459 -105 -188 -324
-301 -538 -277 -72 8 -95 19 -178 86 -34 28 -81 59 -104 69 -35 15 -48 30 -86
102 -49 91 -86 215 -95 320 -6 64 -5 68 18 77 64 27 293 73 454 91 99 11 243
29 320 39 77 11 166 20 197 20 l56 1 16 -69z"/>
<path d="M1193 960 c-41 -17 -19 -50 32 -50 35 0 55 15 55 42 0 14 -8 18 -32
17 -18 0 -43 -4 -55 -9z"/>
<path d="M668 859 c-10 -5 -18 -19 -18 -29 0 -16 7 -20 35 -20 34 0 75 27 75
50 0 13 -70 12 -92 -1z"/>
<path d="M1304 833 c-3 -10 -11 -31 -16 -46 -9 -24 -8 -32 9 -49 30 -30 43
-14 43 53 0 46 -3 59 -15 59 -9 0 -18 -8 -21 -17z"/>
<path d="M1225 800 c-19 -36 -19 -54 -1 -69 18 -15 22 -8 31 52 8 55 -6 63
-30 17z"/>
<path d="M726 709 c-10 -50 -7 -76 8 -82 18 -7 26 13 26 69 0 52 -24 62 -34
13z"/>
<path d="M663 718 c-37 -59 -40 -78 -15 -101 27 -25 42 -3 42 60 0 51 -10 66
-27 41z"/>
<path d="M985 723 c-42 -9 -76 -26 -72 -37 2 -6 26 -12 54 -14 43 -3 54 0 67
19 24 35 9 45 -49 32z"/>
</g>
</svg>
