<?xml version="1.0" standalone="no"?>
<!DOCTYPE svg PUBLIC "-//W3C//DTD SVG 20010904//EN"
 "http://www.w3.org/TR/2001/REC-SVG-20010904/DTD/svg10.dtd">
<svg version="1.0" xmlns="http://www.w3.org/2000/svg"
 width="200.000000pt" height="200.000000pt" viewBox="0 0 200.000000 200.000000"
 preserveAspectRatio="xMidYMid meet">
<metadata>
Created by potrace 1.10, written by Peter Selinger 2001-2011
</metadata>
<g transform="translate(0.000000,200.000000) scale(0.100000,-0.100000)"
fill="#000000" stroke="none">
<path d="M500 1753 c66 -75 69 -87 29 -120 -19 -15 -45 -38 -58 -51 -13 -13
-24 -22 -25 -20 -18 31 -85 102 -107 114 -28 14 -27 12 16 -42 74 -90 75 -94
28 -161 -85 -123 -127 -242 -139 -398 -11 -144 41 -333 131 -469 25 -38 45
-72 45 -75 0 -3 17 -25 38 -48 57 -65 180 -160 252 -196 63 -31 68 -32 195
-32 145 0 226 19 340 78 92 49 222 183 272 282 81 158 112 322 94 486 -6 51
-9 95 -7 97 2 2 21 -4 41 -12 50 -21 51 -21 65 15 14 33 8 256 -8 314 -13 47
-60 46 -155 -4 -43 -21 -77 -35 -77 -31 0 5 -35 45 -77 90 -60 64 -74 84 -62
91 8 5 17 9 20 9 12 0 49 42 49 55 0 22 -56 19 -100 -6 l-37 -21 -84 41 c-104
50 -191 66 -293 52 -84 -12 -168 -39 -235 -78 l-50 -27 -54 57 c-69 71 -109
80 -47 10z m610 -79 c33 -15 60 -30 60 -33 0 -4 -18 -25 -40 -46 -24 -23 -40
-48 -40 -62 0 -13 2 -23 5 -23 3 0 31 20 63 45 31 25 61 45 65 45 16 0 74 -50
116 -100 l42 -50 -50 29 c-72 43 -125 57 -157 42 -26 -11 -26 -12 -22 -117 3
-98 2 -105 -17 -109 -11 -3 -99 -14 -195 -25 -223 -27 -388 -60 -519 -105 -58
-19 -105 -34 -107 -32 -1 1 5 27 13 57 18 70 63 168 105 226 l32 45 13 -26
c25 -46 53 -23 32 26 -12 29 -10 33 29 72 39 39 42 40 60 24 22 -20 42 -6 42
30 0 20 13 30 73 59 147 69 283 79 397 28z m398 -464 c7 -25 16 -101 19 -170
6 -143 -12 -239 -66 -353 -63 -130 -200 -259 -329 -307 -84 -32 -207 -52 -280
-46 -81 7 -139 33 -226 103 -38 32 -92 69 -120 83 -44 22 -54 34 -97 115 -26
50 -59 130 -73 179 -27 91 -43 242 -29 262 14 20 309 83 488 104 94 12 215 26
270 33 l100 12 16 -29 c24 -46 46 -55 67 -30 48 59 127 93 212 90 32 -1 35 -4
48 -46z"/>
<path d="M1193 950 c-47 -19 -20 -60 39 -60 38 0 58 19 58 54 0 18 -59 21 -97
6z"/>
<path d="M598 835 c-16 -9 -28 -24 -28 -35 0 -30 81 -28 110 2 11 12 19 27 17
33 -6 16 -69 16 -99 0z"/>
<path d="M1300 784 c-13 -34 -13 -77 1 -72 11 4 24 98 13 98 -2 0 -9 -12 -14
-26z"/>
<path d="M1234 755 c-16 -38 -18 -55 -6 -55 4 0 12 20 18 45 12 54 8 58 -12
10z"/>
<path d="M675 645 c-6 -54 -2 -75 16 -75 5 0 9 29 9 65 0 79 -15 85 -25 10z"/>
<path d="M922 669 c-29 -12 -51 -26 -49 -32 4 -13 78 -21 113 -13 31 8 52 45
33 57 -20 13 -38 10 -97 -12z"/>
<path d="M605 668 c-16 -46 -23 -104 -13 -115 15 -18 31 -5 24 21 -2 11 -1 40
3 64 5 24 4 42 -1 42 -5 0 -11 -6 -13 -12z"/>
</g>
</svg>
