<svg width="152" height="153" viewBox="0 0 152 153" fill="none" xmlns="http://www.w3.org/2000/svg">
<path d="M23.4039 14.0304C26.1193 17.0614 26.1624 17.2779 23.878 19.3563C22.8005 20.3955 21.766 21.2615 21.5936 21.3048C21.4643 21.3481 20.8178 20.6553 20.1712 19.7027C19.5247 18.7934 18.4041 17.7109 17.6713 17.3212C16.3783 16.6717 16.4214 16.7583 18.4903 19.3996C19.9126 21.2182 20.6023 22.4739 20.4299 22.9069C20.1281 23.6863 19.1799 23.8162 18.7489 23.1667C18.3179 22.4739 16.1197 22.6904 15.0421 23.5564C14.0939 24.3358 14.0508 24.3358 12.1112 22.8203C9.52505 20.8285 5.04245 18.7501 3.79249 18.9233C3.14596 19.0099 2.75804 19.3996 2.67184 20.0491C2.49943 21.0883 3.62008 22.7337 4.48212 22.777C4.74073 22.777 6.07689 23.21 7.45616 23.7296L9.95607 24.7255L5.51657 24.5523C0.689144 24.4224 -0.560814 24.7688 0.301226 26.0678C0.559838 26.5008 0.947756 26.8039 1.16327 26.8039C1.33567 26.7606 2.49943 26.6307 3.66318 26.4575L5.81828 26.1977L4.30971 27.0204C2.24082 28.1896 -0.000488281 30.3546 -0.000488281 31.1773C-0.000488281 32.1732 0.81845 33.5588 1.37878 33.5588C1.63739 33.5588 2.84424 32.6062 4.0942 31.4371C6.42171 29.2288 8.4475 28.3628 11.3353 28.3628H12.9301L12.2405 29.4453C11.206 31.0474 12.2836 34.2083 14.137 34.9011C14.3525 35.031 14.3525 36.3733 14.0939 38.2785C13.2318 44.6436 15.4731 53.4768 19.1799 58.3697C19.9557 59.3656 20.6023 60.3182 20.6023 60.5347C20.8609 61.9203 27.1969 67.5926 31.1192 69.8875C33.0156 71.0566 39.3085 71.5329 43.7911 70.8834C53.6615 69.4978 62.0233 61.2275 64.7818 50.2293C65.9025 45.6828 65.9456 39.2744 64.868 34.7712C64.0922 31.567 64.0922 31.4371 64.868 29.7917C65.3421 28.8824 65.687 27.4102 65.687 26.5008C65.7301 24.942 65.7732 24.8554 67.8852 24.2059C69.0489 23.8595 71.2902 23.4265 72.8419 23.2966C75.7297 23.0368 76.2901 22.6904 76.2901 21.2615C76.2901 20.5254 76.0314 20.4821 74.1781 20.6986C73.0143 20.8285 70.6868 21.4347 69.0058 21.9976C67.3248 22.5605 65.9456 22.9502 65.9456 22.9069C65.9456 22.6471 71.0316 19.7893 72.4109 19.2697C74.0918 18.6202 74.566 18.1006 74.566 16.9748C74.566 15.416 72.2385 16.1954 67.4541 19.3996C65.2559 20.8718 65.0404 20.9584 65.9456 19.9192C66.549 19.2697 68.23 17.8841 69.7385 16.8016C71.7643 15.3294 72.4109 14.5933 72.4109 13.8139C72.4109 10.7829 66.6352 14.7232 63.7474 19.746L62.8422 21.3481L61.3337 20.4821C60.213 19.7893 59.4372 19.6594 58.0148 19.8326C56.5493 20.0491 55.989 19.9192 55.4287 19.313C54.4373 18.2305 54.5666 17.8408 55.989 17.1913C57.2821 16.6284 57.9717 15.5892 57.4976 14.8964C57.1097 14.2469 55.4718 14.4634 53.9632 15.3727L52.5408 16.2387L49.8685 14.983C45.7738 13.0778 44.0067 12.6015 40.7309 12.6015C37.3258 12.6015 32.326 13.9438 29.3951 15.6758L27.4986 16.7583L25.3004 14.55C22.7143 11.952 21.1626 11.519 23.4039 14.0304ZM46.8945 17.3212L49.3082 18.447L47.4117 20.3522C46.1618 21.6512 45.6445 22.4739 45.86 22.9502C46.0755 23.5997 46.3342 23.4698 47.6703 22.3007C50.2995 20.0058 51.0323 19.8326 52.7564 21.1316C53.5753 21.7811 54.7822 23.1667 55.4718 24.2925C56.1183 25.375 57.1959 26.8905 57.8855 27.6267C58.532 28.3195 59.0493 29.0989 59.0493 29.2721C59.0493 29.4886 59.0924 29.7917 59.1786 29.9649C59.2217 30.1814 56.5493 30.6144 53.2305 31.0041C32.1105 33.3856 28.102 34.0784 19.6109 36.8063C18.6627 37.1094 17.542 37.4991 17.1541 37.6723C15.861 38.1919 17.7144 32.3031 20.085 28.4927C21.9384 25.4616 22.1539 25.2451 22.5419 26.1111C22.8005 26.6307 23.2746 27.0637 23.5763 27.0637C24.0504 27.0637 24.1366 26.674 23.9211 25.4183C23.7056 23.9894 23.8349 23.643 25.128 22.3873C26.421 21.1316 26.6365 21.045 27.1538 21.6512C27.8003 22.4739 28.8779 21.7811 28.8779 20.5254C28.8779 19.4429 31.8519 17.7975 35.7742 16.715C39.8689 15.5459 43.5325 15.7624 46.8945 17.3212ZM61.8078 36.1135C63.3163 42.6951 62.2819 50.4458 59.2217 55.9882C54.6959 64.1286 45.2566 69.0215 36.0328 67.9823C32.9294 67.6359 31.9381 67.1596 28.3606 64.2585C26.8952 63.0461 24.8694 61.7038 23.878 61.2708C22.3694 60.6213 21.8091 59.9718 20.1712 56.8542C18.0592 52.9139 16.4645 47.5447 16.0766 42.9982C15.8179 40.227 15.861 40.0538 16.8524 39.6641C19.6109 38.495 29.4813 36.5032 36.4207 35.7238C40.6878 35.2475 46.8945 34.4681 50.2133 34.0351C53.5322 33.5588 57.3683 33.1691 58.7044 33.1691L61.1181 33.1258L61.8078 36.1135Z" fill="black"/>
<path d="M49.6961 44.8174C47.9289 45.5535 48.8771 46.9824 51.0753 46.9824C52.5839 46.9824 53.446 46.3329 53.446 45.1638C53.446 44.5576 53.1011 44.3844 52.0667 44.4277C51.2908 44.4277 50.2133 44.6009 49.6961 44.8174Z" fill="black"/>
<path d="M27.0673 49.1888C26.6363 49.4053 26.2915 50.0115 26.2915 50.4445C26.2915 51.1373 26.5932 51.3105 27.8001 51.3105C29.2655 51.3105 31.0327 50.1414 31.0327 49.1455C31.0327 48.5826 28.0156 48.6259 27.0673 49.1888Z" fill="black"/>
<path d="M54.4805 50.317C54.3512 50.75 54.0064 51.6593 53.7909 52.3088C53.403 53.348 53.4461 53.6944 54.1788 54.4305C55.4719 55.7295 56.0322 55.0367 56.0322 52.1356C56.0322 50.1438 55.9029 49.5809 55.3857 49.5809C54.9977 49.5809 54.6098 49.9273 54.4805 50.317Z" fill="black"/>
<path d="M51.0753 51.7436C50.2563 53.3024 50.2563 54.0818 51.0322 54.7313C51.808 55.3808 51.9804 55.0777 52.3683 52.4797C52.7131 50.0982 52.1097 49.7518 51.0753 51.7436Z" fill="black"/>
<path d="M29.5676 55.6843C29.1366 57.8493 29.2659 58.9751 29.9124 59.2349C30.6882 59.538 31.033 58.672 31.033 56.2472C31.033 53.9956 29.9986 53.5626 29.5676 55.6843Z" fill="black"/>
<path d="M26.852 55.2953C25.2572 57.85 25.1279 58.6727 26.2054 59.6686C27.3692 60.7511 28.0157 59.7985 28.0157 57.0706C28.0157 54.8623 27.5847 54.2128 26.852 55.2953Z" fill="black"/>
<path d="M40.7309 55.0783C38.9206 55.468 37.4552 56.2041 37.6276 56.6804C37.7138 56.9402 38.7482 57.2 39.9551 57.2866C41.8085 57.4165 42.2826 57.2866 42.8429 56.4639C43.8774 54.9484 43.2308 54.5154 40.7309 55.0783Z" fill="black"/>
<path d="M104.992 5.26922C106.953 9.11951 106.951 9.65516 104.931 10.6151C103.978 11.0427 102.648 11.7317 101.967 12.1392C101.287 12.5467 100.732 12.8075 100.711 12.7129C100.288 11.2202 98.2425 7.52716 97.4508 6.78946C96.4298 5.90399 96.4503 5.99858 97.6737 8.72273C99.8102 13.2878 99.8095 13.4663 97.1359 15.7791C92.2813 20.0386 89.2651 24.5874 87.1096 31.0085C85.1231 36.9365 85.2908 45.4236 87.6078 52.0898C88.249 53.9508 88.7238 55.5908 88.692 55.7168C88.4998 56.8295 94.1238 65.1866 96.8316 67.8419C97.9461 68.8852 98.2047 69.6212 98.4058 71.817C98.5153 73.3193 98.5094 74.9262 98.3822 75.43C98.1065 76.5214 99.2961 79.9072 100.048 80.0986C100.382 80.1837 101.638 79.7885 102.81 79.1935C104.025 78.6091 106.37 77.5977 108.003 76.9412L111.007 75.7848L114.78 78.4434C116.813 79.8992 118.846 81.355 119.242 81.7239C119.638 82.0927 120.608 82.6525 121.442 83.0437C122.841 83.6678 122.935 83.6471 123.765 82.2948C124.774 80.7645 125 79.1687 124.88 74.7151L124.797 71.7004L128.84 69.2449C133.47 66.4026 137.562 61.9937 140.508 56.6674C142.896 52.3161 145.017 44.0989 144.961 39.2148C144.879 33.0282 142.928 26.4997 139.541 20.9014C137.93 18.3021 137.879 17.9763 139.05 17.917C140.231 17.8156 142.106 16.7292 142.286 16.0156C142.52 15.092 140.149 14.6225 138.046 15.204L136.278 15.6921L133.204 13.0777C129.39 9.87275 125.926 8.27589 121.518 7.77889C117.882 7.38935 114.087 7.62949 110.875 8.55417L108.5 9.15588L106.849 6.18882C104.72 2.47454 103.145 1.67136 104.992 5.26922ZM129.633 15.0725C130.852 16.0532 131.821 16.97 131.789 17.0959C131.747 17.2638 130.772 17.954 129.63 18.6016C128.384 19.3118 127.451 20.1912 127.302 20.7789C127.164 21.3246 127.142 21.7657 127.267 21.7976C127.393 21.8295 128.774 21.2877 130.376 20.5785C131.936 19.8587 133.484 19.3594 133.777 19.4338C134.654 19.6572 138.661 27.0219 139.674 30.2285L140.583 33.1407L139.194 33.0103C138.41 32.9449 136.467 32.7182 134.806 32.4294C127.797 31.315 108.02 29.0052 104.185 28.8776C101.896 28.7864 97.9557 28.9 95.3734 29.0915C92.8329 29.2935 90.7107 29.4234 90.6484 29.3182C90.6173 29.2656 91.1436 28.2379 91.7959 27.0636C93.29 24.3165 96.2088 20.6811 98.5781 18.693L100.392 17.1442L100.659 18.3739C101.216 20.5708 102.629 19.9031 102.271 17.6228C102.078 16.2778 102.204 16.1311 104.246 14.9087C106.289 13.6863 106.425 13.6762 107.007 14.5393C107.714 15.6128 108.697 15.2378 109.079 13.7265C109.291 12.887 109.94 12.6054 112.754 12.0261C119.626 10.6928 125.412 11.7193 129.633 15.0725ZM141.336 38.7833C141.436 40.149 140.945 42.9728 139.937 47.1393C138.494 53.027 138.241 53.6774 136.233 56.8745C133.636 60.9941 129.556 64.8254 125.776 66.767C123.284 68.0091 123.096 68.0505 122.963 67.1678C122.871 66.6529 122.445 66.0529 122.07 65.7786C121.027 65.1556 115.096 66.4604 112.279 67.9325L110.028 69.1017L107.412 66.9614C102.649 63.1128 99.7787 62.1585 98.925 64.1304C98.6194 64.8121 98.2859 64.5485 96.2994 61.8535C95.041 60.148 93.1778 58.0205 92.1986 57.1457C90.5629 55.7016 90.2725 55.0915 89.3354 51.234C88.7796 48.8585 88.2497 45.1493 88.1845 42.9434C88.0218 38.8362 88.9547 32.3272 89.7516 31.6365C89.9929 31.3852 93.3064 31.2906 97.0688 31.355C103.653 31.5122 108.156 31.9885 125.654 34.3437C130.041 34.9246 134.69 35.5274 135.996 35.6366C137.292 35.7877 139.036 36.0977 139.83 36.2998C141.103 36.7134 141.228 36.9239 141.336 38.7833Z" fill="black"/>
<path d="M125.425 46.3489C123.26 46.6468 123.953 48.6554 126.418 49.2828C128.005 49.687 129.042 49.102 129.413 47.6325C129.604 46.8767 127.171 46.1233 125.425 46.3489Z" fill="black"/>
<path d="M99.3472 44.8444C98.5834 45.0521 97.923 45.5543 97.8064 46.0162C97.4882 47.2758 100.893 48.0532 102.423 47.1021C103.01 46.7152 103.503 46.1705 103.483 45.8973C103.402 45.1617 100.77 44.4917 99.3472 44.8444Z" fill="black"/>
<path d="M111.125 55.2585C109.786 55.4539 108.719 55.8077 108.739 56.0809C108.768 56.6693 111.774 57.7923 113.321 57.8286C114.701 57.8225 115.971 56.4922 115.304 55.7863C114.607 55.0277 113.823 54.9622 111.125 55.2585Z" fill="black"/>
<path d="M110.036 85.5416C102.989 86.5194 95.8281 90.9377 91.6073 96.8771C88.5547 101.187 87.3488 104.265 86.3312 110.205C86.1805 111.182 85.6529 111.87 84.1454 113.138C79.51 116.977 78.3041 123.17 81.9219 124.618C82.9018 125.017 83.4294 124.944 85.7283 124.184L88.404 123.278L89.2708 125.162C89.7607 126.176 90.8159 127.878 91.5696 128.964C92.3233 130.015 92.9263 130.992 92.9263 131.137C92.9263 131.246 93.567 132.043 94.3584 132.876C96.5065 135.23 101.142 138.67 103.855 139.974C106.23 141.097 106.418 141.133 111.204 141.133C115.274 141.133 116.593 140.988 118.93 140.3C123.414 138.924 125.977 137.439 129.52 134.071C132.233 131.499 133.062 130.449 134.532 127.552C137.095 122.482 137.848 119.331 137.848 113.609C137.848 108.104 137.132 104.881 134.909 100.716C130.876 93.002 122.811 86.5918 115.915 85.5416C113.201 85.1432 112.825 85.1432 110.036 85.5416ZM118.704 89.634C123.188 91.6258 127.711 95.5371 130.726 100.1L132.082 102.128L130.876 102.309C130.198 102.418 128.502 102.635 127.032 102.744C120.852 103.287 103.591 105.496 100.313 106.185C98.3531 106.583 95.0367 107.488 92.8886 108.176C90.7782 108.865 89.0069 109.408 88.9316 109.335C88.8939 109.299 89.12 108.358 89.3838 107.271C90.3637 103.613 92.6625 99.7019 95.7905 96.4787C97.3733 94.849 98.8807 93.509 99.0692 93.509C99.2953 93.509 100.011 93.1107 100.727 92.5674C105.815 88.8372 113.88 87.5334 118.704 89.634ZM134.004 106.8C134.23 107.561 134.532 110.205 134.645 112.703C134.871 117.882 134.193 121.359 132.158 125.488C129.783 130.196 124.62 134.867 119.759 136.606C116.593 137.765 111.958 138.489 109.207 138.272C106.154 138.018 103.968 137.077 100.69 134.542C99.2576 133.383 97.2225 132.043 96.1673 131.536C94.5091 130.739 94.1323 130.304 92.5118 127.371C89.7607 122.337 89.723 122.518 93.1901 121.069C94.8106 120.381 99.8606 118.1 104.421 116.035C114.332 111.545 118.892 109.734 125.902 107.525C133.853 105.062 133.477 105.098 134.004 106.8ZM118.44 106.438C118.289 106.547 118.063 106.547 117.912 106.438C117.799 106.293 117.912 106.185 118.176 106.185C118.44 106.185 118.553 106.293 118.44 106.438ZM117.385 106.692C117.309 106.764 115.764 107.416 113.955 108.14C109.734 109.806 90.5144 119.041 88.9693 120.128C88.3663 120.562 87.4241 121.033 86.8965 121.142C86.3689 121.25 85.2383 121.576 84.3715 121.794C82.035 122.482 81.6581 121.975 82.4872 119.476C83.2033 117.303 84.0701 116.071 87.0473 113.066L89.1577 110.929L94.9237 109.661C101.33 108.213 118.138 106.003 117.385 106.692Z" fill="black"/>
<path d="M111.845 97.7462C107.172 100.1 106.23 100.426 104.308 100.499C102.197 100.571 102.16 100.535 102.046 99.557C101.971 98.9775 102.197 98.1445 102.536 97.6375C103.328 96.4786 102.612 96.5148 101.632 97.71C100.614 98.9775 100.539 101.476 101.519 102.309C102.725 103.36 105.476 103.106 108.114 101.657C111.883 99.6656 116.367 96.6597 116.97 95.7543C117.272 95.3197 117.46 94.9938 117.385 94.9938C117.309 95.03 114.822 96.2613 111.845 97.7462Z" fill="black"/>
<path d="M122.058 115.962C120.286 116.65 121.304 118.135 123.527 118.135C124.959 118.135 125.713 117.447 125.713 116.179C125.713 115.527 123.49 115.419 122.058 115.962Z" fill="black"/>
<path d="M99.6348 120.127C99.0318 120.453 98.5796 120.996 98.5796 121.394C98.5796 122.481 101.632 122.408 102.725 121.322C103.14 120.887 103.441 120.344 103.366 120.127C103.14 119.547 100.765 119.547 99.6348 120.127Z" fill="black"/>
<path d="M111.845 126.139C110.752 126.574 109.923 127.081 109.998 127.298C110.149 127.769 112.938 128.059 114.257 127.769C115.425 127.479 116.217 126.139 115.501 125.705C114.747 125.234 114.069 125.342 111.845 126.139Z" fill="black"/>
<path d="M14.5707 86.7601C18.0643 89.2903 18.3057 89.768 16.9427 91.5468C16.2887 92.3633 15.4176 93.585 14.9965 94.2592C14.5754 94.9333 14.1998 95.4194 14.1386 95.3446C13.0844 94.2093 9.58722 91.8577 8.54767 91.5632C7.23683 91.242 7.29807 91.3168 9.6236 93.1821C13.5975 96.2684 13.678 96.4276 12.3478 99.7094C9.95962 105.722 9.33939 111.151 10.3351 117.853C11.2575 124.038 15.2591 131.516 20.3474 136.39C21.7629 137.754 22.93 138.996 22.9588 139.123C22.9877 139.25 23.9133 140.015 25.0166 140.783C28.036 142.978 34.1164 145.803 37.4872 146.629C40.4317 147.33 40.6514 147.324 45.9864 146.1C50.5233 145.059 51.9552 144.552 54.377 143.152C59.0106 140.401 61.473 138.014 64.5277 133.182C66.8696 129.49 67.515 128.053 68.3842 124.3C69.8947 117.734 69.8984 113.868 68.3794 107.197C67.4371 103.06 66.7368 100.955 65.5586 98.6929C62.6775 93.2234 57.9769 88.3047 52.4209 84.8707C49.8074 83.2937 49.614 83.0271 50.6293 82.4387C51.635 81.808 52.8108 79.9833 52.6474 79.2656C52.4359 78.3367 50.1122 79.0033 48.5042 80.483L47.1518 81.7263L43.2289 80.8051C38.3794 79.6968 34.5708 79.86 30.4206 81.4345C27.0072 82.7509 23.7381 84.7007 21.2985 86.9931L19.4577 88.6151L16.6412 86.7292C13.06 84.3969 11.2932 84.4025 14.5707 86.7601ZM40.9553 84.2146C42.4858 84.5297 43.7642 84.9027 43.7931 85.0293C43.8315 85.1982 43.2773 86.2583 42.555 87.357C41.7679 88.5595 41.3362 89.7692 41.4708 90.3603C41.5958 90.9091 41.7759 91.312 41.9019 91.2831C42.028 91.2542 43.0119 90.1398 44.1158 88.7759C45.1777 87.4215 46.3297 86.2686 46.6237 86.2012C47.5059 85.9987 54.4163 90.7212 56.7731 93.1124L58.9043 95.2888L57.6081 95.8084C56.8808 96.1086 55.0481 96.7958 53.4387 97.2984C46.6935 99.5128 28.0402 106.504 24.5681 108.145C22.4895 109.11 19.0331 111.014 16.8213 112.366C14.6515 113.708 12.8213 114.794 12.7181 114.729C12.6665 114.697 12.6685 113.541 12.7162 112.197C12.7993 109.068 13.7475 104.497 14.9542 101.644L15.8658 99.4352L16.6619 100.408C18.1544 102.109 19.1095 100.868 17.7562 99.0013C16.9733 97.8927 17.0188 97.7045 18.2822 95.682C19.5455 93.6594 19.662 93.5883 20.5719 94.0903C21.6884 94.7225 22.394 93.9387 22.0478 92.4188C21.8556 91.5744 22.3055 91.0269 24.5472 89.2241C30.059 84.8938 35.676 83.1604 40.9553 84.2146ZM62.1357 99.9672C62.6701 100.955 63.7789 104.077 64.5683 106.961C66.1952 112.941 66.362 117.167 65.1896 122.501C63.793 128.597 59.2781 135.364 54.3205 138.634C51.0995 140.795 46.1247 142.825 43.0005 143.275C39.5305 143.761 36.844 143.222 32.5163 141.106C30.6123 140.121 27.9881 139.079 26.6773 138.758C24.6174 138.254 24.082 137.844 21.4968 134.838C19.9239 132.978 17.7685 129.919 16.7093 127.985C14.7001 124.403 12.5762 118.182 12.972 117.203C13.0728 116.869 15.9795 115.269 19.3579 113.605C25.2903 110.733 29.5149 109.097 46.1604 103.189C50.3299 101.699 54.7418 100.109 55.954 99.6088C57.1758 99.1507 58.8693 98.6288 59.6674 98.4456C61.0309 98.2216 61.1858 98.3193 62.1357 99.9672Z" fill="black"/>
<path d="M51.4036 113.976C49.6118 115.231 51.1404 116.702 53.6191 116.133C55.2156 115.767 55.8731 114.772 55.5365 113.294C55.3634 112.534 52.8559 112.976 51.4036 113.976Z" fill="black"/>
<path d="M27.5083 124.574C26.9226 125.108 26.5627 125.857 26.6685 126.322C26.957 127.588 30.3408 126.723 31.2707 125.176C31.6174 124.564 31.8093 123.853 31.6675 123.619C31.2616 123.001 28.6148 123.609 27.5083 124.574Z" fill="black"/>
<path d="M42.7162 128.454C41.6132 129.24 40.8235 130.044 40.9653 130.278C41.2583 130.788 44.4442 130.412 45.8378 129.737C47.0633 129.1 47.5897 127.335 46.6761 127.012C45.7108 126.656 44.9834 126.956 42.7162 128.454Z" fill="black"/>
</svg>
