<?xml version="1.0" standalone="no"?>
<!DOCTYPE svg PUBLIC "-//W3C//DTD SVG 20010904//EN"
 "http://www.w3.org/TR/2001/REC-SVG-20010904/DTD/svg10.dtd">
<svg version="1.0" xmlns="http://www.w3.org/2000/svg"
 width="200.000000pt" height="200.000000pt" viewBox="0 0 200.000000 200.000000"
 preserveAspectRatio="xMidYMid meet">
<metadata>
Created by potrace 1.10, written by Peter Selinger 2001-2011
</metadata>
<g transform="translate(0.000000,200.000000) scale(0.100000,-0.100000)"
fill="currentColor" stroke="none">
<path d="M500 1753 c66 -75 69 -87 29 -120 -19 -15 -45 -38 -58 -51 -13 -13
-24 -22 -25 -20 -18 31 -85 102 -107 114 -28 14 -27 12 16 -42 74 -90 75 -94
28 -161 -85 -123 -127 -242 -139 -398 -11 -144 41 -333 131 -469 25 -38 45
-72 45 -75 0 -3 17 -25 38 -48 57 -65 180 -160 252 -196 63 -31 68 -32 195
-32 108 0 143 4 205 23 119 38 187 79 281 172 72 71 94 100 133 180 68 140 88
227 88 385 0 98 -5 149 -20 206 -37 138 -118 273 -226 379 -51 49 -54 56 -28
64 26 9 62 44 62 61 0 22 -56 19 -100 -6 l-37 -21 -84 41 c-104 50 -191 66
-293 52 -84 -12 -168 -39 -235 -78 l-50 -27 -54 57 c-69 71 -109 80 -47 10z
m610 -79 c33 -15 60 -30 60 -33 0 -4 -18 -25 -40 -46 -24 -23 -40 -48 -40 -62
0 -13 2 -23 5 -23 3 0 31 20 63 45 31 25 63 45 70 45 21 0 153 -142 194 -208
l37 -60 -32 -5 c-18 -3 -63 -9 -102 -12 -164 -15 -622 -76 -709 -95 -52 -11
-140 -36 -197 -55 -56 -19 -103 -34 -105 -32 -1 1 5 27 13 57 18 70 63 168
105 226 l32 45 13 -26 c25 -46 53 -23 32 26 -12 29 -10 33 29 72 39 39 42 40
60 24 22 -20 42 -6 42 30 0 20 13 30 73 59 147 69 283 79 397 28z m398 -464
c7 -25 16 -101 19 -170 6 -143 -12 -239 -66 -353 -63 -130 -200 -259 -329
-307 -84 -32 -207 -52 -280 -46 -81 7 -139 33 -226 103 -38 32 -92 69 -120 83
-44 22 -54 34 -97 115 -26 50 -59 130 -73 179 -27 91 -43 242 -29 262 4 7 78
28 163 48 149 34 253 49 660 96 102 12 210 25 240 30 30 4 71 7 90 7 32 -2 35
-5 48 -47z"/>
<path d="M1193 950 c-47 -19 -20 -60 39 -60 38 0 58 19 58 54 0 18 -59 21 -97
6z"/>
<path d="M598 835 c-16 -9 -28 -24 -28 -35 0 -30 81 -28 110 2 11 12 19 27 17
33 -6 16 -69 16 -99 0z"/>
<path d="M922 669 c-29 -12 -51 -26 -49 -32 4 -13 78 -21 113 -13 31 8 52 45
33 57 -20 13 -38 10 -97 -12z"/>
</g>
</svg>
