<?xml version="1.0" standalone="no"?>
<!DOCTYPE svg PUBLIC "-//W3C//DTD SVG 20010904//EN"
 "http://www.w3.org/TR/2001/REC-SVG-20010904/DTD/svg10.dtd">
<svg version="1.0" xmlns="http://www.w3.org/2000/svg"
 width="200.000000pt" height="200.000000pt" viewBox="0 0 200.000000 200.000000"
 preserveAspectRatio="xMidYMid meet">
<metadata>
Created by potrace 1.10, written by Peter Selinger 2001-2011
</metadata>
<g transform="translate(0.000000,200.000000) scale(0.100000,-0.100000)"
fill="currentColor" stroke="none">
<path d="M500 1753 c66 -75 69 -87 29 -120 -19 -15 -45 -38 -58 -51 -13 -13
-24 -22 -25 -20 -18 31 -85 102 -107 114 -28 14 -27 12 16 -42 74 -90 75 -94
28 -161 -85 -123 -127 -242 -139 -398 -11 -144 41 -333 131 -469 25 -38 45
-72 45 -75 2 -26 176 -181 252 -225 31 -17 41 -32 58 -80 11 -33 20 -69 20
-81 0 -26 46 -95 64 -95 8 0 34 16 57 36 24 20 71 56 104 80 l61 43 100 -38
c54 -21 108 -42 119 -48 11 -6 36 -13 57 -17 35 -6 37 -5 48 30 14 40 10 77
-18 176 l-19 67 77 78 c88 90 155 212 191 348 29 111 30 307 1 416 -37 138
-118 273 -226 379 -51 49 -54 56 -28 64 26 9 62 44 62 61 0 22 -56 19 -100 -6
l-37 -21 -84 41 c-104 50 -191 66 -293 52 -84 -12 -168 -39 -235 -78 l-50 -27
-54 57 c-69 71 -109 80 -47 10z m610 -79 c33 -15 60 -30 60 -33 0 -4 -18 -25
-40 -46 -24 -23 -40 -48 -40 -62 0 -13 2 -23 5 -23 3 0 31 20 63 45 31 25 63
45 70 45 21 0 153 -142 194 -208 l37 -60 -32 -5 c-18 -3 -63 -9 -102 -12 -164
-15 -622 -76 -709 -95 -52 -11 -140 -36 -197 -55 -56 -19 -103 -34 -105 -32
-1 1 5 27 13 57 18 70 63 168 105 226 l32 45 13 -26 c25 -46 53 -23 32 26 -12
29 -10 33 29 72 39 39 42 40 60 24 22 -20 42 -6 42 30 0 20 13 30 73 59 147
69 283 79 397 28z m398 -464 c10 -30 15 -96 16 -195 1 -140 -1 -156 -28 -239
-35 -107 -105 -216 -179 -281 -49 -42 -53 -44 -61 -25 -5 11 -18 22 -28 26
-27 8 -153 -55 -208 -104 l-44 -39 -71 33 c-129 59 -199 64 -207 15 -3 -17
-12 -13 -72 36 -38 31 -92 68 -119 82 -45 23 -55 35 -98 116 -26 50 -59 130
-73 179 -27 91 -43 242 -29 262 4 7 78 28 163 48 149 34 253 49 660 96 102 12
210 25 240 30 30 4 71 7 90 7 31 -2 35 -6 48 -47z"/>
<path d="M1193 950 c-47 -19 -20 -60 39 -60 38 0 58 19 58 54 0 18 -59 21 -97
6z"/>
<path d="M598 835 c-16 -9 -28 -24 -28 -35 0 -30 81 -28 110 2 11 12 19 27 17
33 -6 16 -69 16 -99 0z"/>
<path d="M922 669 c-29 -12 -51 -26 -49 -32 4 -13 78 -21 113 -13 31 8 52 45
33 57 -20 13 -38 10 -97 -12z"/>
</g>
</svg>
