<?xml version="1.0" encoding="UTF-8"?>
<svg version="1.1" xmlns="http://www.w3.org/2000/svg" width="214" height="70">
<path d="M0 0 C2.86578649 2.79414183 4.93097395 5.31576434 5.09765625 9.3828125 C5.08605469 10.28773437 5.07445312 11.19265625 5.0625 12.125 C5.05347656 13.03507812 5.04445312 13.94515625 5.03515625 14.8828125 C5.02355469 15.58148437 5.01195312 16.28015625 5 17 C5.5775 16.360625 6.155 15.72125 6.75 15.0625 C9.99145299 12.09116809 9.99145299 12.09116809 13 12 C15.625 13.0625 15.625 13.0625 18 15 C20.08635868 20.18498768 20.91844285 25.60012745 21.85546875 31.078125 C22.58816442 35.2064318 23.63272065 39.04178372 25 43 C25.49824463 47.06899782 25.37208599 48.4651264 23 51.875 C22.34 52.57625 21.68 53.2775 21 54 C18.45754871 53.01768927 17.24514218 52.46558721 15.953125 50.01171875 C13.59266802 42.20909708 13.59266802 42.20909708 14 38 C13.39671875 38.144375 12.7934375 38.28875 12.171875 38.4375 C11.37265625 38.623125 10.5734375 38.80875 9.75 39 C8.96109375 39.185625 8.1721875 39.37125 7.359375 39.5625 C5 40 5 40 1 40 C0.855625 41.010625 0.71125 42.02125 0.5625 43.0625 C0.04166667 46.70833333 -0.47916667 50.35416667 -1 54 C-2.32 54 -3.64 54 -5 54 C-5.46112386 45.39235455 -3.72848437 37.38520694 -2 29 C-2.93972656 29.84884766 -2.93972656 29.84884766 -3.8984375 30.71484375 C-5.12433594 31.81505859 -5.12433594 31.81505859 -6.375 32.9375 C-7.18710938 33.66839844 -7.99921875 34.39929687 -8.8359375 35.15234375 C-12.34428487 38.1477378 -14.45229317 38.09886319 -19 38 C-18.7834375 38.99 -18.566875 39.98 -18.34375 41 C-14.74609101 57.86522752 -14.74609101 57.86522752 -17 63.5 C-17.33 63.995 -17.66 64.49 -18 65 C-19.65 64.67 -21.3 64.34 -23 64 C-25.8611944 52.65290636 -26.26503021 42.32162136 -25.75 30.6875 C-25.69508489 29.10617217 -25.64169396 27.52479066 -25.58984375 25.94335938 C-25.03896044 10.11126302 -25.03896044 10.11126302 -24 3 C-23.34 2.67 -22.68 2.34 -22 2 C-21.67 2.66 -21.34 3.32 -21 4 C-20.46890625 3.72285156 -19.9378125 3.44570312 -19.390625 3.16015625 C-18.68421875 2.79792969 -17.9778125 2.43570312 -17.25 2.0625 C-16.55390625 1.70285156 -15.8578125 1.34320313 -15.140625 0.97265625 C-10.07966734 -1.32693947 -5.36196309 -1.46862592 0 0 Z M-22 11 C-21.67 15.95 -21.34 20.9 -21 26 C-13.56642337 24.51328467 -9.25165796 21.07379709 -5 15 C-4.03701276 11.82437198 -4.03701276 11.82437198 -4 9 C-5.62094818 7.37905182 -7.39127885 7.79049041 -9.625 7.75 C-14.49945624 7.77801412 -17.7058875 8.75959348 -22 11 Z M11 23 C9.81522562 24.36293594 8.67730418 25.76676203 7.5625 27.1875 C6.94503906 27.96480469 6.32757813 28.74210937 5.69140625 29.54296875 C4.02197904 31.96807202 2.97798049 34.23315067 2 37 C3.45903258 36.69078116 4.91720722 36.37751201 6.375 36.0625 C7.18710938 35.88847656 7.99921875 35.71445312 8.8359375 35.53515625 C11.029463 35.07669307 11.029463 35.07669307 13 34 C12.67 30.37 12.34 26.74 12 23 C11.67 23 11.34 23 11 23 Z " fill="currentColor" transform="translate(138,5)"/>
<path d="M0 0 C0.495 0.495 0.495 0.495 1 1 C0.54677899 7.77125724 -0.89830046 13.94442118 -2.8125 20.4375 C-3.1847168 21.75331055 -3.1847168 21.75331055 -3.56445312 23.09570312 C-8.23999125 39.23999125 -8.23999125 39.23999125 -12 43 C-14.375 43.0625 -14.375 43.0625 -17 42 C-21.15899078 36.32864894 -22.94321712 29.6626637 -25 23 C-25.43966502 24.29093133 -25.87655299 25.58280836 -26.3125 26.875 C-26.58707031 27.68710937 -26.86164063 28.49921875 -27.14453125 29.3359375 C-28.27816675 32.86625444 -29.22581419 36.44242615 -30.15625 40.03125 C-30.4346875 40.6809375 -30.713125 41.330625 -31 42 C-32.485 42.495 -32.485 42.495 -34 43 C-38.09741997 39.41791522 -39.07976638 34.73893599 -40.6875 29.6875 C-41.16038452 28.21192627 -41.16038452 28.21192627 -41.64282227 26.70654297 C-44.00026184 18.92565545 -44.87529923 12.14167224 -44 4 C-43.34 4 -42.68 4 -42 4 C-41.72736328 5.19496094 -41.72736328 5.19496094 -41.44921875 6.4140625 C-40.12980058 11.97591755 -38.88910437 17.04724965 -36 22 C-34.46668468 19.19948193 -33.66454133 16.76314853 -33.125 13.625 C-32.22988796 9.25771951 -30.70445784 6.5157952 -28 3 C-25.69 3.33 -23.38 3.66 -21 4 C-20.73445313 4.90363281 -20.46890625 5.80726562 -20.1953125 6.73828125 C-19.84210938 7.91777344 -19.48890625 9.09726562 -19.125 10.3125 C-18.77695313 11.48425781 -18.42890625 12.65601563 -18.0703125 13.86328125 C-17.11234547 17.10911725 -17.11234547 17.10911725 -15 20 C-14.82871582 19.42967041 -14.65743164 18.85934082 -14.48095703 18.27172852 C-13.70359403 15.69950207 -12.91447101 13.13103475 -12.125 10.5625 C-11.85558594 9.66466797 -11.58617187 8.76683594 -11.30859375 7.84179688 C-11.04433594 6.98779297 -10.78007812 6.13378906 -10.5078125 5.25390625 C-10.26691895 4.46314697 -10.02602539 3.6723877 -9.77783203 2.85766602 C-8.04990682 -1.26907063 -3.86063135 -0.14038659 0 0 Z " fill="currentColor" transform="translate(208,15)"/>
<path d="M0 0 C0.99 0.66 1.98 1.32 3 2 C3.1875 5.125 3.1875 5.125 3 8 C1.948125 7.896875 0.89625 7.79375 -0.1875 7.6875 C-4.00988379 7.68765634 -4.00988379 7.68765634 -6.6875 9.8125 C-11.91432079 17.01703677 -13.60323558 23.88992585 -12.5546875 32.6875 C-12.07968991 35.25456756 -12.07968991 35.25456756 -10 38 C-6.83884224 36.63016497 -6.0072908 36.0109362 -4 33 C-1.2572492 32.52885262 1.19558897 32.82194216 4 33 C5 34 5 34 5.4375 36.5625 C4.72391847 42.16921199 1.21718604 46.07960264 -2.984375 49.71875 C-6.02592602 51.65213902 -8.47872515 51.31439954 -12 51 C-14.82994026 50.01895404 -15.8228429 49.27838973 -17.44921875 46.72265625 C-18.06216797 45.40587891 -18.06216797 45.40587891 -18.6875 44.0625 C-19.10386719 43.18722656 -19.52023438 42.31195313 -19.94921875 41.41015625 C-23.45051589 33.37929997 -22.78773219 24.57127555 -19.98046875 16.38671875 C-17.42511607 10.1663184 -14.84911399 4.69417726 -9 1 C-5.74531799 -0.084894 -3.4103976 -0.21314985 0 0 Z " fill="currentColor" transform="translate(22,14)"/>
<path d="M0 0 C0.15855469 1.0415625 0.31710938 2.083125 0.48046875 3.15625 C1.92661354 12.18669156 3.94302086 20.66437288 6.9140625 29.31640625 C8.10123281 33.34339043 8.74504084 36.81075731 9 41 C8.34 41.99 7.68 42.98 7 44 C4.64453125 43.84765625 4.64453125 43.84765625 2 43 C0.63671875 40.49609375 0.63671875 40.49609375 -0.3125 37.4375 C-0.63863281 36.42558594 -0.96476562 35.41367187 -1.30078125 34.37109375 C-1.53152344 33.58863281 -1.76226562 32.80617187 -2 32 C-3.11375 32.495 -3.11375 32.495 -4.25 33 C-7 34 -7 34 -11 34 C-11.19335938 35.20398437 -11.38671875 36.40796875 -11.5859375 37.6484375 C-11.84853605 39.22402877 -12.11158001 40.79954585 -12.375 42.375 C-12.50132813 43.1690625 -12.62765625 43.963125 -12.7578125 44.78125 C-12.88671875 45.54179688 -13.015625 46.30234375 -13.1484375 47.0859375 C-13.26364746 47.7876709 -13.37885742 48.4894043 -13.49755859 49.21240234 C-14 51 -14 51 -16 53 C-17.45823279 48.07217884 -16.6721431 43.60773646 -15.9375 38.625 C-15.80609619 37.71758057 -15.67469238 36.81016113 -15.53930664 35.87524414 C-11.38731523 9.19102096 -11.38731523 9.19102096 -6 0 C-3.50907189 -1.24546405 -2.58919267 -0.7767578 0 0 Z M-5 16 C-5.6708712 17.6232687 -6.33657029 19.24867578 -7 20.875 C-7.37125 21.77992187 -7.7425 22.68484375 -8.125 23.6171875 C-9.11490226 25.88983858 -9.11490226 25.88983858 -9 28 C-7.02 27.67 -5.04 27.34 -3 27 C-3.33 23.37 -3.66 19.74 -4 16 C-4.33 16 -4.66 16 -5 16 Z " fill="currentColor" transform="translate(45,13)"/>
<path d="M0 0 C1.07765625 0.03609375 2.1553125 0.0721875 3.265625 0.109375 C4.49539062 0.17898437 4.49539062 0.17898437 5.75 0.25 C5.75 1.57 5.75 2.89 5.75 4.25 C4.615625 4.559375 3.48125 4.86875 2.3125 5.1875 C-1.03775099 5.87924531 -1.03775099 5.87924531 -2.25 7.25 C-0.91195312 7.61351562 -0.91195312 7.61351562 0.453125 7.984375 C1.62359375 8.31953125 2.7940625 8.6546875 4 9 C5.16015625 9.32484375 6.3203125 9.6496875 7.515625 9.984375 C10.90105479 11.30910839 12.59642552 12.33947608 14.75 15.25 C15.40945942 19.78378351 14.06514972 23.66316949 11.9375 27.625 C7.45833333 33 7.45833333 33 3.1875 33.625 C0.75 33.25 0.75 33.25 -1.0625 32.0625 C-2.61678206 29.69017475 -2.47537188 28.02958655 -2.25 25.25 C-1.68410156 25.07984375 -1.11820313 24.9096875 -0.53515625 24.734375 C0.56505859 24.37085938 0.56505859 24.37085938 1.6875 24 C2.41839844 23.76796875 3.14929688 23.5359375 3.90234375 23.296875 C5.95570556 22.3992447 5.95570556 22.3992447 6.50390625 20.140625 C6.58511719 19.51671875 6.66632813 18.8928125 6.75 18.25 C6.01394531 18.16363281 5.27789062 18.07726562 4.51953125 17.98828125 C-0.13325453 17.31832927 -3.47686871 16.7911919 -7.375 14.0625 C-9.67409199 10.61386202 -10.32537396 8.39556777 -10.25 4.25 C-7.22988572 0.13299191 -4.97043806 -0.216106 0 0 Z " fill="currentColor" transform="translate(84.25,32.75)"/>
<path d="M0 0 C0.94875 0.04125 1.8975 0.0825 2.875 0.125 C3.5 2.4375 3.5 2.4375 3.875 5.125 C1.875 8.125 1.875 8.125 -0.7265625 8.85546875 C-2.22316406 9.08169922 -2.22316406 9.08169922 -3.75 9.3125 C-4.75289062 9.47105469 -5.75578125 9.62960938 -6.7890625 9.79296875 C-7.94535156 9.95732422 -7.94535156 9.95732422 -9.125 10.125 C-8.98352678 13.87517749 -8.83625072 17.62510449 -8.6875 21.375 C-8.6241748 23.02495972 -8.6241748 23.02495972 -8.55957031 24.70825195 C-8.29846116 31.1402089 -7.91681805 37.47854834 -7.015625 43.85546875 C-7.1621997 46.89689373 -8.42223611 48.65423693 -10.125 51.125 C-11.445 50.795 -12.765 50.465 -14.125 50.125 C-15.20414419 42.8597757 -14.94191958 36.17160645 -14.25 28.875 C-14.15847656 27.8128125 -14.06695312 26.750625 -13.97265625 25.65625 C-13.56417596 21.07666813 -13.09186444 16.62483385 -12.125 12.125 C-12.72828125 12.35316406 -13.3315625 12.58132812 -13.953125 12.81640625 C-14.75234375 13.10386719 -15.5515625 13.39132813 -16.375 13.6875 C-17.16390625 13.97753906 -17.9528125 14.26757812 -18.765625 14.56640625 C-21.31603452 15.17022837 -22.67822229 14.9723932 -25.125 14.125 C-25.125 13.135 -25.125 12.145 -25.125 11.125 C-24.52961426 10.86283691 -23.93422852 10.60067383 -23.32080078 10.33056641 C-20.62839249 9.14182687 -17.93918637 7.94600922 -15.25 6.75 C-14.31285156 6.3375 -13.37570313 5.925 -12.41015625 5.5 C-11.51425781 5.10039062 -10.61835937 4.70078125 -9.6953125 4.2890625 C-8.86789551 3.92248535 -8.04047852 3.5559082 -7.18798828 3.17822266 C-1.0445171 0.04178068 -1.0445171 0.04178068 0 0 Z " fill="currentColor" transform="translate(74.125,10.875)"/>
<path d="M0 0 C1 1 1 1 1.3125 3.6875 C0.90501589 8.00683158 -0.9309711 10.9309711 -4 14 C-5.66617115 14.04063832 -7.33388095 14.042721 -9 14 C-9.05447047 12.58376784 -9.09300508 11.16691809 -9.125 9.75 C-9.14820312 8.96109375 -9.17140625 8.1721875 -9.1953125 7.359375 C-8.97962391 4.75385683 -8.3921178 3.20013023 -7 1 C-4.51588385 -0.24205807 -2.74800896 -0.14092354 0 0 Z " fill="currentColor" transform="translate(89,11)"/>
</svg>
