<svg width="25" height="24" viewBox="0 0 25 24" fill="none" xmlns="http://www.w3.org/2000/svg">
<path d="M13.4998 12.75C13.4998 13.989 14.4223 15 15.5398 15C16.6828 15 17.5648 13.9935 17.5798 12.75C17.5948 11.5065 16.6873 10.5 15.5398 10.5C14.3878 10.5 13.4998 11.5155 13.4998 12.75ZM8.44479 15C7.32429 15 6.40479 13.9935 6.40479 12.75C6.40479 11.5065 7.29879 10.5 8.44479 10.5C9.59079 10.5 10.5148 11.5155 10.4998 12.75C10.4803 13.989 9.59679 15 8.45978 15H8.44479Z" fill="white"/>
<path fill-rule="evenodd" clip-rule="evenodd" d="M19.95 4.08003C20.1977 4.19213 20.4103 4.36945 20.565 4.59303C23.13 8.29803 24.42 12.528 23.94 17.388C23.9195 17.5983 23.8547 17.8019 23.75 17.9854C23.6453 18.169 23.503 18.3283 23.3325 18.453C21.5925 19.7295 19.6275 20.703 17.5575 21.318C17.2652 21.4061 16.9528 21.402 16.6629 21.3062C16.373 21.2103 16.1197 21.0275 15.9375 20.7825C15.5747 20.2981 15.2416 19.7922 14.94 19.2675C13.0259 19.6702 11.049 19.6702 9.13499 19.2675C8.83732 19.7943 8.50457 20.3004 8.13899 20.7825C7.95432 21.0287 7.69838 21.2122 7.4059 21.308C7.11341 21.4038 6.79854 21.4073 6.50399 21.318C4.43128 20.6953 2.47876 19.7267 0.728991 18.453C0.558256 18.3281 0.415864 18.1686 0.311165 17.9848C0.206466 17.801 0.141827 17.5971 0.121491 17.3865C-0.282009 13.2015 0.536991 8.92653 3.49649 4.60653C3.65099 4.38003 3.86549 4.20003 4.11599 4.08603C5.61449 3.40803 7.19099 2.92503 8.82599 2.65053C9.44849 2.54553 10.071 2.84253 10.386 3.39153L10.5195 3.63303C11.5295 3.54603 12.5445 3.54603 13.5645 3.63303L13.6965 3.39153C13.8485 3.12231 14.0799 2.90663 14.3591 2.77399C14.6384 2.64135 14.9518 2.59823 15.2565 2.65053C16.8765 2.92203 18.4665 3.40353 19.9665 4.08303L19.95 4.08003ZM14.445 5.24403C12.8486 5.00858 11.2264 5.00858 9.62999 5.24403C9.46445 4.86266 9.2792 4.49016 9.07499 4.12803C7.57799 4.38003 6.11999 4.82553 4.73999 5.45103C1.99499 9.47103 1.25999 13.386 1.61999 17.241C3.22499 18.4155 5.02499 19.311 6.92999 19.881C7.17785 19.5526 7.40866 19.2117 7.62149 18.8595C7.77949 18.5995 7.92799 18.3345 8.06699 18.0645C7.44571 17.8353 6.84588 17.5517 6.27449 17.217C6.42449 17.108 6.57099 16.999 6.71399 16.89C7.61743 17.3095 8.5669 17.6216 9.54299 17.82C11.6106 18.2336 13.7489 18.1217 15.762 17.4945C16.2955 17.3291 16.8167 17.1266 17.322 16.8885C17.466 17.0055 17.6125 17.1145 17.7615 17.2155C17.6217 17.2961 17.4806 17.3746 17.3385 17.451C16.8943 17.6845 16.4359 17.8899 15.966 18.066C16.2002 18.5163 16.4596 18.953 16.743 19.374C16.86 19.544 16.9805 19.7125 17.1045 19.8795C19.0095 19.3095 20.8095 18.417 22.4145 17.2395C22.851 12.7695 21.669 8.88453 19.2945 5.44953C17.9145 4.82403 16.4595 4.38153 14.9595 4.13103C14.7555 4.49303 14.5705 4.86503 14.4045 5.24703L14.445 5.24403Z" fill="white"/>
</svg>
