<?xml version="1.0" standalone="no"?>
<!DOCTYPE svg PUBLIC "-//W3C//DTD SVG 20010904//EN"
 "http://www.w3.org/TR/2001/REC-SVG-20010904/DTD/svg10.dtd">
<svg version="1.0" xmlns="http://www.w3.org/2000/svg"
 width="300.000000pt" height="120.000000pt" viewBox="0 0 300.000000 120.000000"
 preserveAspectRatio="xMidYMid meet">
<metadata>
Created by potrace 1.10, written by Peter Selinger 2001-2011
</metadata>
<g transform="translate(0.000000,120.000000) scale(0.100000,-0.100000)"
fill="currentColor" stroke="none">
<path d="M1772 1009 c-24 -4 -64 -20 -89 -34 -25 -14 -47 -25 -49 -25 -2 0 -4
10 -4 23 -1 19 -2 20 -10 5 -15 -24 -30 -538 -19 -617 13 -98 19 -120 36 -136
23 -24 41 -18 59 21 17 35 17 41 0 118 -18 78 -32 214 -20 189 9 -21 46 -15
99 16 69 40 108 84 155 174 44 86 51 141 26 202 -25 58 -94 83 -184 64z m86
-121 c4 -36 -18 -76 -70 -126 -40 -39 -125 -89 -135 -79 -2 3 -7 46 -10 96 -4
66 -2 95 7 106 19 23 67 34 140 32 63 -2 65 -3 68 -29z"/>
<path d="M1075 930 c-8 -13 -137 -78 -217 -109 -53 -21 -71 -42 -50 -55 5 -3
42 4 81 15 40 11 75 19 77 16 3 -2 0 -24 -5 -48 -5 -24 -12 -102 -15 -174 -4
-72 -12 -145 -17 -163 -9 -26 -7 -38 8 -65 24 -41 42 -41 66 0 15 27 17 39 8
65 -13 43 -25 304 -17 361 l7 44 57 13 c61 14 92 39 92 75 0 31 -59 51 -75 25z"/>
<path d="M1234 932 c-26 -18 -44 -60 -44 -104 0 -51 9 -63 44 -54 26 6 76 91
76 129 0 32 -46 50 -76 29z"/>
<path d="M666 878 c-45 -125 -104 -382 -116 -507 -13 -140 9 -151 30 -15 21
133 25 141 72 147 25 3 49 14 59 25 15 19 17 16 38 -56 24 -83 35 -102 59
-102 43 0 53 66 22 148 -34 90 -60 196 -73 299 l-12 98 -32 3 c-28 3 -32 0
-47 -40z m39 -214 c4 -32 9 -63 12 -71 3 -7 -2 -13 -11 -13 -10 0 -30 -7 -46
-15 -23 -12 -30 -13 -30 -3 0 26 52 168 60 163 4 -3 11 -30 15 -61z"/>
<path d="M353 884 c-47 -23 -99 -98 -138 -199 -31 -78 -27 -232 7 -305 64
-141 178 -148 263 -16 38 59 46 110 19 120 -9 3 -31 6 -49 6 -27 0 -39 -8 -65
-40 -17 -22 -38 -40 -46 -40 -26 0 -54 79 -54 152 0 87 30 170 81 221 34 35
43 38 81 35 38 -3 43 0 46 19 8 54 -75 81 -145 47z"/>
<path d="M2685 866 c-9 -14 -32 -75 -50 -136 -19 -62 -36 -114 -38 -116 -7 -7
-53 107 -67 164 -15 63 -42 83 -85 64 -29 -14 -37 -31 -75 -167 l-28 -100 -32
70 c-17 39 -36 96 -42 128 -6 31 -14 57 -19 57 -5 0 -9 -33 -9 -74 0 -57 8
-98 35 -182 19 -59 35 -114 35 -122 0 -24 31 -80 48 -87 27 -10 41 17 73 148
18 69 35 125 39 122 3 -2 24 -54 44 -115 41 -117 80 -176 110 -164 9 4 25 23
35 43 48 96 135 406 129 460 -3 23 -8 26 -45 29 -35 3 -44 -1 -58 -22z"/>
<path d="M2014 836 c-26 -19 -98 -136 -118 -193 -17 -50 -46 -209 -46 -256 0
-37 13 -62 27 -54 6 4 16 40 22 81 7 40 17 80 24 89 12 15 96 37 141 37 20 0
24 -8 36 -65 16 -74 42 -125 65 -125 9 0 25 19 36 46 l21 46 -26 81 c-14 45
-30 120 -36 167 -6 47 -19 101 -28 120 -15 30 -22 35 -57 38 -24 2 -49 -3 -61
-12z m62 -243 c-3 -4 -140 -52 -143 -50 -6 7 44 99 80 147 l42 55 11 -75 c7
-41 11 -76 10 -77z"/>
<path d="M1162 650 c-18 -11 -36 -30 -41 -42 -21 -58 36 -131 110 -143 54 -8
109 -27 109 -36 0 -21 -54 -67 -85 -73 -44 -9 -51 -25 -30 -65 21 -41 69 -43
116 -4 36 31 79 114 79 156 0 46 -44 81 -120 97 -77 15 -100 26 -100 45 0 13
43 31 90 37 38 5 38 34 -1 42 -55 11 -93 7 -127 -14z"/>
</g>
</svg>
