<?xml version="1.0" standalone="no"?>
<!DOCTYPE svg PUBLIC "-//W3C//DTD SVG 20010904//EN"
 "http://www.w3.org/TR/2001/REC-SVG-20010904/DTD/svg10.dtd">
<svg version="1.0" xmlns="http://www.w3.org/2000/svg"
 width="200.000000pt" height="200.000000pt" viewBox="0 0 200.000000 200.000000"
 preserveAspectRatio="xMidYMid meet">
<metadata>
Created by potrace 1.10, written by Peter Selinger 2001-2011
</metadata>
<g transform="translate(0.000000,200.000000) scale(0.100000,-0.100000)"
fill="currentColor" stroke="none">
<path d="M1129 1777 c-20 -8 -49 -23 -65 -34 -32 -23 -111 -107 -131 -139 -12
-19 -13 -19 -24 1 -29 49 -106 113 -149 126 -64 19 -189 16 -244 -5 -93 -36
-206 -194 -206 -289 0 -31 19 -113 35 -149 6 -15 2 -18 -27 -18 -113 0 -230
-84 -243 -174 -11 -69 -2 -123 33 -196 39 -82 82 -127 136 -141 22 -6 51 -15
64 -20 13 -5 38 -9 56 -9 l33 0 2 -152 c2 -193 24 -354 53 -385 16 -17 24 -20
35 -12 19 16 16 46 -13 156 -35 134 -44 186 -52 326 l-7 120 -68 16 c-40 10
-81 27 -101 43 -44 35 -86 123 -86 180 0 37 5 49 33 74 56 52 67 57 135 63 62
6 67 8 76 34 7 19 6 42 -2 72 -7 25 -12 79 -12 120 0 61 5 86 26 128 32 64 78
114 123 133 47 20 147 18 196 -5 47 -21 103 -86 136 -156 13 -28 28 -53 33
-57 13 -9 46 20 46 39 0 61 127 183 227 219 53 18 79 17 156 -7 54 -17 75 -30
106 -66 46 -52 57 -97 48 -205 -5 -60 2 -103 21 -128 2 -3 48 -7 102 -10 109
-6 121 -12 181 -94 23 -31 29 -49 29 -90 -1 -85 -17 -136 -58 -177 -39 -40
-151 -103 -202 -114 -16 -4 -33 -11 -37 -17 -9 -16 -50 -199 -79 -356 -19
-104 -22 -138 -13 -155 18 -33 41 -57 56 -57 23 0 46 68 38 116 -7 51 13 295
26 309 5 5 9 20 9 32 0 21 3 22 21 13 44 -24 149 20 229 96 65 62 94 118 109
215 23 142 10 194 -70 271 -76 73 -98 81 -195 75 l-81 -5 -1 114 c-2 133 -15
168 -90 243 -70 69 -130 94 -232 98 -54 2 -98 -2 -121 -10z"/>
<path d="M1190 1558 c-41 -28 -81 -105 -82 -157 -1 -74 52 -141 113 -141 81 0
147 113 133 229 -4 32 -14 61 -25 72 -27 27 -97 25 -139 -3z"/>
<path d="M579 1529 c-20 -20 -21 -29 -16 -106 6 -86 28 -141 80 -205 23 -28
65 -43 83 -31 18 13 86 164 91 204 8 57 -3 85 -44 111 -84 52 -159 62 -194 27z"/>
<path d="M905 1180 c-61 -13 -90 -26 -126 -57 -19 -16 -47 -35 -63 -43 -16 -8
-41 -33 -55 -54 -22 -33 -26 -51 -26 -110 0 -39 4 -79 9 -88 6 -13 4 -18 -7
-18 -24 0 -74 -55 -80 -90 -9 -42 17 -103 56 -133 37 -28 118 -57 158 -57 48
0 135 39 183 81 l46 41 31 -26 c50 -43 86 -57 158 -63 61 -5 70 -3 95 19 35
30 56 87 56 154 0 61 -26 101 -68 106 -18 2 -26 8 -24 18 30 132 -14 271 -97
307 -42 18 -189 26 -246 13z"/>
<path d="M1496 1155 c-45 -16 -110 -75 -127 -116 -13 -32 -6 -70 16 -93 8 -8
15 -19 15 -24 0 -18 47 -52 72 -52 14 0 41 11 61 24 19 13 44 27 55 30 26 9
80 89 88 132 8 44 -4 92 -26 104 -26 14 -108 12 -154 -5z"/>
<path d="M300 1087 c-34 -12 -35 -14 -32 -57 6 -97 155 -214 218 -172 21 13
54 95 54 131 0 38 -21 72 -55 89 -34 17 -147 23 -185 9z"/>
</g>
</svg>
