<?xml version="1.0" encoding="UTF-8"?>
<svg version="1.1" xmlns="http://www.w3.org/2000/svg" width="500" height="200">
<path d="M0 0 C1.79541016 1.76196289 1.79541016 1.76196289 2.12988281 3.79541016 C0.9941399 13.29341227 -1.40947453 22.46256746 -3.82958984 31.69946289 C-4.05490387 32.56779755 -4.2802179 33.4361322 -4.51235962 34.33078003 C-16.75481766 81.40374028 -16.75481766 81.40374028 -26.20458984 88.76196289 C-28.89208984 88.94946289 -28.89208984 88.94946289 -31.20458984 88.76196289 C-31.20458984 88.10196289 -31.20458984 87.44196289 -31.20458984 86.76196289 C-31.79755859 86.71168945 -32.39052734 86.66141602 -33.00146484 86.60961914 C-37.21834075 84.98716866 -38.44862931 80.30033188 -40.26708984 76.41430664 C-43.13159547 69.82329139 -45.28283997 62.95997565 -47.45166016 56.11523438 C-47.7671582 55.12209229 -48.08265625 54.1289502 -48.40771484 53.10571289 C-48.68260742 52.22077148 -48.9575 51.33583008 -49.24072266 50.42407227 C-50.33512992 47.40142362 -51.72146937 44.61130765 -53.20458984 41.76196289 C-53.4562793 42.8409082 -53.70796875 43.91985352 -53.96728516 45.03149414 C-54.91146181 49.06695404 -55.86884781 53.09918659 -56.83007812 57.13061523 C-57.24282019 58.86968246 -57.6520643 60.609584 -58.05761719 62.3503418 C-58.64410091 64.86487273 -59.24346194 67.37604792 -59.84521484 69.88696289 C-60.02143372 70.65500244 -60.19765259 71.42304199 -60.37921143 72.21435547 C-61.63074633 77.3639921 -63.27096718 82.30164663 -66.20458984 86.76196289 C-68.64208984 88.07446289 -68.64208984 88.07446289 -71.20458984 87.76196289 C-77.70045342 82.96739691 -78.95977204 76.03462376 -80.57958984 68.57446289 C-81.58098463 64.00789295 -82.87189508 59.83730116 -84.64208984 55.51196289 C-90.83125494 39.79523456 -91.78292123 25.54024607 -91.20458984 8.76196289 C-90.21458984 8.76196289 -89.22458984 8.76196289 -88.20458984 8.76196289 C-86.6841806 12.97330566 -85.8153579 16.96832959 -85.14208984 21.38696289 C-83.22104686 31.5280477 -78.70024584 40.53522458 -74.20458984 49.76196289 C-72.23444929 44.13224729 -70.55611887 38.4781936 -69.06298828 32.7043457 C-63.61483774 11.77503239 -63.61483774 11.77503239 -60.20458984 7.76196289 C-56.86450347 6.06979993 -53.93568432 5.40051311 -50.20458984 5.76196289 C-46.80066687 7.28377154 -45.44576283 8.27699637 -43.76660156 11.65356445 C-43.39293457 12.80824219 -43.01926758 13.96291992 -42.63427734 15.15258789 C-42.42650665 15.77542664 -42.21873596 16.39826538 -42.00466919 17.03997803 C-41.34595653 19.02551955 -40.71210061 21.01793771 -40.07958984 23.01196289 C-39.43484966 24.9897143 -38.78504656 26.96571863 -38.13308716 28.94110107 C-37.54143093 30.74220671 -36.96224604 32.54739513 -36.38378906 34.3527832 C-35.15056377 37.91815752 -33.72922216 41.3130107 -32.20458984 44.76196289 C-28.52107045 36.10422282 -25.84380642 27.23975393 -23.20458984 18.21899414 C-21.35965658 12.05720533 -19.50356375 6.30634619 -16.20458984 0.76196289 C-11.22404184 -1.4933796 -4.98277007 -2.79818682 0 0 Z " fill="currentColor" transform="translate(464.20458984375,52.238037109375)"/>
<path d="M0 0 C5.51959893 5.26870807 7.78251882 11.26658615 8.1328125 18.890625 C7.78544698 26.69613246 5.4540567 33.05717245 2 40 C1.46632813 41.11375 0.93265625 42.2275 0.3828125 43.375 C-6.5851276 56.77258441 -17.09344308 67.41371475 -30.5625 74.3125 C-33.81192271 75.22900384 -36.6438491 75.25329441 -40 75 C-40.66 74.34 -41.32 73.68 -42 73 C-41.85502187 82.31813999 -40.75408904 90.78884946 -38.4375 99.8125 C-35.78321658 110.34954349 -33.83858389 118.47309922 -39.515625 128.3203125 C-41.30228269 130.34205673 -42.32052652 130.8157533 -45 131 C-51.65742936 125.9663339 -53.16161922 118.4328864 -54.33105469 110.59228516 C-54.44868164 109.71620605 -54.56630859 108.84012695 -54.6875 107.9375 C-54.81415039 107.01501465 -54.94080078 106.0925293 -55.07128906 105.14208984 C-56.3653177 95.10552002 -56.28422367 85.4036134 -55.5 75.3125 C-54.95618749 68.15354347 -55.00043049 61.05191039 -55.0625 53.875 C-55.12749904 43.67360817 -54.81919654 33.55350161 -54.125 23.375 C-54.04644775 22.18503418 -53.96789551 20.99506836 -53.88696289 19.76904297 C-53.38943478 13.0483511 -52.52182264 6.5671782 -51 0 C-50.34 0 -49.68 0 -49 0 C-48.67 1.98 -48.34 3.96 -48 6 C-47.06800781 5.45730469 -46.13601563 4.91460937 -45.17578125 4.35546875 C-31.80108847 -3.23648038 -13.82075445 -10.65349822 0 0 Z M-43 15 C-43.93585938 15.37382813 -44.87171875 15.74765625 -45.8359375 16.1328125 C-46.55007813 16.41898438 -47.26421875 16.70515625 -48 17 C-48.2615704 24.9633655 -47.87536577 32.76238445 -47.125 40.6875 C-47.04652832 41.57276367 -46.96805664 42.45802734 -46.88720703 43.37011719 C-46.80325684 44.2005957 -46.71930664 45.03107422 -46.6328125 45.88671875 C-46.55949707 46.63139404 -46.48618164 47.37606934 -46.41064453 48.14331055 C-46.12230027 50.23618048 -46.12230027 50.23618048 -44 52 C-30.60545403 45.61380253 -18.14776953 38.19916312 -12 24 C-11.67 23.34 -11.34 22.68 -11 22 C-10.48398164 17.92823081 -10.48398164 17.92823081 -11 14 C-19.69011515 6.79356305 -33.65983541 11.13413127 -43 15 Z " fill="currentColor" transform="translate(321,35)"/>
<path d="M0 0 C2.25992514 1.43616346 3.73815741 2.75365858 4.94140625 5.16015625 C5.14453125 7.03515625 5.14453125 7.03515625 5.19140625 9.16015625 C5.2171875 9.86140625 5.24296875 10.56265625 5.26953125 11.28515625 C5.16125 11.90390625 5.05296875 12.52265625 4.94140625 13.16015625 C3.95140625 13.82015625 2.96140625 14.48015625 1.94140625 15.16015625 C0.95140625 14.50015625 -0.03859375 13.84015625 -1.05859375 13.16015625 C-5.71243291 12.41554199 -8.66284508 13.17222197 -12.62109375 15.53515625 C-21.68484385 22.1367671 -25.99801192 34.04742528 -28.6796875 44.60546875 C-30.56001328 57.28312917 -29.19670657 70.32991611 -22.05859375 81.16015625 C-16.94907576 78.48585047 -14.48860947 74.97270419 -11.21875 70.33984375 C-8.50792887 67.60451248 -6.84425965 67.42598975 -3.05859375 67.16015625 C-2.33414063 67.093125 -1.6096875 67.02609375 -0.86328125 66.95703125 C2.16100182 66.88356688 4.62324884 67.03289329 7.44140625 68.16015625 C9.30903744 70.65033116 9.62094562 72.63881902 9.4453125 75.7265625 C7.11540049 86.97877322 -0.79101286 95.13201086 -8.80859375 102.78515625 C-15.02905671 105.41689058 -22.01868638 105.06086954 -28.43359375 103.16015625 C-39.59291971 94.65781266 -44.57031491 81.93452808 -46.63671875 68.36328125 C-48.51969696 47.65052093 -42.56804492 27.72125153 -30.05859375 11.16015625 C-29.56617187 10.46148437 -29.07375 9.7628125 -28.56640625 9.04296875 C-22.08508763 0.51106345 -10.36404268 -4.22821476 0 0 Z " fill="currentColor" transform="translate(78.05859375,50.83984375)"/>
<path d="M0 0 C5.77070834 3.93457387 6.5585463 9.54640017 8 16 C8.73757128 20.36126166 9.30676832 24.73890301 9.875 29.125 C11.47014053 40.66334092 13.53688521 51.91939882 18.1484375 62.6796875 C19.59477223 66.6206179 19.11451542 70.00578289 18 74 C13.91543103 82.19427376 13.91543103 82.19427376 9.95703125 83.859375 C8 84 8 84 5.5 82.25 C-1.47946625 74.39274811 -2.34596991 61.98683321 -4 52 C-6.83405504 52.45417549 -9.66718174 52.91322398 -12.5 53.375 C-13.29148437 53.50132813 -14.08296875 53.62765625 -14.8984375 53.7578125 C-20.01384115 54.59640326 -24.98732638 55.67784985 -30 57 C-32.66516735 65.51301028 -34.51633979 73.35718863 -35.3125 82.234375 C-36 85 -36 85 -38.0625 86.390625 C-39.0215625 86.69226563 -39.0215625 86.69226563 -40 87 C-42.54707854 84.45292146 -42.31095581 82.71916171 -42.37988281 79.23681641 C-42.37827148 78.43679199 -42.37666016 77.63676758 -42.375 76.8125 C-42.37338867 75.97895996 -42.37177734 75.14541992 -42.37011719 74.28662109 C-41.87821863 48.11472409 -34.26829975 22.56193908 -16.51953125 2.96875 C-11.4577457 -0.98650568 -6.10747313 -1.69652031 0 0 Z M-9 19 C-22.89686103 33.5321252 -22.89686103 33.5321252 -29 52 C-27.2365625 51.4121875 -27.2365625 51.4121875 -25.4375 50.8125 C-18.625 48.54166667 -11.8125 46.27083333 -5 44 C-5.27696396 40.20710763 -5.57405103 36.41605868 -5.875 32.625 C-5.95363281 31.54476562 -6.03226562 30.46453125 -6.11328125 29.3515625 C-6.23896484 27.8046875 -6.23896484 27.8046875 -6.3671875 26.2265625 C-6.44050293 25.27346191 -6.51381836 24.32036133 -6.58935547 23.33837891 C-6.80173834 20.81549808 -6.80173834 20.81549808 -9 19 Z " fill="currentColor" transform="translate(351,58)"/>
<path d="M0 0 C2.875 0.4375 2.875 0.4375 5.875 2.4375 C6.41162109 4.71801758 6.41162109 4.71801758 6.6484375 7.58203125 C6.74809814 8.64091553 6.84775879 9.6997998 6.95043945 10.79077148 C7.04929443 11.93231689 7.14814941 13.0738623 7.25 14.25 C9.28461059 34.31332948 14.14531636 53.87359724 21.5234375 72.6640625 C23.28337334 77.31499393 23.76913805 81.51175737 22.875 86.4375 C21.46604839 89.18202032 19.92129739 91.084258 17.875 93.4375 C14.11524561 92.92942508 12.25357231 92.41539761 9.875 89.4375 C6.40834075 81.40499686 4.00235691 72.91233645 1.875 64.4375 C1.0396875 65.5821875 1.0396875 65.5821875 0.1875 66.75 C-3.43224115 70.49601119 -8.31962105 70.75485 -13.26171875 71.56640625 C-16.15670314 72.1184355 -16.15670314 72.1184355 -17.21411133 74.05249023 C-18.3980506 77.15243736 -18.96759096 80.20347243 -19.5625 83.46875 C-19.68810303 84.14168091 -19.81370605 84.81461182 -19.94311523 85.50793457 C-20.34280911 87.65010992 -20.73484394 89.79356835 -21.125 91.9375 C-21.63896004 94.76174215 -22.16079237 97.58436069 -22.6875 100.40625 C-22.91566406 101.65857422 -23.14382812 102.91089844 -23.37890625 104.20117188 C-24.01305267 106.95190648 -24.71409588 109.0183747 -26.125 111.4375 C-27.115 110.7775 -28.105 110.1175 -29.125 109.4375 C-29.29731794 106.62401807 -29.26565385 104.10727624 -29.0625 101.3125 C-29.00578125 100.46486084 -28.9490625 99.61722168 -28.890625 98.74389648 C-27.15500025 76.16644768 -21.41034726 54.38110341 -15.67889404 32.55859375 C-15.14890912 30.52905811 -14.62752453 28.49755364 -14.10986328 26.46484375 C-13.21675258 22.9713804 -12.30081568 19.48491734 -11.375 16 C-11.11807373 14.98881104 -10.86114746 13.97762207 -10.59643555 12.93579102 C-8.88969574 6.70052327 -7.1737102 1.00431943 0 0 Z M-5.125 31.4375 C-8.425 41.3375 -11.725 51.2375 -15.125 61.4375 C-14.465 61.7675 -13.805 62.0975 -13.125 62.4375 C-12.25875 61.98375 -11.3925 61.53 -10.5 61.0625 C-6.51545066 59.14401328 -3.5026169 58.81488077 0.875 58.4375 C-0.5579198 49.38481844 -2.28542235 40.41463895 -4.125 31.4375 C-4.455 31.4375 -4.785 31.4375 -5.125 31.4375 Z " fill="currentColor" transform="translate(119.125,45.5625)"/>
<path d="M0 0 C0.7940625 -0.00773437 1.588125 -0.01546875 2.40625 -0.0234375 C6.71873638 -0.00906255 10.07128619 0.25395992 14 2.25 C14 3.57 14 4.89 14 6.25 C10.70549108 7.7874375 7.55514503 8.55606379 4 9.1875 C0.11486345 9.91233891 -2.76255426 10.87587313 -6 13.25 C-5.67 14.24 -5.34 15.23 -5 16.25 C0.37128186 18.64185259 5.70008387 19.90900764 11.4375 21.0625 C18.17666176 22.52274955 23.83252548 24.43985085 29 29.25 C31.46931093 34.18862186 30.72870399 41.63617046 29.28125 46.828125 C28.31075663 49.06652101 27.22774623 51.14243563 26 53.25 C25.42185547 54.31541016 25.42185547 54.31541016 24.83203125 55.40234375 C21.45863308 61.26485125 17.33669623 65.55955914 11 68.25 C6.72542977 68.89720606 3.17690182 69.06477818 -0.4375 66.5625 C-3.15309617 62.54341767 -4.52983493 59.15097313 -4 54.25 C-1.56853223 51.81853223 -0.00790958 51.638829 3.3125 50.875 C7.73731149 49.7066184 10.87769941 48.76258817 14 45.25 C15.03471063 42.93185023 16.03838057 40.5994111 17 38.25 C15.73285156 38.00765625 14.46570313 37.7653125 13.16015625 37.515625 C-5.03322153 33.93689586 -5.03322153 33.93689586 -11 30.25 C-11.65226563 29.85425781 -12.30453125 29.45851563 -12.9765625 29.05078125 C-17.79925451 25.58757238 -19.49201311 21.67064938 -20.76171875 15.9375 C-21.21757701 10.79601666 -19.34673196 7.91096941 -16.125 3.9375 C-11.07967759 -0.06907956 -6.17525814 -0.06014862 0 0 Z " fill="currentColor" transform="translate(206,88.75)"/>
<path d="M0 0 C0.886875 -0.01417969 1.77375 -0.02835938 2.6875 -0.04296875 C5 0.1875 5 0.1875 7 2.1875 C7.65702411 7.88170896 6.50835576 10.72231994 3 15.1875 C1.09309791 17.09440209 -2.07520268 17.15070056 -4.625 17.6875 C-5.83414063 17.9453125 -7.04328125 18.203125 -8.2890625 18.46875 C-11.850739 19.1585905 -15.40760926 19.68725972 -19 20.1875 C-19.33493629 46.73783486 -19.33493629 46.73783486 -18.125 73.25 C-18.04652832 74.29913574 -17.96805664 75.34827148 -17.88720703 76.42919922 C-17.46299307 81.70771444 -17.46299307 81.70771444 -15.95654297 86.74780273 C-14.54207275 90.35545992 -14.90455609 93.55884206 -16 97.1875 C-17.47728026 99.76302151 -19.11655552 101.86941448 -21 104.1875 C-25.75 103.3125 -25.75 103.3125 -28 102.1875 C-30.37669976 98.05028191 -31.24512614 95.36662334 -30.640625 90.62109375 C-30.53709717 89.73993896 -30.43356934 88.85878418 -30.3269043 87.95092773 C-30.21902588 87.03899658 -30.11114746 86.12706543 -30 85.1875 C-29.83714535 83.4173763 -29.68228223 81.64650035 -29.53515625 79.875 C-29.45837646 78.95750977 -29.38159668 78.04001953 -29.30249023 77.09472656 C-29.22329346 76.1353418 -29.14409668 75.17595703 -29.0625 74.1875 C-28.97750244 73.16366211 -28.89250488 72.13982422 -28.80493164 71.08496094 C-28.0683921 62.1490928 -27.37480244 53.21007016 -26.69750977 44.26953125 C-26.16408797 37.23933429 -25.59481867 30.21276968 -25 23.1875 C-25.57967529 23.36925781 -26.15935059 23.55101563 -26.7565918 23.73828125 C-29.39801334 24.56199292 -32.04266153 25.37482991 -34.6875 26.1875 C-36.05551758 26.61675781 -36.05551758 26.61675781 -37.45117188 27.0546875 C-38.33740234 27.32539062 -39.22363281 27.59609375 -40.13671875 27.875 C-40.94842529 28.12636719 -41.76013184 28.37773438 -42.59643555 28.63671875 C-45.21022701 29.23567391 -47.33124828 29.49740869 -50 29.1875 C-52 26.1875 -52 26.1875 -51.99902344 24.1730957 C-50.44208218 21.07861788 -48.19162333 20.650178 -45.015625 19.41796875 C-44.4041864 19.17387772 -43.7927478 18.92978668 -43.16278076 18.67829895 C-41.19729967 17.89579362 -39.22461974 17.13411658 -37.25 16.375 C-34.68854371 15.37880626 -32.13146788 14.37227696 -29.578125 13.35546875 C-28.63326233 12.98057816 -28.63326233 12.98057816 -27.66931152 12.59811401 C-22.03738591 10.31058482 -16.78448821 7.50047863 -11.50292969 4.5012207 C-9 3.1875 -9 3.1875 -7 3.1875 C-7 2.5275 -7 1.8675 -7 1.1875 C-4.52224905 -0.05137548 -2.76346293 0.02008331 0 0 Z " fill="currentColor" transform="translate(185,43.8125)"/>
<path d="M0 0 C0.87527344 -0.01417969 1.75054687 -0.02835938 2.65234375 -0.04296875 C5.0625 0.1875 5.0625 0.1875 8.0625 2.1875 C7.9189552 10.65664304 4.80479599 17.21408445 0.0625 24.1875 C-2.85225218 26.90015072 -4.15825381 28.08054464 -8.125 28.625 C-9.053125 28.480625 -9.98125 28.33625 -10.9375 28.1875 C-14.3598433 23.05398504 -13.68746046 17.16176127 -12.9375 11.1875 C-10.11554687 4.29708683 -7.70341199 0.05655956 0 0 Z " fill="currentColor" transform="translate(210.9375,43.8125)"/>
</svg>
