<?xml version="1.0" standalone="no"?>
<!DOCTYPE svg PUBLIC "-//W3C//DTD SVG 20010904//EN"
 "http://www.w3.org/TR/2001/REC-SVG-20010904/DTD/svg10.dtd">
<svg version="1.0" xmlns="http://www.w3.org/2000/svg"
 width="300.000000pt" height="113.000000pt" viewBox="0 0 300.000000 113.000000"
 preserveAspectRatio="xMidYMid meet">
<metadata>
Created by potrace 1.10, written by Peter Selinger 2001-2011
</metadata>
<g transform="translate(0.000000,113.000000) scale(0.100000,-0.100000)"
fill="#000000" stroke="none">
<path d="M1314 950 c-141 -4 -195 -9 -207 -19 -15 -11 -17 -37 -17 -171 0 -86
-3 -185 -6 -219 l-7 -61 -397 0 -397 0 -20 -22 c-18 -21 -22 -44 -31 -221 -5
-109 -8 -207 -5 -218 5 -16 13 -19 42 -17 l36 3 9 193 9 192 176 0 c97 0 288
3 425 7 l248 6 -3 -84 c-2 -46 -2 -137 -1 -201 l2 -118 44 0 44 0 -3 226 c-4
241 -6 254 -54 254 l-27 0 -1 188 0 189 195 6 c107 4 297 7 422 7 l227 0 9
-197 c5 -109 7 -291 5 -404 -2 -113 0 -220 4 -237 6 -29 10 -32 46 -32 l39 0
2 167 3 168 120 -1 c66 0 239 -3 385 -6 l265 -5 7 -49 c3 -27 7 -100 7 -161
l1 -113 40 0 c50 0 55 15 46 153 -11 180 -18 236 -31 247 -8 6 -165 12 -426
16 -227 3 -415 7 -417 8 -1 2 -6 119 -9 260 -4 151 -10 259 -16 263 -13 8
-538 10 -783 3z"/>
<path d="M1550 759 c-25 -27 -46 -54 -48 -59 -6 -16 29 -24 49 -12 18 11 19 4
21 -166 3 -169 4 -177 23 -177 19 0 20 9 26 175 3 97 9 197 13 222 6 40 4 48
-13 57 -11 6 -21 11 -23 10 -2 0 -23 -23 -48 -50z"/>
<path d="M714 321 c-28 -12 -74 -68 -74 -91 0 -9 7 -23 15 -30 19 -15 45 3 45
31 0 21 35 43 56 35 24 -9 16 -44 -27 -118 -36 -61 -39 -72 -27 -85 13 -12 24
-12 89 5 60 16 75 23 77 41 4 22 -3 24 -50 21 -32 -2 -33 4 -13 40 20 35 19
103 -2 128 -21 25 -60 35 -89 23z"/>
<path d="M2485 266 c-38 -16 -59 -41 -51 -61 7 -19 40 -19 56 0 13 16 50 21
50 7 0 -5 -13 -21 -29 -36 -41 -40 -31 -60 25 -51 49 7 54 0 24 -38 -23 -29
-26 -53 -7 -60 49 -18 104 108 62 143 -8 7 -15 27 -15 46 0 59 -47 80 -115 50z"/>
</g>
</svg>
