<svg width="1255" height="629" viewBox="0 0 1255 629" fill="none" xmlns="http://www.w3.org/2000/svg">
<path d="M1251 4.00098C1251 4.00098 1236.11 31.4093 1210 77C1185.72 119.405 1141.45 193.411 1097 274.503C1041.11 376.465 989.751 468.816 947.5 500C905.249 531.184 875.361 508.902 868.5 504C858.832 497.092 814.5 465.065 791.5 469C768.5 472.935 745.92 489.293 701 512.5C676.238 525.293 639.523 480.152 602 471.435C577.494 465.742 524.193 523.5 492.5 523.5C457 523.5 446 514 413.5 491C400.867 482.06 374.184 453.194 345 457.5C314.5 462 306.189 465.418 269 477.5C246.692 484.747 215.423 502.488 179.5 523.5C153 539 130.989 554.936 99 575C48.5 606.675 30 616 4.89185 625.66C1.69471 626.891 2.9726 624.055 1 628" stroke="black" stroke-width="15" stroke-linecap="round"/>
</svg>
