<?xml version="1.0" encoding="UTF-8"?>
<svg version="1.1" xmlns="http://www.w3.org/2000/svg" width="1248" height="6659">
<path d="M0 0 C20.83423904 17.39518999 25.21353684 51.1773387 27.5431366 76.48220825 C35.54988251 175.86630083 20.50899243 287.33996196 -13.96484375 386.69921875 C-14.31208496 387.66939941 -14.65932617 388.63958008 -15.01708984 389.63916016 C-28.18664776 425.98944541 -46.32904453 459.66518237 -66.19482422 492.73779297 C-68.18220462 496.06288598 -70.1334857 499.40754629 -72.07714844 502.75830078 C-82.13541471 520.07177702 -93.1836574 536.68775201 -105.77734375 552.26171875 C-106.58631104 553.26247437 -106.58631104 553.26247437 -107.41162109 554.28344727 C-112.21253613 560.14336576 -117.42837129 565.21456637 -123.27734375 570.01171875 C-123.82712891 570.46611328 -124.37691406 570.92050781 -124.94335938 571.38867188 C-126.28196591 572.49447727 -127.62313606 573.59717814 -128.96484375 574.69921875 C-124.45002322 587.59021948 -117.91674998 598.98782383 -110.96484375 610.69921875 C-110.14359666 612.10492315 -109.3232073 613.51112923 -108.50390625 614.91796875 C-104.3486299 622.00569579 -99.93525722 628.82482067 -95.1953125 635.5390625 C-93.74030556 637.60053469 -92.30436325 639.6756353 -90.890625 641.765625 C-84.8716403 650.65503124 -78.3281334 659.0824545 -71.68408203 667.50976562 C-70.06677773 669.56940564 -68.46412577 671.63939304 -66.8671875 673.71484375 C-62.67626623 679.14458636 -58.51361338 684.39745795 -53.515625 689.12109375 C-51.18633012 691.49145932 -49.31977885 694.16303157 -47.37109375 696.84765625 C-44.81614323 700.21167444 -41.71166859 702.99276282 -38.65234375 705.88671875 C-36.96484375 707.69921875 -36.96484375 707.69921875 -36.96484375 709.69921875 C-36.36671875 709.96734375 -35.76859375 710.23546875 -35.15234375 710.51171875 C-32.96636521 711.69839281 -31.55151781 712.79520988 -29.96484375 714.69921875 C-29.96484375 715.35921875 -29.96484375 716.01921875 -29.96484375 716.69921875 C-29.39507813 716.94027344 -28.8253125 717.18132812 -28.23828125 717.4296875 C-25.52201041 718.94650541 -23.74039238 720.76684782 -21.58984375 723.01171875 C-18.9584412 725.71706154 -16.35931415 728.29080874 -13.40234375 730.63671875 C-12.59796875 731.31734375 -11.79359375 731.99796875 -10.96484375 732.69921875 C-10.96484375 733.35921875 -10.96484375 734.01921875 -10.96484375 734.69921875 C-10.44148438 734.91964844 -9.918125 735.14007812 -9.37890625 735.3671875 C-6.05609286 737.20064926 -3.25599322 739.60602977 -0.33984375 742.01171875 C12.18268504 752.17015813 25.17313626 761.45980381 39.03515625 769.69921875 C41.1405155 771.00980489 43.24465916 772.32234557 45.34765625 773.63671875 C73.88272179 791.15228342 104.17106592 805.79936675 135.03515625 818.69921875 C135.03515625 821.66921875 135.03515625 824.63921875 135.03515625 827.69921875 C117.92448924 828.99514576 106.01440913 826.95656737 91.03515625 818.69921875 C89.52824023 817.90985111 88.01916124 817.12459706 86.5078125 816.34375 C83.6454197 814.85666864 80.79970818 813.34356618 77.96484375 811.8046875 C74.44902192 809.90348253 70.88052412 808.13364455 67.28515625 806.38671875 C54.70124363 800.14568001 42.36534718 793.09724373 30.625 785.38574219 C28.06221991 783.71684279 25.47076385 782.10135707 22.875 780.484375 C17.26254232 776.91532885 11.97981682 773.01806265 6.72265625 768.94921875 C5.36624023 767.90749512 5.36624023 767.90749512 3.98242188 766.84472656 C-3.37568542 761.18363833 -10.69573178 755.47412437 -17.96484375 749.69921875 C-18.86332031 748.99152344 -19.76179688 748.28382812 -20.6875 747.5546875 C-23.29572489 745.42963292 -25.58646966 743.07759284 -27.96484375 740.69921875 C-28.95484375 739.89484375 -29.94484375 739.09046875 -30.96484375 738.26171875 C-34.04388256 735.63170643 -36.41562776 732.83671535 -38.96484375 729.69921875 C-41.34399299 727.20111205 -43.63362277 724.94551127 -46.40234375 722.88671875 C-49.31995591 720.39607422 -51.26741308 717.66639359 -53.5 714.5703125 C-54.97471299 712.537032 -54.97471299 712.537032 -57.40234375 710.76171875 C-60.56466205 708.21643816 -62.72086118 705.27065737 -65.12109375 702.015625 C-66.95823215 699.6161073 -66.95823215 699.6161073 -69.30859375 697.3671875 C-72.43258316 694.22941578 -75.19053385 690.8950878 -77.96484375 687.44921875 C-78.52880859 686.75103027 -79.09277344 686.0528418 -79.67382812 685.33349609 C-94.02123062 667.48682424 -107.87065818 649.2282065 -119.76757812 629.64501953 C-120.9598041 627.70740921 -122.18258753 625.79315041 -123.41796875 623.8828125 C-128.26667111 616.35511626 -132.71474913 608.67811749 -136.90234375 600.76171875 C-137.36310303 599.89780518 -137.8238623 599.0338916 -138.29858398 598.14379883 C-141.08117118 592.79552302 -143.25270461 587.48063806 -144.96484375 581.69921875 C-146.23714844 581.78623047 -146.23714844 581.78623047 -147.53515625 581.875 C-167.8179184 582.65510624 -184.15271731 571.5368702 -198.96484375 558.69921875 C-201.66859596 556.1028496 -204.09333219 553.54182042 -206.46484375 550.63671875 C-208.78746205 547.70087556 -208.78746205 547.70087556 -211.40234375 545.82421875 C-214.28737732 543.43175188 -216.20162149 540.85234601 -218.33984375 537.796875 C-220.34714361 535.20572109 -222.64225644 533.01152913 -224.96484375 530.69921875 C-226.80093492 528.65281291 -228.5735381 526.55595674 -230.33984375 524.44921875 C-230.81591064 523.88291748 -231.29197754 523.31661621 -231.7824707 522.7331543 C-242.96484375 509.37291248 -242.96484375 509.37291248 -242.96484375 506.69921875 C-243.92390625 506.29703125 -243.92390625 506.29703125 -244.90234375 505.88671875 C-246.96484375 504.69921875 -246.96484375 504.69921875 -247.96484375 501.69921875 C-248.96515625 501.84359375 -249.96546875 501.98796875 -250.99609375 502.13671875 C-297.78273294 508.27749923 -343.8777887 498.61842259 -388.96484375 486.69921875 C-390.23505371 486.36438477 -391.50526367 486.02955078 -392.81396484 485.68457031 C-431.04188577 475.5029428 -468.36427646 462.44089203 -505.41778564 448.64654541 C-507.855455 447.73990368 -510.29442324 446.8368601 -512.73388672 445.93505859 C-563.49779445 427.15086135 -614.20968972 406.98692005 -662.5078125 382.44384766 C-667.1183407 380.1025638 -671.77824612 377.88390885 -676.46484375 375.69921875 C-681.78170013 373.22072914 -687.0479852 370.66946495 -692.27734375 368.01171875 C-707.54405947 360.29523015 -723.13571819 353.08386674 -738.90234375 346.44921875 C-748.95405205 342.21595414 -758.86517295 337.68448663 -768.77734375 333.13671875 C-769.55931122 332.77904419 -770.34127869 332.42136963 -771.14694214 332.05285645 C-781.86427947 327.1469547 -792.4600951 322.04487448 -802.96484375 316.69921875 C-804.70060669 315.81882935 -804.70060669 315.81882935 -806.47143555 314.9206543 C-825.85334173 305.04897594 -844.65990228 294.65942266 -862.71484375 282.51171875 C-865.75359002 280.47157107 -868.83652436 278.59997519 -872.03515625 276.81640625 C-877.33750315 273.74662647 -882.44064151 270.32567644 -887.58984375 267.0078125 C-913.20186536 250.5810546 -939.70314684 235.05039011 -967.02783203 221.64941406 C-1015.14607095 198.04515569 -1015.14607095 198.04515569 -1036.984375 183.04638672 C-1040.26848445 180.79189511 -1043.60846016 178.75259665 -1047.08056641 176.80273438 C-1053.97553904 172.76473537 -1060.40213327 167.97892202 -1066.83984375 163.26171875 C-1072.58433893 159.08213581 -1078.35746982 155.04525893 -1084.3984375 151.30078125 C-1088.28760477 148.87375145 -1092.0834445 146.31086296 -1095.890625 143.7578125 C-1098.0292609 142.32571451 -1100.1713095 140.90069278 -1102.3203125 139.484375 C-1103.39925781 138.77152344 -1104.47820312 138.05867188 -1105.58984375 137.32421875 C-1106.57210938 136.67710938 -1107.554375 136.03 -1108.56640625 135.36328125 C-1110.96484375 133.69921875 -1110.96484375 133.69921875 -1112.96484375 131.69921875 C-1113.19189453 129.63623047 -1113.19189453 129.63623047 -1113.16015625 127.12890625 C-1113.15371094 126.23300781 -1113.14726563 125.33710938 -1113.140625 124.4140625 C-1113.12386719 123.47691406 -1113.10710937 122.53976562 -1113.08984375 121.57421875 C-1113.08082031 120.62933594 -1113.07179688 119.68445312 -1113.0625 118.7109375 C-1113.03888897 116.37344583 -1113.00595891 114.03645752 -1112.96484375 111.69921875 C-1105.47103319 115.83144408 -1098.68916557 120.29007178 -1091.90234375 125.50390625 C-1087.42741733 128.84819966 -1082.71483072 131.76560486 -1077.96484375 134.69921875 C-1068.64609279 140.5217376 -1059.5266752 146.61791 -1050.66015625 153.109375 C-1042.80042705 158.84840636 -1034.70655671 164.01250095 -1026.3671875 169.02734375 C-1021.31722226 172.06983531 -1016.38814993 175.28306384 -1011.46875 178.53125 C-999.01203741 186.40675217 -985.4055786 192.5059891 -972.21557617 199.02587891 C-961.93310274 204.11246282 -951.72181186 209.21385065 -941.83935547 215.04736328 C-938.91343511 216.72876104 -935.94057753 218.23207096 -932.90234375 219.69921875 C-927.40711596 222.38837277 -922.27851479 225.52022843 -917.1015625 228.7734375 C-914.34720029 230.46447183 -911.57505782 232.01021454 -908.71484375 233.51171875 C-902.9475675 236.59042651 -897.51895587 240.14562143 -892.06542969 243.74145508 C-887.77690169 246.56314581 -883.43442741 249.17453647 -878.96484375 251.69921875 C-877.20615998 252.78950103 -875.45560311 253.89304057 -873.71484375 255.01171875 C-872.76738281 255.61886719 -871.81992187 256.22601563 -870.84375 256.8515625 C-869.89371094 257.46128906 -868.94367188 258.07101562 -867.96484375 258.69921875 C-866.19443969 259.82489417 -864.42360757 260.94989665 -862.65234375 262.07421875 C-859.60537962 264.00845418 -856.56766614 265.95491172 -853.546875 267.9296875 C-847.43535782 271.91494963 -841.3323589 275.73933916 -834.85546875 279.1171875 C-832.28818649 280.52225414 -829.79246914 281.99700923 -827.2890625 283.51171875 C-813.70327404 291.70474243 -799.66410611 299.0223962 -785.2734375 305.6875 C-781.47989932 307.44470888 -777.75181554 309.30004235 -774.02734375 311.19921875 C-762.80711708 316.84146332 -751.28380633 321.83492416 -739.76171875 326.82421875 C-712.21543521 338.76115264 -685.15621481 351.61076566 -658.193573 364.80831909 C-646.25333246 370.65108557 -634.25802263 376.32327902 -622.11376953 381.73193359 C-619.46330584 382.92497349 -616.83508413 384.16148524 -614.20849609 385.40600586 C-604.25021352 390.12400808 -594.11943155 394.42419875 -583.96484375 398.69921875 C-582.87333008 399.15989746 -581.78181641 399.62057617 -580.65722656 400.09521484 C-563.60610579 407.27551915 -546.44601543 414.01766245 -529.12158203 420.5078125 C-524.80401844 422.13733379 -520.5085803 423.82065153 -516.21484375 425.51171875 C-509.14380041 428.28825504 -502.00884309 430.85082252 -494.83203125 433.33984375 C-492.27126888 434.23210345 -489.72446644 435.15335711 -487.1862793 436.10791016 C-486.48746643 436.37067749 -485.78865356 436.63344482 -485.06866455 436.9041748 C-483.14325092 437.63179783 -481.2198355 438.36470276 -479.29663086 439.09814453 C-469.4543807 442.845696 -459.52729249 446.2733481 -449.52734375 449.57421875 C-447.93537995 450.10122441 -446.34342038 450.62824282 -444.75146484 451.15527344 C-441.59934199 452.19765101 -438.44629619 453.23717025 -435.29248047 454.27441406 C-432.64682212 455.14454685 -430.00278092 456.01899421 -427.35986328 456.89746094 C-401.96754876 465.33729136 -376.10510638 472.01302116 -349.96484375 477.69921875 C-348.92521484 477.92738281 -347.88558594 478.15554688 -346.81445312 478.390625 C-318.78606713 484.47997019 -290.62460043 487.94907888 -261.96484375 485.69921875 C-263.52274696 483.63310634 -265.08594052 481.57137236 -266.65234375 479.51171875 C-267.08740234 478.93357422 -267.52246094 478.35542969 -267.97070312 477.75976562 C-270.74701534 474.11971183 -273.72039143 470.93878485 -276.96484375 467.69921875 C-279.2890341 464.99252566 -281.53140816 462.22096069 -283.77734375 459.44921875 C-289.34269424 452.62633407 -289.34269424 452.62633407 -295.15234375 446.01171875 C-299.02136277 441.75079479 -302.52844487 437.22720732 -306.0222168 432.6574707 C-308.7912608 429.06661308 -311.74562386 425.90360353 -314.96484375 422.69921875 C-317.02386991 420.32984973 -318.99640672 417.8940698 -320.96484375 415.44921875 C-321.52953369 414.75030518 -322.09422363 414.0513916 -322.67602539 413.33129883 C-328.33153907 406.29776809 -333.84261557 399.15852379 -339.27050781 391.94824219 C-340.43329286 390.40478745 -341.5994927 388.86390115 -342.76855469 387.32519531 C-349.76888235 378.10136495 -356.27189719 368.99511419 -361.79052734 358.80273438 C-363.2021317 356.27417239 -364.6837762 353.79290752 -366.171875 351.30859375 C-389.00983822 313.10502523 -412.79490744 263.96736324 -402.83276367 217.98144531 C-402.01952295 214.83482001 -401.01467895 211.774199 -399.96484375 208.69921875 C-399.49997976 207.22437447 -399.03649582 205.74909467 -398.57421875 204.2734375 C-396.00703932 196.33058435 -393.21783344 189.29912887 -387.96484375 182.69921875 C-387.28421875 181.77109375 -386.60359375 180.84296875 -385.90234375 179.88671875 C-381.98481507 175.4637025 -377.70436664 172.91033876 -372.33984375 170.51171875 C-371.21320312 170.00253906 -370.0865625 169.49335938 -368.92578125 168.96875 C-351.2084829 161.37228303 -323.58112387 167.33713665 -306.26171875 174.22265625 C-295.85669694 178.88272526 -286.07515882 183.76425719 -276.96484375 190.69921875 C-276.23652344 191.22515625 -275.50820313 191.75109375 -274.7578125 192.29296875 C-270.80955601 195.16442801 -267.37948911 198.1947143 -263.96484375 201.69921875 C-262.99546875 202.48296875 -262.02609375 203.26671875 -261.02734375 204.07421875 C-258.12034447 206.44454124 -255.79515502 209.12225058 -253.40625 212.00390625 C-252.12521084 213.51060271 -250.73827064 214.92579186 -249.33984375 216.32421875 C-247.00415319 218.65990931 -245.02629601 221.12240343 -242.96484375 223.69921875 C-242.19269531 224.46621094 -241.42054688 225.23320312 -240.625 226.0234375 C-205.26683477 261.58928652 -184.26487813 313.14169017 -173.08984375 361.26171875 C-172.89865967 362.08051514 -172.70747559 362.89931152 -172.51049805 363.74291992 C-169.66000582 376.78168986 -168.62805606 389.72938756 -168.70410156 403.03588867 C-168.71485686 405.26443552 -168.70410578 407.49217978 -168.69140625 409.72070312 C-168.67766211 422.52548279 -169.86906696 435.03987234 -173.21484375 447.44921875 C-173.43100342 448.25214355 -173.64716309 449.05506836 -173.86987305 449.88232422 C-178.31588667 465.58364719 -188.05301043 477.2140137 -201.96484375 485.69921875 C-210.49605488 490.39659056 -219.4598501 494.45725465 -228.96484375 496.69921875 C-227.30122974 500.46280455 -224.91029516 503.59448291 -222.40234375 506.82421875 C-221.95906738 507.39825439 -221.51579102 507.97229004 -221.05908203 508.5637207 C-217.60573472 512.98643945 -213.93242872 517.15907357 -210.12890625 521.28515625 C-207.88530252 523.78794886 -205.79432352 526.37148039 -203.71484375 529.01171875 C-199.5305481 534.30192291 -194.98784069 538.77446657 -189.80859375 543.07421875 C-187.96484375 544.69921875 -187.96484375 544.69921875 -185.7265625 547.0703125 C-182.48499471 550.1559916 -179.07772043 552.42679103 -175.27734375 554.76171875 C-174.56980957 555.1992749 -173.86227539 555.63683105 -173.13330078 556.08764648 C-165.97488142 560.43085622 -159.28315271 563.4478972 -150.96484375 564.69921875 C-151.2071875 563.79945312 -151.44953125 562.8996875 -151.69921875 561.97265625 C-157.82613395 538.70706297 -160.83772406 514.87400244 -163.6862793 491.02545166 C-163.86469068 489.53557588 -164.04501411 488.04592707 -164.2277832 486.55657959 C-174.94821896 399.18815979 -162.40236874 311.78053191 -136.93516541 228.21946716 C-135.22701993 222.59902308 -133.56694772 216.96503464 -131.9140625 211.328125 C-124.6433958 186.58173995 -116.981795 161.9833338 -109.00610352 137.45556641 C-108.27070355 135.19182679 -107.53558712 132.92799503 -106.80078125 130.6640625 C-106.2777668 129.05294838 -106.2777668 129.05294838 -105.7441864 127.4092865 C-103.62343258 120.84111534 -101.65680771 114.2557505 -99.80712891 107.60620117 C-98.41017707 102.78489522 -96.72899497 98.08433629 -94.96484375 93.38671875 C-94.58674561 92.3797998 -94.20864746 91.37288086 -93.8190918 90.33544922 C-84.06600937 64.99347165 -71.63759872 42.46847401 -52.96484375 22.69921875 C-52.20816406 21.87808594 -51.45148438 21.05695313 -50.671875 20.2109375 C-39.11760075 8.09120121 -17.78966873 -10.41079176 0 0 Z M-22.52734375 18.38671875 C-23.09090576 18.75104004 -23.65446777 19.11536133 -24.23510742 19.49072266 C-28.05292216 21.99309999 -31.69006225 24.51800243 -34.96484375 27.69921875 C-34.96484375 28.35921875 -34.96484375 29.01921875 -34.96484375 29.69921875 C-35.83109375 30.03953125 -35.83109375 30.03953125 -36.71484375 30.38671875 C-39.54398909 32.03705353 -40.94758971 34.13180452 -42.96484375 36.69921875 C-44.15013672 37.62347656 -44.15013672 37.62347656 -45.359375 38.56640625 C-63.81610567 53.67491441 -75.5634971 86.26694997 -82.26057434 108.38775635 C-83.39533423 112.1121192 -84.57079556 115.82342414 -85.74609375 119.53515625 C-86.00526581 120.35481873 -86.26443787 121.1744812 -86.53146362 122.01898193 C-88.33903346 127.73206603 -90.15450999 133.44261819 -91.97265625 139.15234375 C-101.92201137 170.40184759 -111.7650007 201.69072015 -120.93896484 233.17822266 C-121.66597444 235.67344695 -122.39536157 238.16788718 -123.12744141 240.66162109 C-138.51575919 293.1430285 -147.52262183 343.47962405 -150.15234375 398.13671875 C-150.21680191 399.45357162 -150.21680191 399.45357162 -150.28256226 400.79702759 C-151.13685713 418.62700178 -151.44351293 436.44108129 -150.21484375 454.26171875 C-150.12686523 455.55706543 -150.03888672 456.85241211 -149.94824219 458.18701172 C-148.32424748 481.13341719 -145.57655056 503.93122395 -141.90234375 526.63671875 C-141.71665833 527.78941254 -141.71665833 527.78941254 -141.52722168 528.96539307 C-140.01017549 538.30390673 -138.22971646 547.50873529 -135.96484375 556.69921875 C-131.03852866 556.69921875 -128.09656087 552.76742114 -124.66796875 549.53125 C-121.36261943 546.06827564 -118.48051933 542.3850201 -115.58984375 538.57421875 C-115.01548584 537.82011719 -114.44112793 537.06601562 -113.84936523 536.2890625 C-109.56322521 530.60900154 -105.6805524 524.76689192 -101.96484375 518.69921875 C-100.992867 517.23608353 -100.01378306 515.77764263 -99.02734375 514.32421875 C-87.57254066 497.2175735 -77.53501966 479.10224251 -67.38916016 461.20263672 C-66.10563063 458.94666967 -64.80889349 456.69899424 -63.5078125 454.453125 C-50.55481866 431.88993187 -39.6274017 408.22203417 -30.96484375 383.69921875 C-30.55959473 382.56291016 -30.1543457 381.42660156 -29.73681641 380.25585938 C-0.16727573 296.65417946 9.4704897 207.81364233 10.03515625 74.69921875 C9.90625 73.7448291 9.77734375 72.79043945 9.64453125 71.80712891 C6.01657667 43.36087779 6.01657667 43.36087779 -5.96484375 17.69921875 C-6.37347656 17.11398437 -6.78210937 16.52875 -7.203125 15.92578125 C-12.4555241 12.26890028 -17.83115071 15.32938971 -22.52734375 18.38671875 Z M-374.96484375 192.69921875 C-388.67021993 212.85235145 -389.83462798 240.11008276 -385.48339844 263.26074219 C-384.27632636 268.83477261 -382.67658319 274.2622662 -380.96484375 279.69921875 C-380.73732422 280.45638184 -380.50980469 281.21354492 -380.27539062 281.99365234 C-369.61845193 317.11850671 -349.27946913 351.81480519 -326.96484375 380.69921875 C-325.77568359 382.25576172 -325.77568359 382.25576172 -324.5625 383.84375 C-322.48479404 386.56192388 -320.39586196 389.27116383 -318.30029297 391.97558594 C-317.37634847 393.16809932 -316.45357301 394.36151904 -315.53173828 395.55566406 C-314.07577166 397.43985616 -312.61472705 399.32000411 -311.15234375 401.19921875 C-310.4864624 402.06232666 -310.4864624 402.06232666 -309.80712891 402.94287109 C-307.81698237 405.48945094 -305.83347002 407.83016938 -303.5390625 410.1171875 C-300.28471806 413.38140856 -297.46175097 416.91167468 -294.58984375 420.51171875 C-290.73594239 425.32909546 -286.80995748 430.04856177 -282.72802734 434.67456055 C-279.1234443 438.81369197 -275.68463288 443.0917093 -272.21484375 447.34375 C-269.34294475 450.8502874 -266.44270329 454.3185445 -263.4453125 457.71875 C-259.94741034 461.68942084 -256.59944709 465.76857167 -253.27734375 469.88671875 C-252.72240234 470.57185547 -252.16746094 471.25699219 -251.59570312 471.96289062 C-248.70669681 475.53206728 -245.82912638 479.11015414 -242.96484375 482.69921875 C-226.81343704 479.81503898 -205.96651648 472.58952623 -195.94140625 458.9453125 C-179.32439869 431.65532578 -183.10578985 390.68089771 -190.24609375 361.11328125 C-200.66374996 320.92907809 -217.4025913 280.44029734 -243.41796875 247.90625 C-245.88644005 244.81704671 -248.24879085 241.66067328 -250.55078125 238.4453125 C-252.51983907 236.01390685 -254.7351184 233.89525319 -256.96484375 231.69921875 C-258.23983031 230.40386663 -259.51312478 229.10684787 -260.78515625 227.80859375 C-267.87374108 220.61487116 -274.87780565 213.56871276 -282.86328125 207.36328125 C-284.96484375 205.69921875 -284.96484375 205.69921875 -286.31640625 204.22265625 C-288.87538773 201.85772076 -291.91685619 200.34104109 -294.96484375 198.69921875 C-295.56151855 198.37324707 -296.15819336 198.04727539 -296.77294922 197.71142578 C-317.80244005 186.37826899 -355.63512689 171.91977313 -374.96484375 192.69921875 Z " fill="#000000" transform="translate(1112.96484375,5831.30078125)"/>
<path d="M0 0 C3.67647396 3.53860618 6.89330764 7.26175311 10 11.3125 C17.96082209 21.56240277 26.00763388 31.78327653 34.65234375 41.46875 C35.85568421 42.8360238 36.99530837 44.25877235 38.125 45.6875 C40.0109788 48.09540732 40.0109788 48.09540732 42.4375 50.4375 C45 53 45 53 47.4375 56 C49.61800359 58.55278469 51.80773591 60.51684363 54.41015625 62.609375 C60.26534272 67.73086488 64.94411923 74.34365774 69.7890625 80.38671875 C72.065559 83.07748935 74.49476405 85.52277787 77 88 C78.18076932 89.32086059 79.34878861 90.65329988 80.5 92 C83.21699334 95.13453994 86.0262473 98.10450395 89 101 C91.80189676 103.73005325 94.43922565 106.49426368 96.9375 109.5 C98.93023993 111.87576008 100.95112817 113.87910577 103.375 115.8125 C104.24125 116.534375 105.1075 117.25625 106 118 C106 118.66 106 119.32 106 120 C106.54140625 120.2165625 107.0828125 120.433125 107.640625 120.65625 C110.81645344 122.46499997 113.20728081 124.91723799 115.75 127.5 C116.25660156 127.99886719 116.76320313 128.49773438 117.28515625 129.01171875 C121 132.74658861 121 132.74658861 121 135 C121.8971875 135.4021875 121.8971875 135.4021875 122.8125 135.8125 C124.99847854 136.99917406 126.41332594 138.09599113 128 140 C128 140.66 128 141.32 128 142 C128.556875 142.20625 129.11375 142.4125 129.6875 142.625 C132.22812201 144.13564012 133.76507497 145.93858175 135.55859375 148.26953125 C137.55716427 150.66889911 139.77777213 152.80701197 142 155 C143.29357422 156.31097656 143.29357422 156.31097656 144.61328125 157.6484375 C150.87937179 163.97800507 157.30722819 169.96711151 164.1875 175.625 C167 178 167 178 169.30078125 180.3359375 C172.07810477 183.07708748 174.97782305 185.53291678 178 188 C180.95319534 190.41077171 183.78945012 192.78678493 186.46875 195.5 C189.30203944 198.29831056 192.30912003 200.63090118 195.5 203 C199.66369275 206.09137281 203.35947491 209.28277017 207 213 C216.40363991 221.38249911 226.59566023 228.78819115 236.70166016 236.2890625 C238.68707345 237.76705022 240.66483192 239.25404701 242.63671875 240.75 C247.57072423 244.48998879 252.53407 248.0910085 257.72265625 251.46875 C260.37774168 253.25398754 262.93242368 255.15373314 265.5 257.0625 C269.34804573 259.87555412 273.17528065 262.37052248 277.3828125 264.6015625 C279.46157698 265.71230531 281.50983454 266.85265474 283.5546875 268.0234375 C290.5541218 272.03006416 297.60204011 275.95157215 304.75 279.6875 C305.41717041 280.05077393 306.08434082 280.41404785 306.77172852 280.78833008 C310.3060725 282.64832437 310.3060725 282.64832437 314.17578125 282.5390625 C316.61470129 280.48138692 318.47361932 278.20276486 320.4375 275.6875 C323.43257288 271.86943318 326.52133905 268.38495964 330 265 C330.556875 264.401875 331.11375 263.80375 331.6875 263.1875 C333 262 333 262 335 262 C335.2165625 261.45859375 335.433125 260.9171875 335.65625 260.359375 C337.46499997 257.18354656 339.91723799 254.79271919 342.5 252.25 C342.99886719 251.74339844 343.49773437 251.23679687 344.01171875 250.71484375 C347.74658861 247 347.74658861 247 350 247 C350.20625 246.443125 350.4125 245.88625 350.625 245.3125 C352.17031131 242.71356735 354.06597649 241.154633 356.41796875 239.2890625 C359.59912812 236.69700671 362.3717716 233.66412717 365.1875 230.6875 C367 229 367 229 369 229 C369.268125 228.401875 369.53625 227.80375 369.8125 227.1875 C370.99917406 225.00152146 372.09599113 223.58667406 374 222 C374.66 222 375.32 222 376 222 C376.25289795 221.42113037 376.5057959 220.84226074 376.76635742 220.24584961 C378.14619931 217.73384376 379.69756641 216.07521574 381.73828125 214.06640625 C382.84526367 212.9690918 382.84526367 212.9690918 383.97460938 211.84960938 C384.74611328 211.09486328 385.51761719 210.34011719 386.3125 209.5625 C387.45235352 208.43618164 387.45235352 208.43618164 388.61523438 207.28710938 C390.09221537 205.8280934 391.57211288 204.37202285 393.05517578 202.91918945 C394.58361424 201.41089737 396.08434323 199.87452083 397.57421875 198.328125 C400.69210135 195.33576102 404.03599058 192.76470969 407.5 190.1875 C408.56057617 189.39811035 408.56057617 189.39811035 409.64257812 188.59277344 C448.51448075 159.9899108 494.65654336 151.65132188 542.3125 156.625 C554.67975095 158.7105152 566.28910307 162.95644575 576 171 C576.96292969 171.74056641 576.96292969 171.74056641 577.9453125 172.49609375 C587.42014731 180.06365662 593.56899256 190.90282368 595 203 C596.72196835 231.506997 590.6848632 263.84890635 573 287 C571.90171875 288.5778125 571.90171875 288.5778125 570.78125 290.1875 C555.72054223 311.25489316 531.52471854 323.24291509 507 330 C505.75347656 330.35449219 504.50695312 330.70898438 503.22265625 331.07421875 C474.31053204 338.83894513 440.56395228 339.9475608 411 335 C410.0915332 334.84934082 409.18306641 334.69868164 408.24707031 334.54345703 C378.60834757 329.45037179 349.00038055 320.64138896 321.79370117 307.69042969 C319.85370685 306.82038704 319.85370685 306.82038704 317 307 C315.45178832 309.03679919 314.1296447 311.00714344 312.8125 313.1875 C312.41812744 313.82316895 312.02375488 314.45883789 311.61743164 315.11376953 C310.80017967 316.43335402 309.98731269 317.75566369 309.17871094 319.08056641 C308.11049914 320.82006126 307.01385005 322.5420135 305.9140625 324.26171875 C301.04543368 331.93029023 296.95205065 339.83381326 292.99121094 347.99121094 C292.04517295 349.90845246 291.0662249 351.80358447 290.0703125 353.6953125 C260.42627256 410.37740499 252.63006937 471.99145624 267 534 C267.25265625 535.1127832 267.5053125 536.22556641 267.765625 537.37207031 C272.99104177 560.18844282 279.61350404 582.4485404 291 603 C291.72775635 604.32644531 291.72775635 604.32644531 292.47021484 605.6796875 C298.9188266 617.39515628 305.62284824 628.84714065 313 640 C314.21181647 641.91446635 315.42031743 643.83103662 316.625 645.75 C319.40490757 650.12851493 322.32708813 654.38394389 325.328125 658.61328125 C326.87263147 660.81817249 328.34800096 663.05404502 329.8125 665.3125 C339.49629554 679.91545764 351.02054578 694.17696355 363.4921875 706.453125 C365.97925715 708.97893405 368.17231128 711.59977125 370.375 714.375 C374.01862192 718.87808091 377.82016545 722.99960279 382 727 C382.825 727.845625 383.65 728.69125 384.5 729.5625 C387.09907967 732.09660267 389.82292101 734.3878189 392.64453125 736.66796875 C393.09183594 737.10753906 393.53914063 737.54710938 394 738 C394 738.66 394 739.32 394 740 C394.52851563 740.2371875 395.05703125 740.474375 395.6015625 740.71875 C398.71948185 742.38434861 401.52151508 744.42675557 404.375 746.5 C405.29647827 747.16322266 405.29647827 747.16322266 406.23657227 747.83984375 C408.15959862 749.22397181 410.0800829 750.61156316 412 752 C432.98761166 767.17148967 454.51059797 780.94816408 478 792 C478.82314697 792.38897461 479.64629395 792.77794922 480.49438477 793.17871094 C518.9926895 811.05550025 562.23110738 820.34611827 604 827 C605.09248047 827.17934082 606.18496094 827.35868164 607.31054688 827.54345703 C638.48495206 832.47010895 672.90647605 832.44630255 704 827 C705.20930176 826.79068848 706.41860352 826.58137695 707.66455078 826.36572266 C759.54380284 817.19222958 813.17767406 802.71986152 860 778 C859.48050781 776.97003906 858.96101562 775.94007813 858.42578125 774.87890625 C851.45352605 760.7603405 846.70948469 746.72328358 845 731 C844.83371094 729.48599609 844.83371094 729.48599609 844.6640625 727.94140625 C840.09670245 678.50281973 854.97465395 626.52394646 886.44921875 587.921875 C892.41549488 581.08761077 898.69917788 574.52575351 905 568 C905.5261792 567.42950928 906.0523584 566.85901855 906.59448242 566.27124023 C908 565 908 565 910 565 C910.34611328 564.13181641 910.34611328 564.13181641 910.69921875 563.24609375 C912.32650233 560.4362197 914.22887195 559.01862019 916.8125 557.0625 C920.50192806 554.25496246 923.72613414 551.27879638 927 548 C952.10859922 525.62209809 989.53940102 505.96360428 1023.9296875 506.6953125 C1032.73360347 507.56898355 1039.14886389 512.6247219 1045 519 C1050.18342583 525.74765493 1053.55128594 532.87711518 1056 541 C1056.26151855 541.85984497 1056.26151855 541.85984497 1056.52832031 542.73706055 C1060.2514328 560.59913593 1057.24682003 581.8485425 1052 599 C1051.77538086 599.76876465 1051.55076172 600.5375293 1051.31933594 601.32958984 C1044.41842935 624.7394338 1033.5816063 646.76310547 1020 667 C1019.32582031 668.010625 1018.65164063 669.02125 1017.95703125 670.0625 C1013.90597428 676.02795027 1009.6874058 681.81804758 1005.25 687.5 C1004.80237305 688.07532471 1004.35474609 688.65064941 1003.89355469 689.2434082 C1001.13106115 692.73549125 998.18627733 695.87999724 995 699 C993.55022819 700.57210444 992.11262915 702.15552278 990.6875 703.75 C989.91277344 704.61496094 989.13804687 705.47992187 988.33984375 706.37109375 C986.82883311 708.06877349 985.32080088 709.76911099 983.81640625 711.47265625 C980.31530277 715.43704374 976.79327537 719.30924558 973 723 C972.26265625 723.73992188 971.5253125 724.47984375 970.765625 725.2421875 C958.97331636 737.00118453 946.56766553 747.32903824 933 757 C932.33500488 757.47421387 931.67000977 757.94842773 930.98486328 758.43701172 C916.756844 768.4726128 901.34200392 776.80801664 886 785 C888.80782104 790.61564207 892.53509781 795.20351442 896.64599609 799.91113281 C900 803.79761773 900 803.79761773 900 806 C900.598125 806.268125 901.19625 806.53625 901.8125 806.8125 C903.99847854 807.99917406 905.41332594 809.09599113 907 811 C907 811.66 907 812.32 907 813 C907.55171875 813.25136719 908.1034375 813.50273437 908.671875 813.76171875 C911.40751838 815.21675055 913.76783934 816.95797139 916.25 818.8125 C937.37120722 834.31814816 962.29610378 845.53009272 987 854 C987.78552246 854.27005859 988.57104492 854.54011719 989.38037109 854.81835938 C1063.06396956 879.61940436 1147.2266738 875.89910501 1223.61132812 868.32128906 C1224.50033813 868.23430756 1225.38934814 868.14732605 1226.30529785 868.05770874 C1227.94760441 867.89600189 1229.58950641 867.73009546 1231.23083496 867.55874634 C1236.83316069 867.00554502 1242.37246631 866.91471482 1248 867 C1248.02684679 869.64590014 1248.04676357 872.29153096 1248.0625 874.9375 C1248.07087891 875.69224609 1248.07925781 876.44699219 1248.08789062 877.22460938 C1248.09652441 879.14994313 1248.05224333 881.07535581 1248 883 C1245.90598228 885.09401772 1241.58611704 884.63667795 1238.69140625 884.90234375 C1237.38283913 885.02628258 1237.38283913 885.02628258 1236.0478363 885.15272522 C1234.17232077 885.32893932 1232.29658307 885.50280146 1230.4206543 885.67456055 C1227.68787149 885.92596629 1224.95626756 886.18787045 1222.22460938 886.45117188 C1194.28782726 889.08571068 1166.43039667 890.3453664 1138.3762207 890.26074219 C1134.56534547 890.24931803 1130.75474888 890.25616889 1126.94388294 890.26761913 C1101.63483399 890.33204519 1076.29357694 889.66625999 1051.1875 886.1875 C1049.28979858 885.93202393 1049.28979858 885.93202393 1047.35375977 885.67138672 C1027.21192304 882.87016238 1007.47558103 878.867643 988 873 C987.20658203 872.76168457 986.41316406 872.52336914 985.59570312 872.27783203 C966.12523148 866.33305475 948.03681295 857.34110545 930 848 C929.23848633 847.6066748 928.47697266 847.21334961 927.69238281 846.80810547 C917.57984032 841.52711106 908.74411497 835.31001315 900 828 C898.98164062 827.16984375 897.96328125 826.3396875 896.9140625 825.484375 C891.48736385 820.8578598 887.01529457 815.72354752 882.5625 810.1875 C881.74168945 809.17719727 881.74168945 809.17719727 880.90429688 808.14648438 C877.15725281 803.51256598 873.54428965 798.7905102 870 794 C866.6189968 795.32854781 863.29805747 796.74476609 859.9921875 798.25 C845.18421496 804.92776823 830.24191169 810.93779998 814.9173584 816.32489014 C812.92429848 817.02665482 810.93333685 817.73417951 808.94238281 818.44189453 C713.89947393 852.09503779 622.74154672 855.28481493 468 807 C448.52928544 797.62434802 429.87847444 786.64427982 412.47363281 773.82128906 C410.46167105 772.33991967 408.43811775 770.88457912 406.390625 769.453125 C400.095466 765.03711794 393.95169186 760.48047597 387.9375 755.6875 C387.0088916 754.95031738 387.0088916 754.95031738 386.06152344 754.19824219 C382.48514218 751.31873654 379.22033565 748.28162232 376 745 C374.989375 744.175 373.97875 743.35 372.9375 742.5 C370.18754889 740.15961608 368.2017103 737.84091652 366 735 C364.33760134 733.32907622 362.67026766 731.66305787 361 730 C359.19489655 728.09372556 357.40163041 726.1822821 355.625 724.25 C355.14530762 723.72849365 354.66561523 723.2069873 354.17138672 722.66967773 C350.77802099 718.94267857 347.62246298 715.09701122 344.6328125 711.03515625 C342.59755362 708.49838622 340.30606504 706.29208888 338 704 C320.91153179 684.82984567 306.841362 663.32978529 293.3515625 641.56152344 C290.09079939 636.30441015 286.7800385 631.10343143 283.28344727 625.99951172 C281.428617 623.10982941 279.96235146 620.07186836 278.4765625 616.98046875 C277.32658319 614.65921422 276.1377792 612.3865035 274.8984375 610.11328125 C264.47795092 590.97703698 257.72297725 570.9194761 252.5 549.8125 C252.30712402 549.03973724 252.11424805 548.26697449 251.91552734 547.47079468 C246.85473537 527.11609923 241.91839867 506.17069394 241.796875 485.109375 C241.78986069 484.2909613 241.78284637 483.47254761 241.77561951 482.6293335 C241.75821423 480.00283231 241.75176693 477.37655675 241.75 474.75 C241.74932526 473.85128174 241.74865051 472.95256348 241.74795532 472.02661133 C241.76379647 458.75557565 242.3443893 446.03235725 245 433 C245.345345 431.12268854 245.68901063 429.2450676 246.03125 427.3671875 C248.11799299 416.32858007 250.83778897 405.52874331 254 394.75 C254.3199292 393.65606934 254.6398584 392.56213867 254.96948242 391.43505859 C257.19566681 384.0743329 259.91789824 377.0420018 263 370 C263.35094727 369.18789062 263.70189453 368.37578125 264.06347656 367.5390625 C274.61313746 343.30860953 286.29019122 320.28531503 302 299 C298.1484725 295.78867278 293.74908316 293.70965836 289.3125 291.4375 C276.3964031 284.7242099 263.72492148 277.65990051 252 269 C250.59008594 267.97102223 249.17990257 266.94241343 247.76953125 265.9140625 C232.80791644 254.97387317 218.08162743 243.73389786 203.55175781 232.22705078 C202.06624918 231.05238647 200.57619507 229.88347737 199.0859375 228.71484375 C198.21195313 228.02519531 197.33796875 227.33554688 196.4375 226.625 C195.69371094 226.03976563 194.94992188 225.45453125 194.18359375 224.8515625 C192 223 192 223 189.7421875 220.69140625 C185.59751335 216.62348533 181.00940492 213.13324528 176.44335938 209.55273438 C175.74404297 208.99521484 175.04472656 208.43769531 174.32421875 207.86328125 C173.68572998 207.36094971 173.04724121 206.85861816 172.3894043 206.34106445 C171.93090088 205.89851318 171.47239746 205.45596191 171 205 C171 204.34 171 203.68 171 203 C170.43667969 202.74476563 169.87335938 202.48953125 169.29296875 202.2265625 C160.09825438 197.30809519 152.40174764 188.73390644 144.92700195 181.58544922 C142.07469984 178.86239153 139.27060319 176.21408717 136.17578125 173.765625 C134.01199387 172.00973291 132.62700326 170.35256999 131.0625 168.0625 C128.37487382 164.34117144 125.59972269 161.83382425 122 159 C118.36828339 155.5454403 115.20603817 151.84724581 112 148 C109.58003771 145.4590396 107.20383254 143.15908881 104.4375 141 C101.85522947 138.88121393 100.05109914 136.62797078 98 134 C94.80106781 130.62815256 91.41452143 127.58941401 87.84375 124.625 C83.03014113 120.38249727 78.7624352 115.60563751 74.44604492 110.86962891 C73.71671753 110.06984619 73.71671753 110.06984619 72.97265625 109.25390625 C72.48168457 108.71523926 71.99071289 108.17657227 71.48486328 107.62158203 C70.03782718 106.04131012 68.58136886 104.47038087 67.12109375 102.90234375 C62.08073316 97.47707656 57.27586522 91.9476171 52.70703125 86.11328125 C50.64057082 83.55503161 48.35542604 81.29176588 46 79 C44.33333333 77 42.66666667 75 41 73 C40.175 72.175 39.35 71.35 38.5 70.5 C36 68 36 68 33.5 64.9375 C31.15617795 61.99525535 31.15617795 61.99525535 28.5 60 C25.47473519 57.57978815 23.3464581 55.08391636 21 52 C21 51.34 21 50.68 21 50 C20.10571289 49.61279785 20.10571289 49.61279785 19.19335938 49.21777344 C16.81162312 47.89541141 15.60162842 46.63100985 13.90625 44.515625 C13.35066406 43.82726563 12.79507812 43.13890625 12.22265625 42.4296875 C11.65417969 41.71039062 11.08570313 40.99109375 10.5 40.25 C9.93152344 39.54617187 9.36304688 38.84234375 8.77734375 38.1171875 C7.66386703 36.7272792 6.56549848 35.32511793 5.48339844 33.91064453 C4.25553871 32.32913857 2.94226504 30.81436898 1.609375 29.3203125 C-0.99749744 23.94205624 -0.41570555 18.5075471 -0.25 12.625 C-0.23195313 11.41199219 -0.21390625 10.19898437 -0.1953125 8.94921875 C-0.14832216 5.9653321 -0.08263372 2.98307721 0 0 Z M477 176 C476.20722656 176.16628906 475.41445313 176.33257813 474.59765625 176.50390625 C452.4307052 181.29196768 433.16155937 191.35042402 415.66650391 205.64208984 C414.10383512 206.91539248 412.52698999 208.171241 410.94921875 209.42578125 C402.48586746 216.19341679 402.48586746 216.19341679 395 224 C395 224.66 395 225.32 395 226 C394.13375 226.3403125 394.13375 226.3403125 393.25 226.6875 C390.41565264 228.3408693 389.03237811 230.42963944 387 233 C385.01739574 234.68732277 383.0167658 236.35366057 381 238 C380.154375 238.845625 379.30875 239.69125 378.4375 240.5625 C376 243 376 243 373.4375 245 C370.91577013 246.92812084 370.91577013 246.92812084 369 249.5 C366.88958279 252.13802151 364.65677358 253.92642062 362 256 C360.31337542 257.64646685 358.64488294 259.31183067 357 261 C356.401875 261.556875 355.80375 262.11375 355.1875 262.6875 C353.77636223 263.95218271 353.77636223 263.95218271 354 266 C353.4225 266.226875 352.845 266.45375 352.25 266.6875 C349.42085466 268.33783478 348.01725404 270.43258577 346 273 C344.34997172 274.35386936 342.6825613 275.68678142 341 277 C336.41789042 281.22036409 332.74457324 286.0468037 329 291 C331.33701872 293.66693959 333.50570795 294.81364324 336.796875 296.0859375 C337.74731689 296.4567041 338.69775879 296.8274707 339.67700195 297.20947266 C340.69109131 297.59409668 341.70518066 297.9787207 342.75 298.375 C343.79696045 298.77638184 344.8439209 299.17776367 345.92260742 299.59130859 C348.94350738 300.74117401 351.96961132 301.87540667 355 303 C355.7027002 303.26103516 356.40540039 303.52207031 357.12939453 303.79101562 C382.02198638 312.88677271 409.46855692 320.05370268 436.109375 320.203125 C437.3706295 320.21364647 437.3706295 320.21364647 438.65736389 320.22438049 C441.35496438 320.24178417 444.05234544 320.24823238 446.75 320.25 C448.13159805 320.25101212 448.13159805 320.25101212 449.54110718 320.25204468 C462.91157725 320.23645985 475.89635959 319.89945735 489 317 C489.8367627 316.82307617 490.67352539 316.64615234 491.53564453 316.46386719 C507.69021377 312.98349674 521.86982525 307.71360776 536 299 C537.24672112 298.30657178 538.49620351 297.6180517 539.75 296.9375 C558.71305761 285.63260027 568.82372361 264.41101731 574.15625 243.58984375 C576.57110021 233.75133099 578.18876716 224.27434358 578.25 214.125 C578.2809375 212.85462891 578.2809375 212.85462891 578.3125 211.55859375 C578.37233797 201.79004537 575.40316695 193.44456113 569 186 C554.82713988 173.37327007 535.53808069 172.60782422 517.625 172.6875 C516.35793716 172.69023422 516.35793716 172.69023422 515.0652771 172.69302368 C502.1721876 172.73991098 489.63776515 173.2375281 477 176 Z M992 530 C991.26136719 530.24024902 990.52273438 530.48049805 989.76171875 530.72802734 C975.04687991 535.62258179 961.4483446 542.75999163 949 552 C946.4454604 553.74823949 943.88670811 555.48999947 941.32421875 557.2265625 C938.63552493 559.27810367 936.38171368 561.60027033 934 564 C931.01236607 566.54266718 927.97653881 569.01915199 924.9375 571.5 C922.13790144 573.88263707 919.56867771 576.37265755 917 579 C916.28199219 579.69480469 915.56398438 580.38960937 914.82421875 581.10546875 C909.38857202 586.40199473 904.63294743 591.99714614 900 598 C899.40316406 598.74121094 898.80632813 599.48242188 898.19140625 600.24609375 C878.85732275 624.40293305 869.37387869 652.12073978 863 682 C862.73058594 683.2375 862.46117187 684.475 862.18359375 685.75 C856.98953191 714.80768859 861.94509114 744.80045783 875 771 C879.30919542 769.69337169 882.99559728 768.02816525 886.88671875 765.76953125 C887.99080078 765.13080078 889.09488281 764.49207031 890.23242188 763.83398438 C890.8014624 763.50100342 891.37050293 763.16802246 891.95678711 762.82495117 C893.66237344 761.82719881 895.37314826 760.83833295 897.08398438 759.84960938 C904.16854783 755.73373705 911.1219085 751.45137296 918 747 C919.58748047 745.98679687 919.58748047 745.98679687 921.20703125 744.953125 C926.80197566 741.29585999 932.17444033 737.42762102 937.4375 733.3125 C938.01669189 732.86100586 938.59588379 732.40951172 939.19262695 731.94433594 C942.69892549 729.16377745 945.86303041 726.20066441 949 723 C950.15276391 721.98400469 951.31773189 720.9815056 952.5 720 C956.50754797 716.59965627 960.13015624 713.04381251 963.5 709 C966.54505026 705.34593969 969.86011327 702.07827123 973.3125 698.8125 C975.22713951 697.16877727 975.22713951 697.16877727 975 695 C975.60344238 694.73243896 976.20688477 694.46487793 976.82861328 694.18920898 C979.05284411 692.97105873 980.16488044 691.92864567 981.7421875 689.97265625 C982.24395508 689.35503418 982.74572266 688.73741211 983.26269531 688.10107422 C984.06078613 687.09197998 984.06078613 687.09197998 984.875 686.0625 C985.71949707 685.00699951 985.71949707 685.00699951 986.58105469 683.93017578 C1015.63674713 647.31808015 1044.47635686 600.8138443 1041 552 C1039.56433046 542.75259911 1036.51041603 533.9049867 1030 527 C1018.77405393 519.23838467 1003.70840791 526.17414772 992 530 Z " fill="#000000" transform="translate(0,2293)"/>
<path d="M0 0 C0.33 0 0.66 0 1 0 C1.14962358 4.94371648 1.25780553 9.88608255 1.32958984 14.83154297 C1.35954781 16.50951121 1.40033042 18.18732576 1.45263672 19.86474609 C1.7676704 30.23614907 1.67882534 37.52369573 -5 46 C-5.99486638 47.80393029 -6.97790556 49.61456223 -7.9375 51.4375 C-13.42232903 61.52341323 -19.90585212 70.696372 -26.74853516 79.89306641 C-30.04895127 84.33234006 -33.27371292 88.79463754 -36.375 93.375 C-42.86609177 102.86291357 -49.99229531 111.89165994 -57 121 C-57.92091946 122.20155739 -58.84154235 123.40334221 -59.76171875 124.60546875 C-62.16725299 127.74260349 -64.58068079 130.87349517 -67 134 C-67.83990479 135.08571289 -67.83990479 135.08571289 -68.69677734 136.19335938 C-70.56710489 138.60930218 -72.43946669 141.02365445 -74.3125 143.4375 C-75.19349365 144.57481567 -75.19349365 144.57481567 -76.09228516 145.73510742 C-77.72016727 147.82985998 -79.35717291 149.91695505 -81 152 C-81.48130371 152.61633301 -81.96260742 153.23266602 -82.45849609 153.86767578 C-83.59200298 155.28404095 -84.78987231 156.64851226 -86 158 C-86.66 158 -87.32 158 -88 158 C-88.39251953 158.85078125 -88.39251953 158.85078125 -88.79296875 159.71875 C-92.0198311 165.81741541 -96.52586654 170.85741252 -102 175 C-103.35386936 176.65002828 -104.68678142 178.3174387 -106 180 C-108.3750725 182.49687109 -110.70537719 184.77336707 -113.4375 186.875 C-116.25183818 189.20884142 -118.39767732 191.75803273 -120.66796875 194.609375 C-121.10753906 195.06828125 -121.54710937 195.5271875 -122 196 C-122.66 196 -123.32 196 -124 196 C-124.226875 196.5775 -124.45375 197.155 -124.6875 197.75 C-126.33783478 200.57914534 -128.43258577 201.98274596 -131 204 C-132.35386936 205.65002828 -133.68678142 207.3174387 -135 209 C-138.24726899 212.42279704 -141.70528143 215.48169145 -145.30078125 218.5234375 C-148.45407756 221.26354326 -151.31908047 224.28017078 -154.1875 227.3125 C-156 229 -156 229 -158 229 C-158.226875 229.5775 -158.45375 230.155 -158.6875 230.75 C-160.33783478 233.57914534 -162.43258577 234.98274596 -165 237 C-165.598125 237.763125 -166.19625 238.52625 -166.8125 239.3125 C-169.82243504 243.01042019 -173.36562537 245.93051881 -177 249 C-181.86962029 253.11807744 -181.86962029 253.11807744 -186.5 257.5 C-188.94842766 259.94842766 -191.49470614 262.16541642 -194.15625 264.375 C-195.57947055 265.62936387 -196.93797787 266.9573843 -198.265625 268.3125 C-201.43788949 271.43038281 -204.78830175 274.21252044 -208.25 277 C-208.94818848 277.56468994 -209.64637695 278.12937988 -210.36572266 278.71118164 C-216.70294379 283.81078576 -223.15538754 288.75248941 -229.6328125 293.671875 C-234.96418784 297.72400935 -240.24297819 301.84296571 -245.52392578 305.96044922 C-251.06102911 310.27572189 -256.62272891 314.55729442 -262.203125 318.81640625 C-264.26824884 320.42870265 -266.25177237 322.06983623 -268.234375 323.77734375 C-271 326 -271 326 -273 326 C-273.32484375 326.85464844 -273.32484375 326.85464844 -273.65625 327.7265625 C-275.45420669 330.76845435 -277.65904725 332.27298193 -280.5 334.375 C-281.67527522 335.25284148 -282.84970593 336.13181437 -284.0234375 337.01171875 C-284.65991211 337.48657715 -285.29638672 337.96143555 -285.95214844 338.45068359 C-288.1494172 340.11304263 -290.31495838 341.81107712 -292.4765625 343.51953125 C-299.59052149 349.13968646 -306.62363409 354.65337311 -314.37890625 359.375 C-317.97121594 361.60212493 -321.4138215 364.02915832 -324.87744141 366.44995117 C-329.73913128 369.83881394 -334.66612215 373.12343327 -339.60644531 376.39624023 C-344.01695481 379.32489668 -348.36137067 382.33301726 -352.65625 385.4296875 C-355.09951695 387.06667636 -357.62695988 388.50301215 -360.18798828 389.94628906 C-363.10827885 391.64448013 -365.89353887 393.54195864 -368.6875 395.4375 C-404.32423061 419.38647528 -404.32423061 419.38647528 -418.625 426.33203125 C-421.8783182 427.93986328 -425.08384664 429.6163595 -428.28759766 431.31982422 C-450.50981762 443.13422777 -473.06680373 454.14189541 -496.13952637 464.18804932 C-497.88859237 464.95137931 -499.6343567 465.72226194 -501.37988281 466.49365234 C-554.15825173 489.60300421 -611.89751491 503.94141814 -668.375 514.5 C-669.63592468 514.737117 -670.89684937 514.97423401 -672.19598389 515.21853638 C-713.68019899 523.01585114 -754.78279117 529.85732048 -797 532 C-798.54469971 532.08677002 -798.54469971 532.08677002 -800.12060547 532.17529297 C-896.19641855 537.55630494 -896.19641855 537.55630494 -938.921875 522.41796875 C-941.65721294 521.86781619 -943.34513343 522.13150876 -946 523 C-948.33770105 524.74756036 -948.33770105 524.74756036 -950.5625 527 C-955.47346421 531.58787445 -960.63878361 535.56739982 -966.04589844 539.54785156 C-970.20558371 542.63903197 -974.31744944 545.79381654 -978.4375 548.9375 C-979.80128784 549.97741089 -979.80128784 549.97741089 -981.19262695 551.03833008 C-992.99711748 559.94043014 -992.99711748 559.94043014 -1004.58203125 569.12109375 C-1006.73824182 570.79659825 -1008.76983662 572.0651127 -1011.1875 573.3125 C-1014.54249329 575.12541235 -1017.6486305 577.09363402 -1020.75 579.3125 C-1040.12615121 593.09371393 -1061.54700907 604.36191706 -1082.44873047 615.6237793 C-1091.36559501 620.43350305 -1091.36559501 620.43350305 -1100.203125 625.38671875 C-1117.36520493 635.17528922 -1135.34566481 643.25674569 -1153.26919556 651.5333252 C-1159.92318216 654.60654629 -1166.54123779 657.71678583 -1173.0625 661.0625 C-1193.43231676 671.42343704 -1214.66166044 679.79369721 -1236.01513672 687.86181641 C-1237.92593979 688.59044097 -1239.82523593 689.35048343 -1241.70751953 690.14990234 C-1244 691 -1244 691 -1247 691 C-1247 685.06 -1247 679.12 -1247 673 C-1245.84371094 672.57332031 -1244.68742187 672.14664063 -1243.49609375 671.70703125 C-1218.41661391 662.35810407 -1194.12113503 651.78017588 -1170.12257385 639.95556641 C-1169.41181198 639.6054248 -1168.70105011 639.2552832 -1167.96875 638.89453125 C-1167.27188583 638.55115723 -1166.57502167 638.2077832 -1165.85704041 637.85400391 C-1160.2297624 635.09090882 -1154.54755221 632.46974964 -1148.8125 629.9375 C-1141.24721997 626.58751743 -1133.82037296 623.04448075 -1126.4609375 619.26367188 C-1124.61623752 618.31643307 -1122.76954973 617.37306373 -1120.921875 616.43164062 C-1103.53170688 607.60406069 -1103.53170688 607.60406069 -1086.65942383 597.83789062 C-1083.54381091 595.9116271 -1080.42590248 594.1499987 -1077.125 592.5625 C-1070.31263615 589.26836353 -1063.878838 585.30433107 -1057.38867188 581.42529297 C-1054.92460611 579.95501334 -1052.45483146 578.4946684 -1049.984375 577.03515625 C-1033.5125695 567.27350225 -1018.10647482 556.75886379 -1003 545 C-986.33942279 532.04136803 -986.33942279 532.04136803 -977.5703125 526.69140625 C-973.57464381 524.06203765 -969.96331243 521.00099495 -966.3125 517.91796875 C-964 516 -964 516 -961 514 C-961.95519531 513.50371094 -962.91039062 513.00742188 -963.89453125 512.49609375 C-985.73041757 501.05973243 -985.73041757 501.05973243 -990 496 C-990 495.34 -990 494.68 -990 494 C-990.57105469 493.74734375 -991.14210938 493.4946875 -991.73046875 493.234375 C-1001.88696322 487.7103608 -1007.31379282 476.86263218 -1010.91015625 466.3359375 C-1014.87082997 450.23094635 -1008.52697641 431.32713149 -1000.94921875 417.125 C-994.00347588 405.98954049 -984.4253083 398.97924468 -973 393 C-972.2059375 392.55398438 -971.411875 392.10796875 -970.59375 391.6484375 C-958.94793732 385.34643127 -942.69916985 383.24065131 -929.80078125 386.91015625 C-927.32551874 388.08903319 -925.21154419 389.38570258 -923 391 C-922.37222656 391.38800781 -921.74445313 391.77601563 -921.09765625 392.17578125 C-912.84449442 398.00897878 -908.27015932 410.54335677 -906.390625 420.09765625 C-904.85696796 435.41889011 -905.15039202 451.06418191 -909 466 C-909.29003906 467.2065625 -909.58007812 468.413125 -909.87890625 469.65625 C-913.0890031 482.01310815 -918.76589796 492.11404152 -926.14453125 502.3828125 C-927.97641642 504.82577756 -927.97641642 504.82577756 -929 507 C-920.17426633 509.45922141 -911.38824593 511.39662093 -902.3125 512.6875 C-901.48339111 512.80649658 -900.65428223 512.92549316 -899.80004883 513.0480957 C-888.00964457 514.64556476 -876.26489777 515.15665848 -864.375 515.16796875 C-862.99242086 515.17209399 -861.60984232 515.1764224 -860.2272644 515.18093872 C-855.81816152 515.19258515 -851.40911316 515.19137745 -847 515.1875 C-846.24792519 515.18708584 -845.49585037 515.18667168 -844.72098541 515.18624496 C-790.68703621 515.14889501 -739.09566858 509.41014679 -685.94873047 499.54675293 C-683.13427689 499.02489759 -680.31921956 498.50645244 -677.50390625 497.98925781 C-640.25787933 491.13809818 -604.16013272 482.26288067 -568 471 C-567.23743896 470.76263123 -566.47487793 470.52526245 -565.68920898 470.28070068 C-539.95948209 462.25612949 -514.27059925 453.9104426 -490.02685547 441.99121094 C-486.61118373 440.32081498 -483.17596039 438.69133864 -479.74414062 437.05444336 C-476.75577254 435.62775589 -473.77044977 434.19482625 -470.78515625 432.76171875 C-467.17794487 431.03367395 -463.56304203 429.32534993 -459.93359375 427.64453125 C-451.18086723 423.58187781 -442.66589278 419.27230229 -434.26953125 414.51269531 C-430.29655 412.26168962 -426.3179103 410.1415468 -422.1875 408.1875 C-408.46350617 401.46905951 -395.62220299 392.57618175 -383 384 C-380.66991999 382.43261885 -378.33556334 380.87169624 -376 379.3125 C-375.38205566 378.8997583 -374.76411133 378.4870166 -374.12744141 378.06176758 C-368.77888466 374.4989799 -363.39226645 370.99616897 -358 367.5 C-345.19027373 359.18726674 -332.52510991 350.73687099 -320.08203125 341.8828125 C-317.53682071 340.07545653 -314.97741102 338.29619643 -312.38671875 336.5546875 C-306.39409405 332.52124003 -300.92241734 328.28293281 -295.62890625 323.36328125 C-290.96414288 319.16984613 -285.96890986 315.38719832 -281.00830078 311.55371094 C-278.85434707 309.8873164 -276.70601941 308.21386009 -274.55859375 306.5390625 C-264.72014727 298.86860401 -254.84284035 291.25026114 -244.9453125 283.65625 C-242.26041238 281.59403245 -239.57773881 279.52900957 -236.89697266 277.46142578 C-235.5174237 276.39862269 -234.13673747 275.33729531 -232.75537109 274.27685547 C-230.33418841 272.41724924 -227.91685216 270.55272972 -225.5 268.6875 C-224.35108276 267.80723145 -224.35108276 267.80723145 -223.17895508 266.90917969 C-219.17642993 263.81256131 -215.5398368 260.62922662 -212 257 C-210.14701135 255.39096224 -208.2717992 253.80715196 -206.375 252.25 C-205.43398437 251.47140625 -204.49296875 250.6928125 -203.5234375 249.890625 C-201 248 -201 248 -198 247 C-197.31035341 245.67840634 -196.64580126 244.34356353 -196 243 C-194.44921875 241.47265625 -194.44921875 241.47265625 -192.6875 240.0625 C-190.45746349 238.22953003 -188.42396512 236.42396512 -186.375 234.375 C-184 232 -184 232 -181.4375 230 C-178.85522947 227.88121393 -177.05109914 225.62797078 -175 223 C-170.96749302 218.74346485 -166.66095865 214.5703149 -162 211 C-161.34 211 -160.68 211 -160 211 C-159.773125 210.4225 -159.54625 209.845 -159.3125 209.25 C-157.6591307 206.41565264 -155.57036056 205.03237811 -153 203 C-151.31267723 201.01739574 -149.64633943 199.0167658 -148 197 C-145.58003771 194.4590396 -143.20383254 192.15908881 -140.4375 190 C-137.85522947 187.88121393 -136.05109914 185.62797078 -134 183 C-131.42801937 180.29265197 -128.8321726 177.86299804 -125.9375 175.5 C-123.18754889 173.15961608 -121.2017103 170.84091652 -119 168 C-116.7809132 165.7192719 -114.51614328 163.49463731 -112.21875 161.29296875 C-107.50370775 156.69954465 -103.32400982 151.83707443 -99.20703125 146.703125 C-97.26765814 144.327822 -95.2648927 142.06623452 -93.1875 139.8125 C-89.10088273 135.26644055 -85.48718045 130.41788018 -81.85546875 125.50830078 C-78.48147628 120.95235657 -75.0312925 116.46787112 -71.52197266 112.01538086 C-66.64550262 105.82731301 -62.04373114 99.69876634 -57.95703125 92.953125 C-55.25422816 88.8746437 -52.22172295 85.08542117 -49.1875 81.25 C-43.0123892 73.42477052 -37.33846825 65.41483285 -32 57 C-31.02546875 55.47439453 -31.02546875 55.47439453 -30.03125 53.91796875 C-19.09668166 36.46299183 -9.38830549 18.3212832 0 0 Z M-982.2578125 418.87890625 C-990.40378335 428.79653444 -995.73830871 446.16478696 -995 459 C-992.20442498 472.88012773 -981.90533289 481.95869377 -970.66796875 489.58203125 C-963.47801442 494.10109044 -955.72730145 497.51756281 -948 501 C-929.64818226 482.93393721 -922.89439101 462.19845976 -922.6875 436.875 C-922.65849609 435.71484375 -922.62949219 434.5546875 -922.59960938 433.359375 C-922.52313039 422.84057363 -924.23792073 413.16237289 -931.53515625 405.20703125 C-945.16254489 393.97806301 -972.22391024 409.5319724 -982.2578125 418.87890625 Z " fill="#000000" transform="translate(1247,1021)"/>
<path d="M0 0 C0.33 0 0.66 0 1 0 C2.80979742 43.87134561 2.80979742 43.87134561 -6.78613281 58.14794922 C-8.76404564 61.16573817 -10.29553366 64.38641657 -11.875 67.625 C-12.19202881 68.25148437 -12.50905762 68.87796875 -12.83569336 69.5234375 C-16.5167211 76.8403934 -19.73262017 84.36625215 -23.00561523 91.87182617 C-26.21719429 99.23635717 -29.53666823 106.52998513 -32.96582031 113.79589844 C-35.27045821 118.70767156 -37.53849325 123.63649382 -39.8125 128.5625 C-40.33046143 129.68269531 -40.84842285 130.80289063 -41.38208008 131.95703125 C-43.82984932 137.2590695 -46.2624411 142.56653325 -48.64453125 147.8984375 C-53.30334341 158.31518933 -58.23095384 168.48889713 -63.62890625 178.54296875 C-65.86561032 182.71436325 -67.97644222 186.93928139 -70.0625 191.1875 C-73.05220349 197.25275741 -76.29280671 203.13717684 -79.64697266 209.00732422 C-82.58599533 214.18308057 -85.28266926 219.44967126 -87.91015625 224.7890625 C-90.51717172 230.07494033 -93.23908166 235.29302327 -96 240.5 C-99.09429842 246.34041487 -102.12962787 252.20184946 -105.0625 258.125 C-111.32414983 270.74591653 -118.00837121 283.11830012 -124.953125 295.375 C-126.64327543 298.35979949 -128.30138817 301.36014224 -129.9375 304.375 C-132.62583019 309.32363016 -135.33768504 314.25888636 -138.0625 319.1875 C-138.4742749 319.93628418 -138.8860498 320.68506836 -139.31030273 321.45654297 C-141.71663298 325.80107941 -144.24408307 330.03637077 -146.89916992 334.2331543 C-148.23654039 336.3796502 -149.44412209 338.57645053 -150.625 340.8125 C-157.62968873 353.79283814 -165.13799273 366.52162373 -173 379 C-174.04220703 380.65515625 -174.04220703 380.65515625 -175.10546875 382.34375 C-183.15633081 395.0377494 -191.75377475 407.3587722 -200.53125 419.55859375 C-202.21215289 421.89518217 -203.87723687 424.24195985 -205.53125 426.59765625 C-210.73530112 433.99220086 -216.18033939 441.07183261 -222 448 C-222.87085043 449.05641978 -223.74060617 450.11374271 -224.609375 451.171875 C-228.57202427 455.98014085 -232.54362372 460.63410852 -237 465 C-237.556875 465.598125 -238.11375 466.19625 -238.6875 466.8125 C-240 468 -240 468 -242 468 C-242.2475 468.58265625 -242.495 469.1653125 -242.75 469.765625 C-244.18525446 472.33114236 -245.77663013 473.83724798 -248 475.75 C-248.70125 476.36359375 -249.4025 476.9771875 -250.125 477.609375 C-252 479 -252 479 -254 479 C-254.39940796 479.90431763 -254.39940796 479.90431763 -254.80688477 480.8269043 C-256.03889986 483.07085076 -257.10636578 484.18677358 -259.08984375 485.76953125 C-259.70335693 486.26227539 -260.31687012 486.75501953 -260.94897461 487.26269531 C-261.60518799 487.77413086 -262.26140137 488.28556641 -262.9375 488.8125 C-263.61627197 489.34584961 -264.29504395 489.87919922 -264.99438477 490.42871094 C-290.72136955 510.41260421 -324.93833417 525.07939178 -358 521 C-363.90518385 519.4008236 -368.92156811 516.32458727 -374 513 C-374.95390625 512.42636719 -375.9078125 511.85273438 -376.890625 511.26171875 C-379.64407504 509.57502932 -382.31962787 507.8004148 -385 506 C-386.2179026 505.20573037 -387.4367122 504.41285038 -388.65625 503.62109375 C-400.40671529 495.95395579 -410.78719159 488.22777329 -419.3125 476.9375 C-428.83754574 466.52640349 -442.43445089 461.02332905 -456.33984375 459.79296875 C-467.28095561 460.22083346 -477.60880203 468.1554098 -485.88671875 474.61328125 C-508.11216787 491.65186269 -532.43778319 504.56294605 -561.0625 504.5 C-562.23876953 504.52835938 -563.41503906 504.55671875 -564.62695312 504.5859375 C-575.96262582 504.61100256 -585.10378021 501.51425623 -593.37890625 493.6484375 C-593.91386719 493.10445312 -594.44882812 492.56046875 -595 492 C-595.84884766 491.21496094 -595.84884766 491.21496094 -596.71484375 490.4140625 C-598 489 -598 489 -598 487 C-598.58322021 486.72905518 -599.16644043 486.45811035 -599.76733398 486.17895508 C-601.98765958 485.00651634 -603.77313818 483.71307009 -605.72265625 482.13671875 C-616.98435635 473.08185222 -616.98435635 473.08185222 -630 467 C-630.89203125 466.68675781 -631.7840625 466.37351563 -632.703125 466.05078125 C-638.78743196 464.21385251 -644.6852341 463.7024696 -651 463.625 C-651.71099854 463.61106201 -652.42199707 463.59712402 -653.15454102 463.58276367 C-664.367545 463.68044455 -673.91542355 467.50380881 -683.625 472.8125 C-684.5840625 473.32103516 -685.543125 473.82957031 -686.53125 474.35351562 C-695.49626945 479.14579228 -704.19092998 484.03831512 -712.0625 490.5 C-713.27178746 491.46561173 -714.48272001 492.42916693 -715.6953125 493.390625 C-716.26668945 493.84373047 -716.83806641 494.29683594 -717.42675781 494.76367188 C-733.76342752 507.60179965 -754.12180832 515.3098854 -775 513 C-779.26237076 512.12591936 -783.03989596 510.78735302 -787 509 C-787.92425781 508.5875 -788.84851563 508.175 -789.80078125 507.75 C-804.38539546 500.80306603 -817.58190318 492.2827098 -830 482 C-830.85078125 481.33742187 -831.7015625 480.67484375 -832.578125 479.9921875 C-835.2302652 477.8105883 -837.58955651 475.44449999 -840 473 C-857.39698362 456.50637734 -886.06141774 448.56456162 -909.74511719 448.49365234 C-919.75010352 448.76168134 -929.37939283 451.59394613 -938.98388672 454.19726562 C-941.64872709 454.9065092 -944.31718545 455.5522388 -947.00390625 456.171875 C-959.10388138 459.11138919 -970.28655372 463.947961 -981.625 469 C-982.4041275 469.34697937 -983.183255 469.69395874 -983.98599243 470.05145264 C-998.61803894 476.60188257 -1012.50413452 483.88106998 -1025.5625 493.25 C-1031.72057855 497.61771067 -1038.20285744 501.44986207 -1044.65625 505.359375 C-1050.67711399 509.0082262 -1056.60514626 512.79836079 -1062.51171875 516.62890625 C-1068.77853365 520.66627131 -1075.16041638 524.47191988 -1081.59350586 528.23535156 C-1089.83308617 533.06075125 -1097.98127569 538.01236852 -1105.96704102 543.25024414 C-1112.32960267 547.40979027 -1118.82445425 551.20616385 -1125.49414062 554.8515625 C-1131.17056202 557.96063978 -1136.77535076 561.17871612 -1142.3659668 564.43945312 C-1169.49837335 580.25023733 -1197.55493626 594.09420869 -1226.3125 606.6875 C-1227.00648895 606.99185974 -1227.70047791 607.29621948 -1228.41549683 607.60980225 C-1230.39649516 608.47666771 -1232.37938803 609.33900176 -1234.36328125 610.19921875 C-1235.50063721 610.69252686 -1236.63799316 611.18583496 -1237.80981445 611.6940918 C-1240.82272048 612.92743031 -1243.91149649 613.97049883 -1247 615 C-1247 608.73 -1247 602.46 -1247 596 C-1245.17855469 595.23429687 -1245.17855469 595.23429687 -1243.3203125 594.453125 C-1223.88896161 586.23313071 -1204.65726779 577.54350976 -1185.86523438 567.94433594 C-1183.86021751 566.92923054 -1181.84558363 565.93544773 -1179.828125 564.9453125 C-1173.27590741 561.72376763 -1166.8594759 558.44987066 -1160.64453125 554.60546875 C-1157.36883809 552.61682785 -1154.03204078 550.74431023 -1150.6875 548.875 C-1131.42036327 538.21075067 -1131.42036327 538.21075067 -1112.65625 526.703125 C-1109.35350213 524.58548078 -1105.99412296 522.57229336 -1102.625 520.5625 C-1096.88700334 517.13727097 -1091.18057192 513.66600529 -1085.49609375 510.15234375 C-1082.93290194 508.57013576 -1080.36101669 507.00290223 -1077.78515625 505.44140625 C-1069.45834981 500.38856519 -1061.20935124 495.24281851 -1053.05273438 489.91918945 C-1048.82575288 487.16463287 -1044.5644019 484.49057378 -1040.25 481.875 C-1034.79119172 478.54928409 -1029.56603011 474.98082675 -1024.36328125 471.2734375 C-1015.67611841 465.31058811 -1006.55682608 460.76728582 -996.97045898 456.46826172 C-994.83052686 455.50808853 -992.69528653 454.53806052 -990.56054688 453.56640625 C-986.38908145 451.67520189 -982.19958979 449.82779381 -978 448 C-977.37990051 447.72757477 -976.75980103 447.45514954 -976.12091064 447.17446899 C-966.2403822 442.87185066 -956.24265351 439.9404843 -945.81005859 437.32983398 C-943.23544035 436.6838469 -940.66658493 436.01782359 -938.09765625 435.34960938 C-929.75427525 433.21111201 -921.65096612 431.28582274 -913 431 C-912.18337891 430.96366455 -911.36675781 430.9273291 -910.52539062 430.88989258 C-882.56749512 429.91210652 -853.03839744 440.39869984 -831.4375 457.6875 C-830.72150635 458.25863525 -830.0055127 458.82977051 -829.26782227 459.41821289 C-828.60065186 459.96469482 -827.93348145 460.51117676 -827.24609375 461.07421875 C-826.34395142 461.81031372 -826.34395142 461.81031372 -825.42358398 462.5612793 C-824 464 -824 464 -823 467 C-821.68728221 467.70639523 -820.34882408 468.36525925 -819 469 C-817.27520797 470.31197295 -815.56907709 471.64859947 -813.875 473 C-806.1468866 478.96893784 -797.613385 483.45371404 -789 488 C-788.38995117 488.32693848 -787.77990234 488.65387695 -787.15136719 488.99072266 C-776.12580999 494.88566961 -767.61646715 497.34058658 -755.19140625 494.31640625 C-749.06319294 492.44551345 -743.31200041 489.86081328 -737.5625 487.0625 C-736.88807861 486.73886475 -736.21365723 486.41522949 -735.51879883 486.08178711 C-731.24941282 483.92974322 -728.3096123 481.51404578 -725 478 C-714.90397163 469.89405415 -703.75458542 463.13963401 -692.11328125 457.51171875 C-689.86108774 456.41811914 -687.63709735 455.30127948 -685.41796875 454.14453125 C-684.80751709 453.82943604 -684.19706543 453.51434082 -683.56811523 453.18969727 C-681.8507636 452.30207991 -680.136228 451.40902022 -678.421875 450.515625 C-671.16023294 447.29928126 -664.22179803 446.57382529 -656.375 446.25 C-655.4051416 446.20979736 -654.4352832 446.16959473 -653.43603516 446.12817383 C-630.13163119 445.38985868 -613.78772675 453.82993403 -596 468 C-594.96617187 468.8146875 -593.93234375 469.629375 -592.8671875 470.46875 C-585.50442478 476.35896018 -585.50442478 476.35896018 -582.9375 479.62109375 C-581.03428995 481.95789803 -579.75194066 482.99315248 -577.0625 484.25 C-576.41410156 484.56453125 -575.76570312 484.8790625 -575.09765625 485.203125 C-564.7689184 489.12689133 -553.59965474 487.21342616 -543.1875 484.75 C-541.88135742 484.44328369 -541.88135742 484.44328369 -540.54882812 484.13037109 C-524.28731142 480.04025957 -509.40524902 470.70484839 -496.1875 460.625 C-480.82480465 448.9835793 -467.7862243 441.21967404 -448 443 C-431.94151819 445.29949858 -415.87002743 453.99834461 -406 467 C-403.60921957 469.45054994 -401.17449843 471.83493392 -398.6875 474.1875 C-397 476 -397 476 -397 478 C-396.4220166 478.28141846 -395.8440332 478.56283691 -395.24853516 478.8527832 C-391.50493741 480.76279035 -387.95898904 482.9961614 -384.375 485.1875 C-383.16275757 485.92734131 -383.16275757 485.92734131 -381.92602539 486.68212891 C-376.87639627 489.78608057 -371.99020421 493.04093273 -367.17578125 496.5 C-355.80800296 504.33703207 -346.89910036 505.02963108 -333.5 502.6875 C-307.85248043 497.96808895 -281.30928924 484.7787582 -263 466 C-261.84210108 464.9898608 -260.67483116 463.9903953 -259.5 463 C-254.76114724 458.97760446 -250.59090457 454.62086233 -246.625 449.84375 C-245.36333247 448.41224262 -244.02692992 447.04645641 -242.6640625 445.7109375 C-239.67309487 442.66734287 -237.02260807 439.46612299 -234.375 436.125 C-233.85719971 435.47370117 -233.33939941 434.82240234 -232.8059082 434.15136719 C-225.29625891 424.64363312 -218.12374869 414.98093388 -211.7421875 404.67578125 C-209.78838964 401.67499305 -207.67106707 398.84724115 -205.5 396 C-201.3288393 390.51348172 -197.61668275 384.86203995 -194 379 C-193.20930428 377.73637109 -192.41757152 376.47339071 -191.625 375.2109375 C-186.36977569 366.83615056 -181.15564294 358.43650662 -176 350 C-175.46632813 349.12859375 -174.93265625 348.2571875 -174.3828125 347.359375 C-171.3385793 342.34348818 -168.47418007 337.25452263 -165.68359375 332.09375 C-160.19800531 322.01350395 -154.50577024 312.05403896 -148.62597656 302.19873047 C-142.96437703 292.66576985 -137.84260782 282.84514166 -132.75 273 C-128.79008926 265.36476359 -124.82251543 257.73405656 -120.8125 250.125 C-120.41337402 249.36727295 -120.01424805 248.6095459 -119.60302734 247.82885742 C-117.55322368 243.93973218 -115.49885727 240.05305328 -113.44140625 236.16796875 C-109.59578754 228.89728883 -105.77697142 221.62017031 -102.125 214.25 C-98.8724784 207.6864582 -95.51613741 201.18046324 -92.125 194.6875 C-91.60736084 193.69588867 -91.08972168 192.70427734 -90.55639648 191.68261719 C-88.23456645 187.24312994 -85.90402848 182.80911534 -83.53515625 178.39453125 C-71.7325223 156.35411797 -61.21086177 133.72161081 -51.13134766 110.85253906 C-38.80636214 82.89635781 -26.21859867 54.96033885 -12.3125 27.75 C-7.73897291 18.71615193 -3.91334279 9.33377014 0 0 Z " fill="#000000" transform="translate(1247,4085)"/>
<path d="M0 0 C3.93673644 1.31224548 6.22719294 2.91910327 9 6 C4.545 6.495 4.545 6.495 0 7 C0 4.69 0 2.38 0 0 Z " fill="#000000" transform="translate(0,4004)"/>
<path d="M0 0 C0.33 0.99 0.66 1.98 1 3 C-4.75 2.25 -4.75 2.25 -7 0 C-4.3333581 -1.33332095 -2.83319697 -0.67102033 0 0 Z " fill="#000000" transform="translate(656,2436)"/>
<path d="M0 0 C0 0.33 0 0.66 0 1 C-2.97 1 -5.94 1 -9 1 C-9 0.67 -9 0.34 -9 0 C-5.62182575 -0.84454356 -3.32534757 -1.10844919 0 0 Z " fill="#000000" transform="translate(906,4074)"/>
<path d="M0 0 C2.475 0.99 2.475 0.99 5 2 C4.01 2.495 4.01 2.495 3 3 C2.01 2.01 1.02 1.02 0 0 Z " fill="#000000" transform="translate(1069,4683)"/>
<path d="M0 0 C4 1 4 1 4 1 Z " fill="#000000" transform="translate(801,1051)"/>
<path d="M0 0 C3 1 3 1 3 1 Z " fill="#000000" transform="translate(202,3161)"/>
<path d="M0 0 C3 1 3 1 3 1 Z " fill="#000000" transform="translate(199,3160)"/>
<path d="M0 0 C2 1 2 1 2 1 Z " fill="#000000" transform="translate(1074,4686)"/>
<path d="M0 0 C2 1 2 1 2 1 Z " fill="#000000" transform="translate(205,3162)"/>
<path d="M0 0 C2 1 2 1 2 1 Z " fill="#000000" transform="translate(232,2605)"/>
<path d="M0 0 C2 1 2 1 2 1 Z " fill="#000000" transform="translate(235,2603)"/>
<path d="M0 0 C2 1 2 1 2 1 Z " fill="#000000" transform="translate(97,2482)"/>
<path d="M0 0 C2 1 2 1 2 1 Z " fill="#000000" transform="translate(805,1050)"/>
<path d="" fill="#000000" transform="translate(0,0)"/>
<path d="" fill="#000000" transform="translate(0,0)"/>
<path d="" fill="#000000" transform="translate(0,0)"/>
<path d="" fill="#000000" transform="translate(0,0)"/>
<path d="" fill="#000000" transform="translate(0,0)"/>
<path d="" fill="#000000" transform="translate(0,0)"/>
<path d="" fill="#000000" transform="translate(0,0)"/>
<path d="" fill="#000000" transform="translate(0,0)"/>
<path d="" fill="#000000" transform="translate(0,0)"/>
<path d="" fill="#000000" transform="translate(0,0)"/>
<path d="" fill="#000000" transform="translate(0,0)"/>
<path d="" fill="#000000" transform="translate(0,0)"/>
<path d="" fill="#000000" transform="translate(0,0)"/>
<path d="" fill="#000000" transform="translate(0,0)"/>
<path d="" fill="#000000" transform="translate(0,0)"/>
<path d="" fill="#000000" transform="translate(0,0)"/>
<path d="" fill="#000000" transform="translate(0,0)"/>
</svg>
