<svg width="753" height="259" viewBox="0 0 753 259" fill="none" xmlns="http://www.w3.org/2000/svg">
<path d="M295.346 1.16153C257.078 2.24717 242.422 3.60421 239.165 6.3183C235.094 9.3038 234.551 16.3604 234.551 52.7292C234.551 76.0704 233.737 102.94 232.922 112.168L231.022 128.724H123.273H15.5238L10.0956 134.695C5.21022 140.394 4.12458 146.637 1.6819 194.676C0.32486 224.26 -0.489367 250.858 0.32486 253.843C1.6819 258.186 3.85318 259 11.724 258.457L21.4948 257.643L23.9374 205.261L26.3801 153.151H74.1481C100.475 153.151 152.314 152.336 189.497 151.251L256.806 149.622L255.992 172.421C255.449 184.905 255.449 209.604 255.721 226.974L256.263 259H268.205H280.147L279.333 197.662C278.248 132.252 277.705 128.724 264.677 128.724H257.349L257.078 77.6988V26.4026L310.002 24.7741C339.043 23.6885 390.611 22.8742 424.537 22.8742H486.147L488.589 76.3418C489.947 105.925 490.489 155.322 489.947 185.991C489.404 216.66 489.947 245.701 491.032 250.315C492.661 258.186 493.746 259 503.517 259H514.102L514.645 213.675L515.459 168.078L548.028 168.349C565.941 168.349 612.895 169.164 652.521 169.978L724.444 171.335L726.344 184.634C727.158 191.962 728.244 211.775 728.244 228.331L728.515 259H739.371C752.942 259 754.299 254.929 751.856 217.474C748.871 168.621 746.971 153.422 743.442 150.436C741.271 148.808 698.66 147.18 627.822 146.094C566.212 145.28 515.188 144.194 514.645 143.923C514.373 143.38 513.016 111.625 512.202 73.3563C511.116 32.3736 509.488 3.06139 507.86 1.97576C504.331 -0.195514 361.842 -0.738332 295.346 1.16153Z" fill="black"/>
<path d="M359.399 53.001C352.614 60.329 346.914 67.6571 346.371 69.0141C344.743 73.3566 354.242 75.5279 359.67 72.271C364.556 69.2855 364.827 71.1854 365.37 117.325C366.184 163.193 366.455 165.364 371.612 165.364C376.769 165.364 377.04 162.922 378.669 117.868C379.483 91.541 381.112 64.4002 382.197 57.6149C383.826 46.7586 383.283 44.5873 378.669 42.1446C375.683 40.5162 372.969 39.1591 372.426 39.4305C371.884 39.4305 366.184 45.6729 359.399 53.001Z" fill="black"/>
<path d="M132.501 171.878C124.902 175.135 112.417 190.334 112.417 196.576C112.417 199.019 114.317 202.818 116.488 204.718C121.645 208.789 128.701 203.904 128.701 196.305C128.701 190.605 138.201 184.634 143.9 186.805C150.414 189.248 148.243 198.747 136.572 218.831C126.801 235.387 125.987 238.373 129.244 241.901C132.772 245.158 135.758 245.158 153.399 240.544C169.684 236.202 173.755 234.302 174.298 229.416C175.384 223.445 173.484 222.903 160.728 223.717C152.042 224.26 151.771 222.631 157.199 212.86C162.627 203.361 162.356 184.905 156.656 178.12C150.957 171.335 140.372 168.621 132.501 171.878Z" fill="black"/>
<path d="M613.166 186.804C602.853 191.146 597.153 197.932 599.324 203.36C601.224 208.517 610.181 208.517 614.523 203.36C618.052 199.017 628.094 197.66 628.094 201.46C628.094 202.817 624.565 207.16 620.223 211.231C609.095 222.087 611.809 227.515 627.008 225.073C640.307 223.173 641.664 225.073 633.522 235.386C627.279 243.257 626.465 249.771 631.622 251.671C644.921 256.556 659.849 222.358 648.449 212.859C646.278 210.959 644.378 205.531 644.378 200.374C644.378 184.361 631.622 178.662 613.166 186.804Z" fill="black"/>
</svg>
