<svg width="794" height="356" viewBox="0 0 794 356" fill="none" xmlns="http://www.w3.org/2000/svg">
<path d="M708.237 62.1542C707.605 62.6492 707.522 62.8967 707.632 63.7217C707.687 64.2717 708.017 65.3442 708.375 66.0592C710.217 70.1292 716.735 86.8492 718.825 92.8992C721.465 100.572 722.455 103.157 725.425 109.949C727.515 114.817 727.927 115.449 728.862 115.449C730.017 115.449 730.43 114.487 732.19 107.557C733.152 103.789 734.142 99.9942 734.417 99.1142L734.912 97.4642L739.175 102.552C746.875 111.764 747.837 112.699 749.515 112.699C750.147 112.672 751.027 111.984 753.97 109.124C758.617 104.587 758.59 104.834 754.932 101.177C753.447 99.7192 750.477 96.8592 748.305 94.8242C746.16 92.8167 744.455 91.1117 744.51 91.0567C744.565 91.0017 746.627 90.5892 749.102 90.1492C755.18 89.0492 759.552 88.0042 760.157 87.4817C760.432 87.2067 760.625 86.6292 760.625 85.9967C760.625 84.7592 759.745 83.9342 757.325 82.9992C756.5 82.6692 753.337 81.1567 750.312 79.6167C742.502 75.6567 741.402 75.1342 737.442 73.4567C735.49 72.6592 731.86 71.0092 729.33 69.8267C726.8 68.6167 723.197 67.0767 721.3 66.3892C719.402 65.6742 716.212 64.2992 714.232 63.3092C712.225 62.3467 710.217 61.5492 709.777 61.5492C709.365 61.5492 708.65 61.8242 708.237 62.1542ZM723.087 71.4217C724.16 71.8617 727.24 73.2642 729.962 74.5567C732.685 75.8217 735.792 77.2242 736.837 77.6367C738.817 78.4067 751.77 84.7867 752.237 85.2267C752.375 85.3917 752.375 85.4742 752.21 85.4742C751.495 85.4742 739.477 87.7292 738.845 87.9767C737.03 88.7192 737.525 91.1392 739.807 92.7342C741.402 93.8617 751.357 103.157 751.962 104.064C752.375 104.724 752.347 104.779 750.945 106.374C750.147 107.282 749.405 108.024 749.295 108.024C749.047 108.024 743.547 101.562 739.12 96.1167C735.737 91.9367 735.655 91.8817 733.812 92.0742C732.327 92.2117 731.255 94.7417 729.275 102.524C728.807 104.394 728.367 105.989 728.312 106.072C728.037 106.347 725.81 100.654 722.95 92.3492C721.602 88.4992 718.962 81.4592 717.065 76.7292C715.167 71.9992 713.6 68.0117 713.6 67.9017C713.6 67.6817 717.945 69.3042 723.087 71.4217Z" fill="black"/>
<path d="M514.528 80.2163C510.425 80.9002 504.611 81.2422 497.088 81.2422C489.565 81.2422 484.436 79.9883 481.701 77.4807C478.965 74.973 477.597 69.5588 477.597 61.238C477.597 52.8032 478.224 43.5705 479.478 33.5399C480.732 23.5093 482.1 16.1574 483.581 11.484C485.177 6.69669 488.255 4.30303 492.814 4.30303C495.892 4.30303 497.658 5.61385 498.114 8.23548C498.114 8.91938 498.114 10.0022 498.114 11.484C498.114 12.9658 497.772 15.0745 497.088 17.8101C494.353 37.8713 492.985 52.1763 492.985 60.7251C492.985 62.7768 493.042 64.4865 493.156 65.8543C495.208 66.3103 497.943 66.5382 501.363 66.5382C504.896 66.5382 509.342 66.1963 514.699 65.5124C514.927 63.1187 515.041 59.9272 515.041 55.9377C515.041 51.8343 515.098 48.4148 515.212 45.6792C515.326 42.9436 515.725 41.0058 516.409 39.866C517.093 38.7262 519.03 38.1562 522.222 38.1562C525.527 38.1562 527.579 38.7262 528.377 39.866C529.289 41.0058 529.745 42.6016 529.745 44.6533C529.745 46.591 529.574 50.7515 529.232 57.1346C528.89 63.4037 528.719 81.1852 528.719 110.479C528.719 115.608 526.211 118.173 521.196 118.173C520.968 118.173 520.74 118.173 520.512 118.173C516.295 118.173 514.186 114.696 514.186 107.743V98.3397L514.528 80.2163Z" fill="black"/>
<path d="M285.528 82.2163C281.425 82.9002 275.611 83.2422 268.088 83.2422C260.565 83.2422 255.436 81.9883 252.701 79.4807C249.965 76.973 248.597 71.5588 248.597 63.238C248.597 54.8032 249.224 45.5705 250.478 35.5399C251.732 25.5093 253.1 18.1574 254.581 13.484C256.177 8.69669 259.255 6.30303 263.814 6.30303C266.892 6.30303 268.658 7.61385 269.114 10.2355C269.114 10.9194 269.114 12.0022 269.114 13.484C269.114 14.9658 268.772 17.0745 268.088 19.8101C265.353 39.8713 263.985 54.1763 263.985 62.7251C263.985 64.7768 264.042 66.4865 264.156 67.8543C266.208 68.3103 268.943 68.5382 272.363 68.5382C275.896 68.5382 280.342 68.1963 285.699 67.5124C285.927 65.1187 286.041 61.9272 286.041 57.9377C286.041 53.8343 286.098 50.4148 286.212 47.6792C286.326 44.9436 286.725 43.0058 287.409 41.866C288.093 40.7262 290.03 40.1562 293.222 40.1562C296.527 40.1562 298.579 40.7262 299.377 41.866C300.289 43.0058 300.745 44.6016 300.745 46.6533C300.745 48.591 300.574 52.7515 300.232 59.1346C299.89 65.4037 299.719 83.1852 299.719 112.479C299.719 117.608 297.211 120.173 292.196 120.173C291.968 120.173 291.74 120.173 291.512 120.173C287.295 120.173 285.186 116.696 285.186 109.743V100.34L285.528 82.2163Z" fill="black"/>
<path d="M73.3238 235.844C74.4637 235.16 75.9455 234.818 77.7692 234.818C79.593 234.818 81.2457 235.616 82.7275 237.212C84.2093 238.693 84.9502 240.46 84.9502 242.512C84.9502 287.08 85.1212 314.037 85.4631 323.383C85.9191 332.616 86.147 337.346 86.147 337.574C86.147 340.082 85.4631 342.476 84.0953 344.755C82.7275 346.921 81.1887 348.004 79.479 348.004C77.8832 348.004 76.6294 347.947 75.7175 347.833C74.9196 347.605 74.1787 347.377 73.4948 347.149C72.8109 346.921 72.127 346.465 71.4431 345.781L69.7333 344.071C69.2774 343.616 68.6505 342.761 67.8526 341.507C67.1687 340.139 66.5988 339.056 66.1429 338.258C65.6869 337.46 64.946 336.093 63.9202 334.155C63.0083 332.103 60.8996 328 57.5941 321.845C54.4025 315.689 51.4959 310.161 48.8743 305.26C39.8696 288.732 31.4918 275.681 23.7408 266.106C23.7408 303.151 22.715 328.855 20.6633 343.217C20.3213 345.952 18.2126 347.32 14.3372 347.32C12.5134 347.32 10.9747 346.864 9.72083 345.952C8.58099 345.04 8.01107 343.559 8.01107 341.507C8.01107 339.455 8.41002 328.171 9.2079 307.654C10.1198 287.137 10.5757 274.37 10.5757 269.355C10.5757 264.226 10.5757 260.977 10.5757 259.609C10.5757 251.403 11.2026 246.786 12.4564 245.76C13.7103 244.735 15.0211 244.222 16.3889 244.222C22.658 244.222 32.2326 254.48 45.1128 274.997C47.6205 278.987 52.4078 287.364 59.4748 300.131C66.5418 312.783 70.7592 320.591 72.127 323.554L70.0753 252.599C70.0753 242.797 71.1581 237.212 73.3238 235.844Z" fill="black"/>
<path d="M239.995 268.158L248.544 268.329C250.482 268.329 251.565 268.272 251.793 268.158V233.108C251.907 231.17 252.876 229.518 254.699 228.15C256.523 226.782 258.233 226.098 259.829 226.098C261.424 226.098 262.678 226.611 263.59 227.637C264.616 228.663 265.072 230.259 264.958 232.424C264.844 234.59 264.787 246.444 264.787 267.987L284.791 267.303C288.211 267.303 289.92 269.298 289.92 273.287C289.92 276.251 289.009 278.474 287.185 279.956C285.475 281.437 283.594 282.235 281.543 282.349C279.605 282.463 277.667 282.52 275.729 282.52L265.3 282.349C265.3 287.023 265.756 296.255 266.668 310.047C267.694 323.839 268.491 332.787 269.061 336.89C269.631 340.88 269.745 343.502 269.403 344.755C269.061 345.895 268.434 346.693 267.523 347.149C266.041 347.833 264.046 348.175 261.538 348.175C259.031 348.175 257.549 346.807 257.093 344.071C254.813 329.14 253.275 308.622 252.477 282.52C251.451 282.634 247.518 282.691 240.679 282.691C233.84 282.691 230.421 280.696 230.421 276.707C230.421 271.008 233.612 268.158 239.995 268.158ZM373.565 237.212L392.543 236.87C400.978 236.87 405.196 239.092 405.196 243.538C405.196 245.133 404.968 246.273 404.512 246.957C404.056 247.527 403.714 247.983 403.486 248.325C403.258 248.667 402.802 248.952 402.118 249.18C400.75 249.636 399.61 249.921 398.698 250.035C397.787 250.149 397.16 250.206 396.818 250.206C395.564 250.434 393.455 250.605 390.492 250.719C387.528 250.833 383.197 250.89 377.497 250.89C371.912 250.89 365.016 250.662 356.809 250.206V281.665H391.688C392.942 281.665 394.082 282.235 395.108 283.375C396.248 284.515 396.818 285.769 396.818 287.137C396.818 292.38 394.595 295.001 390.15 295.001H356.809L357.493 339.797C357.493 345.61 355.499 348.517 351.509 348.517C347.634 348.517 345.354 345.895 344.67 340.652C344.328 338.942 344.1 324.466 343.986 297.224C343.986 269.868 343.872 254.138 343.644 250.035C339.427 250.491 337.318 248.097 337.318 242.854C337.318 241.486 337.888 240.004 339.028 238.408C340.168 236.699 341.137 235.787 341.934 235.673C342.846 235.559 343.929 235.502 345.183 235.502C346.551 235.502 349.799 235.73 354.929 236.186C361.996 236.87 368.208 237.212 373.565 237.212Z" fill="black"/>
<path d="M549.334 272.826C549.79 270.889 550.759 269.293 552.24 268.039C553.722 266.671 555.204 265.987 556.686 265.987C558.282 265.987 559.478 266.272 560.276 266.842C561.188 267.412 561.701 267.925 561.815 268.381C562.043 268.837 562.271 269.635 562.499 270.775C561.815 279.665 561.473 287.701 561.473 294.882C561.473 301.949 562.328 310.099 564.038 319.332C565.748 328.45 567.628 333.01 569.68 333.01C572.758 333.01 576.633 331.3 581.306 327.88C586.094 324.461 589.513 320.87 591.565 317.109C590.197 300.695 589.513 286.618 589.513 274.878C589.513 272.484 590.254 270.433 591.736 268.723C593.332 267.013 595.212 266.158 597.378 266.158C600.912 266.158 602.678 268.552 602.678 273.339C602.678 281.432 603.248 293.457 604.388 309.415C605.642 325.373 606.896 335.517 608.15 339.849C608.377 340.761 608.491 341.843 608.491 343.097C608.491 344.237 607.694 345.32 606.098 346.346C604.616 347.486 602.621 348.056 600.114 348.056C597.72 348.056 596.124 346.688 595.326 343.952C595.098 341.673 594.528 338.253 593.617 333.694C585.638 342.014 577.602 346.175 569.509 346.175C565.748 346.175 562.385 344.75 559.421 341.9C556.458 339.051 554.121 335.175 552.411 330.274C549.448 320.813 547.966 311.923 547.966 303.602C547.966 295.281 548.422 285.023 549.334 272.826ZM629.759 340.704L627.879 271.287C627.879 269.122 628.619 267.355 630.101 265.987C631.583 264.619 633.065 263.936 634.547 263.936C638.194 263.936 640.303 265.474 640.873 268.552C641.329 271.629 641.557 274.821 641.557 278.127C647.712 270.034 655.406 265.987 664.638 265.987C678.772 265.987 685.839 282.116 685.839 314.373C685.839 317.337 685.839 321.839 685.839 327.88C685.839 333.808 685.497 338.139 684.813 340.875C684.016 344.294 681.565 346.004 677.462 346.004C674.726 346.004 673.358 344.18 673.358 340.533L673.529 330.958C673.529 317.736 673.073 308.731 672.161 303.944C671.363 299.043 670.565 295.167 669.768 292.317C667.83 286.162 664.695 283.085 660.364 283.085C654.665 283.085 650.675 285.137 648.396 289.24C645.888 293.685 644.406 298.929 643.95 304.97C643.152 315.57 642.753 326.798 642.753 338.652C642.753 340.932 641.899 342.755 640.189 344.123C638.479 345.491 636.427 346.175 634.034 346.175C631.184 346.175 629.759 344.351 629.759 340.704ZM746.561 265.987L746.39 232.989C746.39 226.834 748.328 223.756 752.203 223.756C756.193 223.756 758.415 225.466 758.871 228.885C759.099 230.367 759.384 239.315 759.726 255.729C760.068 272.142 760.581 287.53 761.265 301.892C762.063 316.254 762.462 329.647 762.462 342.071C762.462 345.491 759.897 347.201 754.768 347.201C751.348 347.201 749.639 344.807 749.639 340.02C744.737 343.895 738.924 345.833 732.199 345.833C723.65 345.833 716.697 342.641 711.34 336.258C706.097 329.875 703.475 322.01 703.475 312.664C703.475 303.317 705.356 294.597 709.117 286.504C712.993 278.297 718.977 272.427 727.07 268.894C732.085 266.728 736.929 265.645 741.603 265.645C743.313 265.645 744.965 265.759 746.561 265.987ZM747.416 289.411C746.618 286.903 745.649 285.023 744.509 283.769C743.37 282.401 742.116 281.603 740.748 281.375C739.494 281.033 737.955 280.862 736.132 280.862C734.308 280.862 732.085 281.546 729.464 282.914C726.842 284.282 724.619 286.504 722.795 289.582C719.148 295.737 717.324 302.234 717.324 309.073C717.324 315.798 718.635 321.326 721.257 325.658C723.992 329.875 727.811 331.984 732.712 331.984C737.727 331.984 741.66 329.533 744.509 324.632C747.359 319.731 748.784 313.462 748.784 305.825C748.784 297.276 748.328 291.805 747.416 289.411Z" fill="black"/>
<path d="M466.887 352.566C473.76 352.566 476.32 352.338 480.126 351.28L480.905 351.058L480.911 351.056L481.663 350.822C489.335 348.402 493.912 345.69 500.13 339.809H500.131C502.571 337.508 504.186 335.868 505.522 334.145C506.862 332.418 507.91 330.621 509.236 328.021H509.237L509.661 327.177C511.735 323.005 513.114 319.516 513.982 315.887C514.909 312.016 515.249 308.009 515.249 302.874C515.249 292.969 513.949 287.124 509.909 279.595C506.252 272.635 500.773 266.273 494.649 261.413C488.528 256.555 481.729 253.171 475.424 252.216H475.422C472.989 251.861 471.566 251.676 470.12 251.676C468.674 251.676 467.217 251.86 464.718 252.215V252.216C451.919 253.984 438.937 261.956 431.278 272.679L431.277 272.68C425.744 280.452 423.553 286.027 421.715 296.704L421.714 296.713C421.473 298.264 420.659 299.39 417.96 301.648V301.649C413.72 305.144 411.028 309.723 410.233 313.798C409.466 317.734 410.465 321.359 413.774 322.875L414.102 323.016C415.038 323.394 415.8 323.561 416.875 323.436C417.649 323.345 418.584 323.104 419.87 322.703L421.28 322.249L421.284 322.248L425.665 320.773L427.034 323.731L427.038 323.74L427.218 324.1C428.171 325.965 429.931 328.775 431.207 330.604L431.212 330.61L431.701 331.3C432.174 331.977 432.595 332.612 432.92 333.132C433.137 333.479 433.308 333.77 433.423 333.985C433.481 334.094 433.521 334.176 433.545 334.232C433.552 334.25 433.557 334.263 433.56 334.271C433.57 334.351 433.593 334.414 433.604 334.441C433.624 334.49 433.649 334.536 433.672 334.576C433.718 334.657 433.779 334.751 433.849 334.849C433.989 335.046 434.185 335.3 434.421 335.587C434.895 336.164 435.547 336.902 436.266 337.654C438.226 339.79 441.297 342.397 444.478 344.757C447.662 347.12 450.992 349.261 453.471 350.446L453.474 350.447L454.231 350.803C455.914 351.583 457.034 352.033 458.584 352.277C460.324 352.552 462.606 352.566 466.887 352.566ZM427.569 294.206C427.72 293.542 427.938 292.644 428.174 291.677L428.343 291.071C430.164 284.803 434.162 278.138 439.557 272.607H439.558C440.972 271.158 442.352 269.838 443.417 268.884C443.95 268.406 444.4 268.024 444.733 267.764C444.901 267.633 445.031 267.539 445.123 267.48C445.152 267.462 445.175 267.451 445.19 267.442C445.372 267.422 445.567 267.356 445.736 267.286C445.958 267.194 446.216 267.065 446.493 266.909C447.047 266.598 447.706 266.166 448.362 265.671L448.788 265.367C453.223 262.254 458.868 260.138 464.471 259.231C470.26 258.294 475.944 258.657 480.16 260.483C488.12 264.002 496.17 270.925 501.537 279.007L501.539 279.01L503.534 281.978L502.15 282.185H502.146V282.186C500.941 282.378 497.909 282.764 495.283 282.957H495.276C484.171 283.928 453.15 287.879 447.224 289.115V289.114C443.681 289.831 437.705 291.455 433.835 292.688L433.832 292.689C431.938 293.304 430.2 293.852 428.92 294.23C428.325 294.407 427.834 294.544 427.475 294.634C427.502 294.507 427.534 294.364 427.569 294.206ZM445.155 267.445H445.152L445.089 267.45C445.111 267.45 445.133 267.447 445.155 267.445ZM482.083 343.506C476.451 345.557 468.196 346.836 463.339 346.454L463.338 346.455C457.978 346.012 454.141 344.38 448.305 339.89C445.876 337.936 442.488 335.69 440.476 334.653L440.092 334.463C438.625 333.762 437.782 333.246 436.942 332.293C436.079 331.313 435.208 329.859 433.747 327.228C432.507 324.97 431.587 323.322 430.991 322.064C430.386 320.786 430.172 320.018 430.228 319.488C430.275 319.032 430.538 318.663 431.272 318.224C431.837 317.886 432.606 317.55 433.621 317.126L434.721 316.669L434.723 316.668L436.092 316.079C439.896 314.422 447.743 310.893 454.907 307.666L458.135 306.217C473.739 299.239 481.657 296.171 493.436 292.478L498.123 291.033C499.471 290.62 500.618 290.275 501.595 289.993C503.559 289.426 504.799 289.131 505.611 289.059C506.412 288.988 506.65 289.145 506.788 289.317C506.881 289.433 506.966 289.605 507.061 289.873C507.156 290.145 507.24 290.45 507.364 290.849C507.552 291.478 507.786 292.955 507.998 294.87C508.208 296.769 508.394 299.056 508.495 301.278C508.898 310.458 507.692 316.586 504.08 323.878L503.672 324.656C499.298 332.695 490.425 340.538 482.087 343.505L482.083 343.506ZM416.164 317.502C415.594 317.518 415.36 317.387 415.252 317.253C415.128 317.099 415.033 316.779 415.109 316.121C415.165 315.64 415.305 315.04 415.527 314.302L415.776 313.518L415.777 313.517L416.015 312.827C417.146 309.689 418.636 307.573 422.893 303.223L423.848 302.256L423.849 302.255L427.536 298.541L437.749 296.307H437.752L438.88 296.061C444.778 294.815 454.44 293.313 462.704 292.229C467.11 291.65 471.108 291.192 473.917 290.955C474.775 290.883 475.516 290.835 476.121 290.807C476.044 290.839 475.965 290.873 475.884 290.907C474.77 291.375 473.266 291.989 471.644 292.636V292.637C467.83 294.135 457.288 299.012 447.37 303.749C442.406 306.12 437.59 308.46 433.841 310.329C431.967 311.263 430.357 312.08 429.128 312.726C427.912 313.364 427.039 313.85 426.66 314.115L426.655 314.118C426.141 314.487 425.471 314.878 424.813 315.2C424.232 315.485 423.689 315.702 423.286 315.809L423.123 315.847C422.165 316.043 420.086 316.638 418.566 317.017L418.547 317.022C417.507 317.327 416.728 317.486 416.164 317.502Z" fill="black" stroke="black"/>
<path d="M449.166 283.061C450.4 284.127 452.342 284.477 454.496 284.27C456.672 284.06 459.157 283.275 461.576 281.953H461.575C464.975 280.165 468.693 277.924 471.699 275.927C473.203 274.927 474.534 273.985 475.561 273.188C476.073 272.79 476.515 272.425 476.865 272.104C477.209 271.79 477.49 271.495 477.66 271.241H477.659C477.931 270.851 478.161 270.499 478.308 270.236C478.378 270.111 478.445 269.976 478.482 269.858C478.497 269.814 478.534 269.694 478.513 269.556C478.501 269.476 478.463 269.349 478.349 269.243C478.229 269.133 478.089 269.104 477.989 269.104H477.876L477.773 269.153C477.629 269.223 473.158 271.424 467.815 274.075L467.813 274.076C463.612 276.182 461.117 277.366 459.245 278.042C457.399 278.709 456.165 278.88 454.479 278.943V278.944C453.529 278.977 452.831 278.995 452.308 278.98C451.772 278.966 451.483 278.915 451.317 278.845C451.197 278.794 451.142 278.736 451.092 278.602C451.024 278.421 450.987 278.158 450.934 277.702L450.933 277.695C450.876 277.261 450.931 276.698 451.081 276.122C451.23 275.551 451.463 275.009 451.729 274.612H451.729C452.093 274.083 452.327 273.631 452.4 273.276C452.435 273.108 452.455 272.858 452.317 272.635C452.151 272.365 451.87 272.304 451.664 272.317C451.473 272.33 451.285 272.404 451.122 272.49C450.951 272.58 450.768 272.704 450.578 272.854C450.198 273.155 449.763 273.587 449.307 274.141L449.303 274.145C448.302 275.385 447.789 277.185 447.745 278.847C447.704 280.383 448.062 281.959 448.976 282.885L449.166 283.061Z" fill="black" stroke="black"/>
<path d="M489.023 311.465C490.382 311.465 491.501 311.141 492.285 310.439C493.078 309.73 493.45 308.704 493.45 307.47C493.45 306.845 492.917 306.496 492.473 306.317C491.986 306.122 491.346 306.013 490.659 305.976C489.282 305.9 487.569 306.099 486.207 306.613L486.203 306.615C485.35 306.945 484.739 307.404 484.446 307.98C484.138 308.589 484.234 309.231 484.6 309.767C485.294 310.782 486.954 311.465 489.023 311.465Z" fill="black" stroke="black"/>
<path d="M447.206 318.682C448.06 318.665 448.978 318.52 449.817 318.249C450.546 318.014 451.243 317.675 451.785 317.219L452.006 317.017L452.016 317.007L452.305 316.686C452.583 316.357 452.823 316.01 453 315.687C453.117 315.471 453.213 315.253 453.27 315.046C453.316 314.879 453.352 314.664 453.304 314.451L453.278 314.36L453.275 314.352L453.271 314.343C453.166 314.074 452.956 313.886 452.745 313.758C452.53 313.627 452.273 313.531 452.001 313.459C451.457 313.315 450.775 313.248 450.064 313.248C448.653 313.248 446.99 313.511 445.876 314.079L445.867 314.084L446.104 314.524L445.867 314.085C445.273 314.404 444.748 314.832 444.367 315.288C443.997 315.73 443.709 316.263 443.708 316.79C443.708 317.567 444.272 318.057 444.901 318.323C445.534 318.591 446.359 318.699 447.206 318.682Z" fill="black" stroke="black"/>
<path d="M467.705 328.77C469.21 328.931 470.979 328.946 472.233 328.721L472.477 328.672L472.49 328.669L472.71 328.608C473.799 328.274 474.696 327.506 475.185 326.693C475.445 326.26 475.613 325.774 475.593 325.304C475.571 324.81 475.34 324.358 474.867 324.07L474.868 324.069C474.09 323.586 473.331 323.402 472.249 323.537C471.213 323.666 469.86 324.091 467.87 324.8L467.861 324.803L467.854 324.806C466.854 325.201 465.963 325.635 465.329 326.027C465.016 326.221 464.743 326.419 464.552 326.61C464.457 326.705 464.361 326.819 464.296 326.95C464.232 327.078 464.173 327.277 464.245 327.495H464.244C464.245 327.497 464.246 327.499 464.247 327.501C464.248 327.503 464.247 327.505 464.248 327.507H464.249C464.347 327.795 464.598 327.972 464.786 328.077C465 328.197 465.267 328.297 465.557 328.382C466.14 328.552 466.898 328.683 467.705 328.77Z" fill="black" stroke="black"/>
<path d="M364.313 127.979C364.564 128.043 364.888 128.007 365.184 127.951C365.506 127.891 365.89 127.789 366.307 127.655C367.142 127.386 368.144 126.98 369.11 126.492C371.055 125.562 374.811 123.951 377.43 122.904L382.011 121.151L387.871 125.258C389.507 126.424 391.141 127.588 392.446 128.535C393.766 129.493 394.712 130.202 395.003 130.472C395.363 130.806 395.952 131.2 396.596 131.58C397.248 131.965 397.989 132.353 398.675 132.673L398.684 132.677L399.45 133.007C399.684 133.103 399.897 133.181 400.092 133.239C400.485 133.355 400.871 133.405 401.251 133.285C401.629 133.165 401.92 132.902 402.183 132.578C402.442 132.259 402.717 131.827 403.044 131.297L403.351 130.808C404.807 128.343 405.101 125.545 404.92 118.866L404.92 118.865L404.793 114.328L411.055 110.546L411.057 110.546L411.761 110.107C418.773 105.646 424.976 98.9933 429.565 91.0204L430.02 90.2188L430.02 90.2169L430.384 89.5365C432.197 86.047 433.88 81.2821 435.126 76.4426C436.454 71.2815 437.295 65.9874 437.25 62.0144L437.25 62.0134C437.115 52.0074 433.943 41.4623 428.446 32.4235L428.443 32.4197C427.794 31.3787 427.311 30.5762 426.976 29.9553C426.633 29.3207 426.476 28.9266 426.437 28.6853C426.423 28.6012 426.427 28.5594 426.43 28.5446C426.433 28.5425 426.437 28.5389 426.444 28.5349C426.516 28.4923 426.663 28.4525 426.936 28.425L427.252 28.4023L427.261 28.4017L427.27 28.4007C428.322 28.3111 429.626 27.7986 430.688 27.1809C431.225 26.869 431.721 26.5181 432.108 26.1606C432.48 25.8176 432.814 25.4122 432.923 24.981C433.084 24.3462 432.759 23.8346 432.303 23.4981C431.86 23.1711 431.229 22.9477 430.53 22.8127C429.207 22.5576 427.473 22.5853 425.809 22.9892L425.478 23.0746L422.884 23.7863L418.136 19.7669L418.134 19.7653C411.929 14.5772 406.261 11.9702 399.05 11.16L399.047 11.1602C393.146 10.53 386.976 10.9133 381.735 12.4104L378.283 13.2803L375.811 8.86066L375.807 8.85568C374.941 7.35316 374.127 6.137 373.436 5.24751C373.091 4.8031 372.773 4.43484 372.49 4.1514C372.216 3.87615 371.947 3.65131 371.7 3.52805C371.579 3.46754 371.414 3.4061 371.23 3.4159C371.013 3.42748 370.815 3.5374 370.694 3.73031C370.592 3.89293 370.569 4.0747 370.568 4.21516C370.566 4.36416 370.588 4.52717 370.624 4.69683C370.748 5.28015 371.09 6.15785 371.674 7.3365L371.939 7.86101C372.728 9.4024 373.311 10.5944 373.695 11.5432C374.082 12.5002 374.245 13.1584 374.24 13.6447C374.235 14.0928 374.088 14.4113 373.771 14.7158C373.427 15.0468 372.883 15.3595 372.072 15.7428L372.072 15.7438C370.718 16.3487 368.901 17.2714 367.723 17.9367L367.259 18.2049C366.719 18.5262 366.238 18.7847 365.896 18.9415C365.873 18.952 365.85 18.9606 365.829 18.9699C365.387 17.6946 364.477 15.827 363.526 14.1125C362.987 13.1416 362.428 12.2049 361.921 11.4338C361.422 10.6764 360.949 10.038 360.581 9.69692L360.575 9.69122L360.567 9.68527C360.17 9.34303 359.825 9.05046 359.581 8.90544C359.516 8.86703 359.436 8.82476 359.349 8.79715C359.271 8.77272 359.113 8.73629 358.937 8.80172C358.727 8.88035 358.624 9.05283 358.585 9.19205C358.552 9.31261 358.559 9.42779 358.569 9.50414C358.588 9.6629 358.644 9.8528 358.715 10.055C358.789 10.2657 358.891 10.5233 359.02 10.8295C359.278 11.4426 359.652 12.2778 360.144 13.3671L360.147 13.374L360.752 14.6646C361.314 15.8743 361.747 16.8488 362.053 17.6663C362.462 18.7595 362.62 19.5143 362.574 20.1285C362.53 20.7192 362.293 21.2356 361.786 21.8439C361.266 22.4678 360.493 23.153 359.409 24.0855L359.406 24.0866L359.406 24.0876C351.767 30.7538 346.926 37.8705 343.451 47.7331L343.119 48.6957L343.119 48.6966C339.984 58.0078 340.149 71.1646 343.585 81.7713L343.927 82.7899C344.441 84.2739 344.888 85.6686 345.199 86.7151C345.355 87.2391 345.476 87.6716 345.555 87.9829C345.594 88.1394 345.621 88.2589 345.636 88.341C345.642 88.3757 345.646 88.3985 345.647 88.4114C345.626 88.6128 345.659 88.8292 345.709 89.0245C345.768 89.2532 345.861 89.5148 345.979 89.7992C346.216 90.369 346.572 91.0732 347.013 91.8666C347.896 93.456 349.145 95.4427 350.535 97.5004C353.309 101.606 356.686 106.054 358.905 108.219L358.914 108.226L359.221 108.521C359.9 109.197 360.318 109.79 360.609 110.534C360.95 111.406 361.131 112.518 361.293 114.274C361.379 115.462 361.42 116.691 361.414 117.719C361.409 118.772 361.353 119.557 361.268 119.892C361.129 120.439 361.184 121.197 361.322 121.968C361.464 122.758 361.708 123.637 362.003 124.464C362.297 125.29 362.649 126.083 363.013 126.698C363.195 127.004 363.388 127.28 363.588 127.496C363.778 127.702 364.021 127.906 364.313 127.979ZM350.014 45.7085C350.081 45.5732 350.158 45.418 350.247 45.2455C350.414 44.9203 350.615 44.538 350.84 44.1204L351.576 42.7816L351.577 42.7781L352.048 41.9464C354.45 37.8588 358.564 32.8096 362.023 29.8174L362.378 29.5157L362.381 29.5124L364.667 27.5722L364.921 28.7285L364.922 28.7368L364.925 28.7456C365.16 29.6681 365.499 30.3565 365.916 30.7821C366.344 31.2198 366.916 31.4218 367.471 31.1631C367.97 30.9301 368.289 30.3917 368.452 29.7688C368.62 29.1271 368.651 28.3031 368.499 27.3406C368.342 26.2511 368.361 25.8557 368.647 25.468C368.809 25.2483 369.079 25.005 369.541 24.6842C370.001 24.3649 370.616 23.9921 371.44 23.5013L372.53 22.8617C372.847 22.6795 373.122 22.5272 373.362 22.4038C373.853 22.1524 374.153 22.0464 374.353 22.0203C374.512 21.9997 374.594 22.0288 374.69 22.1057C374.825 22.2132 374.975 22.4069 375.216 22.7618C375.534 23.2409 375.91 23.6007 376.334 23.7979C376.771 24.0006 377.236 24.0187 377.674 23.8494C378.518 23.5235 379.13 22.5675 379.451 21.3027C379.522 21.0228 379.621 20.8197 379.773 20.6477C379.928 20.4713 380.167 20.2971 380.561 20.1172C381.37 19.7487 382.704 19.4137 384.977 18.9485L384.978 18.9488C395.946 16.834 405.101 18.4786 411.75 23.7334L412.459 24.311C413.144 24.8782 413.749 25.409 414.212 25.8425C414.517 26.1279 414.753 26.3654 414.908 26.5387C414.905 26.5417 414.901 26.5451 414.898 26.5482C414.729 26.6912 414.484 26.8771 414.175 27.0924C413.714 27.4142 413.127 27.7915 412.48 28.1758L411.814 28.561C410.782 29.1456 409.871 29.8048 409.182 30.4477C408.512 31.0723 407.984 31.7425 407.827 32.36C407.711 32.8166 407.638 33.249 407.625 33.5882C407.618 33.7533 407.624 33.9277 407.662 34.0812C407.69 34.1936 407.789 34.5123 408.132 34.5993L408.215 34.6143C408.293 34.6221 408.358 34.613 408.383 34.6096C408.436 34.6024 408.491 34.5901 408.542 34.5774C408.646 34.5519 408.773 34.5132 408.916 34.4657C409.205 34.3699 409.593 34.2268 410.048 34.0493C410.732 33.7826 411.582 33.4332 412.511 33.0345L413.462 32.6208L413.469 32.6175L414.394 32.2083C415.31 31.8178 416.188 31.4869 416.921 31.2449C417.41 31.0833 417.827 30.9635 418.145 30.8922C418.304 30.8565 418.43 30.8347 418.522 30.8248C418.569 30.8198 418.599 30.82 418.614 30.8199C418.631 30.8299 418.67 30.8538 418.732 30.9072C418.831 30.9916 418.955 31.1184 419.103 31.2914C419.399 31.6367 419.762 32.1288 420.171 32.7398C420.989 33.9597 421.971 35.6152 422.964 37.4263C424.955 41.0566 426.958 45.2555 427.758 47.7759L428.996 51.7216L427.508 51.5821L427.503 51.5819C426.255 51.4779 423.141 51.116 420.482 50.6555L420.474 50.6545C409.185 48.8666 377.324 45.1574 371.108 44.9493L371.109 44.9484C367.399 44.8005 361.034 44.982 356.863 45.2887L356.86 45.2889C354.816 45.4502 352.944 45.5825 351.573 45.6532C350.926 45.6866 350.396 45.7057 350.014 45.7085ZM376.607 106.066L376.604 106.064C372.761 102.974 369.631 101.002 367.256 100.214C366.067 99.8192 365.01 99.7017 364.129 99.9429C363.222 100.191 362.566 100.803 362.169 101.711L362.096 101.856C362.087 101.872 362.076 101.885 362.068 101.898C362.025 101.873 361.953 101.828 361.851 101.74C361.591 101.518 361.232 101.126 360.727 100.499C360.476 100.188 360.195 99.8252 359.875 99.4055L358.798 97.97C356.761 95.2229 353.737 91.7847 352.125 90.3516L352.123 90.349C350.824 89.2082 350.107 88.438 349.515 87.2208C348.908 85.9717 348.424 84.2371 347.666 81.1356C346.778 77.3565 345.93 71.4518 345.826 67.9592L345.826 67.954C345.696 64.7034 346.003 60.4835 346.503 56.9359C346.753 55.1629 347.049 53.5692 347.359 52.3576C347.515 51.751 347.672 51.2506 347.823 50.8754C347.973 50.5052 348.095 50.3228 348.161 50.2557C348.193 50.2445 348.245 50.2292 348.323 50.2122C348.492 50.1754 348.736 50.139 349.054 50.1052C349.686 50.038 350.565 49.9845 351.63 49.9472C353.757 49.8728 356.595 49.8616 359.617 49.9136L359.618 49.9139C370.188 50.1673 377.414 50.9281 405.593 54.7072L405.594 54.7074L410.879 55.3993C416.064 56.0728 420.68 56.652 422.27 56.7847C424.331 57.0251 427.092 57.515 428.347 57.8314C429.381 58.1666 429.757 58.3724 429.975 58.7308C430.092 58.9221 430.184 59.192 430.255 59.6237C430.325 60.056 430.369 60.6124 430.413 61.3573L430.414 61.3647L430.432 61.7792C430.449 62.8108 430.294 64.301 429.962 66.255C429.584 68.4772 428.984 71.2638 428.174 74.5949C427.011 79.3172 426.336 81.9024 425.554 83.9467C424.873 85.7226 424.109 87.0971 422.847 89.1261L422.275 90.0388C418.138 96.5682 411.636 102.637 405.64 105.701L404.307 106.355C403.919 106.542 403.582 106.7 403.29 106.829C402.695 107.093 402.329 107.217 402.101 107.25C402.023 107.262 401.98 107.259 401.961 107.257C401.927 107.204 401.88 107.067 401.827 106.715L401.826 106.701L401.333 106.789L401.825 106.7C401.734 106.199 401.49 105.688 401.2 105.255C400.91 104.82 400.548 104.422 400.188 104.16L400.169 104.146L400.149 104.134C399.837 103.949 399.409 103.866 398.959 103.83C398.494 103.794 397.937 103.804 397.322 103.851C396.089 103.946 394.572 104.192 392.976 104.541C389.791 105.237 386.222 106.36 383.899 107.567L380.565 109.288L376.607 106.066Z" fill="black" stroke="black"/>
<path d="M406.768 78.6245C408.121 78.9673 409.319 78.9108 410.278 78.3819C411.244 77.8492 411.876 76.889 412.198 75.6206C412.354 75.0064 411.94 74.5203 411.536 74.2157C411.105 73.8897 410.496 73.616 409.823 73.4036C408.474 72.9775 406.717 72.7529 405.228 72.944L405.223 72.9449C404.286 73.0731 403.564 73.3971 403.13 73.9124C402.678 74.4499 402.605 75.1177 402.823 75.7537C403.241 76.9718 404.706 78.1019 406.768 78.6245Z" fill="black" stroke="black"/>
<path d="M363.311 75.5891C364.165 75.7867 365.116 75.8675 366.021 75.7977C366.809 75.7369 367.59 75.5598 368.246 75.224L368.518 75.0705L368.53 75.0634L368.901 74.8027C369.262 74.5323 369.59 74.2345 369.849 73.9449C370.021 73.7525 370.172 73.5528 370.28 73.3571C370.381 73.175 370.48 72.9342 370.461 72.6797L370.46 72.6612C370.427 72.369 370.273 72.127 370.097 71.9395C369.919 71.7505 369.689 71.5854 369.437 71.4419C368.934 71.1545 368.273 70.9131 367.566 70.7338C366.162 70.3781 364.44 70.2336 363.184 70.543L363.173 70.5453C362.499 70.7275 361.867 71.0399 361.371 71.4152C360.888 71.7803 360.472 72.2527 360.338 72.7815C360.141 73.5563 360.553 74.1959 361.113 74.6351C361.672 75.0734 362.464 75.3932 363.311 75.5891Z" fill="black" stroke="black"/>
<path d="M381.022 91.2315C382.476 91.7786 384.231 92.2403 385.538 92.3215L385.793 92.3328L385.807 92.3333L385.806 92.3321C387.065 92.3268 388.256 91.7276 388.995 90.9663C389.365 90.5852 389.652 90.1315 389.753 89.6522C389.857 89.1541 389.754 88.6386 389.363 88.2236L389.364 88.2229C388.719 87.5257 388.012 87.1424 386.899 87.0098C385.835 86.883 384.377 86.9827 382.213 87.2185L382.204 87.2192L382.196 87.221C381.099 87.3801 380.099 87.6058 379.366 87.8538C379.003 87.9766 378.682 88.1128 378.443 88.2627C378.325 88.3369 378.203 88.4287 378.108 88.5434C378.013 88.6574 377.909 88.8381 377.926 89.0686L377.928 89.069C377.948 89.376 378.141 89.6173 378.303 89.7765C378.483 89.9543 378.722 90.1258 378.988 90.2868C379.524 90.6107 380.243 90.9381 381.022 91.2315Z" fill="black" stroke="black"/>
<path d="M164.073 351.882C170.799 352.512 173.328 352.513 177.154 351.779L177.938 351.621L177.944 351.62L178.702 351.45C186.44 349.675 191.177 347.318 197.816 341.869L198.753 341.097C200.851 339.354 202.339 338.003 203.626 336.567C204.915 335.129 205.992 333.617 207.274 331.56L207.838 330.644L208.333 329.819C210.756 325.742 212.434 322.299 213.626 318.668C214.898 314.796 215.609 310.73 216.095 305.477C216.697 298.967 216.682 295.509 216.028 291.58L216.027 291.578C214.406 282.114 209.826 272.589 203.27 264.836L203.267 264.832C202.497 263.942 201.92 263.254 201.511 262.716C201.092 262.165 200.886 261.818 200.814 261.599C200.793 261.535 200.789 261.498 200.788 261.481C200.79 261.48 200.79 261.478 200.792 261.477C200.851 261.429 200.98 261.371 201.232 261.305L201.528 261.235L201.537 261.234L201.545 261.232C202.533 260.99 203.694 260.31 204.609 259.566C205.071 259.19 205.489 258.784 205.804 258.386C206.105 258.005 206.364 257.568 206.404 257.137C206.463 256.5 206.07 256.056 205.584 255.803C205.111 255.557 204.478 255.439 203.795 255.414C202.501 255.368 200.86 255.651 199.342 256.281L199.041 256.412L196.701 257.465L191.616 254.366L191.613 254.364C184.961 250.365 179.201 248.734 172.248 249.033L172.245 249.033C166.556 249.31 160.762 250.589 156.018 252.788L156.018 252.789L152.908 254.11L149.918 250.301L149.914 250.296C148.87 249 147.917 247.968 147.129 247.226C146.736 246.856 146.378 246.554 146.068 246.327C145.767 246.106 145.477 245.931 145.221 245.85C145.096 245.81 144.926 245.775 144.748 245.813C144.538 245.857 144.362 245.995 144.274 246.202C144.199 246.376 144.205 246.555 144.225 246.691C144.246 246.834 144.292 246.987 144.351 247.144C144.557 247.681 145.013 248.463 145.741 249.495L146.071 249.952C147.048 251.295 147.777 252.338 148.281 253.179C148.79 254.028 149.04 254.624 149.107 255.082C149.169 255.501 149.079 255.819 148.828 256.15C148.554 256.512 148.089 256.887 147.378 257.371L147.377 257.372C146.185 258.146 144.603 259.289 143.586 260.095L143.187 260.417C142.724 260.801 142.308 261.117 142.008 261.315C141.995 261.324 141.981 261.332 141.969 261.34C141.356 260.196 140.221 258.571 139.071 257.095C138.416 256.255 137.746 255.45 137.15 254.794C136.566 254.15 136.02 253.613 135.618 253.343L135.604 253.334C135.178 253.069 134.806 252.841 134.55 252.739C134.483 252.712 134.398 252.684 134.309 252.67C134.229 252.658 134.069 252.646 133.907 252.737C133.712 252.846 133.638 253.033 133.622 253.175C133.608 253.298 133.633 253.409 133.653 253.481C133.696 253.631 133.778 253.804 133.875 253.985C133.977 254.174 134.113 254.404 134.281 254.675C134.617 255.218 135.096 255.953 135.724 256.912L135.728 256.92L136.493 258.054C137.205 259.116 137.762 259.975 138.173 260.703C138.723 261.678 138.982 262.367 139.03 262.951C139.076 263.512 138.93 264.031 138.543 264.68C138.145 265.346 137.516 266.108 136.629 267.152L136.627 267.155C130.387 274.604 126.863 282.067 125.044 291.929L124.874 292.891C123.243 302.481 125.555 315.434 130.729 325.086C131.437 326.416 132.068 327.671 132.519 328.616C132.745 329.09 132.924 329.482 133.044 329.765C133.105 329.907 133.147 330.016 133.174 330.091C133.183 330.118 133.188 330.137 133.192 330.149C133.197 330.212 133.211 330.263 133.218 330.288C133.233 330.338 133.251 330.387 133.269 330.429C133.306 330.516 133.357 330.616 133.415 330.723C133.533 330.938 133.702 331.214 133.906 331.53C134.315 332.163 134.882 332.978 135.514 333.814C137.229 336.178 139.987 339.127 142.876 341.834C145.768 344.544 148.824 347.04 151.138 348.48L151.139 348.482L151.848 348.914C153.42 349.867 154.476 350.431 155.973 350.825C157.652 351.266 159.886 351.49 164.073 351.882ZM131.148 288.576C131.257 288.243 131.39 287.852 131.541 287.424L132.037 286.046L132.038 286.042L132.361 285.185C134.024 280.959 137.164 275.568 139.991 272.223L140.282 271.885L140.285 271.882L142.137 269.731L142.539 270.765L142.544 270.772C142.905 271.614 143.331 272.219 143.793 272.564C144.269 272.919 144.849 273.029 145.345 272.695C145.791 272.396 146.014 271.832 146.076 271.215C146.139 270.579 146.045 269.79 145.757 268.899C145.445 267.89 145.407 267.52 145.616 267.119C145.735 266.89 145.953 266.622 146.343 266.249C146.73 265.879 147.254 265.435 147.962 264.848L148.898 264.081C149.171 263.861 149.409 263.678 149.618 263.525C150.044 263.215 150.31 263.071 150.492 263.018C150.634 262.976 150.71 262.991 150.808 263.047C150.913 263.107 151.034 263.211 151.207 263.387L151.398 263.587C151.772 263.995 152.185 264.282 152.621 264.408C153.07 264.537 153.52 264.485 153.915 264.257C154.673 263.818 155.111 262.814 155.227 261.566C155.252 261.293 155.314 261.089 155.43 260.907C155.549 260.72 155.746 260.521 156.092 260.293C156.8 259.826 158.011 259.312 160.094 258.535L161.034 258.206C170.715 254.925 179.287 255.238 186.139 259.104L186.897 259.546C187.63 259.982 188.282 260.396 188.784 260.738C189.106 260.956 189.358 261.141 189.53 261.28C189.392 261.439 189.19 261.649 188.933 261.895C188.415 262.393 187.7 263.015 186.918 263.634L186.917 263.635C186.027 264.342 185.262 265.102 184.704 265.815C184.162 266.507 183.758 267.224 183.702 267.839C183.66 268.289 183.656 268.711 183.694 269.036C183.712 269.194 183.745 269.361 183.805 269.503C183.848 269.607 183.994 269.904 184.344 269.937L184.427 269.939C184.506 269.935 184.568 269.915 184.591 269.908C184.641 269.893 184.692 269.874 184.739 269.855C184.834 269.815 184.949 269.758 185.078 269.692C185.338 269.558 185.683 269.366 186.088 269.13C186.696 268.776 187.449 268.319 188.269 267.804L189.108 267.271L189.114 267.267L189.929 266.743C190.737 266.237 191.518 265.794 192.176 265.456C192.615 265.231 192.992 265.056 193.281 264.942C193.426 264.884 193.541 264.846 193.626 264.823C193.664 264.813 193.689 264.808 193.704 264.806C193.722 264.813 193.76 264.83 193.821 264.868C193.926 264.932 194.061 265.033 194.227 265.175C194.558 265.457 194.974 265.87 195.453 266.388C196.408 267.422 197.585 268.844 198.795 270.412C201.07 273.36 203.428 276.78 204.647 279.065L204.875 279.506L206.623 283.034L205.225 283.119L205.22 283.12C204.023 283.206 201.021 283.324 198.435 283.281L198.428 283.281C187.472 283.257 156.75 284.459 150.833 285.182L150.833 285.181C147.298 285.59 141.298 286.704 137.394 287.612L137.391 287.613C135.48 288.068 133.727 288.47 132.44 288.74C131.851 288.863 131.364 288.956 131.007 289.016C131.047 288.886 131.094 288.738 131.148 288.576ZM179.784 344.031C174.083 345.614 165.892 346.166 161.181 345.332L161.182 345.331C155.989 344.389 152.393 342.374 147.112 337.25L147.113 337.249C144.922 335.026 141.814 332.414 139.94 331.166L139.582 330.934C138.215 330.083 137.44 329.48 136.708 328.428C135.956 327.345 135.24 325.775 134.06 322.948C132.655 319.5 130.972 314.033 130.352 310.741L130.351 310.736C129.743 307.677 129.404 303.634 129.348 300.2C129.32 298.484 129.363 296.931 129.476 295.738C129.533 295.141 129.606 294.645 129.693 294.268C129.778 293.902 129.864 293.715 129.914 293.642C129.942 293.627 129.987 293.606 130.055 293.58C130.209 293.52 130.433 293.45 130.728 293.371C131.316 293.214 132.14 293.034 133.143 292.841C135.146 292.456 137.83 292.025 140.699 291.627L140.7 291.627C150.745 290.303 157.698 289.953 184.942 289.364L184.943 289.364L190.051 289.238C195.062 289.108 199.521 288.974 201.046 288.864L201.045 288.864C203.032 288.787 205.719 288.843 206.952 288.957C208.029 289.127 208.398 289.251 208.64 289.538C208.77 289.691 208.89 289.924 209.017 290.325C209.142 290.725 209.261 291.25 209.412 291.962C209.71 293.603 209.845 298.638 209.622 303.222C209.147 312.658 207.386 318.824 203.159 325.959L202.685 326.719C197.643 334.548 188.219 341.759 179.787 344.029L179.784 344.031Z" fill="black" stroke="black"/>
<path d="M189.623 311.845C190.958 311.97 192.09 311.739 192.925 311.092C193.766 310.44 194.223 309.43 194.339 308.177C194.396 307.559 193.922 307.153 193.492 306.924C193.032 306.677 192.412 306.507 191.742 306.405C190.398 306.2 188.699 306.249 187.313 306.651L187.309 306.652C186.438 306.913 185.797 307.329 185.459 307.887C185.107 308.471 185.138 309.122 185.443 309.698C186.025 310.799 187.59 311.655 189.623 311.845Z" fill="black" stroke="black"/>
<path d="M148.019 315.409C148.86 315.47 149.776 315.405 150.625 315.205C151.363 315.03 152.078 314.746 152.651 314.329L152.888 314.141L152.899 314.134L152.898 314.134C153.328 313.744 153.713 313.293 153.983 312.875C154.118 312.666 154.232 312.453 154.306 312.25C154.375 312.061 154.435 311.813 154.378 311.569L154.376 311.56L154.373 311.551C154.297 311.273 154.112 311.063 153.915 310.91C153.716 310.755 153.471 310.632 153.21 310.533C152.688 310.334 152.025 310.203 151.328 310.138C150.03 310.016 148.494 310.112 147.361 310.521L147.129 310.611L147.333 311.068L147.129 310.612C146.516 310.885 145.962 311.275 145.546 311.706C145.142 312.125 144.816 312.639 144.767 313.167C144.695 313.941 145.189 314.492 145.788 314.828C146.386 315.162 147.187 315.349 148.019 315.409Z" fill="black" stroke="black"/>
<path d="M167.119 327.601C168.577 327.905 170.311 328.082 171.563 327.965L171.807 327.938L171.821 327.936L172.043 327.893C173.147 327.65 174.098 326.943 174.65 326.161C174.944 325.743 175.15 325.267 175.174 324.793C175.199 324.3 175.023 323.82 174.585 323.48L174.586 323.479C173.867 322.911 173.136 322.65 172.057 322.689C171.027 322.727 169.66 323.039 167.647 323.582L167.638 323.584L167.63 323.587C166.614 323.901 165.699 324.262 165.041 324.607C164.715 324.777 164.43 324.954 164.224 325.133C164.123 325.222 164.02 325.329 163.945 325.454C163.872 325.577 163.8 325.765 163.848 325.983L163.847 325.983C163.847 325.986 163.849 325.99 163.849 325.994L163.849 325.995L163.85 325.995C163.917 326.29 164.141 326.494 164.319 326.621C164.519 326.764 164.773 326.892 165.049 327.005C165.606 327.234 166.336 327.438 167.119 327.601Z" fill="black" stroke="black"/>
</svg>
