<?xml version="1.0" standalone="no"?>
<!DOCTYPE svg PUBLIC "-//W3C//DTD SVG 20010904//EN"
 "http://www.w3.org/TR/2001/REC-SVG-20010904/DTD/svg10.dtd">
<svg version="1.0" xmlns="http://www.w3.org/2000/svg"
 width="200.000000pt" height="200.000000pt" viewBox="0 0 200.000000 200.000000"
 preserveAspectRatio="xMidYMid meet">
<metadata>
Created by potrace 1.10, written by Peter Selinger 2001-2011
</metadata>
<g transform="translate(0.000000,200.000000) scale(0.100000,-0.100000)"
fill="#000000" stroke="none">
<path d="M1119 1917 c-103 -39 -169 -124 -169 -220 l0 -44 -60 -6 c-149 -13
-259 -121 -278 -273 l-7 -57 -55 -12 c-76 -15 -142 -49 -196 -101 -57 -56 -86
-120 -92 -206 -4 -53 -8 -69 -22 -73 -29 -9 -100 -92 -123 -143 -26 -57 -29
-181 -8 -257 32 -114 108 -232 219 -342 88 -87 125 -113 165 -113 30 0 77 39
77 64 0 28 -22 64 -46 75 -35 15 -108 85 -165 157 -106 133 -144 275 -99 368
12 25 27 46 33 46 7 0 27 -29 45 -63 46 -90 127 -184 234 -273 113 -95 173
-124 250 -124 52 0 62 3 98 36 72 65 76 159 13 286 -51 100 -144 196 -241 246
-88 46 -198 82 -248 82 -30 0 -34 3 -34 25 0 42 26 91 63 120 33 24 112 55
143 55 7 0 31 -38 52 -84 22 -46 70 -130 108 -186 114 -171 217 -263 332 -296
49 -15 58 -15 98 1 152 58 109 327 -81 509 -68 65 -195 142 -293 177 -77 27
-77 27 -74 60 4 46 33 98 65 123 17 13 48 21 87 24 l61 4 16 -43 c36 -92 134
-277 182 -340 132 -174 295 -251 392 -186 77 51 87 145 29 264 -62 125 -271
311 -442 394 -39 19 -49 29 -54 55 -14 73 36 134 108 134 45 -1 130 -37 205
-88 91 -62 238 -206 299 -293 60 -85 96 -109 136 -88 54 28 52 73 -8 164 -103
156 -357 371 -501 425 -73 27 -167 35 -214 17z m172 -594 c88 -68 189 -203
189 -253 0 -21 -36 -9 -85 28 -66 50 -135 138 -186 235 l-42 80 34 -23 c19
-13 59 -43 90 -67z m-386 -230 c135 -79 227 -192 241 -297 8 -57 -3 -59 -69
-15 -68 45 -191 200 -251 316 -29 57 -24 57 79 -4z m-384 -292 c95 -32 152
-67 207 -125 74 -78 124 -191 92 -211 -25 -15 -163 87 -258 190 -57 63 -122
165 -104 165 5 0 33 -8 63 -19z"/>
</g>
</svg>
