<svg width="205" height="290" viewBox="0 0 205 290" fill="none" xmlns="http://www.w3.org/2000/svg">
<path d="M40.5855 3.40469C22.4726 11.2597 10.1961 30.9981 3.3534 64.0296C-1.87922 89.0047 -0.872944 126.467 5.5672 147.817C17.24 187.294 38.7742 214.081 64.5348 221.936C71.3774 223.951 71.9812 224.756 70.7737 229.389C70.1699 232.208 65.7423 238.855 60.9122 243.89C47.4281 258.593 44.8118 273.095 53.8683 284.173C56.8871 287.798 58.2959 288.402 60.1072 286.59C62.1197 284.777 61.9185 283.166 59.3022 279.742C52.6608 270.275 56.0821 258.191 68.9624 245.904C73.1887 241.876 76.6101 236.035 77.4151 232.208C78.8239 225.159 79.6289 224.555 84.0565 227.375C86.4715 228.986 87.2766 236.035 87.8803 259.6C88.6853 288.604 88.8866 290.014 92.9117 290.014C96.9368 290.014 96.9368 289.208 95.528 260.205C94.9242 243.89 93.7167 220.728 92.9117 208.845L91.7042 186.891L85.4653 188.099C82.0439 188.704 73.5912 190.113 66.5473 191.523C51.8557 194.343 45.8181 192.329 39.5792 182.258C31.529 168.965 37.1642 153.658 51.6545 149.025C61.9185 145.601 63.5285 143.789 59.5034 139.358C50.2457 129.086 46.6231 107.736 53.2645 100.485C59.5034 93.6372 73.5912 84.5736 78.2201 84.5736C84.0565 84.5736 93.5154 89.8103 97.138 94.8456C101.364 101.089 105.591 98.2696 106.999 88.6019C110.22 63.4254 145.842 55.7717 158.923 77.3228C163.15 84.1708 164.156 100.485 160.734 106.729C158.118 111.563 159.929 112.57 173.212 114.181C181.665 115.188 185.288 116.8 190.721 122.238C197.363 128.884 197.564 129.287 196.357 142.177C194.948 157.082 188.306 170.778 181.866 172.188C179.652 172.792 174.42 173.396 170.395 173.598L162.948 174.202L162.143 232.208C161.539 277.728 161.942 290.014 163.955 290.014C167.376 290.014 169.59 260.205 169.791 216.096V181.251H175.426C189.514 181.251 198.973 169.569 202.998 147.414C204.608 137.948 204.608 132.912 202.998 127.877C200.583 120.828 188.709 108.743 184.08 108.743C182.269 108.743 180.256 102.701 178.042 90.2132C173.413 65.4395 165.363 48.9238 150.068 33.415C129.943 12.871 103.779 2.1962 69.1636 0.786316C53.0633 0.182098 47.4282 0.58493 40.5855 3.40469ZM106.999 14.4823C114.647 17.1007 120.484 20.1219 120.282 21.1289C118.874 25.7614 98.3456 40.8673 81.6414 49.528C71.78 54.5633 63.5285 58.3901 63.3273 57.9873C62.7235 57.383 49.2394 19.3162 46.6231 11.2597C45.4156 7.63434 46.6231 7.63434 69.3649 8.64139C87.4778 9.24564 96.7355 10.6555 106.999 14.4823ZM41.5918 18.5106C43.0005 22.136 47.0256 33.2136 50.447 43.0828C55.4783 57.5845 56.0821 61.2099 53.8683 62.6198C47.2269 66.8494 28.1077 72.8918 18.045 73.8988C8.18351 75.1073 7.37849 74.9059 8.38477 71.2805C9.18979 69.2663 10.5986 62.8212 12.0073 57.383C15.6299 42.4786 22.4726 27.9769 29.919 19.5176C33.3403 15.4894 36.9629 12.0654 37.7679 12.0654C38.573 12.0654 40.183 15.0866 41.5918 18.5106ZM148.659 41.8743C153.288 47.111 159.326 55.5703 161.942 60.8071C170.395 77.7256 176.03 106.729 170.797 106.729C169.59 106.729 168.785 101.291 168.785 94.4428C168.785 59.8 133.968 44.6941 109.012 68.8635C105.591 72.2875 102.169 77.3228 101.364 79.9412C100.559 83.768 99.3518 84.5736 96.7355 83.5666C79.2264 75.9129 77.4151 75.7115 69.1636 79.7398C64.736 81.7539 56.6859 87.7962 51.252 93.0329L41.3905 102.499L42.598 113.778C43.2018 120.022 45.6169 128.683 47.6294 133.114L51.6545 141.17L45.2144 143.789C41.5918 145.4 36.5604 149.025 34.1454 152.248C30.1203 157.283 29.7178 159.902 30.3215 170.576C30.9253 181.251 32.1328 184.272 36.9629 189.509C47.2269 200.184 52.4595 201.795 66.7486 199.378C73.5912 197.968 80.6351 196.156 82.6477 195.149C85.8678 193.336 86.2703 194.343 86.2703 206.629V220.124L79.2264 218.915C56.8871 215.29 35.7554 198.573 24.0826 175.612C11.8061 151.241 2.95089 107.132 6.57348 88.1991C7.781 81.9553 8.38477 81.5525 16.4349 81.351C29.114 80.9482 43.4031 75.9129 75.2013 60.2028C94.1192 50.9379 107.603 42.68 116.257 35.4292L129.137 24.3515L134.773 28.3798C137.791 30.5953 144.03 36.6376 148.659 41.8743Z" fill="black"/>
<path d="M117.063 209.448C114.648 210.455 111.629 213.274 110.22 215.691C106.799 222.338 112.434 225.561 127.327 225.561C146.446 225.561 154.697 219.518 146.848 211.663C143.628 208.441 140.207 207.433 132.157 207.635C126.32 207.635 119.478 208.441 117.063 209.448Z" fill="black"/>
<path d="M113.238 245.702C100.76 250.738 108.408 260.204 125.917 261.413C141.011 262.42 148.659 259.6 148.659 252.953C148.659 249.932 147.049 246.911 144.835 245.702C140.206 243.286 119.276 243.286 113.238 245.702Z" fill="black"/>
</svg>
