<?xml version="1.0" standalone="no"?>
<!DOCTYPE svg PUBLIC "-//W3C//DTD SVG 20010904//EN"
 "http://www.w3.org/TR/2001/REC-SVG-20010904/DTD/svg10.dtd">
<svg version="1.0" xmlns="http://www.w3.org/2000/svg"
 width="300.000000pt" height="200.000000pt" viewBox="0 0 300.000000 200.000000"
 preserveAspectRatio="xMidYMid meet">
<metadata>
Created by potrace 1.10, written by Peter Selinger 2001-2011
</metadata>
<g transform="translate(0.000000,200.000000) scale(0.100000,-0.100000)"
fill="#000000" stroke="none">
<path d="M2515 1778 c-60 -22 -92 -59 -230 -264 -77 -115 -144 -212 -149 -215
-5 -4 -27 -10 -49 -13 -53 -9 -88 -30 -116 -72 -21 -30 -23 -42 -18 -98 l6
-64 -32 -6 c-81 -15 -137 -85 -137 -171 0 -50 18 -103 42 -123 14 -11 10 -23
-34 -103 l-50 -90 6 -132 c10 -212 16 -257 33 -257 8 0 59 27 113 60 53 33
110 64 126 70 35 13 94 52 94 62 0 4 13 28 30 54 20 32 43 53 72 66 24 11 60
35 80 55 l37 36 31 -27 c56 -47 116 -47 178 0 73 56 80 130 21 221 -23 35 -40
65 -38 66 19 12 304 137 377 165 70 27 92 40 92 54 0 10 -2 18 -5 18 -12 0
-155 -59 -305 -127 -227 -102 -211 -93 -204 -117 4 -12 10 -22 15 -24 5 -2 25
-30 44 -62 34 -55 35 -62 25 -99 -17 -64 -71 -99 -140 -92 -8 1 -32 20 -52 42
l-37 40 -58 -59 c-32 -32 -71 -62 -86 -66 -34 -8 -101 21 -147 64 -34 32 -40
77 -15 120 26 45 20 50 -47 44 -52 -4 -69 -2 -95 15 -65 41 -89 119 -58 185
22 46 51 66 118 81 57 13 57 13 36 88 -12 43 -11 51 6 83 27 51 66 68 158 68
71 1 81 -1 98 -23 10 -13 19 -34 19 -47 0 -34 21 -39 69 -15 22 12 44 21 49
21 4 0 16 -24 25 -53 21 -65 76 -133 100 -124 22 8 22 62 2 137 -22 84 -22 86
41 109 30 12 59 19 64 16 4 -3 11 -22 15 -43 3 -20 18 -59 33 -87 21 -39 32
-50 52 -50 l25 0 -3 111 -4 111 33 12 c56 19 63 15 77 -41 15 -64 57 -130 79
-126 14 3 17 19 17 104 1 102 11 134 42 134 8 0 14 9 14 20 0 25 5 25 -77 -3
-175 -61 -234 -79 -239 -74 -9 9 32 79 81 137 75 90 80 155 17 216 -72 70
-197 108 -267 82z m165 -55 c68 -30 110 -74 110 -115 0 -18 -7 -44 -16 -57
-16 -22 -16 -22 -38 -3 -68 61 -157 102 -253 117 -24 4 -43 11 -43 15 0 15 64
58 100 67 40 11 76 5 140 -24z m-121 -112 c81 -25 209 -121 162 -121 -6 0 -13
5 -16 10 -16 26 -180 90 -268 105 -21 3 -35 10 -32 16 10 15 89 10 154 -10z
m-44 -63 c74 -21 139 -51 167 -75 16 -14 15 -19 -14 -72 -17 -31 -37 -63 -45
-72 -12 -14 -83 -42 -90 -36 -1 2 20 42 48 90 45 80 53 107 29 107 -9 0 -120
-191 -120 -207 0 -10 -160 -83 -181 -83 -16 0 57 132 125 228 60 83 72 112 46
112 -12 0 -119 -149 -160 -223 l-35 -64 -30 19 c-16 10 -38 18 -47 18 -10 0
-18 5 -18 10 0 6 41 71 90 146 l91 135 37 -6 c20 -4 68 -16 107 -27z m397
-250 c-4 -78 -13 -76 -33 6 -9 39 -9 50 2 57 29 18 34 9 31 -63z m-200 -72 c3
-97 -10 -101 -37 -11 -23 79 -21 86 27 94 3 0 8 -37 10 -83z m-234 -71 c7 -35
15 -72 18 -82 4 -14 0 -12 -15 5 -29 34 -55 123 -39 134 22 13 24 10 36 -57z
m-552 -456 c25 -6 44 -14 42 -18 -2 -3 -28 -46 -58 -95 l-54 -88 -28 33 c-16
18 -28 37 -28 42 0 11 70 137 76 137 3 0 25 -5 50 -11z m64 -95 c0 -15 12 -38
31 -56 l31 -31 -22 -41 c-40 -72 -44 -74 -92 -40 -24 17 -42 38 -42 47 2 21
76 147 87 147 4 0 7 -12 7 -26z m-90 -186 c19 -14 59 -34 88 -44 28 -10 52
-21 52 -24 0 -3 -29 -19 -63 -36 -61 -30 -64 -31 -85 -13 -12 9 -40 20 -62 24
l-40 7 0 63 c0 34 -3 78 -6 96 l-7 34 44 -41 c24 -23 60 -52 79 -66z m238 56
c2 -1 -8 -23 -23 -48 -24 -41 -30 -45 -53 -40 -15 4 -29 8 -30 10 -2 1 8 25
23 53 26 47 29 49 54 38 14 -6 28 -12 29 -13z"/>
</g>
</svg>
