<svg width="292" height="378" viewBox="0 0 292 378" fill="none" xmlns="http://www.w3.org/2000/svg">
<path d="M179.155 2.64801C165.196 7.77014 157.751 16.3847 125.647 64.1136C107.733 90.8884 92.1462 113.472 90.983 114.171C89.8198 115.102 84.7017 116.499 79.5835 117.198C67.2535 119.293 59.111 124.182 52.597 133.961C47.7115 140.946 47.2463 143.739 48.4095 156.778L49.8053 171.678L42.3608 173.075C23.5167 176.568 10.4888 192.865 10.4888 212.888C10.4888 224.529 14.6763 236.869 20.2597 241.526C23.5167 244.087 22.5862 246.881 12.3499 265.507L0.717773 286.461L2.11363 317.193C4.44005 366.552 5.83591 377.029 9.79083 377.029C11.652 377.029 23.5167 370.743 36.0794 363.06C48.4095 355.377 61.6701 348.159 65.3924 346.762C73.5348 343.735 87.2607 334.655 87.2607 332.327C87.2607 331.396 90.2851 325.808 94.24 319.755C98.8929 312.304 104.244 307.415 110.99 304.388C116.574 301.827 124.949 296.239 129.602 291.583L138.209 283.201L145.421 289.487C158.449 300.43 172.408 300.43 186.832 289.487C203.815 276.449 205.443 259.22 191.717 238.033C186.366 229.884 182.412 222.9 182.877 222.667C187.297 219.873 253.6 190.77 270.583 184.251C286.868 177.965 291.986 174.938 291.986 171.678C291.986 169.35 291.521 167.488 290.823 167.488C288.031 167.488 254.763 181.224 219.867 197.056C167.057 220.804 170.779 218.709 172.408 224.297C173.338 227.091 174.734 229.419 175.898 229.884C177.061 230.35 181.714 236.869 186.134 244.32C194.044 257.125 194.276 258.755 191.95 267.369C187.995 282.27 175.432 290.419 159.38 288.789C157.519 288.556 151.935 284.132 147.282 279.01L138.675 269.697L125.181 283.434C117.737 290.884 108.664 297.869 105.174 298.8C97.2644 300.663 81.6773 293.911 70.9758 283.9C63.0659 276.449 61.6701 265.972 67.4861 255.961C73.5348 245.484 72.139 244.32 56.552 245.716C44.4545 246.648 40.4996 246.182 34.4509 242.224C19.3292 232.678 13.7457 214.518 20.9577 199.152C26.0758 188.442 32.8224 183.785 48.4095 180.293C61.6701 177.266 61.6701 177.266 56.7846 159.804C53.9929 149.793 54.2255 147.93 58.1805 140.48C64.4618 128.606 73.5348 124.648 94.938 124.648C111.456 124.415 113.782 124.881 117.737 130.003C120.063 133.03 122.157 137.919 122.157 140.946C122.157 148.862 127.043 150.026 138.209 144.438C143.328 141.644 148.446 139.549 149.609 139.549C150.539 139.549 153.331 145.136 155.425 151.888C160.31 167.022 173.106 182.854 178.689 180.759C183.807 178.896 183.807 166.323 179.155 148.862C174.036 129.304 174.036 128.839 188.693 123.484C195.672 120.69 202.419 119.06 203.582 119.759C204.513 120.457 206.141 124.881 207.072 129.77C207.77 134.427 211.259 143.507 214.749 150.026C219.634 159.106 222.193 161.667 226.846 161.667H232.662L231.964 135.823L231.034 109.98L238.711 107.186C251.739 102.762 253.367 103.694 256.624 116.732C260.114 131.633 269.885 146.999 275.003 146.068C278.26 145.369 278.958 141.644 278.958 121.854C279.191 98.1059 281.517 90.6555 288.729 90.6555C290.59 90.6555 291.986 88.5602 291.986 85.9991C291.986 80.1785 293.149 80.1785 274.073 86.6975C233.36 100.9 219.634 105.091 218.471 103.927C216.377 101.831 225.916 85.5334 237.315 72.0296C254.763 51.0755 255.927 35.9419 241.27 21.7396C224.52 5.4419 195.439 -3.40542 179.155 2.64801ZM217.54 15.4533C233.36 22.4381 243.131 32.6823 243.131 42.2281C243.131 46.419 241.503 52.4724 239.409 55.4991C235.687 60.6212 235.687 60.6212 230.568 56.1976C214.749 41.9953 194.044 32.4495 171.71 28.9572C166.127 28.0259 161.706 26.3961 161.706 25.4648C161.706 21.9724 176.595 11.961 184.971 9.86557C194.276 7.3045 202.651 8.70144 217.54 15.4533ZM189.391 41.5297C208.235 47.3503 238.013 69.7014 227.079 69.7014C225.683 69.7014 224.054 68.5373 223.357 67.3731C219.634 61.3197 181.481 46.419 161.008 42.9266C156.123 42.2281 152.866 40.5984 153.564 39.2014C155.89 35.7091 174.269 36.8732 189.391 41.5297ZM179.155 56.1976C196.37 61.0869 211.492 68.0716 218.006 73.6594C221.728 76.9189 221.495 78.083 214.749 90.4227C210.794 97.6403 206.141 105.091 204.28 107.186C201.488 110.446 184.971 116.965 183.342 115.568C183.109 115.102 187.995 105.789 194.509 94.6136C204.978 75.9876 206.839 69.7014 201.256 69.7014C199.162 69.7014 173.338 114.171 173.338 117.896C173.338 120.224 136.116 137.22 131.23 137.22C127.508 137.22 144.491 106.488 160.31 84.1365C174.269 64.8121 177.061 58.0602 171.012 58.0602C168.22 58.0602 143.328 92.751 133.789 109.98L125.647 124.881L118.667 120.457C114.945 118.129 109.827 116.266 107.733 116.266C105.407 116.266 103.546 115.102 103.546 113.938C103.546 112.541 113.084 97.4075 124.484 79.9456L145.654 48.5144L154.262 49.9113C158.915 50.8426 170.081 53.6365 179.155 56.1976ZM271.514 114.404C270.583 132.564 268.489 132.098 263.836 113.007C261.743 103.927 261.743 101.365 264.302 99.7357C271.048 95.5449 272.211 97.6403 271.514 114.404ZM224.985 131.167C225.683 153.751 222.659 154.682 216.377 133.728C211.027 115.335 211.492 113.705 222.659 111.843C223.357 111.843 224.52 120.457 224.985 131.167ZM170.547 147.697C172.175 155.846 174.036 164.461 174.734 166.789C175.665 170.049 174.734 169.583 171.245 165.625C164.498 157.709 158.449 136.988 162.172 134.426C167.29 131.4 167.755 132.098 170.547 147.697ZM42.1281 253.865C47.9442 255.262 52.3644 257.125 51.8991 258.056C51.4338 258.755 45.3851 268.766 38.4058 280.174L25.8432 300.663L19.3292 292.98C15.6069 288.789 12.8152 284.365 12.8152 283.201C12.8152 280.64 29.1001 251.304 30.496 251.304C31.1939 251.304 36.3121 252.468 42.1281 253.865ZM57.0172 275.984C57.0172 279.476 59.8089 284.831 64.2292 289.022L71.4411 296.239L66.3229 305.785C57.0172 322.548 56.0867 323.014 44.9198 315.098C39.3364 311.14 35.1488 306.251 35.1488 304.155C35.6141 299.266 52.8297 269.93 55.3887 269.93C56.3193 269.93 57.0172 272.724 57.0172 275.984ZM36.0794 319.289C40.4996 322.548 49.8053 327.205 56.552 329.533C63.0659 331.861 68.6494 334.422 68.6494 335.121C68.6494 335.819 61.9027 339.545 53.9929 343.503C39.8017 350.487 39.1038 350.72 34.2183 346.529C31.4266 344.434 24.9126 341.873 19.7945 340.942L10.4888 339.312V324.644C10.4888 316.728 9.79083 306.484 9.0929 302.293L7.4644 294.377L17.7007 303.923C23.2841 309.277 31.6592 316.029 36.0794 319.289ZM91.4483 306.251C91.9136 306.484 89.5872 311.606 86.0975 317.426C80.5141 326.972 79.1183 327.903 73.7675 326.739C70.2779 325.808 67.0209 324.877 66.7882 324.411C66.3229 324.178 68.6494 318.59 72.139 312.071C78.1877 301.129 78.8856 300.663 84.7017 303.224C87.9587 304.621 91.2157 306.018 91.4483 306.251Z" fill="black"/>
</svg>
