<?xml version="1.0" standalone="no"?>
<!DOCTYPE svg PUBLIC "-//W3C//DTD SVG 20010904//EN"
 "http://www.w3.org/TR/2001/REC-SVG-20010904/DTD/svg10.dtd">
<svg version="1.0" xmlns="http://www.w3.org/2000/svg"
 width="300.000000pt" height="200.000000pt" viewBox="0 0 300.000000 200.000000"
 preserveAspectRatio="xMidYMid meet">
<metadata>
Created by potrace 1.10, written by Peter Selinger 2001-2011
</metadata>
<g transform="translate(0.000000,200.000000) scale(0.100000,-0.100000)"
fill="#000000" stroke="none">
<path d="M1993 1423 c-90 -39 -151 -137 -185 -301 -26 -124 -21 -310 11 -416
58 -196 165 -329 293 -368 34 -10 37 -14 31 -37 -3 -14 -25 -47 -49 -72 -67
-73 -80 -145 -35 -200 15 -18 22 -21 31 -12 10 9 9 17 -4 34 -33 47 -16 107
48 168 21 20 38 49 42 68 7 35 11 38 33 24 12 -8 16 -43 19 -160 4 -144 5
-151 25 -151 20 0 20 4 13 148 -3 81 -9 196 -13 255 l-6 109 -31 -6 c-17 -3
-59 -10 -94 -17 -73 -14 -103 -4 -134 46 -40 66 -12 142 60 165 51 17 59 26
39 48 -46 51 -64 157 -31 193 31 34 101 79 124 79 29 0 76 -26 94 -51 21 -31
42 -17 49 31 16 125 193 163 258 56 21 -34 26 -115 9 -146 -13 -24 -4 -29 62
-37 42 -5 60 -13 87 -40 33 -33 34 -35 28 -99 -7 -74 -40 -142 -72 -149 -11
-3 -37 -6 -57 -7 l-37 -3 -4 -288 c-3 -226 -1 -287 9 -287 17 0 28 148 29 367
l0 173 28 0 c70 0 117 58 137 168 8 47 8 72 0 97 -12 35 -71 95 -94 95 -9 0
-19 30 -30 92 -23 123 -63 205 -139 282 -100 102 -230 155 -402 162 -80 3
-108 1 -142 -13z m330 -55 c38 -13 67 -28 66 -33 -7 -23 -109 -98 -192 -141
-49 -25 -90 -44 -91 -42 -3 3 -70 192 -83 232 -6 18 0 18 113 13 90 -3 136
-10 187 -29z m-325 -20 c7 -18 27 -73 44 -122 25 -72 28 -90 17 -97 -33 -21
-128 -51 -178 -56 -49 -6 -53 -5 -48 13 4 10 11 42 18 69 18 74 52 146 89 188
17 20 35 37 39 37 4 0 12 -15 19 -32z m532 -116 c23 -26 53 -68 66 -94 42 -84
70 -228 44 -228 -6 0 -10 27 -10 61 0 172 -173 247 -297 127 -17 -17 -34 -42
-38 -55 -4 -19 -10 -23 -23 -18 -87 38 -96 39 -137 19 -22 -10 -62 -40 -89
-66 l-49 -47 6 -56 c3 -31 15 -74 25 -96 l20 -40 -32 -13 c-18 -8 -43 -26 -55
-42 -20 -25 -22 -38 -19 -91 3 -53 9 -68 33 -94 51 -53 77 -61 148 -49 34 7
69 16 79 21 16 9 18 4 18 -57 l0 -67 -35 6 c-111 18 -216 101 -274 215 -61
121 -105 340 -87 434 6 31 9 33 49 34 63 2 134 27 292 105 94 46 161 87 204
123 l64 55 28 -20 c15 -11 46 -41 69 -67z"/>
<path d="M2373 400 c-12 -5 -27 -19 -34 -31 -17 -33 11 -49 85 -49 95 0 136
30 97 69 -16 16 -33 21 -73 20 -29 0 -63 -4 -75 -9z"/>
<path d="M2354 220 c-62 -25 -24 -72 63 -78 75 -5 113 9 113 42 0 15 -8 30
-19 36 -23 12 -127 12 -157 0z"/>
</g>
</svg>
