<?xml version="1.0" standalone="no"?>
<!DOCTYPE svg PUBLIC "-//W3C//DTD SVG 20010904//EN"
 "http://www.w3.org/TR/2001/REC-SVG-20010904/DTD/svg10.dtd">
<svg version="1.0" xmlns="http://www.w3.org/2000/svg"
 width="300.000000pt" height="202.000000pt" viewBox="0 0 300.000000 202.000000"
 preserveAspectRatio="xMidYMid meet">
<metadata>
Created by potrace 1.10, written by Peter Selinger 2001-2011
</metadata>
<g transform="translate(0.000000,202.000000) scale(0.100000,-0.100000)"
fill="#000000" stroke="none">
<path d="M1543 1975 c-23 -26 -39 -35 -62 -35 -24 0 -31 4 -31 19 0 48 -74 53
-86 6 -5 -20 -13 -25 -38 -25 -17 0 -41 -3 -53 -6 -18 -5 -22 -1 -25 23 -2 22
-9 29 -31 31 -24 3 -30 -2 -40 -27 -11 -29 -15 -31 -59 -31 -36 0 -48 4 -48
15 0 8 -11 22 -25 31 -23 15 -27 15 -50 0 -14 -9 -25 -23 -25 -31 0 -12 -14
-15 -60 -15 -57 0 -60 1 -60 24 0 42 -44 42 -60 0 -12 -31 -60 -35 -60 -5 0
21 -25 51 -42 51 -5 0 -15 -13 -21 -30 -10 -28 -15 -30 -59 -30 -40 0 -48 3
-48 19 0 10 -7 24 -15 31 -12 10 -20 7 -44 -19 -23 -25 -37 -31 -70 -31 -34 0
-41 3 -41 19 0 10 -7 21 -15 25 -17 6 -45 -2 -45 -14 0 -18 -33 -40 -61 -40
-22 0 -29 5 -29 20 0 21 -30 42 -47 32 -5 -4 -15 -17 -22 -29 -15 -28 -61 -32
-61 -5 0 14 -4 13 -19 -7 -13 -17 -25 -23 -43 -19 l-26 5 4 -441 c2 -243 7
-497 12 -566 6 -81 5 -173 -1 -260 -6 -74 -11 -250 -12 -390 0 -250 0 -255 20
-250 11 3 443 4 960 2 584 -2 997 1 1090 7 105 7 255 7 503 -1 229 -7 357 -7
363 -1 12 12 12 -39 4 478 -7 528 -7 979 0 1229 5 192 3 226 -17 226 -6 0 -20
8 -31 17 -18 17 -19 17 -32 0 -9 -12 -26 -17 -62 -17 -42 0 -52 3 -56 20 -7
27 -62 28 -76 1 -12 -22 -71 -34 -71 -15 0 17 -35 35 -53 28 -8 -3 -17 -14
-20 -25 -7 -27 -34 -24 -41 6 -5 20 -13 25 -36 25 -23 0 -33 -6 -42 -25 -15
-33 -62 -34 -88 -3 -15 20 -21 21 -44 10 -14 -6 -26 -18 -26 -27 0 -9 -9 -15
-24 -15 -19 0 -25 6 -28 28 -4 37 -39 42 -62 8 -22 -34 -77 -36 -98 -4 -11 16
-20 20 -41 14 -15 -3 -27 -13 -27 -22 0 -11 -5 -14 -16 -10 -9 3 -24 6 -34 6
-11 0 -20 8 -22 22 -4 32 -24 33 -53 4 -32 -32 -80 -35 -88 -6 -7 29 -45 26
-59 -5 -9 -21 -18 -25 -55 -25 -39 0 -43 2 -43 24 0 21 -16 36 -39 36 -4 0
-21 -16 -38 -35z m52 -16 c-4 -5 -13 -9 -22 -9 -13 0 -13 3 -3 15 13 15 35 11
25 -6z m-175 -10 c0 -5 -7 -9 -15 -9 -15 0 -20 12 -9 23 8 8 24 -1 24 -14z
m1060 11 c0 -5 -5 -10 -11 -10 -5 0 -7 5 -4 10 3 6 8 10 11 10 2 0 4 -4 4 -10z
m-280 -10 c0 -5 -4 -10 -10 -10 -5 0 -10 5 -10 10 0 6 5 10 10 10 6 0 10 -4
10 -10z m120 0 c0 -5 -5 -10 -11 -10 -5 0 -7 5 -4 10 3 6 8 10 11 10 2 0 4 -4
4 -10z m-1623 -17 c-4 -3 -7 0 -7 7 0 7 3 10 7 7 3 -4 3 -10 0 -14z m338 7 c3
-5 -1 -10 -10 -10 -9 0 -13 5 -10 10 3 6 8 10 10 10 2 0 7 -4 10 -10z m182 -7
c-4 -3 -7 0 -7 7 0 7 3 10 7 7 3 -4 3 -10 0 -14z m373 -10 c0 -10 -20 -40 -20
-31 0 3 -3 13 -6 22 -4 11 -1 16 10 16 9 0 16 -3 16 -7z m118 -30 c3 -27 0
-32 -26 -37 -16 -4 -40 -2 -55 3 -24 9 -25 13 -15 41 10 29 13 31 52 28 38 -3
41 -5 44 -35z m52 23 c0 -8 -4 -18 -10 -21 -5 -3 -10 -4 -10 -1 0 2 -3 11 -6
20 -4 11 -1 16 10 16 9 0 16 -6 16 -14z m83 -3 c2 -10 8 -25 11 -34 5 -11 -1
-19 -19 -27 -31 -14 -36 -14 -54 -3 -22 14 7 81 35 81 12 0 24 -8 27 -17z m47
3 c0 -8 -4 -18 -10 -21 -5 -3 -10 -4 -10 -1 0 2 -3 11 -6 20 -4 11 -1 16 10
16 9 0 16 -6 16 -14z m98 -18 c14 -39 2 -51 -42 -43 -38 7 -39 8 -31 44 5 25
12 31 34 31 21 0 29 -7 39 -32z m50 20 c-6 -18 -28 -21 -28 -4 0 9 7 16 16 16
9 0 14 -5 12 -12z m68 6 c17 -5 44 -40 44 -58 0 -10 -63 -14 -85 -6 -24 9 -24
10 -7 40 19 33 18 32 48 24z m578 -18 c3 -13 8 -31 12 -39 11 -30 -60 -39 -94
-12 -2 2 4 19 12 39 19 44 60 52 70 12z m46 8 c0 -8 -5 -12 -10 -9 -6 4 -8 11
-5 16 9 14 15 11 15 -7z m140 6 c0 -22 -31 -69 -49 -75 -10 -3 -31 -1 -46 5
-20 8 -25 15 -20 28 4 9 10 25 12 35 4 13 16 17 54 17 28 0 49 -5 49 -10z m58
-97 c-3 -58 -1 -127 4 -152 10 -53 13 -1599 3 -1609 -4 -4 -244 -8 -533 -9
-290 -2 -705 -4 -922 -5 -217 -2 -630 -1 -918 1 l-523 4 5 271 c3 149 9 332
12 406 3 74 1 218 -6 320 -6 102 -12 337 -13 523 -2 319 -1 337 16 337 11 0
22 -12 29 -30 12 -36 34 -50 80 -50 18 0 42 -7 52 -15 25 -19 49 -19 88 1 25
13 35 14 53 4 23 -13 94 -6 127 11 10 6 34 5 61 -3 33 -8 55 -8 88 0 35 9 46
8 60 -3 20 -19 72 -19 109 0 22 11 35 12 60 4 17 -6 54 -9 82 -7 40 4 54 2 69
-13 26 -26 64 -23 132 10 l58 28 37 -19 c29 -15 50 -18 98 -14 44 4 67 1 80
-9 28 -21 75 -18 128 9 40 20 52 22 82 13 24 -7 44 -7 70 1 30 9 41 8 58 -3
27 -19 86 -19 114 0 18 13 29 14 63 5 33 -9 45 -8 62 3 19 13 26 12 55 -1 26
-13 42 -14 81 -6 38 8 53 7 67 -3 11 -8 42 -13 74 -13 30 1 78 -2 106 -5 34
-5 60 -2 75 6 29 15 137 15 152 0 16 -16 79 -14 103 3 18 13 26 12 67 -1 43
-14 49 -14 73 2 14 9 36 39 48 66 11 27 25 49 30 49 5 0 6 -48 4 -107z m-2307
87 c22 0 29 -5 29 -19 0 -27 -67 -42 -98 -22 -12 7 -12 12 0 30 7 12 19 19 26
16 8 -3 27 -5 43 -5z m404 0 c-3 -5 -11 -10 -16 -10 -6 0 -7 5 -4 10 3 6 11
10 16 10 6 0 7 -4 4 -10z m149 -6 c9 -24 -8 -39 -69 -64 -45 -18 -58 -20 -70
-10 -13 11 -12 16 10 42 14 16 25 34 25 39 0 5 22 9 49 9 36 0 51 -4 55 -16z
m180 0 c18 -48 -12 -72 -71 -58 -45 11 -54 22 -41 50 10 20 18 24 59 24 33 0
49 -4 53 -16z m66 10 c0 -3 -5 -15 -11 -26 -9 -17 -13 -18 -20 -7 -15 23 -10
39 11 39 11 0 20 -3 20 -6z m125 -25 c9 -17 15 -32 13 -34 -15 -13 -72 -35
-90 -35 -41 0 -51 13 -33 46 8 16 15 35 15 42 0 7 15 12 40 12 34 0 42 -4 55
-31z m639 16 c-4 -8 -10 -12 -15 -9 -14 8 -10 24 6 24 9 0 12 -6 9 -15z m95
-17 c9 -24 8 -34 -1 -40 -28 -17 -78 -5 -78 19 0 57 61 73 79 21z m44 11 c-4
-16 -8 -17 -14 -7 -13 19 -11 28 5 28 9 0 12 -7 9 -21z m108 -18 c19 -44 14
-51 -41 -51 -52 0 -59 7 -48 51 9 35 14 39 42 39 27 0 33 -6 47 -39z m47 28
c-2 -6 -8 -10 -13 -10 -5 0 -11 4 -13 10 -2 6 4 11 13 11 9 0 15 -5 13 -11z
m74 -19 c5 -31 -10 -44 -37 -34 -27 11 -14 64 15 64 12 0 19 -10 22 -30z
m-2068 3 c4 -9 2 -21 -3 -26 -11 -11 -111 -23 -111 -13 0 4 7 18 16 31 20 31
88 36 98 8z m306 -3 c8 -15 6 -21 -9 -30 -22 -11 -64 -14 -74 -4 -11 12 28 53
50 54 12 0 27 -9 33 -20z m178 -2 c-2 -18 -11 -24 -37 -26 -51 -5 -81 5 -81
28 0 18 7 20 61 20 57 0 60 -1 57 -22z m-804 -4 c4 -9 4 -19 1 -22 -8 -9 -58
12 -63 26 -6 19 55 15 62 -4z m150 0 c7 -19 8 -17 -21 -33 -47 -24 -83 -8 -63
29 14 26 75 28 84 4z"/>
</g>
</svg>
