<svg width="629" height="495" viewBox="0 0 629 495" fill="none" xmlns="http://www.w3.org/2000/svg">
<path d="M324.465 8.70178C319.558 15.166 316.145 17.4035 311.239 17.4035C306.119 17.4035 304.626 16.4091 304.626 12.6797C304.626 0.74588 288.84 -0.497253 286.28 11.188C285.213 16.1604 283.507 17.4035 278.174 17.4035C274.547 17.4035 269.427 18.1494 266.868 18.8953C263.028 20.1384 262.174 19.1439 261.534 13.177C261.108 7.70728 259.615 5.96692 254.921 5.4697C249.802 4.72382 248.522 5.96692 246.388 12.1825C244.042 19.3925 243.189 19.8898 233.802 19.8898C226.123 19.8898 223.563 18.8953 223.563 16.1604C223.563 14.1714 221.216 10.6907 218.23 8.45316C213.323 4.72382 212.47 4.72382 207.564 8.45316C204.577 10.6907 202.231 14.1714 202.231 16.1604C202.231 19.1439 199.244 19.8898 189.431 19.8898C177.272 19.8898 176.632 19.6411 176.632 13.9228C176.632 3.48071 167.246 3.48071 163.832 13.9228C161.272 21.6301 151.033 22.6246 151.033 15.166C151.033 9.94489 145.7 2.48621 142.073 2.48621C141.007 2.48621 138.874 5.71829 137.594 9.94489C135.46 16.9063 134.394 17.4035 125.007 17.4035C116.475 17.4035 114.768 16.6577 114.768 12.6797C114.768 10.1935 113.275 6.7128 111.568 4.97244C109.008 2.48621 107.302 3.23209 102.182 9.69626C97.2755 15.9118 94.2889 17.4035 87.2493 17.4035C79.9963 17.4035 78.503 16.6577 78.503 12.6797C78.503 10.1935 77.0097 7.45865 75.3031 6.46417C71.6767 4.97244 65.7036 6.96143 65.7036 9.94489C65.7036 14.4201 58.6639 19.8898 52.6909 19.8898C47.9978 19.8898 46.5045 18.6466 46.5045 14.9173C46.5045 9.69626 40.1048 4.47519 36.4783 6.96143C35.4117 7.9559 33.2784 11.188 31.7852 14.1714C28.5853 21.1329 18.7725 22.1273 18.7725 15.4146C18.7725 11.9339 17.9192 12.1825 14.7193 17.1549C11.9461 21.3815 9.38623 22.8732 5.54641 21.8787L0 20.6356L0.853293 130.278C1.27994 190.693 2.34656 253.843 3.41317 270.998C4.69311 291.136 4.47979 314.01 3.19985 335.64C1.91991 354.038 0.853293 397.795 0.63997 432.602C0.63997 494.758 0.63997 496.001 4.90644 494.758C7.25299 494.012 99.4087 493.763 209.697 494.261C334.278 494.758 422.38 494.012 442.219 492.52C464.618 490.78 496.617 490.78 549.521 492.769C598.372 494.509 625.677 494.509 626.957 493.017C629.517 490.034 629.517 502.714 627.811 374.176C626.317 242.904 626.317 130.775 627.811 68.6197C628.877 20.8842 628.451 12.4311 624.184 12.4311C622.904 12.4311 619.918 10.4421 617.571 8.20453C613.731 3.97797 613.518 3.97797 610.745 8.20453C608.825 11.188 605.198 12.4311 597.519 12.4311C588.559 12.4311 586.426 11.6852 585.573 7.45865C584.079 0.74588 572.347 0.497253 569.36 7.21005C566.8 12.6797 554.214 15.6632 554.214 10.9394C554.214 6.7128 546.748 2.23761 542.908 3.97797C541.201 4.72382 539.281 7.45865 538.641 10.1935C537.148 16.9063 531.388 16.1604 529.895 8.70178C528.829 3.72934 527.122 2.48621 522.216 2.48621C517.309 2.48621 515.176 3.97797 513.256 8.70178C510.056 16.9063 500.03 17.1549 494.484 9.44763C491.284 4.47519 490.004 4.22656 485.097 6.96143C482.111 8.45316 479.551 11.4366 479.551 13.6742C479.551 15.9118 477.631 17.4035 474.431 17.4035C470.378 17.4035 469.098 15.9118 468.458 10.4421C467.605 1.2431 460.138 0 455.232 8.45316C450.539 16.9063 438.806 17.4035 434.326 9.44763C431.98 5.4697 430.06 4.47519 425.58 5.96692C422.38 6.7128 419.82 9.19901 419.82 11.4366C419.82 14.1714 418.754 14.9173 416.407 13.9228C414.487 13.177 411.287 12.4311 409.154 12.4311C406.808 12.4311 404.888 10.4421 404.461 6.96143C403.608 -0.994476 399.341 -1.2431 393.155 5.96692C386.329 13.9228 376.089 14.6687 374.382 7.45865C372.889 0.248627 364.783 0.994476 361.796 8.70178C359.876 13.9228 357.957 14.9173 350.064 14.9173C341.744 14.9173 340.891 14.4201 340.891 8.95038C340.891 3.72934 337.478 0 332.571 0C331.718 0 328.091 3.97797 324.465 8.70178ZM335.558 12.6797C334.704 13.9228 332.784 14.9173 330.865 14.9173C328.091 14.9173 328.091 14.1714 330.225 11.188C332.998 7.45865 337.691 8.45316 335.558 12.6797ZM298.226 15.166C298.226 16.4091 296.733 17.4035 295.026 17.4035C291.826 17.4035 290.76 14.4201 293.106 11.6852C294.813 9.69626 298.226 11.9339 298.226 15.166ZM524.349 12.4311C524.349 13.6742 523.282 14.9173 522.002 14.9173C520.936 14.9173 520.509 13.6742 521.149 12.4311C521.789 10.9394 522.856 9.94489 523.495 9.94489C523.922 9.94489 524.349 10.9394 524.349 12.4311ZM464.618 14.9173C464.618 16.1604 463.765 17.4035 462.485 17.4035C461.418 17.4035 460.352 16.1604 460.352 14.9173C460.352 13.4256 461.418 12.4311 462.485 12.4311C463.765 12.4311 464.618 13.4256 464.618 14.9173ZM490.217 14.9173C490.217 16.1604 489.15 17.4035 487.871 17.4035C486.804 17.4035 486.377 16.1604 487.017 14.9173C487.657 13.4256 488.724 12.4311 489.364 12.4311C489.79 12.4311 490.217 13.4256 490.217 14.9173ZM143.993 19.1439C143.14 19.8898 142.5 19.1439 142.5 17.4035C142.5 15.6632 143.14 14.9173 143.993 15.6632C144.633 16.6577 144.633 18.1494 143.993 19.1439ZM216.097 17.4035C216.737 18.6466 215.883 19.8898 213.963 19.8898C212.043 19.8898 211.19 18.6466 211.83 17.4035C212.47 15.9118 213.537 14.9173 213.963 14.9173C214.39 14.9173 215.457 15.9118 216.097 17.4035ZM254.921 19.1439C254.068 19.8898 253.428 19.1439 253.428 17.4035C253.428 15.6632 254.068 14.9173 254.921 15.6632C255.561 16.6577 255.561 18.1494 254.921 19.1439ZM334.491 21.6301C334.491 24.1163 330.225 31.575 330.225 29.3374C330.225 28.5915 329.585 26.1053 328.945 23.8677C328.091 21.1329 328.731 19.8898 331.078 19.8898C332.998 19.8898 334.491 20.6356 334.491 21.6301ZM359.663 29.0888C360.303 35.8016 359.663 37.0447 354.117 38.2878C350.704 39.2823 345.584 38.785 342.384 37.5419C337.264 35.3043 337.051 34.3098 339.184 27.3484C341.317 20.1384 341.957 19.6411 350.277 20.387C358.383 21.1329 359.023 21.6301 359.663 29.0888ZM370.756 23.3705C370.756 25.3594 369.903 27.8457 368.623 28.5915C367.556 29.3374 366.49 29.586 366.49 28.8401C366.49 28.3429 365.85 26.1053 365.21 23.8677C364.356 21.1329 364.996 19.8898 367.343 19.8898C369.263 19.8898 370.756 21.3815 370.756 23.3705ZM388.462 24.1163C388.888 26.6026 390.168 30.3319 390.808 32.5695C391.875 35.3043 390.595 37.2933 386.755 39.2823C380.142 42.763 379.076 42.763 375.236 40.0281C370.543 36.5474 376.729 19.8898 382.702 19.8898C385.262 19.8898 387.822 21.8787 388.462 24.1163ZM398.488 23.3705C398.488 25.3594 397.635 27.8457 396.355 28.5915C395.288 29.3374 394.222 29.586 394.222 28.8401C394.222 28.3429 393.582 26.1053 392.942 23.8677C392.088 21.1329 392.728 19.8898 395.075 19.8898C396.995 19.8898 398.488 21.3815 398.488 23.3705ZM419.394 27.8457C422.38 37.5419 419.82 40.5254 410.434 38.5364C402.328 36.7961 402.115 36.5474 403.821 27.597C404.888 21.3815 406.381 19.8898 411.074 19.8898C415.554 19.8898 417.26 21.6301 419.394 27.8457ZM430.06 22.8732C428.78 27.3484 424.087 28.0943 424.087 23.8677C424.087 21.6301 425.58 19.8898 427.5 19.8898C429.42 19.8898 430.487 21.1329 430.06 22.8732ZM444.566 21.3815C448.192 22.6246 453.952 31.3264 453.952 35.8016C453.952 38.2878 440.513 39.2823 435.82 37.2933C430.7 35.0557 430.7 34.8071 434.326 27.3484C438.379 19.1439 438.166 19.3925 444.566 21.3815ZM567.867 25.8567C568.507 29.0888 569.573 33.564 570.427 35.5529C572.773 43.0116 557.627 45.2492 550.374 38.5364C549.948 38.0392 551.228 33.8126 552.934 28.8401C556.987 17.9008 565.734 15.9118 567.867 25.8567ZM577.68 23.8677C577.68 25.8567 576.613 26.8512 575.546 26.1053C574.266 25.1108 573.84 23.3705 574.48 22.1273C576.4 18.6466 577.68 19.3925 577.68 23.8677ZM607.545 22.376C607.545 27.8457 600.932 39.5309 597.092 41.0226C594.959 41.7685 590.479 41.2712 587.279 39.7795C583.013 37.7906 581.946 36.0502 583.013 32.8181C583.866 30.5805 585.146 26.6026 585.573 24.1163C586.426 20.8842 588.986 19.8898 597.092 19.8898C603.065 19.8898 607.545 21.1329 607.545 22.376ZM619.918 46.4923C619.278 60.9124 619.704 78.0673 620.771 84.2829C622.904 97.4598 623.544 481.829 621.411 484.316C620.558 485.31 569.36 486.305 507.71 486.553C445.846 487.05 357.317 487.548 311.025 487.796C264.734 488.294 176.632 488.045 115.195 487.548L3.6265 486.553L4.69311 419.177C5.33308 382.132 6.61302 336.634 7.25299 318.236C7.89296 299.838 7.46632 264.037 5.97305 238.677C4.69311 213.318 3.41317 154.892 3.19985 108.648C2.7732 29.3374 2.98653 24.8622 6.61302 24.8622C8.95958 24.8622 11.3061 27.8457 12.7994 32.3209C15.3593 41.2712 20.0524 44.752 29.8653 44.752C33.7051 44.752 38.8249 46.4923 40.9581 48.4813C46.2912 53.2051 51.4109 53.2051 59.7305 48.2327C65.0636 45.0006 67.1969 44.752 71.0367 47.2382C75.9431 50.4703 91.0891 48.7299 98.1287 44.5033C100.262 43.0116 105.382 43.2602 111.141 45.2492C118.181 47.2382 122.874 47.2382 129.914 45.2492C137.38 43.0116 139.727 43.2602 142.713 45.9951C146.98 50.7189 158.073 50.7189 165.966 45.9951C170.659 43.2602 173.432 43.0116 178.765 45.0006C182.391 46.4923 190.284 47.2382 196.257 46.7409C204.79 45.7465 207.777 46.2437 210.977 49.973C216.523 56.4372 224.629 55.6913 239.135 47.4868L251.508 40.5254L259.401 45.2492C265.588 48.9785 270.067 49.7244 280.307 48.7299C289.693 47.7354 294.6 48.4813 297.373 50.9675C303.346 56.1886 313.372 55.4427 324.678 48.7299C333.211 43.7575 335.771 43.2602 342.171 45.4978C347.29 47.2382 351.557 47.2382 357.103 45.2492C363.503 43.0116 365.85 43.2602 369.476 45.9951C375.236 50.7189 387.822 50.7189 393.795 45.9951C397.635 42.763 399.981 42.5144 407.234 44.752C414.274 46.9896 416.834 46.7409 420.46 44.0061C424.513 40.774 426.007 41.0226 432.193 44.2547C437.74 47.4868 441.153 47.7354 449.472 45.7465C457.579 43.7575 460.778 44.0061 463.765 46.4923C466.112 48.4813 472.725 49.7244 479.551 49.7244C485.951 49.4758 496.19 50.2216 502.163 50.9675C509.416 52.2106 514.963 51.4648 518.162 49.4758C524.349 45.7465 547.388 45.7465 550.588 49.4758C554.001 53.4537 567.44 52.9565 572.56 48.7299C576.4 45.4978 578.106 45.7465 586.853 48.9785C596.025 52.4592 597.305 52.4592 602.425 48.4813C605.412 46.2437 610.105 38.785 612.665 32.0722C615.011 25.3594 617.998 19.8898 619.064 19.8898C620.131 19.8898 620.344 31.8236 619.918 46.4923ZM127.781 24.8622C132.474 24.8622 133.967 26.1053 133.967 29.586C133.967 36.2988 119.674 40.0281 113.061 35.0557C110.501 33.3153 110.501 32.0722 113.061 27.597C114.555 24.6136 117.115 22.8732 118.608 23.6191C120.314 24.365 124.368 24.8622 127.781 24.8622ZM213.963 24.8622C213.323 26.1053 211.617 27.3484 210.55 27.3484C209.27 27.3484 209.057 26.1053 209.697 24.8622C210.337 23.3705 212.043 22.376 213.11 22.376C214.39 22.376 214.603 23.3705 213.963 24.8622ZM245.749 26.3539C247.668 32.3209 244.042 36.0502 231.029 42.2657C221.43 46.7409 218.656 47.2382 216.097 44.752C213.323 42.0171 213.537 40.774 218.23 34.3098C221.216 30.3319 223.563 25.8567 223.563 24.6136C223.563 23.3705 228.256 22.376 234.016 22.376C241.695 22.376 244.895 23.3705 245.749 26.3539ZM284.147 26.3539C287.987 38.2878 281.587 44.2547 269.001 40.774C259.401 38.0392 257.481 35.3043 260.254 28.3429C262.388 23.3705 264.094 22.376 272.841 22.376C279.88 22.376 283.293 23.3705 284.147 26.3539ZM298.226 23.8677C298.226 24.6136 297.159 27.597 295.879 30.3319C293.96 34.5585 293.106 34.8071 291.613 32.0722C288.413 26.3539 289.48 22.376 293.96 22.376C296.306 22.376 298.226 23.1219 298.226 23.8677ZM324.891 30.0833C326.811 34.3098 328.091 38.0392 327.665 38.5364C324.465 41.7685 312.305 47.2382 308.466 47.2382C299.719 47.2382 297.586 44.0061 301.426 35.8016C303.132 31.8236 304.626 27.0998 304.626 25.3594C304.626 23.6191 307.826 22.376 313.159 22.376C320.412 22.376 322.118 23.3705 324.891 30.0833ZM461.205 26.1053C460.352 28.0943 459.072 29.0888 458.005 28.3429C455.019 26.3539 455.872 22.376 459.285 22.376C461.205 22.376 461.845 23.8677 461.205 26.1053ZM481.471 30.3319C483.391 36.2988 483.177 38.785 481.257 40.2768C475.284 44.5033 464.618 41.5199 464.618 35.5529C464.618 21.3815 477.631 17.4035 481.471 30.3319ZM490.857 27.597C490.004 31.575 489.15 31.8236 487.871 29.3374C485.097 24.6136 485.524 22.376 488.937 22.376C490.857 22.376 491.497 24.1163 490.857 27.597ZM513.896 32.0722C517.949 43.0116 516.883 44.752 505.15 44.752C494.057 44.752 492.564 43.0116 494.91 32.0722C496.83 23.3705 497.897 22.376 503.87 22.376C509.629 22.376 510.909 23.8677 513.896 32.0722ZM523.922 25.1108C523.495 26.6026 522.216 27.597 521.149 27.597C520.082 27.597 518.802 26.6026 518.376 25.1108C517.949 23.6191 519.229 22.376 521.149 22.376C523.069 22.376 524.349 23.6191 523.922 25.1108ZM539.708 29.8347C540.775 37.5419 537.575 40.774 531.815 38.2878C526.055 35.5529 528.829 22.376 535.015 22.376C537.575 22.376 539.068 24.8622 539.708 29.8347ZM98.5554 29.0888C99.4087 31.3264 98.982 34.3098 97.9154 35.5529C95.5689 38.2878 74.2365 41.2712 74.2365 38.785C74.2365 37.7906 75.7298 34.3098 77.6497 31.0778C81.9162 23.3705 96.4222 22.1273 98.5554 29.0888ZM163.832 29.8347C165.539 33.564 165.112 35.0557 161.912 37.2933C157.219 40.0281 148.26 40.774 146.126 38.2878C143.78 35.3043 152.1 25.1108 156.793 24.8622C159.353 24.8622 162.552 27.0998 163.832 29.8347ZM201.804 30.3319C201.377 34.8071 199.457 36.2988 193.911 36.7961C183.031 38.0392 176.632 35.5529 176.632 29.8347C176.632 25.3594 178.125 24.8622 189.644 24.8622C201.804 24.8622 202.444 25.1108 201.804 30.3319ZM30.2919 31.3264C31.1452 33.564 31.1452 36.0502 30.5052 36.7961C28.7987 39.0337 18.1325 33.8126 17.0659 30.3319C15.7859 25.6081 28.7987 26.6026 30.2919 31.3264ZM62.2904 31.3264C63.7837 36.0502 63.997 35.5529 57.8106 39.5309C47.7844 45.4978 40.1048 41.5199 44.3713 32.3209C47.3578 25.8567 60.3705 25.3594 62.2904 31.3264Z" fill="black"/>
</svg>
