<svg width="1051" height="69" viewBox="0 0 1051 69" fill="none" xmlns="http://www.w3.org/2000/svg">
<path d="M318.008 0.000623206C318.705 0.00325734 319.403 0.00589149 320.121 0.00860545C324.796 0.0569353 329.429 0.375017 334.076 0.983053C334.893 1.08601 334.893 1.08601 335.725 1.19105C340.002 1.8237 344.498 2.86564 348.17 5.64775C350.224 6.99443 352.095 5.93743 354.237 5.22715C365.051 1.67503 379.743 1.45141 389.9 7.74217C390.844 8.54769 391.776 9.37256 392.694 10.2179C394.351 11.7069 394.351 11.7069 396.317 12.2319C397.597 11.9007 398.781 11.4152 400.013 10.886C405.685 8.85067 411.415 7.80598 417.279 6.91693C417.652 6.85844 418.024 6.79994 418.408 6.73967C423.838 5.89562 428.57 5.30516 433.714 8.01725C434.239 8.28877 434.764 8.56029 435.304 8.84004C436.182 9.32146 437.051 9.82491 437.904 10.3653C439.424 11.1843 440.464 10.7297 442.064 10.2572C442.959 9.82682 442.959 9.82682 443.873 9.38774C454.559 4.61662 470.3 1.98336 481.073 7.45727C482.764 8.52639 484.34 9.73619 485.93 10.9989C486.82 11.669 486.82 11.669 488.107 11.2396C488.546 10.9154 488.985 10.5912 489.438 10.2572C498.47 4.23211 509.818 3.97565 519.778 6.48466C524.08 7.91949 527.754 9.72644 531.322 12.9294C533.454 14.485 534.771 14.8022 537.169 14.1845C539.604 13.3926 541.983 12.4079 544.371 11.4407C548.48 9.90961 552.796 9.20394 557.038 8.37093C557.418 8.29302 557.799 8.21511 558.19 8.13484C566.394 6.47782 573.414 7.53206 581.178 11.0702C585.046 12.7549 587.142 12.8826 590.951 11.0069C597.115 8.3666 604.164 8.80122 610.628 8.83574C612.128 8.84249 613.627 8.83576 615.126 8.82776C619.455 8.82582 623.618 8.92232 627.894 9.76352C631.603 10.4318 634.257 9.74094 637.746 8.25304C643.643 5.99721 649.336 4.58864 655.511 3.96964C655.915 3.92648 656.32 3.88332 656.737 3.83886C665.675 3.01645 676.308 4.84796 684.268 9.80574C686.558 10.7896 688.91 9.72664 691.174 8.99968C692.444 8.60262 693.714 8.20733 694.985 7.81202C695.863 7.5358 696.739 7.25412 697.614 6.96621C706.564 4.06568 715.654 4.98046 724.742 6.44536C725.276 6.53148 725.276 6.53148 725.822 6.61934C731.775 7.59057 731.775 7.59057 733.757 8.37093C736.356 8.76279 737.955 8.21807 740.344 6.95623C746.365 3.82816 752.725 2.11898 759.307 2.71213C759.685 2.73979 760.062 2.76745 760.452 2.79594C770.394 3.54998 779.085 5.71251 787.518 12.1435C788.709 13.0263 788.709 13.0263 790.614 12.0526C791.458 11.7076 792.3 11.3578 793.14 11.0038C803.586 6.63762 812.502 6.5417 823.181 10.2572C824.079 10.797 824.079 10.797 824.994 11.3477C826.321 12.2763 826.321 12.2763 827.722 12.0575C829.228 11.4357 830.562 10.6449 831.964 9.74633C839.686 5.10206 850.164 1.46761 858.743 4.4977C863.114 6.42463 866.879 9.44639 870.666 12.6077C871.335 13.1643 872.009 13.7121 872.687 14.2532C873.592 14.9857 874.471 15.762 875.345 16.5447C875.345 16.9597 875.345 17.3747 875.345 17.8023C875.826 17.4975 876.306 17.1928 876.801 16.8788C889.56 9.12709 909.26 1.22731 923.788 5.01593C925.72 5.83882 927.249 6.88637 928.903 8.32672C931.648 10.824 931.648 10.824 934.949 11.3993C936.575 10.8806 938.156 10.2619 939.752 9.62844C948.875 7.48008 960.527 8.84483 969.065 13.2536C971.317 14.2788 972.638 13.7768 974.883 12.6936C981.055 9.9265 987.453 8.72931 994.045 8.37093C994.543 8.3377 995.04 8.30447 995.553 8.27023C998.947 8.14125 1002.17 8.37252 1005.22 10.2572C1006.1 11.2688 1006.95 12.3055 1007.78 13.3617C1009.05 14.9255 1009.05 14.9255 1010.55 15.916C1012.43 15.7491 1013.84 15.1609 1015.57 14.2729C1020.4 12.0554 1025.36 11.9252 1030.49 11.945C1031.57 11.947 1032.65 11.9321 1033.73 11.9163C1044.39 11.9101 1044.39 11.9101 1048.11 16.2304C1048.44 16.6 1048.77 16.9696 1049.11 17.3503C1049.94 18.431 1049.94 18.431 1051 20.3173C1050.8 22.0071 1050.8 22.0071 1050.47 23.4611C1049.3 23.9253 1049.3 23.9253 1047.81 24.0898C1046.51 23.0951 1046.51 23.0951 1045.21 21.6927C1041.15 17.3324 1037.09 17.5771 1031.84 17.6058C1030.88 17.609 1030.88 17.609 1029.9 17.6124C1024.28 17.6934 1018.57 17.8177 1013.74 21.5748C1013.89 22.0262 1014.05 22.4777 1014.21 22.9428C1017.47 33.7051 1016.21 43.7198 1012.21 53.9557C1010 58.8466 1008.13 60.3866 1003.73 62.0509C1000.74 62.9669 998.095 63.6141 995.11 62.4439C992.977 60.9427 992.048 59.5979 991.384 56.7851C989.87 47.8435 990.587 37.0378 994.578 29.1199C997.219 25.4592 1000.63 23.0206 1004.11 20.5973C1004.48 20.2974 1004.85 19.9975 1005.22 19.6885C1005.22 19.2735 1005.22 18.8586 1005.22 18.431C1004.35 17.4527 1004.35 17.4527 1003.23 16.5055C1002.67 16.0082 1002.67 16.0082 1002.1 15.5009C998.463 12.8086 993.385 13.9973 989.321 14.5406C988.906 14.5952 988.49 14.6499 988.062 14.7062C985.247 15.1055 982.574 15.7345 979.865 16.7437C978.395 17.2468 976.927 17.5313 975.415 17.8023C975.666 18.3575 975.916 18.9127 976.174 19.4847C980.277 28.7552 983.249 39.9878 980.751 50.4607C979.545 54.5791 978.27 58.7637 975.382 61.6579C971.019 63.8509 965.782 64.5896 961.21 63.0333C958.51 61.1681 956.808 58.9135 955.554 55.5276C953.529 45.0893 955.433 36.4204 959.979 27.2336C961.739 24.1132 963.517 21.015 965.834 18.431C957.21 13.4508 946.328 14.072 937.091 15.916C937.258 16.2062 937.425 16.4963 937.598 16.7953C942.043 24.798 944.835 35.2129 944.01 44.8387C942.907 50.545 940.985 55.7413 937.157 59.5752C933.286 61.8617 929.468 62.0583 925.214 62.0509C924.672 62.0508 924.13 62.0507 923.572 62.0506C918.98 61.968 915.389 61.0732 911.541 58.0426C911.541 57.6276 911.541 57.2126 911.541 56.7851C911.19 56.7851 910.838 56.7851 910.476 56.7851C907.805 51.4926 907.377 47.3043 907.815 41.0662C908.315 39.1801 909.019 37.6727 909.944 36.0362C910.229 35.4137 910.515 34.7912 910.809 34.1499C911.051 33.7349 911.292 33.3199 911.541 32.8924C911.892 32.8924 912.243 32.8924 912.605 32.8924C912.726 32.5422 912.847 32.1921 912.971 31.8314C913.87 29.9614 914.983 28.6671 916.331 27.2336C916.683 27.2336 917.034 27.2336 917.396 27.2336C917.396 26.8186 917.396 26.4036 917.396 25.9761C917.747 25.9761 918.099 25.9761 918.461 25.9761C918.461 25.5611 918.461 25.1461 918.461 24.7186C919.336 23.6551 919.336 23.6551 920.49 22.4786C920.867 22.0888 921.243 21.6989 921.631 21.2973C922.719 20.3173 922.719 20.3173 924.316 19.6885C924.316 19.2735 924.316 18.8586 924.316 18.431C927.196 15.916 927.196 15.916 928.574 15.916C926.005 12.3918 923.352 10.6345 919.423 9.96983C906.965 9.29877 890.822 14.4175 880.136 22.2035C879.96 22.6185 879.785 23.0335 879.604 23.4611C879.955 23.4611 880.306 23.4611 880.668 23.4611C883.956 30.1799 885.51 35.2423 885.658 42.9918C885.672 43.4673 885.686 43.9428 885.701 44.4327C885.71 48.5499 884.692 51.6842 882.475 54.8694C878.946 58.287 875.497 60.3865 870.848 60.1303C866.949 59.5519 863.63 58.4186 860.974 54.8988C859.187 50.9808 859.006 47.2142 859.909 42.9525C862.34 33.8107 865.361 27.7514 871.619 21.5748C871.18 21.1857 870.741 20.7967 870.289 20.3959C869.63 19.7345 869.63 19.7345 868.958 19.0598C868.958 18.6448 868.958 18.2298 868.958 17.8023C868.587 17.645 868.216 17.4878 867.833 17.3258C866.09 16.4399 864.597 15.3237 863.003 14.1083C856.799 9.57522 852.671 8.3504 845.537 10.2572C841.441 11.4841 837.609 13.0404 833.827 15.2872C833.476 15.2872 833.124 15.2872 832.762 15.2872C832.762 15.7022 832.762 16.1172 832.762 16.5447C833.114 16.5447 833.465 16.5447 833.827 16.5447C833.827 16.9597 833.827 17.3747 833.827 17.8023C834.141 17.9717 834.454 18.1411 834.777 18.3156C838.856 20.8904 840.846 25.39 842.344 30.3774C843.215 33.8978 843.599 37.0516 843.575 40.7125C843.572 41.1796 843.569 41.6466 843.565 42.1278C843.493 46.0047 843.3 49.6642 841.106 52.7448C837.712 56.4177 833.776 56.4285 829.413 56.3577C826.784 56.0894 824.871 55.279 822.649 53.6413C821.891 53.1161 821.891 53.1161 821.119 52.5803C818.219 48.8529 817.653 42.6874 817.709 37.807C818.32 30.5821 820.309 23.8351 823.714 17.8023C823.236 17.705 823.236 17.705 822.749 17.6058C821.584 17.1735 821.584 17.1735 820.851 16.252C818.139 13.2216 811.797 12.854 808.198 12.7341C802.919 12.9783 797.796 15.1583 792.841 17.1735C793.047 17.4928 793.253 17.8122 793.465 18.1412C794.328 19.4894 795.182 20.8454 796.035 22.2035C796.611 23.1178 796.611 23.1178 797.199 24.0505C800.16 29.9598 800.504 36.5789 799.53 43.284C798.624 46.6392 796.625 49.4139 794.438 51.755C794.086 51.755 793.735 51.755 793.373 51.755C793.373 52.17 793.373 52.585 793.373 53.0126C792.322 53.9041 791.287 54.705 790.18 55.4883C789.861 55.7145 789.543 55.9406 789.215 56.1737C784.777 59.2697 780.29 61.3217 775.032 60.3046C771.42 59.0763 768.786 56.7559 766.825 52.9733C764.734 46.5222 765.229 39.8594 767.485 33.585C768.85 30.5276 770.518 27.7686 772.614 25.3473C772.965 25.3473 773.317 25.3473 773.679 25.3473C773.679 24.9323 773.679 24.5174 773.679 24.0898C774.671 23.121 775.662 22.224 776.706 21.339C778.749 19.5771 780.764 17.8005 782.728 15.916C772.86 9.70497 760.48 5.78355 749.36 9.51055C748.385 9.82786 748.385 9.82786 747.391 10.1516C745.435 10.8984 743.615 11.7805 741.741 12.7722C741.947 13.0859 742.153 13.3995 742.365 13.7227C746.334 20.1859 747.469 27.5858 748.129 35.4074C748.174 35.9253 748.219 36.4432 748.266 36.9768C748.494 42.0207 746.794 47.0042 744.403 51.1263C744.052 51.1263 743.7 51.1263 743.338 51.1263C743.201 51.508 743.064 51.8898 742.922 52.2831C741.202 55.8846 737.33 57.2042 734.145 58.2859C731.781 58.9133 729.485 58.9695 727.07 58.9464C726.601 58.959 726.132 58.9716 725.649 58.9845C721.717 58.9811 718.299 57.9692 715.427 54.663C712.452 48.7611 712.742 40.1436 713.896 33.5531C715.092 28.5797 717.101 23.7693 720.45 20.3173C720.801 20.3173 721.153 20.3173 721.515 20.3173C721.515 19.9023 721.515 19.4873 721.515 19.0598C722.742 18.0352 723.964 17.0832 725.241 16.1518C725.774 15.7554 725.774 15.7554 726.318 15.3511C727.198 14.6971 728.082 14.0485 728.967 13.401C715.503 9.88357 703.182 9.99702 690.11 15.2872C690.11 17.4816 691.293 19.3463 692.139 21.2604C695.293 28.6042 697.716 36.5549 696.031 44.9173C694.834 48.9007 692.493 52.4185 690.11 55.5276C689.758 55.5276 689.407 55.5276 689.045 55.5276C689.045 55.9426 689.045 56.3575 689.045 56.7851C684.608 61.4308 679.228 62.8267 673.43 62.6232C670.189 62.2134 668.21 60.2854 666.157 57.4138C662.764 50.7846 662.852 42.8527 663.722 35.3337C664.628 31.2247 666.666 28.0565 668.818 24.7186C669.169 24.0961 669.521 23.4736 669.883 22.8323C670.234 22.8323 670.585 22.8323 670.947 22.8323C670.947 22.4173 670.947 22.0023 670.947 21.5748C672.148 20.3585 673.352 19.2101 674.607 18.0773C674.953 17.7584 675.3 17.4395 675.657 17.1109C678.227 14.7602 678.227 14.7602 679.464 14.0297C666.335 7.81552 651.693 8.32436 638.478 14.0297C638.895 14.6652 639.312 15.3006 639.742 15.9553C651.475 34.5331 651.475 34.5331 650.943 42.6234C650.23 47.7103 648.842 51.5621 645.398 54.8988C639.766 58.9999 634.575 60.6223 627.998 60.7148C627.619 60.7208 627.239 60.7269 626.848 60.7331C623.851 60.7104 620.918 60.4938 618.65 57.964C613.836 48.6225 613.995 34.7744 615.789 24.3084C616.606 20.6839 617.971 18.3456 620.38 15.916C621.611 15.4051 621.611 15.4051 622.509 15.2872C622.509 14.8723 622.509 14.4573 622.509 14.0297C619.613 14.0893 616.718 14.1561 613.822 14.2293C612.84 14.2531 611.858 14.2751 610.877 14.295C601.132 14.2985 601.132 14.2985 591.637 16.5447C591.461 16.9597 591.285 17.3747 591.104 17.8023C591.456 17.8023 591.807 17.8023 592.169 17.8023C593.013 18.9345 593.013 18.9345 593.965 20.5138C594.277 21.0171 594.588 21.5204 594.909 22.039C597.673 27.7902 598.417 33.347 598.723 39.8873C598.768 40.6484 598.814 41.4094 598.861 42.1935C599.231 49.063 599.323 54.6363 595.408 60.091C591.35 65.2241 586.622 68.1957 580.664 68.9869C574.449 69.1729 571.42 67.3994 566.936 62.4743C562.622 57.5438 560.714 53.0939 560.598 46.0177C560.584 38.5348 563.114 33.5451 567.318 28.1767C567.79 27.658 568.262 27.1393 568.748 26.6048C569.08 26.2312 569.412 25.8575 569.755 25.4726C572.9 22.0308 576.313 19.2599 579.926 16.5447C578.531 16.0265 577.134 15.5171 575.735 15.0122C575.154 14.7951 575.154 14.7951 574.562 14.5737C569.077 12.6131 564.337 12.7311 558.701 13.7939C558.076 13.9073 557.45 14.0206 556.806 14.1373C551.627 15.1157 546.579 16.4911 541.523 18.1249C540.317 18.4995 539.103 18.797 537.876 19.0598C538.005 19.3605 538.134 19.6612 538.267 19.971C542.302 30.4772 544.219 45.5817 541.017 56.7016C539.913 59.7845 539.103 61.367 536.578 62.994C532.959 64.3286 528.506 64.6008 524.968 62.8369C519.831 59.186 517.091 53.4202 515.653 46.7643C515.102 38.7952 516.394 34.059 519.778 27.2336C520.129 27.2336 520.481 27.2336 520.842 27.2336C520.971 26.8721 521.099 26.5106 521.231 26.1382C522.038 24.4443 522.971 23.4105 524.203 22.125C524.607 21.6954 525.011 21.2658 525.427 20.8232C526.704 19.6829 527.852 19.0423 529.359 18.431C529.359 18.016 529.359 17.6011 529.359 17.1735C528.953 17.0309 528.547 16.8882 528.128 16.7412C526.165 15.916 526.165 15.916 524.968 15.1988C516.316 10.0269 506.11 9.58617 496.89 12.7722C495.377 13.5042 494.049 14.3161 492.631 15.2872C492.631 17.7123 493.184 18.0317 494.594 19.7278C500.13 26.9241 502.45 37.7124 502.212 47.3538C501.678 52.0364 498.775 55.71 495.825 58.6714C492.843 60.5954 489.649 61.7935 486.244 61.1864C483.649 60.0289 481.353 58.4034 479.324 56.1563C479.324 55.7414 479.324 55.3264 479.324 54.8988C478.998 54.7464 478.671 54.5941 478.334 54.4371C476.533 53.1792 476.167 51.5226 475.473 49.2621C474.068 42.6797 475.188 36.5881 477.195 30.3774C477.355 29.874 477.515 29.3707 477.679 28.8521C478.877 25.4044 480.529 22.3479 482.258 19.2391C483.05 17.8615 483.05 17.8615 483.582 16.5447C482.799 15.9479 482.011 15.3603 481.22 14.7764C480.563 14.284 480.563 14.284 479.892 13.7817C476.171 11.4808 472.698 10.536 468.512 10.5716C468.045 10.5724 467.578 10.5733 467.097 10.5742C460.434 10.7473 453.896 12.4603 447.387 14.0297C446.5 14.2397 445.613 14.4494 444.725 14.6585C445.073 15.1318 445.42 15.6052 445.778 16.0928C449.462 21.3053 451.611 26.4017 453.242 32.8924C453.423 33.6081 453.603 34.3237 453.789 35.0611C455.338 42.0536 455.773 48.4685 452.71 54.8988C452.352 55.7357 451.997 56.5736 451.645 57.4138C451.294 57.4138 450.943 57.4138 450.581 57.4138C450.482 57.7899 450.383 58.166 450.281 58.5535C449.15 60.5877 447.738 61.2963 445.79 61.8151C441.395 62.0412 437.104 60.4324 433.614 57.296C429.251 50.4748 428.552 41.8064 429.289 33.5211C430.301 26.664 432.893 20.9637 436.209 15.2872C435.624 15.1705 435.624 15.1705 435.028 15.0515C433.195 14.5649 431.658 13.6871 429.971 12.7329C427.045 11.3123 424.662 11.5989 421.604 12.1042C418.999 12.5208 416.491 12.8562 413.853 12.7722C413.677 13.8097 413.502 14.8471 413.321 15.916C409.728 15.9946 409.728 15.9946 408.53 15.2872C408.53 14.8723 408.53 14.4573 408.53 14.0297C406.071 14.8597 403.612 15.6896 401.078 16.5447C401.254 17.1672 401.429 17.7897 401.61 18.431C401.962 18.431 402.313 18.431 402.675 18.431C402.675 18.846 402.675 19.261 402.675 19.6885C403.026 19.6885 403.377 19.6885 403.739 19.6885C409.647 26.6456 411.785 36.2624 411.89 45.7426C411.86 52.2911 411.444 57.7797 407.403 62.6625C403.585 66.6205 398.947 67.8238 393.95 67.668C389.388 67.0306 385.372 64.7726 382.448 60.5576C380.438 55.8788 379.955 51.3184 380.019 46.1355C380.024 45.4724 380.03 44.8093 380.035 44.126C380.147 39.1622 380.835 35.3232 382.98 31.0061C383.336 30.1454 383.336 30.1454 383.7 29.2672C385.399 25.2531 387.54 21.9476 390.029 18.5661C391.075 17.3057 391.075 17.3057 390.965 15.916C382.49 8.6659 371.247 7.67297 361.081 9.16731C357.324 9.82633 357.324 9.82633 354.237 12.1435C354.621 12.7789 355.005 13.4143 355.401 14.069C359.865 22.5629 361.538 33.8013 360.092 43.5812C358.611 50.0486 356.555 54.1849 351.629 57.6619C345.248 61.5637 335.305 64.0685 328.155 61.8151C325.135 60.1636 323.954 57.8343 322.832 54.2701C322.551 52.42 322.526 50.6443 322.566 48.7685C322.573 48.2726 322.58 47.7768 322.588 47.266C322.856 38.2515 327.051 28.0697 332.413 21.5748C332.764 21.5748 333.116 21.5748 333.478 21.5748C333.613 21.1989 333.749 20.823 333.889 20.4358C334.613 18.9104 335.291 18.2025 336.472 17.1637C336.848 16.8314 337.224 16.4991 337.611 16.1567C338.004 15.8179 338.396 15.4791 338.8 15.13C339.193 14.7815 339.585 14.433 339.99 14.0739C342.914 11.5147 342.914 11.5147 344.123 11.5147C343.948 10.8922 343.772 10.2698 343.591 9.62844C338.949 7.04059 333.734 6.52042 328.687 6.04871C327.497 5.93521 326.309 5.80071 325.121 5.66433C317.05 4.81456 309.659 5.76502 302.047 9.16977C300.916 9.6693 299.777 10.1385 298.636 10.606C297.852 10.9343 297.068 11.2634 296.284 11.5933C295.728 11.821 295.728 11.821 295.16 12.0532C294.252 12.4473 293.369 12.9186 292.492 13.401C292.316 14.0234 292.14 14.6459 291.959 15.2872C292.311 15.2872 292.662 15.2872 293.024 15.2872C293.828 16.4995 294.562 17.7039 295.286 18.9812C295.5 19.3539 295.713 19.7266 295.933 20.1107C296.566 21.2232 297.191 22.3409 297.814 23.4611C298.128 24.0219 298.442 24.5828 298.765 25.1607C303.211 33.4895 304.866 42.8626 303.343 52.5803C302.082 57.3057 299.874 60.1099 296.24 62.5004C290.483 65.3219 281.793 64.2672 276.086 61.793C273.199 60.2466 271.687 58.903 270.135 55.5276C268.88 47.8165 271.28 40.1186 273.329 32.8924C273.448 32.4717 273.567 32.0511 273.69 31.6177C275.31 26.036 277.478 20.826 280.249 15.916C280.6 15.916 280.952 15.916 281.313 15.916C281.665 14.8785 282.016 13.8411 282.378 12.7722C281.787 12.2614 281.186 11.7671 280.582 11.2789C280.248 11.0017 279.915 10.7245 279.571 10.4389C275.12 7.95332 270.036 8.12057 265.212 7.97796C264.237 7.94148 264.237 7.94148 263.243 7.90427C261.282 7.83565 259.322 7.78534 257.361 7.74217C256.7 7.72429 256.039 7.70641 255.358 7.68799C251.946 7.63238 248.96 7.73988 245.684 8.88179C245.053 9.09333 244.422 9.30488 243.773 9.52283C241.855 10.2848 240.045 11.171 238.198 12.1435C238.374 12.7659 238.55 13.3884 238.731 14.0297C239.082 14.2372 239.433 14.4447 239.795 14.6585C240.146 14.866 240.498 15.0735 240.86 15.2872C241.035 15.9097 241.211 16.5322 241.392 17.1735C241.743 17.1735 242.095 17.1735 242.457 17.1735C251.04 36.7873 251.04 36.7873 248.545 46.7643C246.88 52.199 244.167 55.56 239.795 58.0426C234.549 60.1081 226.765 59.4917 221.762 56.8907C221.389 56.6484 221.017 56.406 220.633 56.1563C219.931 55.7077 219.931 55.7077 219.215 55.25C217.47 53.8746 216.859 52.2041 216.375 49.8688C216.098 46.0585 216.53 42.4861 217.273 38.787C217.369 38.2993 217.466 37.8116 217.566 37.3092C217.866 35.833 218.181 34.3622 218.504 32.8924C218.598 32.4617 218.692 32.031 218.789 31.5873C220.247 25.1614 222.587 20.509 225.956 15.2872C226.307 14.6648 226.658 14.0423 227.02 13.401C226.534 13.3488 226.534 13.3488 226.038 13.2955C225.073 13.1919 224.108 13.0883 223.144 12.9847C222.611 12.9275 222.079 12.8704 221.531 12.8115C220.502 12.701 219.473 12.5905 218.443 12.4799C217.925 12.4248 217.406 12.3696 216.871 12.3128C215.844 12.2014 214.818 12.0858 213.791 11.9655C203.453 10.7751 194.699 11.1627 185.502 17.1735C185.502 19.3765 185.783 19.6621 186.932 21.2997C191.676 28.5863 194.944 39.3312 194.551 48.6113C193.991 52.4093 192.897 54.9813 190.292 57.4138C186.758 59.7996 183.674 60.3209 179.647 59.9289C176.875 58.9405 175.795 57.2347 174.365 54.415C170.748 45.5756 172.079 35.5108 174.668 26.5832C175.419 24.0657 176.192 21.559 176.985 19.0598C173.078 17.4859 169.139 16.0514 165.186 14.648C164.107 14.2641 163.028 13.8768 161.949 13.4894C161.254 13.2419 160.558 12.9947 159.863 12.7477C159.241 12.5259 158.619 12.3041 157.979 12.0756C151.006 9.84376 144.318 10.5686 137.962 14.8157C137.49 15.1788 137.018 15.5419 136.532 15.916C138.337 18.5249 140.1 20.7884 142.387 22.8323C143.351 23.854 143.351 23.854 143.984 24.7186C143.984 25.1335 143.984 25.5485 143.984 25.9761C144.335 25.9761 144.686 25.9761 145.048 25.9761C145.832 27.2631 145.832 27.2631 146.678 28.9627C146.959 29.5171 147.24 30.0714 147.529 30.6426C149.285 34.6358 149.269 39.1986 148.41 43.5297C146.604 49.9469 143.996 52.9452 138.973 56.0532C136.024 57.6209 132.713 58.1537 129.574 57.0135C128.683 56.5619 127.814 56.0483 126.95 55.5276C126.599 55.3201 126.248 55.1126 125.886 54.8988C125.886 54.4838 125.886 54.0689 125.886 53.6413C125.534 53.6413 125.183 53.6413 124.821 53.6413C121.175 47.9338 121.61 40.9341 122.16 34.1499C122.934 27.7874 125.457 22.1302 128.015 16.5447C120.156 11.6246 113.351 10.7773 104.528 10.7288C103.934 10.7158 103.341 10.7028 102.729 10.6895C99.1322 10.6694 96.198 11.1007 92.884 12.7722C92.4284 12.9927 91.9728 13.2131 91.5034 13.4403C91.0011 13.7321 91.0011 13.7321 90.4887 14.0297C89.97 14.3215 89.97 14.3215 89.4408 14.6192C88.4475 15.2909 88.4475 15.2909 88.0934 17.1735C88.4447 17.1735 88.7961 17.1735 89.158 17.1735C89.158 17.5885 89.158 18.0035 89.158 18.431C89.5093 18.431 89.8606 18.431 90.2226 18.431C93.9959 23.0491 96.0923 27.1534 96.3106 33.5604C96.1581 40.6185 94.5668 49.2109 90.5199 54.6778C87.0982 58.3292 83.2311 58.2757 78.8574 58.2047C76.1474 57.9785 73.9148 57.421 71.7901 55.2844C69.0109 51.4217 69.8382 44.7262 70.1433 40.0715C70.9963 30.7538 73.6231 24.3217 78.5123 17.1735C79.0392 16.2398 79.0392 16.2398 79.5769 15.2872C75.8278 13.3497 72.2857 12.5527 68.2325 12.615C67.8239 12.6193 67.4153 12.6235 66.9943 12.6279C58.2126 12.8085 50.7847 13.7282 43.3814 19.6885C43.7478 20.1128 43.7478 20.1128 44.1216 20.5457C49.7099 27.4657 50.814 37.8416 51.033 47.118C50.8636 52.9287 49.0364 56.5586 45.5105 60.5576C42.4237 63.2489 39.1191 63.3775 35.3971 63.0726C32.9789 62.3585 31.6564 60.9237 30.0742 58.6714C26.7209 51.3718 26.4334 42.8507 28.2313 34.897C29.3126 30.5949 30.6076 26.5868 32.7356 22.8323C33.0869 22.8323 33.4382 22.8323 33.8002 22.8323C34.1515 21.7949 34.5028 20.7574 34.8648 19.6885C33.9796 19.2637 33.0918 18.8464 32.2033 18.431C31.8815 18.2649 31.5597 18.0987 31.2282 17.9275C27.3424 16.0173 24.0748 16.0806 20.1562 17.7703C16.7578 19.5523 13.7877 21.9585 10.9119 24.7186C10.5606 24.7186 10.2093 24.7186 9.8473 24.7186C9.69292 25.0898 9.53854 25.461 9.37947 25.8435C8.86845 27.0339 8.31399 28.1981 7.75142 29.3556C5.2111 35.4133 3.69605 44.2291 5.48089 50.8021C6.33047 52.9173 7.26394 54.6269 8.78273 56.1563C10.4373 56.6134 10.4373 56.6134 11.9764 56.7851C12.3091 58.2391 12.3091 58.2391 12.5087 59.9289C11.4442 61.8151 11.4442 61.8151 10.442 62.1541C7.93995 62.2673 6.35546 61.8926 4.3581 60.0468C0.884056 55.9267 0.0724963 51.1041 0 45.4282C0.0716479 37.2694 1.24199 26.9713 6.35417 20.946C11.7264 14.9763 18.4509 10.934 25.8824 10.5716C29.8337 10.7383 33.2118 12.3524 36.6612 14.5406C38.359 15.4478 38.9575 15.2623 40.7199 14.6585C41.8073 13.87 41.8073 13.87 42.8491 12.8901C51.2649 6.09431 65.2852 5.74243 75.1293 7.4499C77.6231 8.12796 79.6305 8.98878 81.8058 10.5716C82.7822 11.2652 82.7822 11.2652 83.8351 11.5147C85.1656 10.986 86.1938 10.234 87.3657 9.32389C88.6819 8.32841 89.9694 7.63768 91.4202 6.95623C91.8402 6.75847 92.2601 6.5607 92.6927 6.35695C96.459 4.85435 100.299 5.10171 104.228 5.10926C104.588 5.10964 104.948 5.11002 105.319 5.11041C122.471 5.15977 122.471 5.15977 129.579 10.493C130.116 10.8301 130.654 11.1673 131.209 11.5147C132.469 11.0751 132.469 11.0751 133.87 10.2572C147.659 3.47665 158.108 5.40655 171.847 11.2732C172.993 11.7598 174.143 12.2335 175.293 12.7059C175.638 12.8578 175.984 13.0096 176.34 13.1661C177.97 13.829 178.929 14.0909 180.609 13.5374C181.841 12.7297 183.025 11.8745 184.204 10.9645C194.369 3.6676 207.061 5.38627 218.404 6.72045C219.086 6.79967 219.768 6.8789 220.47 6.96053C223.815 7.37874 226.969 7.96543 230.214 8.99968C232.591 8.8827 234.199 7.89871 236.277 6.6001C238.137 5.60362 240.043 4.88336 241.991 4.16613C242.353 4.03138 242.716 3.89663 243.089 3.7578C248.063 1.96483 252.754 1.97561 257.893 2.08338C258.499 2.09462 259.105 2.10587 259.729 2.11745C261.801 2.1608 263.872 2.21872 265.944 2.27986C266.942 2.30099 266.942 2.30099 267.96 2.32254C274.444 2.54468 280.616 3.40353 286.104 7.74217C286.104 8.15715 286.104 8.57213 286.104 8.99968C288.558 8.60569 290.728 7.84525 293.051 6.84079C293.401 6.69115 293.752 6.54151 294.113 6.38733C295.598 5.75308 297.08 5.11144 298.563 4.46991C305.252 1.58332 310.824 -0.0364652 318.008 0.000623206ZM346.564 15.5255C346.205 15.8431 345.846 16.1608 345.476 16.4881C345.095 16.831 344.715 17.1739 344.323 17.5272C343.935 17.8762 343.547 18.2251 343.148 18.5847C342.385 19.2748 341.624 19.9671 340.864 20.6617C340.089 21.3706 339.307 22.0712 338.524 22.7684C333.164 27.8486 328.369 36.8743 327.09 44.8387C326.644 49.954 326.644 49.954 328.055 54.663C329.67 56.7735 329.67 56.7735 331.914 57.4911C343.279 56.4272 343.279 56.4272 352.742 49.3432C355.888 44.8968 356.591 39.7632 356.249 34.1081C355.495 26.9876 353.537 19.5135 349.446 14.0297C348.068 14.0297 347.659 14.5524 346.564 15.5255ZM734.85 15.6896C734.315 16.0801 734.315 16.0801 733.77 16.4784C733.371 16.7655 732.972 17.0526 732.562 17.3483C732.144 17.6667 731.726 17.9851 731.295 18.3131C730.867 18.6327 730.439 18.9523 729.998 19.2816C723.705 24.0744 719.612 28.5046 717.789 37.2937C717.623 39.0921 717.592 40.8694 717.589 42.6774C717.576 43.1357 717.563 43.5941 717.549 44.0663C717.534 47.3365 718.115 49.1497 719.918 51.755C722.507 54.2889 725.555 54.4422 728.794 54.135C733.544 53.3017 738.098 51.3797 741.074 46.7225C744.554 40.1785 744.042 34.4223 742.673 27.0764C741.901 23.6644 740.685 20.7699 739.08 17.8023C738.729 17.8023 738.377 17.8023 738.015 17.8023C738.015 17.3873 738.015 16.9723 738.015 16.5447C736.53 15.3885 736.53 15.3885 734.85 15.6896ZM232.875 15.916C231.42 17.0087 231.42 17.0087 230.214 18.431C230.214 18.846 230.214 19.261 230.214 19.6885C229.863 19.6885 229.511 19.6885 229.149 19.6885C223.878 27.0985 220.41 38.2376 220.633 47.9825C222.062 50.9786 223.7 52.2991 226.399 53.3097C230.196 54.4008 234.761 55.2067 238.306 52.8676C241.984 49.7382 244.187 46.3511 245.118 41.0662C245.118 33.5553 241.463 24.4756 237.188 19.0303C235.811 17.589 234.628 16.606 232.875 15.916ZM622.896 20.7962C619.006 25.575 619.15 31.3251 619.192 37.6262C619.315 46.9563 619.315 46.9563 623.042 54.8988C627.702 56.734 633.82 55.9978 638.243 53.5013C641.705 51.2227 644.247 48.6281 646.129 44.4851C647.136 39.8491 645.749 36.8696 643.801 32.8924C642.98 31.3634 642.137 29.8614 641.264 28.3732C640.607 27.2336 640.607 27.2336 640.075 25.9761C639.723 25.9761 639.372 25.9761 639.01 25.9761C638.9 25.5481 638.791 25.1202 638.677 24.6793C637.283 21.1611 635.114 18.1857 632.09 16.5447C628.81 16.5447 625.463 18.4466 622.896 20.7962ZM286.104 17.1735C285.753 18.0035 285.401 18.8334 285.039 19.6885C284.688 19.6885 284.337 19.6885 283.975 19.6885C280.108 25.0517 278.361 31.9809 276.523 38.5512C276.401 38.9829 276.279 39.4146 276.154 39.8594C274.935 44.2584 273.833 48.3776 274.394 53.0126C276.475 56.4393 279.278 57.7059 282.711 58.4749C289.257 59.3942 289.257 59.3942 295.153 56.7851C297.967 53.5253 299.555 50.5515 299.611 45.7819C299.508 39.1974 297.539 33.3865 294.621 27.8623C294.262 27.1378 294.262 27.1378 293.897 26.3985C292.99 24.5656 292.99 24.5656 291.959 22.8323C291.608 22.8323 291.257 22.8323 290.895 22.8323C290.362 21.5748 289.83 20.3173 289.298 19.0598C288.946 19.0598 288.595 19.0598 288.233 19.0598C288.233 18.6448 288.233 18.2298 288.233 17.8023C287.531 17.5948 286.828 17.3873 286.104 17.1735ZM679.364 20.8674C679.016 21.1568 678.668 21.4461 678.309 21.7443C677.43 22.4913 676.581 23.2872 675.738 24.0898C675.738 24.5048 675.738 24.9198 675.738 25.3473C675.387 25.3473 675.035 25.3473 674.673 25.3473C669.702 31.5495 667.544 37.2668 667.604 45.7475C667.876 49.8109 669.032 52.4928 671.28 55.5276C673.1 57.3378 674.257 57.6291 676.651 57.5931C680.018 57.0968 683.199 54.7935 685.851 52.3838C685.851 51.9688 685.851 51.5538 685.851 51.1263C686.203 51.1263 686.554 51.1263 686.916 51.1263C686.916 50.7113 686.916 50.2963 686.916 49.8688C687.267 49.8688 687.619 49.8688 687.98 49.8688C688.156 49.0388 688.332 48.2089 688.513 47.3538C688.864 47.3538 689.215 47.3538 689.577 47.3538C691.615 43.5148 692.668 40.5242 692.079 35.9797C690.755 29.472 688.292 23.0943 684.787 17.8023C682.492 17.8023 681.15 19.3309 679.364 20.8674ZM440.467 19.0598C436.226 24.5285 433.419 31.1581 433.215 38.6298C433.43 43.7136 434.156 49.4628 437.107 53.4055C439.011 55.2891 441.221 56.3155 443.661 56.7851C445.502 56.3985 446.126 55.767 447.42 54.1915C449.955 49.7479 451.157 46.3608 450.379 40.9104C450.102 39.4167 449.788 37.9444 449.45 36.4684C449.331 35.9456 449.213 35.4227 449.091 34.884C447.817 29.5348 445.912 24.3644 442.596 20.3173C441.895 19.8787 441.186 19.4562 440.467 19.0598ZM82.2445 20.8429C76.2339 28.5992 74.028 36.7862 74.1376 47.2064C74.2983 49.1463 74.7679 50.2931 75.8508 51.755C77.533 52.9936 78.8733 53.1993 80.841 53.209C81.3282 53.2196 81.8154 53.2301 82.3173 53.241C84.2144 52.9555 85.4186 52.3474 87.0289 51.1263C90.4286 45.378 92.4605 38.0199 91.8194 31.0061C91.3667 29.1326 91.3667 29.1326 90.7549 27.8623C90.4036 27.8623 90.0523 27.8623 89.6903 27.8623C89.158 26.6048 88.6257 25.3473 88.0934 24.0898C87.7421 24.0898 87.3908 24.0898 87.0289 24.0898C87.0289 23.6748 87.0289 23.2599 87.0289 22.8323C86.6776 22.8323 86.3262 22.8323 85.9643 22.8323C85.7886 22.2098 85.613 21.5874 85.432 20.946C85.0807 20.946 84.7294 20.946 84.3674 20.946C84.3674 20.5311 84.3674 20.1161 84.3674 19.6885C83.1931 19.5463 83.1931 19.5463 82.2445 20.8429ZM395.755 19.6885C394.846 20.7092 393.959 21.7591 393.094 22.8323C393.094 23.2473 393.094 23.6623 393.094 24.0898C392.742 24.0898 392.391 24.0898 392.029 24.0898C390.084 27.3168 388.387 30.7237 386.706 34.1499C386.435 34.701 386.163 35.2522 385.883 35.82C384.498 39.187 384.385 42.492 384.344 46.1748C384.339 46.6481 384.333 47.1213 384.327 47.6089C384.379 51.4327 384.963 54.9826 387.014 58.0352C390.222 61.0368 393.129 62.9689 397.352 62.4439C400.832 61.3402 404.134 59.6078 406.035 55.842C408.419 50.0008 408.131 42.0515 406.507 35.9207C405.169 32.2106 403.395 28.7772 401.61 25.3473C401.259 25.3473 400.908 25.3473 400.546 25.3473C400.447 24.9972 400.348 24.647 400.246 24.2863C399.128 22.1611 397.508 21.0395 395.755 19.6885ZM572.57 30.2423C572.187 30.7018 571.804 31.1614 571.41 31.6349C571.016 32.1009 570.622 32.567 570.216 33.0471C567.107 36.9285 564.982 40.6855 564.756 46.1355C564.9 50.1804 566.437 53.8073 568.748 56.7851C569.1 56.7851 569.451 56.7851 569.813 56.7851C569.813 57.2001 569.813 57.615 569.813 58.0426C572.35 60.8952 575.279 64.0681 578.928 64.2123C584.026 63.585 588.674 60.6538 592.059 56.1416C595.258 51.3117 594.824 47.6022 594.464 41.6164C594.429 40.8707 594.394 40.125 594.357 39.3568C593.921 32.0078 592.25 25.7123 587.545 20.671C583.763 17.6527 575.305 27.1471 572.57 30.2423ZM932.3 19.0598C927.633 22.9341 927.633 22.9341 923.251 27.2336C923.251 27.6486 923.251 28.0635 923.251 28.4911C922.9 28.4911 922.549 28.4911 922.187 28.4911C922.187 28.9061 922.187 29.3211 922.187 29.7486C921.878 29.9099 921.569 30.0712 921.251 30.2374C917.171 32.8652 914.114 38.1313 912.073 42.9525C911.641 47.0651 912.148 49.6675 914.202 53.0126C917.326 56.7024 921.65 57.3423 925.913 57.4138C929.849 57.0936 933.179 56.4043 936.026 53.0126C938.721 49.2101 939.977 44.59 939.719 39.6515C938.927 32.6044 937.033 26.3672 933.897 20.3173C933.546 20.3173 933.194 20.3173 932.832 20.3173C932.569 19.6948 932.569 19.6948 932.3 19.0598ZM487.841 20.3173C483.13 27.5804 478.38 35.8658 479.324 45.4675C479.795 47.6145 479.795 47.6145 480.389 49.24C480.74 49.24 481.091 49.24 481.453 49.24C481.596 49.642 481.739 50.044 481.886 50.4582C482.458 51.9634 482.458 51.9634 484.115 52.3838C484.115 52.7988 484.115 53.2138 484.115 53.6413C485.497 55.1486 486.553 56.161 488.494 56.149C491.339 55.5363 492.939 54.4877 494.76 51.755C495.06 51.3814 495.359 51.0078 495.667 50.6228C497.232 48.4113 497.934 46.8402 498.012 43.9202C497.401 37.4358 495.788 30.7771 492.631 25.3473C492.28 25.3473 491.929 25.3473 491.567 25.3473C491.446 24.9842 491.325 24.6211 491.201 24.247C490.328 22.4787 489.205 21.5561 487.841 20.3173ZM775.808 29.7486C775.808 30.1636 775.808 30.5786 775.808 31.0061C775.456 31.0061 775.105 31.0061 774.743 31.0061C773.808 32.4547 773.808 32.4547 772.88 34.2678C772.556 34.8732 772.232 35.4787 771.899 36.1025C770.039 39.9419 769.582 42.9698 769.953 47.3538C770.901 50.7819 772.771 52.9393 775.276 54.8988C778.17 56.1622 780.552 55.0546 783.26 53.6413C787.685 50.9946 792.921 47.1562 795.186 41.7171C796.193 37.6393 795.951 33.5236 794.471 29.67C792.791 26.1578 790.556 23.0504 788.05 20.3173C783.889 20.3173 778.637 26.5721 775.808 29.7486ZM828.504 20.3173C824.614 25.0177 822.117 32.3107 822.117 38.8901C822.324 42.2646 822.804 45.0466 824.246 47.9825C827.515 51.0395 830.305 51.5407 834.359 51.1263C836.832 49.9832 837.855 48.1552 839.15 45.4675C840.033 38.566 838.901 32.7715 835.557 27.1157C833.823 24.5498 831.826 22.2393 829.569 20.3173C829.217 20.3173 828.866 20.3173 828.504 20.3173ZM131.741 20.946C127.723 26.5529 126.247 33.8965 126.185 41.0662C126.18 41.5177 126.174 41.9692 126.169 42.4344C126.208 45.1993 126.542 47.0622 128.015 49.24C128.366 49.24 128.718 49.24 129.08 49.24C129.08 49.655 129.08 50.07 129.08 50.4975C130.465 51.7487 131.51 52.3414 133.238 52.6589C135.5 52.2922 137.225 51.1903 139.193 49.8688C139.193 49.4538 139.193 49.0388 139.193 48.6113C139.676 48.3693 139.676 48.3693 140.168 48.1225C142.448 46.6037 143.603 43.8076 144.345 40.9115C145.005 36.3257 143.414 33.4555 141.322 29.7486C140.971 29.7486 140.619 29.7486 140.258 29.7486C140.258 29.3336 140.258 28.9187 140.258 28.4911C139.906 28.4911 139.555 28.4911 139.193 28.4911C139.193 28.0761 139.193 27.6611 139.193 27.2336C138.296 26.1617 138.296 26.1617 137.164 25.0722C135 22.9172 135 22.9172 134.097 21.7492C133.309 20.7363 133.309 20.7363 131.741 20.946ZM968.529 23.1074C963.256 29.3876 958.914 39.1041 958.914 47.9825C959.228 51.6768 960.072 54.513 962.108 57.4138C963.931 58.8622 965.318 58.7356 967.464 58.4749C968.297 58.3813 968.297 58.3813 969.146 58.2858C970.667 58.0898 970.667 58.0898 972.222 57.4138C972.222 56.9989 972.222 56.5839 972.222 56.1563C972.573 56.1563 972.924 56.1563 973.286 56.1563C973.81 54.9528 974.331 53.7473 974.85 52.541C975.285 51.5343 975.285 51.5343 975.729 50.5074C978.207 44.249 977.151 36.5868 975.378 30.2177C974.217 26.7044 973.171 23.9143 970.625 21.5748C969.822 21.5079 969.822 21.5079 968.529 23.1074ZM529.392 24.5614C528.937 24.9991 528.482 25.4367 528.014 25.8877C526.803 27.1258 525.643 28.3462 524.568 29.7486C524.568 30.1636 524.568 30.5786 524.568 31.0061C524.217 31.0061 523.866 31.0061 523.504 31.0061C522.672 32.3546 522.672 32.3546 521.874 34.032C521.593 34.5937 521.312 35.1554 521.023 35.7341C519.283 39.5405 519.672 43.1971 520.31 47.3538C521.827 51.9522 524.691 56.1406 528.294 58.6714C530.193 59.2419 531.722 59.2555 533.617 58.6714C536.172 56.6168 537.044 53.8881 537.876 50.4975C538.054 48.7263 538.155 47.1533 538.142 45.3889C538.14 44.9134 538.139 44.4379 538.137 43.9479C537.986 37.3873 537.245 27.458 533.617 22.2035C531.536 22.2035 530.981 23.0152 529.392 24.5614ZM181.244 22.8323C177.569 30.8964 175.398 39.1083 177.1 48.3043C177.742 50.7084 178.536 52.6216 180.179 54.2701C182.454 55.2333 183.962 55.0478 186.134 53.9557C188.307 52.7431 189.485 50.5955 190.292 47.9825C190.183 39.3673 186.888 28.9711 181.776 22.8323C181.6 22.8323 181.425 22.8323 181.244 22.8323ZM39.1231 23.4611C33.9886 29.5611 31.7304 36.646 31.4714 45.1531C31.5423 49.9284 32.6093 53.0849 35.0644 56.8244C36.3908 58.1644 36.3908 58.1644 38.0252 58.3963C41.6151 57.6174 43.9964 54.5198 46.0428 51.1263C47.8694 44.6533 46.0123 34.595 43.5477 28.6483C43.3172 28.1814 43.0866 27.7146 42.8491 27.2336C42.4978 27.2336 42.1465 27.2336 41.7845 27.2336C41.6418 26.8445 41.4991 26.4555 41.352 26.0547C40.7436 24.5302 40.7436 24.5302 39.1231 23.4611ZM1002.03 29.1199C1001.64 29.4416 1001.25 29.7634 1000.85 30.0949C996.856 33.748 995.872 38.8516 995.247 44.5735C994.732 51.1493 994.732 51.1493 996.74 57.0602C998.322 58.2818 998.322 58.2818 1000.4 57.7282C1003.67 56.4276 1005.85 55.1208 1007.88 51.755C1008.49 50.2826 1009.05 48.7872 1009.58 47.2752C1009.72 46.8853 1009.86 46.4955 1010 46.0938C1012.17 39.939 1012.52 33.2486 1010.55 26.9192C1010.21 25.9688 1009.86 25.0222 1009.48 24.0898C1006.87 24.0898 1004.1 27.3968 1002.03 29.1199ZM872.75 27.9802C872.39 28.3523 872.029 28.7243 871.657 29.1076C867.497 33.9002 864.285 41.1057 863.635 47.9825C864.123 50.1867 864.123 50.1867 865.232 51.755C865.545 52.2997 865.545 52.2997 865.864 52.8554C867.885 54.5021 870.234 54.8988 872.651 54.8988C875.723 53.7138 878.138 51.5736 880.435 48.9256C882.27 43.6502 881.568 37.7376 879.753 32.5706C878.706 30.1683 877.504 27.8921 875.878 25.9761C874.359 25.9761 873.875 26.8046 872.75 27.9802Z" fill="currentColor"/>
</svg>
