<svg width="251" height="34" viewBox="0 0 251 34" fill="none" xmlns="http://www.w3.org/2000/svg">
<path d="M147.616 0.174873C146.205 0.44154 143.118 1.64154 140.825 2.7082C137.738 4.17487 136.239 4.3082 134.916 3.37487C132.359 1.24154 125.391 1.64154 122.304 4.04154C119.747 6.04154 119.306 6.04154 116.836 3.77487C113.485 0.841537 107.047 0.841537 103.254 3.77487C100.697 5.77487 100.168 5.77487 97.7864 3.90821C94.6114 1.37487 88.967 1.37487 84.9982 3.77487C82.3524 5.50821 81.7351 5.37487 78.4719 2.97487C75.2087 0.574871 74.4149 0.44154 71.0636 1.90821C66.9184 3.77487 64.9782 3.90821 58.4518 2.57487C55.1886 1.90821 53.2483 2.17487 51.3963 3.64154C49.3678 5.24154 47.7803 5.37487 43.9879 4.44154C41.3421 3.77487 38.0789 3.64154 36.6678 4.04154C35.3449 4.44154 32.2581 4.04154 29.8769 3.10821C26.2609 1.77487 25.0262 1.77487 22.204 3.37487C19.8227 4.84154 18.0589 5.1082 16.0304 4.17487C11.8853 2.3082 7.21097 4.17487 3.68321 9.1082C1.03738 12.7082 0.508215 14.5749 0.067244 20.3082C-0.373727 28.1749 1.39016 33.9082 4.30056 33.9082C6.41722 33.9082 6.59361 30.9749 4.74154 28.5749C2.62488 25.9082 3.06585 17.5082 5.53528 13.5082C7.47555 10.3082 13.4728 7.37487 14.5311 8.97487C14.7957 9.37487 14.5311 10.9749 14.0019 12.5749C13.4728 14.1749 12.9436 18.1749 12.8554 21.5082C12.679 26.3082 13.0318 27.9082 14.7957 30.0415C17.3533 33.2415 18.588 33.2415 21.1457 30.0415C23.3505 27.3749 23.9679 19.6415 22.645 12.4415C22.0276 9.37487 22.2922 8.7082 24.2324 8.04154C25.4672 7.50821 27.2311 7.50821 28.2012 7.90821C29.7005 8.7082 29.7887 8.97487 28.554 12.5749C25.5554 21.3749 28.0248 31.2415 32.8755 29.3749C35.9623 28.1749 37.197 24.0415 36.756 16.4415C36.2269 9.1082 36.756 8.44154 42.1359 9.50821C45.1345 10.1749 45.7518 10.7082 45.2227 12.4415C44.9581 13.6415 44.4289 17.2415 44.1643 20.4415C43.6352 27.7749 45.3109 30.4415 49.3678 28.3082C52.3664 26.7082 53.2483 22.9749 52.5428 14.5749C51.9254 8.3082 52.5428 7.24154 57.2171 7.24154C61.9796 7.24154 62.4205 8.17487 60.6566 13.6415C58.1872 20.8415 58.4518 27.9082 61.1858 30.7082C64.2726 33.7749 67.183 31.6415 69.5643 24.4415C71.4163 19.2415 71.4163 17.3749 70.0052 10.3082C69.4761 7.90821 69.8288 7.37487 72.1219 6.57487C74.0622 5.90821 75.5615 6.3082 77.0608 7.77487L79.2656 9.90821L77.5017 14.9749C75.5615 20.4415 75.2087 27.2415 76.7962 29.6415C78.5601 32.3082 82.617 31.5082 84.1163 28.1749C86.0566 23.6415 86.6739 17.3749 85.4392 13.9082C84.4691 11.2415 84.5573 10.5749 85.9684 8.97487C87.8204 6.84154 93.7295 6.7082 96.1107 8.7082C97.7864 10.0415 97.7864 10.1749 95.1406 14.7082C92.2302 19.7749 91.6128 26.3082 93.6413 30.4415C95.4052 34.1749 101.138 32.8415 103.431 28.1749C105.283 24.4415 105.724 17.1082 104.489 11.6415C103.872 9.1082 104.225 8.57487 107.311 7.37487C110.486 6.04154 116.307 7.37487 116.307 9.50821C116.307 9.90821 115.161 12.3082 113.661 14.8415C110.222 20.7082 110.045 27.5082 113.132 30.5749C115.072 32.5749 115.602 32.5749 117.806 30.8415C121.334 28.0415 122.834 23.2415 122.304 16.1749C121.863 10.8415 122.04 10.0415 123.98 8.7082C126.273 7.1082 132.447 6.7082 133.329 8.04154C133.593 8.57487 132.711 11.1082 131.3 13.7749C126.45 22.9749 126.979 29.9082 132.623 29.9082C134.828 29.9082 136.151 28.8415 138.356 25.1082C140.737 20.8415 141.09 19.3749 140.825 14.4415C140.561 8.97487 140.737 8.44154 143.206 7.37487C145.94 6.04154 149.909 5.37487 152.82 5.64154C154.407 5.90821 154.407 6.17487 152.29 9.50821C149.027 14.8415 146.911 21.6415 147.528 25.2415C148.586 31.7749 156.612 32.7082 160.228 26.8415C163.315 21.7749 164.108 17.1082 162.609 11.6415C161.904 9.1082 161.286 6.7082 161.286 6.44154C161.286 5.1082 170.723 6.17487 172.134 7.77487C174.074 10.0415 173.986 10.7082 171.958 15.1082C170.988 17.1082 169.929 20.3082 169.665 22.1749C168.342 30.1749 177.249 34.9749 180.336 27.9082C181.747 24.5749 181.747 17.2415 180.336 12.3082C179.807 10.7082 180.336 9.50821 182.365 8.04154C185.54 5.50821 188.626 5.37487 191.625 7.37487L193.83 8.97487L191.625 13.2415C188.626 19.2415 187.921 26.4415 189.949 29.9082C192.154 33.6415 195.858 33.2415 198.416 29.1082C200.18 26.1749 200.533 24.3082 200.533 16.9749C200.621 9.50821 200.885 8.04154 202.296 7.1082C204.942 5.64154 211.469 5.77487 213.409 7.37487C215.085 8.7082 215.085 8.84154 212.439 13.3749C210.675 16.5749 209.793 19.3749 209.793 22.4415C209.793 27.5082 211.028 29.5082 214.908 30.7082C220.553 32.4415 225.139 19.7749 222.14 11.1082C221.346 8.97487 221.523 8.3082 223.463 7.24154C226.462 5.50821 231.489 5.50821 233.694 7.37487C235.369 8.7082 235.193 9.1082 231.401 15.5082C226.726 23.3749 226.374 27.9082 230.254 31.1082C235.458 35.6415 242.072 26.3082 241.278 15.6415C240.926 10.0415 240.926 9.90821 244.101 8.57487C245.864 7.90821 247.981 7.24154 248.775 7.24154C250.715 7.24154 251.685 4.7082 250.451 2.84154C249.657 1.64154 248.069 1.90821 243.924 3.50821C238.985 5.50821 238.28 5.50821 236.869 3.50821C234.576 0.44154 226.374 -0.225128 221.787 2.44154C218.348 4.44154 217.73 4.44154 214.555 2.44154C210.587 -0.0917931 203.619 0.44154 199.562 3.50821C197.005 5.37487 196.564 5.37487 193.83 3.10821C189.773 -0.0917931 185.099 0.0415382 180.336 3.37487L176.456 6.3082L173.722 3.37487C171.605 1.1082 169.929 0.44154 166.137 0.574871C163.491 0.708206 159.963 0.974873 158.464 0.974873C156.876 1.1082 154.407 0.841537 152.908 0.44154C151.497 -0.0917931 149.115 -0.0917931 147.616 0.174873ZM158.464 11.5082C161.639 16.3082 157.406 27.1082 152.996 25.3749C150.086 24.3082 150.174 23.7749 153.349 16.1749C156.083 9.50821 156.788 8.97487 158.464 11.5082ZM67.8004 17.1082C67.8004 19.3749 64.3608 27.2415 63.3907 27.2415C62.0677 27.2415 62.3323 21.1082 63.9198 15.5082C65.2427 10.8415 65.3309 10.7082 66.5657 13.1082C67.2712 14.5749 67.8004 16.4415 67.8004 17.1082ZM19.2936 24.4415C18.3234 27.6415 18.1471 27.6415 17.1769 25.5082C15.9422 23.1082 16.295 16.9749 17.8825 14.0415C19.3818 11.2415 20.6165 20.1749 19.2936 24.4415ZM137.474 15.6415C137.474 19.7749 135.093 24.5749 132.976 24.5749C130.771 24.5749 130.859 23.6415 133.593 17.6415C136.239 11.9082 137.474 11.2415 137.474 15.6415ZM219.494 17.7749C219.494 22.0415 216.672 26.5749 214.644 25.5082C212.615 24.3082 213.056 20.4415 215.702 16.3082C218.348 12.0415 219.494 12.5749 219.494 17.7749ZM33.4046 18.4415C33.4046 23.5082 31.9935 26.0415 31.1116 22.7082C30.406 19.9082 31.3762 13.9082 32.5227 13.9082C33.0519 13.9082 33.4046 15.9082 33.4046 18.4415ZM49.2796 18.5749C49.2796 21.1082 48.9268 23.2415 48.3977 23.2415C47.4275 23.2415 47.2511 19.2415 48.0449 16.0415C48.9268 12.7082 49.2796 13.5082 49.2796 18.5749ZM101.667 16.1749C102.02 17.3749 101.843 20.3082 101.226 22.8415C100.52 26.1749 99.8149 27.2415 98.1392 27.2415C95.4052 27.2415 95.317 23.2415 97.8746 17.7749C99.9031 13.3749 100.873 12.9749 101.667 16.1749ZM117.542 24.7082C114.367 30.0415 113.485 23.9082 116.572 17.5082L118.512 13.2415L118.777 17.6415C118.953 20.5749 118.512 23.1082 117.542 24.7082ZM197.446 18.3082C197.446 23.7749 195.594 28.0415 193.565 26.8415C191.625 25.6415 191.801 21.6415 194.006 17.3749C196.387 12.7082 197.446 12.9749 197.446 18.3082ZM236.692 22.7082C234.928 26.8415 232.9 28.0415 231.577 26.0415C230.871 24.9749 231.489 23.2415 234.046 19.1082C237.221 14.3082 237.574 14.0415 237.839 16.5749C238.015 18.1749 237.486 20.8415 236.692 22.7082ZM82.176 21.3749C81.2941 25.3749 79.2656 27.3749 79.2656 24.0415C79.2656 22.9749 79.7066 20.4415 80.1476 18.4415C81.4705 13.3749 83.3225 16.1749 82.176 21.3749ZM177.867 21.3749C177.69 23.9082 176.985 25.3749 175.926 25.6415C173.192 26.4415 172.663 24.0415 174.604 19.3749C176.632 14.1749 178.396 15.2415 177.867 21.3749Z" fill="black"/>
</svg>
